<svg height="1378" viewBox="0 0 2400 1378" width="2400" xmlns="http://www.w3.org/2000/svg" xmlns:xlink="http://www.w3.org/1999/xlink"><defs><path id="a" d="m0 0h2343v360h-2343z"/><filter id="b" height="107.2%" width="101.1%" x="-.6%" y="-3.6%"><feOffset dx="-2" dy="0" in="SourceAlpha" result="shadowOffsetOuter1"/><feGaussianBlur in="shadowOffsetOuter1" result="shadowBlurOuter1" stdDeviation="4"/><feColorMatrix in="shadowBlurOuter1" type="matrix" values="0 0 0 0 0.885331748   0 0 0 0 0.885331748   0 0 0 0 0.885331748  0 0 0 1 0"/></filter><path id="c" d="m0 46h2343v314h-2343z"/><filter id="d" height="108.3%" width="101.1%" x="-.6%" y="-4.1%"><feOffset dx="-2" dy="0" in="SourceAlpha" result="shadowOffsetOuter1"/><feGaussianBlur in="shadowOffsetOuter1" result="shadowBlurOuter1" stdDeviation="4"/><feColorMatrix in="shadowBlurOuter1" type="matrix" values="0 0 0 0 0.885331748   0 0 0 0 0.885331748   0 0 0 0 0.885331748  0 0 0 1 0"/></filter><path id="e" d="m8 0h864c4.418278 0 8 3.581722 8 8v66c0 4.418278-3.581722 8-8 8h-864c-4.418278 0-8-3.581722-8-8v-66c0-4.418278 3.581722-8 8-8z"/><filter id="f" height="107.3%" width="100.7%" x="-.3%" y="-3.7%"><feGaussianBlur in="SourceAlpha" result="shadowBlurInner1" stdDeviation="2"/><feOffset dx="1" dy="2" in="shadowBlurInner1" result="shadowOffsetInner1"/><feComposite in="shadowOffsetInner1" in2="SourceAlpha" k2="-1" k3="1" operator="arithmetic" result="shadowInnerInner1"/><feColorMatrix in="shadowInnerInner1" type="matrix" values="0 0 0 0 0.843137255   0 0 0 0 0.843137255   0 0 0 0 0.843137255  0 0 0 1 0"/></filter><rect id="g" height="68" rx="8" width="128" x="19" y="19"/><filter id="h" height="123.5%" width="112.5%" x="-5.5%" y="-5.9%"><feOffset dx="1" dy="4" in="SourceAlpha" result="shadowOffsetOuter1"/><feGaussianBlur in="shadowOffsetOuter1" result="shadowBlurOuter1" stdDeviation="2"/><feColorMatrix in="shadowBlurOuter1" type="matrix" values="0 0 0 0 0.121568627   0 0 0 0 0.588235294   0 0 0 0 0.17254902  0 0 0 1 0"/></filter></defs><g fill="none" fill-rule="evenodd"><path d="m0 0h2400v1378h-2400z" fill="#f4f4f4"/><g transform="translate(40 998)"><use fill="#000" filter="url(#b)" xlink:href="#a"/><use fill="#ececec" fill-rule="evenodd" xlink:href="#a"/><use fill="#000" filter="url(#d)" xlink:href="#c"/><use fill="#fff" fill-rule="evenodd" xlink:href="#c"/><g transform="translate(19 8)"><g fill="#3d3d3d" font-size="22"><text font-family="IBMPlexSans-Medium, IBM Plex Sans Medium" letter-spacing=".830968022"><tspan x="793" y="23">Montant en BTC</tspan></text><text font-family="IBMPlexSans-Medium, IBM Plex Sans Medium" letter-spacing=".830968022"><tspan x="1172" y="23">Montant en EUR</tspan></text><text font-family="IBMPlexSans-Medium, IBM Plex Sans Medium" letter-spacing=".830968022"><tspan x="1547" y="23">Mode de paiement</tspan></text><text font-family="IBMPlexSans-Medium, IBM Plex Sans Medium" letter-spacing=".830968022"><tspan x="2151" y="23">Type d'ordre</tspan></text><text font-family="IBMPlexSans, IBM Plex Sans" letter-spacing=".830968"><tspan x="417" y="23">Prix en EUR pour 1 BTC</tspan></text></g><path d="m388 11 8 12h-16z" fill="#565656" transform="matrix(-1 0 0 -1 776 34)"/><text fill="#3d3d3d" font-family="IBMPlexSans-Medium, IBM Plex Sans Medium" font-size="22" letter-spacing=".830968022"><tspan x="0" y="23">Date/Heure</tspan></text></g><g font-family="IBMPlexSans, IBM Plex Sans" font-size="24"><g transform="translate(24 53)"><text fill="#0f0f0f" letter-spacing=".200000003"><tspan x="0" y="25">27 oct. 2019 11:44:05</tspan></text><g letter-spacing=".100000001"><text fill="#0f0f0f"><tspan x="417" y="25">10044.860</tspan> <tspan x="539.628" y="25">8</tspan></text><text><tspan fill="#0f0f0f" x="794" y="25">0.01</tspan> <tspan fill="#d7d7d7" x="844.128" y="25">00</tspan></text><text fill="#0f0f0f"><tspan x="1171" y="25">100.00</tspan></text><text fill="#0f0f0f"><tspan x="1548" y="25">Revolut</tspan></text><text fill="#0f0f0f"><tspan x="2156" y="25">vendre BTC</tspan></text><text fill="#0f0f0f"><tspan x="2155" y="70">vendre BTC</tspan></text><text fill="#0f0f0f"><tspan x="2155" y="115">vendre BTC</tspan></text><text fill="#0f0f0f"><tspan x="2172" y="162">achat BTC</tspan></text><text fill="#0f0f0f"><tspan x="2155" y="207">vendre BTC</tspan></text><text fill="#0f0f0f"><tspan x="2155" y="252">vendre BTC</tspan></text></g></g><g transform="translate(24 99)"><text fill="#0f0f0f" letter-spacing=".200000003"><tspan x="0" y="25">27 oct. 2019 11:09:05</tspan></text><g letter-spacing=".100000001"><text fill="#0f0f0f"><tspan x="417" y="25">10112.8099</tspan></text><text><tspan fill="#0f0f0f" x="794" y="25">0.01</tspan> <tspan fill="#d7d7d7" x="844.128" y="25">00</tspan></text><text fill="#0f0f0f"><tspan x="1171" y="25">100.00</tspan></text><text fill="#0f0f0f"><tspan x="1548" y="25">SEPA</tspan></text></g></g><g transform="translate(24 145)"><text fill="#0f0f0f" letter-spacing=".200000003"><tspan x="0" y="25">27 oct. 2019 10:42:08</tspan></text><g letter-spacing=".100000001"><text fill="#0f0f0f"><tspan x="417" y="25">10009.5840</tspan></text><text><tspan fill="#0f0f0f" x="794" y="25">0.01</tspan> <tspan fill="#d7d7d7" x="844.128" y="25">00</tspan></text><text fill="#0f0f0f"><tspan x="1171" y="25">100.00</tspan></text><text fill="#0f0f0f"><tspan x="1548" y="25">Revolut</tspan></text></g></g><g transform="translate(24 191)"><text fill="#0f0f0f" letter-spacing=".200000003"><tspan x="0" y="25">27 oct. 2019 9:34:07</tspan></text><g letter-spacing=".100000001"><text fill="#0f0f0f"><tspan x="417" y="25">9756.1380</tspan></text><text><tspan fill="#0f0f0f" x="794" y="25">0.01</tspan> <tspan fill="#d7d7d7" x="844.128" y="25">00</tspan></text><text fill="#0f0f0f"><tspan x="1171" y="25">98.00</tspan></text><text fill="#0f0f0f"><tspan x="1548" y="25">SEPA</tspan></text></g></g><g letter-spacing=".100000001" transform="translate(24 235)"><text fill="#0f0f0f"><tspan x="0" y="25">27 oct. 2019 8:41:25</tspan></text><text fill="#0f0f0f"><tspan x="417" y="27">10094.3113</tspan></text><text><tspan fill="#0f0f0f" x="794" y="26">0.01</tspan> <tspan fill="#d7d7d7" x="844.128" y="26">00</tspan></text><g fill="#0f0f0f"><text><tspan x="1171" y="26">101.00</tspan></text><text><tspan x="1548" y="26">SEPA</tspan></text></g></g><g transform="translate(24 281)"><text fill="#0f0f0f" letter-spacing=".200000003"><tspan x="0" y="25">27 oct. 2019 8:23:40</tspan></text><g letter-spacing=".100000001"><text fill="#0f0f0f"><tspan x="417" y="25">9807.4535</tspan></text><text><tspan fill="#0f0f0f" x="794" y="25">0.1</tspan> <tspan fill="#d7d7d7" x="829.628" y="25">000</tspan></text><text fill="#0f0f0f"><tspan x="1171" y="25">981.00</tspan></text><text fill="#0f0f0f"><tspan x="1548" y="25">SEPA</tspan></text></g></g><g transform="translate(24 325)"><text fill="#0f0f0f" letter-spacing=".200000003"><tspan x="0" y="25">27 oct. 2019 8:13:20</tspan></text><g letter-spacing=".100000001"><text fill="#0f0f0f"><tspan x="417" y="25">9807.4535</tspan></text><text><tspan fill="#0f0f0f" x="794" y="25">0.1</tspan> <tspan fill="#d7d7d7" x="829.628" y="25">000</tspan></text><text fill="#0f0f0f"><tspan x="1171" y="25">981.00</tspan></text><text fill="#0f0f0f"><tspan x="1548" y="25">SEPA</tspan></text><text fill="#0f0f0f"><tspan x="2155" y="25">vendre BTC</tspan></text></g></g></g><path d="m2331.5 67.5v17.6360354" stroke="#c1c1c1" stroke-linecap="round" stroke-width="10"/><g stroke="#f8f8f8" stroke-linecap="square"><path d="m2.5 93.5h2321"/><path d="m2.5 138.5h2321"/><path d="m2.5 184.5h2321"/><path d="m2.5 230.5h2321"/><path d="m2.5 276.5h2321"/><path d="m2.5 322h2321"/></g></g><g transform="translate(40 709)"><path d="m0 0h2337v270h-2337z" fill="#fff"/><g stroke-linecap="square"><g stroke="#979797" transform="matrix(-1 0 0 1 2303 42)"><path d="m2135 .4v171.26468"/><path d="m2111.5 160v11.66468"/><path d="m2087.5 160v11.66468"/><path d="m1971.5 160v11.66468"/><path d="m2063.5 160v11.66468"/><path d="m1948.5 160v11.66468"/><path d="m2041.5 160v11.66468"/><path d="m1924.5 160v11.66468"/><path d="m2018.5 160v11.66468"/><path d="m1900.5 160v11.66468"/><path d="m1994.5 160v11.66468"/><path d="m1876.5 160v11.66468"/><path d="m1853.5 160v11.66468"/><path d="m1831.5 160v11.66468"/><path d="m1807.5 160v11.66468"/><path d="m1784.5 160v11.66468"/><path d="m1760.5 160v11.66468"/><path d="m1736.5 160v11.66468"/><path d="m1713.5 160v11.66468"/><path d="m1689.5 160v11.66468"/><path d="m1665.5 160v11.66468"/><path d="m1643.5 160v11.66468"/><path d="m1620.5 160v11.66468"/><path d="m1596.5 160v11.66468"/><path d="m1573.5 160v11.66468"/><path d="m1549.5 160v11.66468"/><path d="m1525.5 160v11.66468"/><path d="m1501.5 160v11.66468"/><path d="m1478.5 160v11.66468"/><path d="m1454.5 160v11.66468"/><path d="m1432.5 160v11.66468"/><path d="m1409.5 160v11.66468"/><path d="m1385.5 160v11.66468"/><path d="m1361.5 160v11.66468"/><path d="m1337.5 160v11.66468"/><path d="m1314.5 160v11.66468"/><path d="m1290.5 160v11.66468"/><path d="m1266.5 160v11.66468"/><path d="m1244.5 160v11.66468"/><path d="m1221.5 160v11.66468"/><path d="m1197.5 160v11.66468"/><path d="m1174.5 160v11.66468"/><path d="m1150.5 160v11.66468"/><path d="m1126.5 160v11.66468"/><path d="m1103.5 160v11.66468"/><path d="m1079.5 160v11.66468"/><path d="m1056.5 160v11.66468"/><path d="m1033.5 160v11.66468"/><path d="m1010.5 160v11.66468"/><path d="m986.5 160v11.66468"/><path d="m962.5 160v11.66468"/><path d="m939.5 160v11.66468"/><path d="m915.5 160v11.66468"/><path d="m891.5 160v11.66468"/><path d="m868.5 160v11.66468"/><path d="m846.5 160v11.66468"/><path d="m822.5 160v11.66468"/><path d="m798.5 160v11.66468"/><path d="m775.5 160v11.66468"/><path d="m751.5 160v11.66468"/><path d="m727.5 160v11.66468"/><path d="m703.5 160v11.66468"/><path d="m681.5 160v11.66468"/><path d="m658.5 160v11.66468"/><path d="m634.5 160v11.66468"/><path d="m611.5 160v11.66468"/><path d="m588.5 160v11.66468"/><path d="m564.5 160v11.66468"/><path d="m540.5 160v11.66468"/><path d="m516.5 160v11.66468"/><path d="m493.5 160v11.66468"/><path d="m471.5 160v11.66468"/><path d="m447.5 160v11.66468"/><path d="m424.5 160v11.66468"/><path d="m400.5 160v11.66468"/><path d="m376.5 160v11.66468"/><path d="m352.5 160v11.66468"/><path d="m329.5 160v11.66468"/><path d="m305.5 160v11.66468"/><path d="m283.5 160v11.66468"/><path d="m260.5 160v11.66468"/><path d="m236.5 160v11.66468"/><path d="m212.5 160v11.66468"/><path d="m188.5 160v11.66468"/><path d="m165.5 160v11.66468"/><path d="m141.5 160v11.66468"/><path d="m118.5 160v11.66468"/><path d="m94.5 160v11.66468"/><path d="m72.5 160v11.66468"/><path d="m48.5 160v11.66468"/><path d="m25.5 160v11.66468"/><path d="m.5 160v11.66468"/></g><g stroke="#efefef" stroke-dasharray="10 10" stroke-width="2" transform="matrix(0 1 -1 0 2302 42)"><path d="m1 0v2134"/><path d="m40 0v2134"/><path d="m79 0v2134"/><path d="m119 0v2134"/></g><path d="m152.5 199h2149.61073" stroke="#979797"/><g stroke="#979797" stroke-width="2" transform="translate(152 81)"><path d="m.5.85800604h13.741799"/><path d="m7.37089951 10.858006h6.87089949"/><path d="m7.37089951 20.858006h6.87089949"/><path d="m7.37089951 30.858006h6.87089949"/></g><g stroke="#979797" stroke-width="2" transform="translate(152 42)"><path d="m.5.85800604h13.741799"/><path d="m7.37089951 10.858006h6.87089949"/><path d="m7.37089951 20.858006h6.87089949"/><path d="m7.37089951 30.858006h6.87089949"/></g><g stroke="#979797" stroke-width="2" transform="translate(152 120)"><path d="m.5.85800604h13.741799"/><path d="m7.37089951 10.858006h6.87089949"/><path d="m7.37089951 20.858006h6.87089949"/><path d="m7.37089951 30.858006h6.87089949"/></g><g stroke="#979797" stroke-width="2" transform="translate(152 159)"><path d="m.5.85800604h13.741799"/><path d="m7.37089951 10.858006h6.87089949"/><path d="m7.37089951 20.858006h6.87089949"/><path d="m7.37089951 30.858006h6.87089949"/></g></g><g fill="#c7c7c7" font-family="IBMPlexSans-Medium, IBM Plex Sans Medium" font-size="17" transform="translate(102 32)"><text letter-spacing=".300000012"><tspan x="0" y="17">10.00</tspan></text><text letter-spacing=".300000012"><tspan x="10" y="54">7.50</tspan></text><g letter-spacing=".5"><text><tspan x="9" y="95">5.0</tspan> <tspan x="35.83" y="95">0</tspan></text><text><tspan x="11" y="132">2.50</tspan></text><text><tspan x="9" y="173">0.0</tspan> <tspan x="35.83" y="173">0</tspan></text></g></g><g fill="#b6b6b6" font-family="IBMPlexSans-Medium, IBM Plex Sans Medium" font-size="18" transform="translate(122 218)"><text letter-spacing="-.680000007"><tspan x="0" y="18">05 févr. 2018</tspan></text><g letter-spacing="-.779999971"><text><tspan x="465" y="18">25 juil. 201</tspan> <tspan x="548.646" y="18">8</tspan></text><text><tspan x="933" y="18">12 nov. 201</tspan> <tspan x="1020.972" y="18">8</tspan></text><text><tspan x="1409" y="18">01 avr. 201</tspan> <tspan x="1492.526" y="18">9</tspan></text><text><tspan x="1870" y="18">19 août 201</tspan> <tspan x="1960.96" y="18">9</tspan></text></g></g><text fill="#000" font-family="IBMPlexSans-Medium, IBM Plex Sans Medium" font-size="19" letter-spacing=".550000012" transform="matrix(0 -1 1 0 67 186)"><tspan x="0" y="19">Volume en BTC</tspan></text><g fill="#abe9c2"><path d="m184 173h13v24h-13z"/><path d="m207 169h14v28h-14z"/><path d="m231 133h14v63h-14z"/><path d="m255 131h14v65h-14z"/><path d="m277 141h14v55h-14z"/><path d="m301 170h14v26h-14z"/><path d="m324 131h14v65h-14z"/><path d="m347 130h14v66h-14z"/><path d="m371 148h14v48h-14z"/><path d="m394 153h14v43h-14z"/><path d="m418 138h14v58h-14z"/><path d="m442 135h14v61h-14z"/><path d="m465 110h14v86h-14z"/><path d="m488 144h14v52h-14z"/><path d="m512 150h14v46h-14z"/><path d="m535 148h14v48h-14z"/><path d="m559 128h14v68h-14z"/><path d="m582 102h14v94h-14z"/><path d="m606 86h14v110h-14z"/><path d="m630 133h14v63h-14z"/><path d="m652 141h14v55h-14z"/><path d="m676 143h14v53h-14z"/><path d="m700 154h14v42h-14z"/><path d="m723 168h14v28h-14z"/><path d="m746 168h14v28h-14z"/><path d="m770 173h14v23h-14z"/><path d="m793 171h14v25h-14z"/><path d="m817 182h14v14h-14z"/><path d="m840 164h14v32h-14z"/><path d="m864 171h14v25h-14z"/><path d="m886 162h14v34h-14z"/><path d="m910 142h14v54h-14z"/><path d="m934 177h14v19h-14z"/><path d="m958 160h14v36h-14z"/><path d="m981 157h14v39h-14z"/><path d="m1004 159h14v37h-14z"/><path d="m1027 153h14v43h-14z"/><path d="m1051 149h14v47h-14z"/><path d="m1074 152h14v44h-14z"/><path d="m1098 137h14v59h-14z"/><path d="m1121 107h14v89h-14z"/><path d="m1145 159h14v37h-14z"/><path d="m1169 115h14v81h-14z"/><path d="m1193 134h14v62h-14z"/><path d="m1215 115h14v81h-14z"/><path d="m1239 108h14v88h-14z"/><path d="m1262 114h14v82h-14z"/><path d="m1285 128h14v68h-14z"/><path d="m1309 106h14v90h-14z"/><path d="m1333 100h14v96h-14z"/><path d="m1356 79h14v117h-14z"/><path d="m1379 119h14v77h-14z"/><path d="m1403 120h14v76h-14z"/><path d="m1427 114h14v82h-14z"/><path d="m1661 148h14v48h-14z"/><path d="m1896 158h14v38h-14z"/><path d="m1449 63h14v133h-14z"/><path d="m1684 125h14v71h-14z"/><path d="m1918 172h14v24h-14z"/><path d="m1473 109h14v87h-14z"/><path d="m1708 148h14v48h-14z"/><path d="m1942 172h14v24h-14z"/><path d="m1497 114h14v82h-14z"/><path d="m1731 161h14v35h-14z"/><path d="m1967 163h14v33h-14z"/><path d="m1521 82h14v114h-14z"/><path d="m1755 172h14v24h-14z"/><path d="m1990 136h14v60h-14z"/><path d="m1544 100h14v96h-14z"/><path d="m1778 153h14v43h-14z"/><path d="m2013 150h14v46h-14z"/><path d="m1567 119h14v77h-14z"/><path d="m1801 145h14v51h-14z"/><path d="m2036 148h14v48h-14z"/><path d="m1591 130h14v66h-14z"/><path d="m1825 155h14v41h-14z"/><path d="m2060 169h14v27h-14z"/><path d="m1615 120h14v76h-14z"/><path d="m1849 158h14v38h-14z"/><path d="m2083 162h14v34h-14z"/><path d="m1637 125h14v71h-14z"/><path d="m1872 172h14v24h-14z"/><path d="m2107 159h14v37h-14z"/><path d="m2130 154h14v42h-14z"/><path d="m2154 146h14v50h-14z"/><path d="m2177 136h14v60h-14z"/><path d="m2201 138h14v58h-14z"/><path d="m2224 154h14v42h-14z"/><path d="m2247 151h14v45h-14z"/></g></g><g transform="translate(40 334)"><path d="m0 0h2337v363h-2337z" fill="#fff"/><g stroke="#979797" stroke-linecap="square" transform="matrix(-1 0 0 1 2303 46)"><path d="m2135 0v261.58085"/><path d="m2111.5 247v14.58085"/><path d="m2087.5 247v14.58085"/><path d="m1971 247v14.58085"/><path d="m2063.5 247v14.58085"/><path d="m1948 247v14.58085"/><path d="m2041.5 247v14.58085"/><path d="m1924 247v14.58085"/><path d="m2018.5 247v14.58085"/><path d="m1900 247v14.58085"/><path d="m1994.5 247v14.58085"/><path d="m1876 247v14.58085"/><path d="m1853.5 247v14.58085"/><path d="m1831.5 247v14.58085"/><path d="m1807.5 247v14.58085"/><path d="m1784.5 247v14.58085"/><path d="m1760.5 247v14.58085"/><path d="m1736.5 247v14.58085"/><path d="m1713.5 247v14.58085"/><path d="m1689.5 247v14.58085"/><path d="m1665.5 247v14.58085"/><path d="m1643.5 247v14.58085"/><path d="m1620.5 247v14.58085"/><path d="m1596.5 247v14.58085"/><path d="m1573.5 247v14.58085"/><path d="m1549.5 247v14.58085"/><path d="m1525.5 247v14.58085"/><path d="m1501.5 247v14.58085"/><path d="m1478.5 247v14.58085"/><path d="m1454.5 247v14.58085"/><path d="m1432.5 247v14.58085"/><path d="m1409.5 247v14.58085"/><path d="m1385.5 247v14.58085"/><path d="m1361.5 247v14.58085"/><path d="m1337.5 247v14.58085"/><path d="m1314.5 247v14.58085"/><path d="m1290.5 247v14.58085"/><path d="m1266.5 247v14.58085"/><path d="m1244.5 247v14.58085"/><path d="m1221.5 247v14.58085"/><path d="m1197.5 247v14.58085"/><path d="m1174.5 247v14.58085"/><path d="m1150.5 247v14.58085"/><path d="m1126.5 247v14.58085"/><path d="m1103.5 247v14.58085"/><path d="m1079.5 247v14.58085"/><path d="m1056.5 247v14.58085"/><path d="m1033.5 247v14.58085"/><path d="m1010.5 247v14.58085"/><path d="m986.5 247v14.58085"/><path d="m962.5 247v14.58085"/><path d="m939.5 247v14.58085"/><path d="m915.5 247v14.58085"/><path d="m891.5 247v14.58085"/><path d="m868.5 247v14.58085"/><path d="m846.5 247v14.58085"/><path d="m822.5 247v14.58085"/><path d="m798.5 247v14.58085"/><path d="m775.5 247v14.58085"/><path d="m751.5 247v14.58085"/><path d="m727.5 247v14.58085"/><path d="m704 247v14.58085"/><path d="m681.5 247v14.58085"/><path d="m658.5 247v14.58085"/><path d="m634.5 247v14.58085"/><path d="m611.5 247v14.58085"/><path d="m588.5 247v14.58085"/><path d="m564.5 247v14.58085"/><path d="m540.5 247v14.58085"/><path d="m516.5 247v14.58085"/><path d="m493.5 247v14.58085"/><path d="m471.5 247v14.58085"/><path d="m447.5 247v14.58085"/><path d="m424.5 247v14.58085"/><path d="m400.5 247v14.58085"/><path d="m376.5 247v14.58085"/><path d="m352.5 247v14.58085"/><path d="m329.5 247v14.58085"/><path d="m305.5 247v14.58085"/><path d="m283.5 247v14.58085"/><path d="m260.5 247v14.58085"/><path d="m236.5 247v14.58085"/><path d="m212.5 247v14.58085"/><path d="m188.5 247v14.58085"/><path d="m165.5 247v14.58085"/><path d="m141.5 247v14.58085"/><path d="m118.5 247v14.58085"/><path d="m94.5 247v14.58085"/><path d="m72.5 247v14.58085"/><path d="m48.5 247v14.58085"/><path d="m25.5 247v14.58085"/><path d="m1 247v14.58085"/></g><g stroke="#efefef" stroke-dasharray="10 10" stroke-linecap="square" stroke-width="2" transform="matrix(0 1 -1 0 2302 45)"><path d="m1 0v2134"/><path d="m50 0v2134"/><path d="m100 0v2134"/><path d="m149 0v2134"/><path d="m198 0v2134"/></g><path d="m152.5 293h2149.61073" stroke="#979797" stroke-linecap="square"/><g stroke="#979797" stroke-linecap="square" stroke-width="2" transform="translate(152 45)"><path d="m.5.85800604h13.741799"/><path d="m7.37089951 10.858006h6.87089949"/><path d="m7.37089951 20.858006h6.87089949"/><path d="m7.37089951 30.858006h6.87089949"/><path d="m7.37089951 40.858006h6.87089949"/></g><g stroke="#979797" stroke-linecap="square" stroke-width="2" transform="translate(152 94)"><path d="m.5.85800604h13.741799"/><path d="m7.37089951 10.858006h6.87089949"/><path d="m7.37089951 20.858006h6.87089949"/><path d="m7.37089951 30.858006h6.87089949"/><path d="m7.37089951 40.858006h6.87089949"/></g><g stroke="#979797" stroke-linecap="square" stroke-width="2" transform="translate(152 144)"><path d="m.5.85800604h13.741799"/><path d="m7.37089951 10.858006h6.87089949"/><path d="m7.37089951 20.858006h6.87089949"/><path d="m7.37089951 30.858006h6.87089949"/><path d="m7.37089951 40.858006h6.87089949"/></g><g stroke="#979797" stroke-linecap="square" stroke-width="2" transform="translate(152 193)"><path d="m.5.85800604h13.741799"/><path d="m7.37089951 10.858006h6.87089949"/><path d="m7.37089951 20.858006h6.87089949"/><path d="m7.37089951 30.858006h6.87089949"/><path d="m7.37089951 40.858006h6.87089949"/></g><g stroke="#979797" stroke-linecap="square" stroke-width="2" transform="translate(152 243)"><path d="m.5.85800604h13.741799"/><path d="m7.37089951 10.858006h6.87089949"/><path d="m7.37089951 20.858006h6.87089949"/><path d="m7.37089951 30.858006h6.87089949"/><path d="m7.37089951 40.858006h6.87089949"/></g><g fill="#c7c7c7" font-family="IBMPlexSans-Medium, IBM Plex Sans Medium" font-size="17" transform="translate(48 35)"><g letter-spacing=".300000012"><text><tspan x="0" y="17">15000.0000</tspan></text><text><tspan x="0" y="66">12500.0000</tspan></text><text><tspan x="0" y="115">10000.0000</tspan></text></g><text letter-spacing=".5"><tspan x="10" y="164">7500.000</tspan> <tspan x="90.33" y="164">0</tspan></text><text letter-spacing=".5"><tspan x="9" y="215">5000.000</tspan> <tspan x="89.33" y="215">0</tspan></text><text letter-spacing=".5"><tspan x="10" y="264">2500.000</tspan> <tspan x="90.33" y="264">0</tspan></text></g><g fill="#b6b6b6" font-family="IBMPlexSans-Medium, IBM Plex Sans Medium" font-size="18" transform="translate(122 312)"><text letter-spacing="-.680000007"><tspan x="0" y="18">05 févr. 2018</tspan></text><g letter-spacing="-.779999971"><text><tspan x="465" y="18">25 juil. 201</tspan> <tspan x="548.646" y="18">8</tspan></text><text><tspan x="933" y="18">12 nov. 201</tspan> <tspan x="1020.972" y="18">8</tspan></text><text><tspan x="1409" y="18">01 avr. 201</tspan> <tspan x="1492.526" y="18">9</tspan></text><text><tspan x="1870" y="18">19 août 201</tspan> <tspan x="1960.96" y="18">9</tspan></text></g></g><text fill="#000" font-family="IBMPlexSans-Medium, IBM Plex Sans Medium" font-size="19" letter-spacing=".550000012" transform="matrix(0 -1 1 0 13 270)"><tspan x="0" y="19">Prix en EUR pour 1 BTC</tspan></text><path d="m183 115h15v66h-15z" fill="#00b209"/><path d="m207 124h15v30h-15z" fill="#ff2c00"/><g fill="#00b209"><path d="m230 118h15v30h-15z"/><path d="m371 181h15v22h-15z"/><path d="m394 174h15v11h-15z"/><path d="m417 152h15v14h-15z"/><path d="m441 155h15v10h-15z"/><path d="m488 172h15v10h-15z"/><path d="m534 191h15v10h-15z"/><path d="m628 219h15v8h-15z"/><path d="m652 209h15v8h-15z"/><path d="m699 194h15v22h-15z"/><path d="m793 222h15v8h-15z"/><path d="m839 195h15v15h-15z"/><path d="m886 216h15v9h-15z"/><path d="m910 209h15v9h-15z"/><path d="m934 205h15v9h-15z"/><path d="m957 211h15v9h-15z"/><path d="m1027 213h15v9h-15z"/><path d="m1050 216h15v7h-15z"/><path d="m1145 259h15v9h-15z"/><path d="m1215 262h15v9h-15z"/><path d="m1261 262h15v8h-15z"/><path d="m1308 270h15v9h-15z"/><path d="m1333 271h15v9h-15z"/><path d="m1356 272h15v11h-15z"/><path d="m1379 272h15v8h-15z"/><path d="m1425 268h15v8h-15z"/><path d="m1471 264h15v8h-15z"/><path d="m1497 261h15v9h-15z"/><path d="m1520 263h15v9h-15z"/><path d="m1543 260h15v9h-15z"/><path d="m1566 233h15v26h-15z"/><path d="m1590 236h15v8h-15z"/><path d="m1660 229h15v11h-15z"/><path d="m1684 202h15v27h-15z"/><path d="m1707 189h15v13h-15z"/><path d="m1731 169h15v20h-15z"/><path d="m1801 144h15v45h-15z"/><path d="m1824 133h15v29h-15z"/><path d="m1847 123h15v10h-15z"/><path d="m1966 113h15v30h-15z"/><path d="m2083 138h15v8h-15z"/><path d="m2176 180h15v8h-15z"/><path d="m2200 178h15v8h-15z"/><path d="m2247 143h15v25h-15z"/></g><path d="m253 115h15v40h-15z" fill="#ff2c00"/><path d="m277 159h15v22h-15z" fill="#ff2c00"/><path d="m300 170h15v11h-15z" fill="#ff2c00"/><path d="m324 185h15v11h-15z" fill="#ff2c00"/><path d="m348 194h15v9h-15z" fill="#ff2c00"/><path d="m464 155h15v17h-15z" fill="#ff2c00"/><path d="m511 174h15v27h-15z" fill="#ff2c00"/><path d="m558 194h15v14h-15z" fill="#ff2c00"/><path d="m582 208h15v9h-15z" fill="#ff2c00"/><path d="m605 214h15v9h-15z" fill="#ff2c00"/><path d="m675 210h15v9h-15z" fill="#ff2c00"/><path d="m722 190h15v15h-15z" fill="#ff2c00"/><path d="m746 182h15v9h-15z" fill="#ff2c00"/><path d="m769 192h15v25h-15z" fill="#ff2c00"/><path d="m816 202h15v9h-15z" fill="#ff2c00"/><path d="m863 197h15v17h-15z" fill="#ff2c00"/><path d="m980 211h15v8h-15z" fill="#ff2c00"/><path d="m1006 214h15v8h-15z" fill="#ff2c00"/><path d="m1074 215h15v8h-15z" fill="#ff2c00"/><path d="m1168 262h15v8h-15z" fill="#ff2c00"/><path d="m1191 271h15v8h-15z" fill="#ff2c00"/><path d="m1238 260h15v6h-15z" fill="#ff2c00"/><path d="m1285 263h15v9h-15z" fill="#ff2c00"/><path d="m1402 271h15v8h-15z" fill="#ff2c00"/><path d="m1448 268h15v8h-15z" fill="#ff2c00"/><path d="m1614 238h15v8h-15z" fill="#ff2c00"/><path d="m1636 238h15v8h-15z" fill="#ff2c00"/><path d="m1754 168h15v8h-15z" fill="#ff2c00"/><path d="m1871 125h15v8h-15z" fill="#ff2c00"/><path d="m1894 110h15v29h-15z" fill="#ff2c00"/><path d="m1918 129h15v10h-15z" fill="#ff2c00"/><path d="m1942 133h15v20h-15z" fill="#ff2c00"/><path d="m2012 115h15v27h-15z" fill="#ff2c00"/><path d="m2035 85h15v49h-15z" fill="#ff2c00"/><path d="m2058 133h15v10h-15z" fill="#ff2c00"/><path d="m2106 135h15v7h-15z" fill="#ff2c00"/><path d="m2129 138h15v9h-15z" fill="#ff2c00"/><path d="m2153 144h15v39h-15z" fill="#ff2c00"/><path d="m2223 177h15v7h-15z" fill="#ff2c00"/><path d="m1989 115h15v8h-15z" fill="#ff2c00"/><path d="m1778 166h15v25h-15z" fill="#ff2c00"/><path d="m1098 215h15v13h-15z" fill="#ff2c00"/><path d="m1121 235h15v27h-15z" fill="#ff2c00"/><g stroke-linecap="square" stroke-width="2" transform="translate(190 51)"><g stroke="#00b209"><path d="m2064.5 88.5v56.856923"/><path d="m2017.5 88v45.356923"/><path d="m1994.5 99v36.356923"/><path d="m1900.5 62v35"/><path d="m1783.5 61v43"/><path d="m1665.5.33874846v114.66125154"/><path d="m1642.5 47.1691217v105.8308783"/><path d="m1618.5 79.5v84.5"/><path d="m1548.5 114v41"/><path d="m1525.5 124v26"/><path d="m1502.5 131v48"/><path d="m1478.5 160v32"/><path d="m1407.5 174.784885v17.215115"/><path d="m1383.5 179.784885v33.215115"/><path d="m1360.5 184.5v30.5"/><path d="m1337.5 187.829219v31.170781"/><path d="m1313.5 189.114476v28.885524"/><path d="m1289.5 204.734284v15.265716"/><path d="m1242.5 204.734284v15.265716"/><path d="m1196.5 215v10"/><path d="m1173 218v8"/><path d="m1149.5 215v11"/><path d="m1126 212.367142v9.632858"/><path d="m1078.5 209.719101v12.280899"/><path d="m1032.5 202v20"/><path d="m962.5 198v20"/><path d="m867.5 153v20"/><path d="m844.5 149v23.25"/><path d="m774.5 148v20"/><path d="m751.5 146v15"/><path d="m727.5 146v15"/><path d="m704.5 150v18"/><path d="m657.5 135v18"/><path d="m609.5 153.5v21.5"/><path d="m516.5 139.5v26.5"/><path d="m469.5 151v17"/><path d="m446.5 161v17"/><path d="m352.5 133.356923v18.643077"/><path d="m305.5 106v28"/><path d="m258.5 89v28"/><path d="m235.5 99v28"/><path d="m211.5 114v25.5"/><path d="m188.5 126v42"/><path d="m47.5 54v42"/><path d="m.5 62v69"/></g><path d="m2040.5 102v30.356923" stroke="#ff2c00"/><path d="m1970.5 70v70.640425" stroke="#ff2c00"/><path d="m1947.5 71v25" stroke="#ff2c00"/><path d="m1924.5 26v70" stroke="#ff2c00"/><path d="m1829.5 22v87" stroke="#ff2c00"/><path d="m1852.5 33v73" stroke="#ff2c00"/><path d="m1875.5 65.5v38.5" stroke="#ff2c00"/><path d="m1806.5 43v49" stroke="#ff2c00"/><path d="m1759.5 67.5v38.5" stroke="#ff2c00"/><path d="m1736.5 64.5v39.5" stroke="#ff2c00"/><path d="m1712.5 17v76" stroke="#ff2c00"/><path d="m1689.5 48.5881039v48.4118961" stroke="#ff2c00"/><path d="m1594.5 113.588104v48.411896" stroke="#ff2c00"/><path d="m1571.5 65.5v84.5" stroke="#ff2c00"/><path d="m1454.5 176v17" stroke="#ff2c00"/><path d="m1431.5 169.350435v27.649565" stroke="#ff2c00"/><path d="m1265.5 207.77179v16.22821" stroke="#ff2c00"/><path d="m1219.5 215v12" stroke="#ff2c00"/><path d="m1008.5 204.734284v22.265716" stroke="#ff2c00"/><path d="m985.5 207.77179v20.22821" stroke="#ff2c00"/><path d="m938.5 182v35" stroke="#ff2c00"/><path d="m915 160v24.5" stroke="#ff2c00"/><path d="m891.5 157v13.549734" stroke="#ff2c00"/><path d="m823.5 151v17.549734" stroke="#ff2c00"/><path d="m798.5 153v17.549734" stroke="#ff2c00"/><path d="m680.5 144v28.25" stroke="#ff2c00"/><path d="m634.5 150v34" stroke="#ff2c00"/><path d="m587.5 141v34" stroke="#ff2c00"/><path d="m563.5 115v36" stroke="#ff2c00"/><path d="m540.5 95v57" stroke="#ff2c00"/><path d="m492.5 157v15" stroke="#ff2c00"/><path d="m423.5 157v17.784885" stroke="#ff2c00"/><path d="m399.5 150v17.784885" stroke="#ff2c00"/><path d="m376.5 127.5v32.284885" stroke="#ff2c00"/><path d="m328.5 122.5v38.125" stroke="#ff2c00"/><path d="m282.5 96.5v38.125" stroke="#ff2c00"/><path d="m165.5 139.5v27.125" stroke="#ff2c00"/><path d="m141.5 113.588104v48.411896" stroke="#ff2c00"/><path d="m117.5 102.588104v26.357893" stroke="#ff2c00"/><path d="m94.5 100.588104v42.090357" stroke="#ff2c00"/><path d="m70.5 46.5881039v85.7688191" stroke="#ff2c00"/><path d="m24 53.5881039v57.0903571" stroke="#ff2c00"/><path d="m1055.5 206v16" stroke="#ff2c00"/><path d="m1102.5 199.75v22.25" stroke="#ff2c00"/></g><path d="m192 153.974938 44.354456-27.844313 47.717085 50.453046 23.136285-5.251193 28.244375 24.513807c12.330612 7.034741 22.766218 9.571321 31.306819 7.609741 8.5406-1.96158 13.620927-3.809031 15.24098-5.542355 27.227327-27.435174 47.893994-41.152761 62-41.152761 21.15901 0 68.630436 30.337916 72.206456 32.165158 3.57602 1.827241 19.878534 3.53441 24.845493 3.53441 3.311305 0 6.684827 1.817731 10.120564 5.453193h14.903253l22.924234 15.149342 47.332432 7.955694 24.056105-7.955694 21.742629 3.95407 28.656902-21.170798 18.182064-17.729118 23.823093 12.468516 23.474763 20.551415 24.36758 5.879985 22.271662-3.95407 25.09277-9.606987h25.01074l21.288494 9.606987h21.700766l26.278294-1.925915h21.821093l24.579192 4.179949h11.321421l11.71704-2.254034h20.31721l24.06086 2.254034h26.01056l22.25264 8.330177 17.35582 19.402999 7.96283 8.293323 23.21797 11.562623 43.78603 10.802956 26.624-6.700282h79.45707l14.74514 4.387996h24.17498l20.73093 2.312286h23.83142l23.15615-2.312286 24.39136-6.557622 18.54347 2.169626 29.06586-2.169626 20.59866-1.933048h25.34393 22.93146l23.60316-17.525826 22.60453-7.099732h20.78205l18.83474-3.551054h26.9747l25.28298-15.749705 22.34537-26.519374 4.64122-5.374729 23.77673-2.157738 22.87913-12.281869 22.7389 12.281869 24.67073-12.281869 22.9386-20.919954 2.65177-8.831866 21.37461-31.412625 23.41176 10.522391 22.21363-10.522391 23.28433 24.975076 24.71567 6.437549 23-3.186082 23.26024-26.026007 22.73976 19.206842 47.42893 6.819165 24.00974-6.819165 45.92713 3.567698 24.6342 33.248188 23.49227 6.87871 22.93147-2.235115 22.57626 5.516201 24.4874-1.74759" stroke="#00b300"/></g><g transform="translate(40 245)"><path d="m485 76h-484.5" stroke="#979797" stroke-linecap="square" stroke-width="2"/><text fill="#000" font-family="IBMPlexSans-Medium, IBM Plex Sans Medium" font-size="19" letter-spacing=".400000006"><tspan x="0" y="19">Devise</tspan></text><rect fill="#fff" height="48" rx="6" width="485" y="26"/><text fill="#000" font-family="IBMPlexSans-Medium, IBM Plex Sans Medium" font-size="28" letter-spacing=".5894738"><tspan x="8" y="62">EUR - euro</tspan></text><g stroke="#979797" stroke-linecap="square" stroke-width="2" transform="translate(456 51)"><path d="m13 0-6 6"/><path d="m0 0 7 6"/></g></g><g transform="translate(0 148)"><g font-family="IBMPlexSans-Medium, IBM Plex Sans Medium" font-size="20" letter-spacing=".400000006"><text fill="#838383"><tspan x="40" y="20">LIVRE DES ORDRES</tspan></text><text fill="#838383"><tspan x="288" y="20">ÉCART</tspan></text><text fill="#29b238"><tspan x="414" y="20">ÉCHANGES</tspan></text></g><path d="m0 60.5h2400" stroke="#e2e2e2" stroke-linecap="square" stroke-width="2"/><path d="m401 60.5h131" stroke="#24b134" stroke-linecap="square" stroke-width="2"/></g><g transform="translate(843 -5)"><path d="m0 5h1556v110h-1556z" fill="#26a435"/><path d="m.5 1.03636364v112.16258036" stroke="#179e27" stroke-linecap="square" stroke-width="2"/><path d="m1556.50976 114.227051h-1556.0195207" stroke="#179e27" stroke-linecap="square" stroke-width="2"/><g transform="translate(665 19)"><use fill="#f2f2f2" fill-rule="evenodd" xlink:href="#e"/><use fill="#000" filter="url(#f)" xlink:href="#e"/></g><g transform="translate(1390 30)"><text fill="#4f4f4f" font-family="IBMPlexSans, IBM Plex Sans" font-size="24" letter-spacing=".769999981"><tspan x="31" y="27">1.09 BT</tspan> <tspan x="120.582" y="27">C</tspan></text><text fill="#909090" font-family="IBMPlexSans-Light, IBM Plex Sans Light" font-size="17" letter-spacing="-.150000006"><tspan x="31" y="51">Vérouillé</tspan></text><path d="m.5 0v58" stroke="#d5e0d6" stroke-linecap="square" stroke-width="2"/></g><g transform="translate(1222 30)"><text fill="#4f4f4f" font-family="IBMPlexSans, IBM Plex Sans" font-size="24" letter-spacing=".769999981"><tspan x="31" y="27">0.56 BT</tspan> <tspan x="120.582" y="27">C</tspan></text><text fill="#909090" font-family="IBMPlexSans-Light, IBM Plex Sans Light" font-size="17" letter-spacing="-.150000006"><tspan x="31" y="51">Réservé</tspan></text><path d="m.5 0v58" stroke="#d5e0d6" stroke-linecap="square" stroke-width="2"/></g><g transform="translate(1034 30)"><path d="m.5 0v58" stroke="#d5e0d6" stroke-linecap="square" stroke-width="2"/><text fill="#4f4f4f" font-family="IBMPlexSans, IBM Plex Sans" font-size="24" letter-spacing=".769999981"><tspan x="21" y="27">1.42 BT</tspan> <tspan x="110.582" y="27">C</tspan></text><text fill="#909090" font-family="IBMPlexSans-Light, IBM Plex Sans Light" font-size="17" letter-spacing="-.150000006"><tspan x="21" y="51">Solde disponible</tspan></text></g><g transform="translate(686 34)"><text fill="#4f4f4f" font-family="IBMPlexSans, IBM Plex Sans" font-size="24" letter-spacing="-.23"><tspan x="0" y="25">BTC/EUR: 9236.5</tspan> <tspan letter-spacing="-1.2" x="191.958" y="25">0</tspan></text><g stroke-linecap="square" stroke-width="2" transform="translate(309 14)"><path d="m13 0-6 6" stroke="#b2b2b2"/><path d="m0 0 7 6" stroke="#b6b6b6"/></g><text fill="#909090" font-family="IBMPlexSans-Light, IBM Plex Sans Light" font-size="17" letter-spacing="-.150000006"><tspan x="0" y="47">Prix du marché par BitcoinAverage</tspan></text></g><g fill="#cee9d0" font-family="IBMPlexSans-Medium, IBM Plex Sans Medium" font-size="18" letter-spacing=".300000012"><text><tspan x="415" y="66">Compte</tspan></text><text><tspan x="564" y="66">DAO</tspan></text><text><tspan x="221" y="66">Paramètres</tspan></text><text><tspan x="69" y="66">Assistance</tspan></text></g></g><path d="m0 0h844v110h-844v-58.5104658z" fill="#24b134"/><path d="m844.5 1v108.227051" stroke="#179e27" stroke-linecap="square" stroke-width="2"/><path d="m844 110-843.28633218-.772949" stroke="#179e27" stroke-linecap="square" stroke-width="2"/><g fill="#cee9d0" font-family="IBMPlexSans-Bold, IBM Plex Sans" font-size="20" font-weight="bold" letter-spacing=".300000012"><text><tspan x="739" y="62">FONDS</tspan></text><text><tspan x="565" y="62">PORTFOLI</tspan> <tspan x="664.1" y="62">O</tspan></text><text><tspan x="342" y="62">VENDRE DES BTC</tspan></text><text><tspan x="188" y="62">ACHAT BTC</tspan></text></g><use fill="#000" filter="url(#h)" xlink:href="#g"/><use fill="#fcfcfc" fill-rule="evenodd" xlink:href="#g"/><text fill="#24b134" font-family="IBMPlexSans-Bold, IBM Plex Sans" font-size="20" font-weight="bold" letter-spacing=".400000006"><tspan x="41" y="62">MARCHÉ</tspan></text><path d="m319 35v17.6499826 21.3500174" stroke="#5bc767" stroke-linecap="square" stroke-width="2"/><path d="m535.5 33v39" stroke="#5bc767" stroke-linecap="square" stroke-width="2"/><path d="m705 35v39" stroke="#5bc767" stroke-linecap="square" stroke-width="2"/><g transform="translate(1713 242)"><text fill="#000" font-family="IBMPlexSans-Medium, IBM Plex Sans Medium" font-size="19" letter-spacing="-.600000024"><tspan x="1" y="19">Intervalle</tspan></text><rect fill="#fff" height="57" rx="7" stroke="#e4e4e4" width="663" x=".5" y="24.5"/><text fill="#000" font-family="IBMPlexSans-Medium, IBM Plex Sans Medium" font-size="24" letter-spacing=".300000012"><tspan x="20" y="61">Année</tspan></text><text fill="#000" font-family="IBMPlexSans-Medium, IBM Plex Sans Medium" font-size="24" letter-spacing="-.400000006"><tspan x="129" y="61">Mois</tspan></text><path d="m193 25h136v57h-136z" fill="#7c7c7c"/><text fill="#fff" font-family="IBMPlexSans-Medium, IBM Plex Sans Medium" font-size="24" letter-spacing="-.400000006"><tspan x="211" y="62">Semaine</tspan></text><text fill="#000" font-family="IBMPlexSans-Medium, IBM Plex Sans Medium" font-size="24" letter-spacing="-.400000006"><tspan x="347" y="61">Jour</tspan></text><text fill="#000" font-family="IBMPlexSans-Medium, IBM Plex Sans Medium" font-size="24" letter-spacing="-.400000006"><tspan x="431" y="61">Heure</tspan></text><text fill="#000" font-family="IBMPlexSans-Medium, IBM Plex Sans Medium" font-size="24" letter-spacing="-.400000006"><tspan x="526" y="61">10 Minutes</tspan></text><g stroke="#979797" stroke-linecap="square"><path d="m111.5 26.5v53"/><path d="m193.5 26.5v53"/><path d="m328.5 26.5v53"/><path d="m413.5 26.5v53"/><path d="m510.5 26.5v53"/></g></g></g></svg>
