<svg xmlns="http://www.w3.org/2000/svg" width="472" height="532" viewBox="0 0 472 532">
  <g id="_4_network" data-name="4_network" transform="translate(-95 -2307)">
    <g id="Ellipse_19" data-name="Ellipse 19" transform="translate(120 2347)" fill="#21be34" stroke="rgba(255,255,255,0.5)" stroke-width="1">
      <ellipse cx="221.5" cy="220" rx="221.5" ry="220" stroke="none"/>
      <ellipse cx="221.5" cy="220" rx="222" ry="220.5" fill="none"/>
    </g>
    <path id="Path_21" data-name="Path 21" d="M5067,2444l150.675,131.31c0-.928,88.919-165.866,88.919-165.866l104.718,94.879-182.8,70.987,136.537,129.2-186.795,61.482c0-.929,39.419-184.07,39.419-184.07h-168.6L5067,2436.205l254.268-26.762-287.155,181.513,391.246-81.986-66.7,201.944-324.546-128.991,149.313,193.825,241.933-271.426L5055.744,2444" transform="translate(-4887 -1)" fill="none" stroke="rgba(255,255,255,0.5)" stroke-width="1"/>
    <g id="Group_26" data-name="Group 26" transform="translate(-903 759)">
      <g id="Ellipse_16" data-name="Ellipse 16" transform="translate(1046 1647)" fill="#26b036" stroke="#fff" stroke-width="1">
        <circle cx="37" cy="37" r="37" stroke="none"/>
        <circle cx="37" cy="37" r="36.5" fill="none"/>
      </g>
      <text id="_10_BSQ" data-name="10 BSQ" transform="translate(1083 1690)" fill="#fff" font-size="16" font-family="IBMPlexSans-Light, IBM Plex Sans" font-weight="300"><tspan x="-26.712" y="0">10 BSQ</tspan></text>
    </g>
    <g id="Group_30" data-name="Group 30" transform="translate(-553 825)">
      <g id="Ellipse_16-2" data-name="Ellipse 16" transform="translate(1046 1647)" fill="#26b036" stroke="#fff" stroke-width="1">
        <circle cx="37" cy="37" r="37" stroke="none"/>
        <circle cx="37" cy="37" r="36.5" fill="none"/>
      </g>
      <text id="_10_BSQ-2" data-name="10 BSQ" transform="translate(1083 1690)" fill="#fff" font-size="16" font-family="IBMPlexSans-Light, IBM Plex Sans" font-weight="300"><tspan x="-26.712" y="0">10 BSQ</tspan></text>
    </g>
    <g id="Group_31" data-name="Group 31" transform="translate(-922 898)">
      <g id="Ellipse_16-3" data-name="Ellipse 16" transform="translate(1046 1647)" fill="#26b036" stroke="#fff" stroke-width="1">
        <circle cx="37" cy="37" r="37" stroke="none"/>
        <circle cx="37" cy="37" r="36.5" fill="none"/>
      </g>
      <text id="_10_BSQ-3" data-name="10 BSQ" transform="translate(1083 1690)" fill="#fff" font-size="16" font-family="IBMPlexSans-Light, IBM Plex Sans" font-weight="300"><tspan x="-26.712" y="0">10 BSQ</tspan></text>
    </g>
    <g id="Group_32" data-name="Group 32" transform="translate(-786 665)">
      <g id="Ellipse_16-4" data-name="Ellipse 16" transform="translate(1041 1642)" fill="#26b036" stroke="#fff" stroke-width="1">
        <circle cx="42" cy="42" r="42" stroke="none"/>
        <circle cx="42" cy="42" r="41.5" fill="none"/>
      </g>
      <text id="_20_BSQ" data-name="20 BSQ" transform="translate(1083 1690)" fill="#fff" font-size="16" font-family="IBMPlexSans-Light, IBM Plex Sans" font-weight="300"><tspan x="-26.712" y="0">20 BSQ</tspan></text>
    </g>
    <g id="Group_27" data-name="Group 27" transform="translate(-658 735)">
      <g id="Ellipse_16-5" data-name="Ellipse 16" transform="translate(1023 1624)" fill="#26b036" stroke="#fff" stroke-width="1">
        <circle cx="60" cy="60" r="60" stroke="none"/>
        <circle cx="60" cy="60" r="59.5" fill="none"/>
      </g>
      <text id="_50_BSQ" data-name="50 BSQ" transform="translate(1083 1690)" fill="#fff" font-size="16" font-family="IBMPlexSans-Light, IBM Plex Sans" font-weight="300"><tspan x="-26.712" y="0">50 BSQ</tspan></text>
    </g>
    <g id="Group_28" data-name="Group 28" transform="translate(-608 1025)">
      <g id="Ellipse_16-6" data-name="Ellipse 16" transform="translate(1036 1637)" fill="#26b036" stroke="#fff" stroke-width="1">
        <circle cx="47" cy="47" r="47" stroke="none"/>
        <circle cx="47" cy="47" r="46.5" fill="none"/>
      </g>
      <text id="_30_BSQ" data-name="30 BSQ" transform="translate(1083 1690)" fill="#fff" font-size="16" font-family="IBMPlexSans-Light, IBM Plex Sans" font-weight="300"><tspan x="-26.712" y="0">30 BSQ</tspan></text>
    </g>
    <g id="Group_29" data-name="Group 29" transform="translate(-792 1080)">
      <g id="Ellipse_16-7" data-name="Ellipse 16" transform="translate(1008 1609)" fill="#26b036" stroke="#fff" stroke-width="1">
        <circle cx="75" cy="75" r="75" stroke="none"/>
        <circle cx="75" cy="75" r="74.5" fill="none"/>
      </g>
      <text id="_80_BSQ" data-name="80 BSQ" transform="translate(1083 1690)" fill="#fff" font-size="16" font-family="IBMPlexSans-Light, IBM Plex Sans" font-weight="300"><tspan x="-26.712" y="0">80 BSQ</tspan></text>
    </g>
    <g id="Ellipse_20" data-name="Ellipse 20" transform="translate(291 2518)" fill="#21be34" stroke="#fff" stroke-width="1">
      <ellipse cx="44" cy="43.5" rx="44" ry="43.5" stroke="none"/>
      <ellipse cx="44" cy="43.5" rx="44.5" ry="44" fill="none"/>
    </g>
    <g id="Ellipse_25" data-name="Ellipse 25" transform="translate(208 2486)" fill="#21be34" stroke="#fff" stroke-width="1">
      <ellipse cx="36" cy="35.5" rx="36" ry="35.5" stroke="none"/>
      <ellipse cx="36" cy="35.5" rx="36.5" ry="36" fill="none"/>
    </g>
    <g id="Ellipse_23" data-name="Ellipse 23" transform="translate(192 2629)" fill="#21be34" stroke="#fff" stroke-width="1">
      <ellipse cx="25" cy="24.5" rx="25" ry="24.5" stroke="none"/>
      <ellipse cx="25" cy="24.5" rx="25.5" ry="25" fill="none"/>
    </g>
    <g id="Ellipse_26" data-name="Ellipse 26" transform="translate(96 2486)" fill="#21be34" stroke="#fff" stroke-width="1">
      <ellipse cx="28" cy="27.5" rx="28" ry="27.5" stroke="none"/>
      <ellipse cx="28" cy="27.5" rx="28.5" ry="28" fill="none"/>
    </g>
    <g id="Ellipse_27" data-name="Ellipse 27" transform="translate(509 2419)" fill="#21be34" stroke="#fff" stroke-width="1">
      <ellipse cx="23" cy="22.5" rx="23" ry="22.5" stroke="none"/>
      <ellipse cx="23" cy="22.5" rx="23.5" ry="23" fill="none"/>
    </g>
    <g id="Ellipse_21" data-name="Ellipse 21" transform="translate(271 2415)" fill="#21be34" stroke="#fff" stroke-width="1">
      <ellipse cx="26" cy="26.5" rx="26" ry="26.5" stroke="none"/>
      <ellipse cx="26" cy="26.5" rx="26.5" ry="27" fill="none"/>
    </g>
    <g id="Ellipse_22" data-name="Ellipse 22" transform="translate(489 2582)" fill="#21be34" stroke="#fff" stroke-width="1">
      <ellipse cx="26" cy="26.5" rx="26" ry="26.5" stroke="none"/>
      <ellipse cx="26" cy="26.5" rx="26.5" ry="27" fill="none"/>
    </g>
    <g id="Ellipse_24" data-name="Ellipse 24" transform="translate(373 2597)" fill="#21be34" stroke="#fff" stroke-width="1">
      <ellipse cx="32" cy="32.5" rx="32" ry="32.5" stroke="none"/>
      <ellipse cx="32" cy="32.5" rx="32.5" ry="33" fill="none"/>
    </g>
    <text id="Proposal" transform="translate(335 2565)" fill="#fff" font-size="9" font-family="IBMPlexSans, IBM Plex Sans"><tspan x="-17.78" y="0">Proposal</tspan></text>
    <text id="Proposal-2" data-name="Proposal" transform="translate(244 2525)" fill="#fff" font-size="9" font-family="IBMPlexSans, IBM Plex Sans"><tspan x="-17.78" y="0">Proposal</tspan></text>
    <text id="Proposal-3" data-name="Proposal" transform="translate(217 2657)" fill="#fff" font-size="9" font-family="IBMPlexSans, IBM Plex Sans"><tspan x="-17.78" y="0">Proposal</tspan></text>
    <text id="Proposal-4" data-name="Proposal" transform="translate(124 2517)" fill="#fff" font-size="9" font-family="IBMPlexSans, IBM Plex Sans"><tspan x="-17.78" y="0">Proposal</tspan></text>
    <text id="Proposal-5" data-name="Proposal" transform="translate(532 2445)" fill="#fff" font-size="9" font-family="IBMPlexSans, IBM Plex Sans"><tspan x="-17.78" y="0">Proposal</tspan></text>
    <text id="Comp_Request" data-name="Comp
Request" transform="translate(297 2439)" fill="#fff" font-size="9" font-family="IBMPlexSans, IBM Plex Sans"><tspan x="-11.853" y="0">Comp</tspan><tspan x="-16.659" y="11">Request</tspan></text>
    <text id="Comp_Request-2" data-name="Comp
Request" transform="translate(515 2607)" fill="#fff" font-size="9" font-family="IBMPlexSans, IBM Plex Sans"><tspan x="-11.853" y="0">Comp</tspan><tspan x="-16.659" y="11">Request</tspan></text>
    <text id="Comp_Request-3" data-name="Comp
Request" transform="translate(405 2628)" fill="#fff" font-size="9" font-family="IBMPlexSans, IBM Plex Sans"><tspan x="-11.853" y="0">Comp</tspan><tspan x="-16.659" y="11">Request</tspan></text>
  </g>
</svg>
