<svg xmlns="http://www.w3.org/2000/svg" xmlns:xlink="http://www.w3.org/1999/xlink" width="610" height="406" viewBox="0 0 610 406"><defs>
  <style type="text/css">@import url('https://fonts.googleapis.com/css?family=IBM+Plex+Sans:100,100i,200,200i,300,300i,400,400i,500,500i,600,600i,700,700i');</style>

<style>.a{clip-path:url(#b);}.b,.c,.d,.k,.n{fill:none;}.b,.c,.d,.e,.k{stroke:#fff;}.b{stroke-width:0.7px;}.d,.e{stroke-dasharray:3;}.e,.f{fill:#26b036;}.f{stroke:#ffa5a5;stroke-width:2px;stroke-dasharray:4;}.g,.i,.j,.l{fill:#fff;}.g,.h{font-size:12px;font-family:IBMPlexSans-Light, IBM Plex Sans;font-weight:300;}.h{fill:#ffa5a5;}.i{font-size:22px;font-family:IBMPlexSans-Thin, IBM Plex Sans;font-weight:200;}.j{font-size:9px;opacity:0.278;}.j,.l{font-family:IBMPlexSans, IBM Plex Sans;}.k{stroke-width:0.5px;}.l{font-size:8px;letter-spacing:-0.03em;opacity:0.421;}.m{stroke:none;}</style><clipPath id="b"><rect width="610" height="406"/></clipPath></defs><g id="a" class="a"><g transform="translate(-38.5 -131)"><g transform="translate(266 77)"><line class="b" x1="44" y2="37" transform="translate(139.5 246.5)"/><line class="b" x2="41.665" y2="24" transform="translate(140.5 296.5)"/><line class="b" y1="24" x2="40.665" transform="translate(141.5 332.5)"/><line class="b" x2="72" y2="22" transform="translate(140.5 365.5)"/><line class="b" x2="20" y2="45" transform="translate(197.5 336.5)"/><line class="b" y2="44.976" transform="translate(130.5 302.512)"/><line class="b" x2="48.51" y2="40" transform="translate(260.5 243.5)"/><line class="b" y2="56" transform="translate(256.5 258.5)"/><path class="b" d="M-1,0,0,56" transform="translate(191.5 258.5)"/><line class="b" x1="41.665" y2="24" transform="translate(266.338 296.5)"/><line class="b" x1="40.665" y1="24" transform="translate(266.322 332.5)"/><line class="b" x1="72" y2="22" transform="translate(235.676 365.5)"/><line class="b" x1="20" y2="45" transform="translate(230.131 336.5)"/><line class="b" y2="44.976" transform="translate(318.49 302.512)"/><line class="b" x1="42" transform="translate(203.5 324.5)"/></g><g class="c" transform="translate(408.438 379.512) rotate(180)"><circle class="m" cx="11.974" cy="11.974" r="11.974"/><circle class="n" cx="11.974" cy="11.974" r="11.474"/></g><g class="c" transform="translate(408.438 448.79) rotate(180)"><circle class="m" cx="11.974" cy="11.974" r="11.974"/><circle class="n" cx="11.974" cy="11.974" r="11.474"/></g><g class="c" transform="translate(501.664 480.436) rotate(180)"><circle class="m" cx="11.974" cy="11.974" r="11.974"/><circle class="n" cx="11.974" cy="11.974" r="11.474"/></g><g class="c" transform="translate(470.019 415.434) rotate(180)"><circle class="m" cx="11.974" cy="11.974" r="11.974"/><circle class="n" cx="11.974" cy="11.974" r="11.474"/></g><g class="c" transform="translate(572.552 355.564)"><circle class="m" cx="11.974" cy="11.974" r="11.974"/><circle class="n" cx="11.974" cy="11.974" r="11.474"/></g><g class="c" transform="translate(572.552 424.842)"><circle class="m" cx="11.974" cy="11.974" r="11.974"/><circle class="n" cx="11.974" cy="11.974" r="11.474"/></g><g class="c" transform="translate(510.578 391.486)"><circle class="m" cx="11.974" cy="11.974" r="11.974"/><circle class="n" cx="11.974" cy="11.974" r="11.474"/></g><g transform="translate(-48 77)"><line class="b" x1="44" y2="37" transform="translate(139.5 246.5)"/><path class="b" d="M14.365,0-.519,51.224" transform="translate(196.165 264.813)"/><line class="b" x2="41.665" y2="24" transform="translate(140.5 296.5)"/><line class="b" y1="24" x2="40.665" transform="translate(141.5 332.5)"/><line class="b" x2="72" y2="22" transform="translate(140.5 365.5)"/><line class="b" x2="20" y2="45" transform="translate(197.5 336.5)"/><line class="b" y2="44.976" transform="translate(130.5 302.512)"/><line class="b" x2="48.51" y2="40" transform="translate(260.5 243.5)"/><line class="b" x2="15.303" y2="50.687" transform="translate(237.197 264.813)"/><line class="b" x1="41.665" y2="24" transform="translate(266.338 296.5)"/><line class="b" x1="40.665" y1="24" transform="translate(266.322 332.5)"/><line class="b" x1="72" y2="22" transform="translate(235.676 365.5)"/><line class="b" x1="20" y2="45" transform="translate(230.131 336.5)"/><line class="b" y2="44.976" transform="translate(318.49 302.512)"/><line class="b" x1="42" transform="translate(203.5 324.5)"/></g><g class="d" transform="translate(70.835 241)"><circle class="m" cx="16" cy="16" r="16"/><circle class="n" cx="16" cy="16" r="15.5"/></g><g class="d" transform="translate(246.835 241)"><circle class="m" cx="16" cy="16" r="16"/><circle class="n" cx="16" cy="16" r="15.5"/></g><g class="d" transform="translate(157 190)"><circle class="m" cx="17" cy="17" r="17"/><circle class="n" cx="17" cy="17" r="16.5"/></g><g class="c" transform="translate(94.438 379.512) rotate(180)"><circle class="m" cx="11.974" cy="11.974" r="11.974"/><circle class="n" cx="11.974" cy="11.974" r="11.474"/></g><g class="c" transform="translate(94.438 448.79) rotate(180)"><circle class="m" cx="11.974" cy="11.974" r="11.974"/><circle class="n" cx="11.974" cy="11.974" r="11.474"/></g><g class="c" transform="translate(187.664 480.436) rotate(180)"><circle class="m" cx="11.974" cy="11.974" r="11.974"/><circle class="n" cx="11.974" cy="11.974" r="11.474"/></g><g class="c" transform="translate(156.019 415.434) rotate(180)"><circle class="m" cx="11.974" cy="11.974" r="11.974"/><circle class="n" cx="11.974" cy="11.974" r="11.474"/></g><g class="c" transform="translate(258.552 355.564)"><circle class="m" cx="11.974" cy="11.974" r="11.974"/><circle class="n" cx="11.974" cy="11.974" r="11.474"/></g><g class="c" transform="translate(258.552 424.842)"><circle class="m" cx="11.974" cy="11.974" r="11.974"/><circle class="n" cx="11.974" cy="11.974" r="11.474"/></g><g class="c" transform="translate(196.578 391.486)"><circle class="m" cx="11.974" cy="11.974" r="11.974"/><circle class="n" cx="11.974" cy="11.974" r="11.474"/></g><line class="b" x1="49.593" y2="27.492" transform="translate(249.526 292.5) rotate(180)"/><line class="b" x1="48.563" y1="26" transform="translate(100.5 265.5)"/><g transform="translate(7.068 70.343)"><line class="b" x1="21.957" y2="38.451" transform="translate(453.476 204.696)"/><line class="b" x1="47.734" transform="translate(457.196 249.658)"/><line class="b" x1="47.734" transform="translate(457.196 137.658)"/><line class="b" x1="47.734" transform="translate(423.669 196.03)"/><line class="b" x1="47.734" transform="translate(491.92 196.03)"/><line class="b" x2="23.406" y2="38.451" transform="translate(485.864 204.696)"/><line class="b" x1="21.957" y2="38.451" transform="translate(453.476 204.696)"/><line class="b" x1="21.957" y2="38.451" transform="translate(521.727 204.696)"/><line class="b" x2="25.89" y2="37.856" transform="translate(416.81 205.291)"/><g transform="translate(0 -59)"><line class="b" y1="38.451" x2="23.406" transform="translate(485.864 204.696)"/><line class="b" x1="21.957" y1="38.451" transform="translate(453.476 204.696)"/><line class="b" x1="24.252" y1="37.989" transform="translate(519.432 205.157)"/><line class="b" y1="37.394" x2="23.622" transform="translate(417.81 205.157)"/></g><g class="e" transform="translate(498.801 233.972)"><circle class="m" cx="15.843" cy="15.843" r="15.843"/><circle class="n" cx="15.843" cy="15.843" r="15.343"/></g><g class="e" transform="translate(498.801 121.972)"><circle class="m" cx="15.843" cy="15.843" r="15.843"/><circle class="n" cx="15.843" cy="15.843" r="15.343"/></g><g class="e" transform="translate(431.229 233.972)"><circle class="m" cx="15.843" cy="15.843" r="15.843"/><circle class="n" cx="15.843" cy="15.843" r="15.343"/></g><g class="e" transform="translate(431.229 121.972)"><circle class="m" cx="15.843" cy="15.843" r="15.843"/><circle class="n" cx="15.843" cy="15.843" r="15.343"/></g><g class="e" transform="translate(532.178 179.657)"><circle class="m" cx="15.843" cy="15.843" r="15.843"/><circle class="n" cx="15.843" cy="15.843" r="15.343"/></g><g class="e" transform="translate(463.777 179.657)"><circle class="m" cx="15.843" cy="15.843" r="15.843"/><circle class="n" cx="15.843" cy="15.843" r="15.343"/></g><g class="e" transform="translate(397.238 179.657)"><circle class="m" cx="15.843" cy="15.843" r="15.843"/><circle class="n" cx="15.843" cy="15.843" r="15.343"/></g></g><line class="b" y1="30.526" x2="0.719" transform="translate(173.5 223.974)"/><g class="f" transform="translate(127 250)"><circle class="m" cx="47" cy="47" r="47"/><circle class="n" cx="47" cy="47" r="46"/></g><text class="g" transform="translate(487.835 511)"><tspan x="-69.588" y="0">Decentralized Governance</tspan></text><text class="h" transform="translate(173.835 511)"><tspan x="-71.118" y="0">Centralized Point of Failure</tspan></text><text class="i" transform="translate(174 166)"><tspan x="-60.599" y="0">Without DAO</tspan></text><text class="i" transform="translate(485 166)"><tspan x="-45.133" y="0">With DAO</tspan></text><text class="g" transform="translate(329 298)"><tspan x="-33.102" y="0">Contributors</tspan></text><text class="g" transform="translate(329 351)"><tspan x="-20.136" y="0">Traders</tspan></text><text class="j" transform="translate(213 347)"><tspan x="-2.894" y="0">₿</tspan></text><text class="j" transform="translate(177 359)"><tspan x="-2.894" y="0">₿</tspan></text><text class="j" transform="translate(138 349)"><tspan x="-2.894" y="0">₿</tspan></text><line class="k" x2="69" transform="translate(40.5 320.5)"/><line class="k" x2="79" transform="translate(567.5 320.5)"/><line class="k" x2="162" transform="translate(247.5 320.5)"/><text class="l" transform="translate(437 361)"><tspan x="-7.528" y="0">BSQ</tspan></text><text class="l" transform="translate(489 338)"><tspan x="-7.528" y="0">BSQ</tspan></text><text class="l" transform="translate(543 361)"><tspan x="-7.528" y="0">BSQ</tspan></text></g></g></svg>
