<svg xmlns="http://www.w3.org/2000/svg" xmlns:xlink="http://www.w3.org/1999/xlink" width="681" height="264" viewBox="0 0 681 264"><defs><style>.a{clip-path:url(#b);}.b{fill:#26b036;}.b,.e,.f{stroke:#fff;}.c,.d,.g{fill:#fff;}.c,.d{font-size:12px;font-weight:300;}.c{font-family:IBMPlexSans-Light, IBM Plex Sans;}.d{font-family:IBMPlexSans-LightItalic, IBM Plex Sans;font-style:italic;}.e,.f,.i{fill:none;}.f{stroke-dasharray:10;}.g{font-size:40px;font-family:IBMPlexSans-Thin, IBM Plex Sans;font-weight:200;}.h{stroke:none;}</style><clipPath id="b"><rect width="681" height="264"/></clipPath></defs><g id="a" class="a"><g transform="translate(-8.835 -215)"><g class="b" transform="translate(434.01 227)"><circle class="h" cx="119.912" cy="119.912" r="119.912"/><circle class="i" cx="119.912" cy="119.912" r="119.412"/></g><g class="b" transform="translate(24.835 227)"><circle class="h" cx="119.912" cy="119.912" r="119.912"/><circle class="i" cx="119.912" cy="119.912" r="119.412"/></g><text class="c" transform="translate(552.211 352.601)"><tspan x="-33.102" y="0">Contributors</tspan></text><text class="d" transform="translate(348.219 408.35)"><tspan x="-35.25" y="0">Contributions</tspan></text><text class="d" transform="translate(349.412 296.853)"><tspan x="-11.934" y="0">Fees</tspan></text><text class="c" transform="translate(143.71 352.601)"><tspan x="-20.136" y="0">Traders</tspan></text><g transform="translate(236.433 304.838)"><path class="e" d="M0,0H6.279V6.279" transform="translate(221.626 0) rotate(45)"/><path class="e" d="M0,0H6.279V6.279" transform="translate(4.439 84.614) rotate(-135)"/><line class="f" x2="226.151" transform="translate(0.483 4.454)"/><line class="f" x2="226.151" transform="translate(226.634 80.16) rotate(180)"/></g><text class="g" transform="translate(349.167 359.233)"><tspan x="-36.84" y="0">BSQ</tspan></text></g></g></svg>