<?xml version="1.0" encoding="utf-8"?>
<!-- Generator: Adobe Illustrator 24.2.3, SVG Export Plug-In . SVG Version: 6.00 Build 0)  -->
<svg version="1.1" id="Layer_1" xmlns="http://www.w3.org/2000/svg" xmlns:xlink="http://www.w3.org/1999/xlink" x="0px" y="0px"
	 viewBox="0 0 681 264" style="enable-background:new 0 0 681 264;" xml:space="preserve">
<style type="text/css">
	.st0{fill:none;stroke:#FFFFFF;}
	.st1{enable-background:new    ;}
	.st2{fill:#FFFFFF;}
	.st3{fill:none;stroke:#FFFFFF;stroke-dasharray:10;}
</style>
<g>
	<circle class="st0" cx="545.1" cy="131.9" r="119.4"/>
	<circle class="st0" cx="135.9" cy="131.9" r="119.4"/>
	<g class="st1">
		<path class="st2" d="M503.8,132.4c0-3.5,1.6-5.5,4.2-5.5c1.7,0,2.9,0.8,3.6,2.3l-1,0.6c-0.4-1.1-1.3-1.8-2.6-1.8
			c-1.8,0-2.9,1.4-2.9,3.6v1.6c0,2.1,1.1,3.4,2.9,3.4c1.3,0,2.2-0.8,2.7-1.9l1,0.6c-0.7,1.5-1.9,2.4-3.7,2.4
			C505.3,137.8,503.8,135.9,503.8,132.4z"/>
		<path class="st2" d="M512.9,133.7c0-2.5,1.4-4,3.5-4c2.1,0,3.5,1.6,3.5,4c0,2.5-1.4,4-3.5,4C514.3,137.8,512.9,136.2,512.9,133.7z
			 M518.6,134.3v-1.1c0-1.6-0.9-2.4-2.2-2.4s-2.2,0.8-2.2,2.4v1.1c0,1.6,0.9,2.4,2.2,2.4S518.6,135.9,518.6,134.3z"/>
		<path class="st2" d="M521.9,137.6v-7.7h1.2v1.3h0.1c0.4-0.9,1-1.4,2.2-1.4c1.6,0,2.6,1.1,2.6,3v5h-1.2v-4.8c0-1.4-0.6-2.1-1.8-2.1
			c-1,0-1.9,0.5-1.9,1.5v5.4H521.9z"/>
		<path class="st2" d="M532.1,137.6c-0.8,0-1.3-0.5-1.3-1.3v-5.4h-1.3v-1h0.7c0.5,0,0.7-0.2,0.7-0.7v-1.4h1.1v2.1h1.7v1H532v5.6h1.6
			v1H532.1z"/>
		<path class="st2" d="M535.7,137.6v-7.7h1.2v1.4h0.1c0.3-0.7,1-1.4,2.2-1.4h0.5v1.2h-0.7c-1.3,0-2.1,0.6-2.1,1.3v5.2H535.7z"/>
		<path class="st2" d="M541,127.4v-0.2c0-0.4,0.2-0.7,0.7-0.7s0.7,0.3,0.7,0.7v0.2c0,0.4-0.2,0.7-0.7,0.7S541,127.8,541,127.4z
			 M541.2,129.9h1.2v7.7h-1.2V129.9z"/>
		<path class="st2" d="M544.9,126.5h1.2v4.6h0.1c0.4-1,1.2-1.4,2.3-1.4c1.9,0,3.2,1.6,3.2,4c0,2.5-1.2,4-3.2,4
			c-1.1,0-1.8-0.5-2.3-1.4h-0.1v1.3h-1.2V126.5z M550.3,134.4v-1.3c0-1.4-0.8-2.3-2.2-2.3c-1.1,0-2,0.6-2,1.5v2.9c0,1,0.9,1.6,2,1.6
			C549.5,136.7,550.3,135.8,550.3,134.4z"/>
		<path class="st2" d="M558.4,136.3L558.4,136.3c-0.4,0.7-0.9,1.4-2.2,1.4c-1.6,0-2.6-1.1-2.6-3v-5h1.2v4.8c0,1.4,0.6,2.1,1.8,2.1
			c0.9,0,1.9-0.5,1.9-1.5v-5.4h1.2v7.7h-1.2V136.3z"/>
		<path class="st2" d="M563.9,137.6c-0.8,0-1.3-0.5-1.3-1.3v-5.4h-1.3v-1h0.7c0.5,0,0.7-0.2,0.7-0.7v-1.4h1.1v2.1h1.7v1h-1.7v5.6
			h1.6v1H563.9z"/>
		<path class="st2" d="M566.8,133.7c0-2.5,1.4-4,3.5-4c2.1,0,3.5,1.6,3.5,4c0,2.5-1.4,4-3.5,4C568.2,137.8,566.8,136.2,566.8,133.7z
			 M572.5,134.3v-1.1c0-1.6-0.9-2.4-2.2-2.4s-2.2,0.8-2.2,2.4v1.1c0,1.6,0.9,2.4,2.2,2.4S572.5,135.9,572.5,134.3z"/>
		<path class="st2" d="M575.7,137.6v-7.7h1.2v1.4h0.1c0.3-0.7,1-1.4,2.2-1.4h0.5v1.2H579c-1.3,0-2.1,0.6-2.1,1.3v5.2H575.7z"/>
		<path class="st2" d="M580.5,136.3l0.9-0.7c0.6,0.8,1.3,1.2,2.3,1.2c1,0,1.6-0.5,1.6-1.3c0-0.6-0.3-1.1-1.3-1.2l-0.6-0.1
			c-1.4-0.2-2.5-0.8-2.5-2.2c0-1.5,1.2-2.3,2.8-2.3c1.2,0,2.1,0.5,2.7,1.2l-0.8,0.7c-0.3-0.5-1-0.9-2-0.9s-1.5,0.5-1.5,1.2
			c0,0.8,0.5,1.1,1.5,1.2l0.6,0.1c1.7,0.3,2.4,1,2.4,2.2c0,1.5-1.1,2.4-2.9,2.4C582.2,137.8,581.2,137.2,580.5,136.3z"/>
	</g>
	<g class="st1">
		<path class="st2" d="M296.8,188.2c0-3.5,1.6-5.5,4.2-5.5c1.7,0,2.9,0.8,3.6,2.3l-1,0.6c-0.4-1.1-1.3-1.8-2.6-1.8
			c-1.8,0-2.9,1.4-2.9,3.6v1.6c0,2.1,1.1,3.4,2.9,3.4c1.3,0,2.2-0.8,2.7-1.9l1,0.6c-0.7,1.5-1.9,2.4-3.7,2.4
			C298.3,193.5,296.8,191.7,296.8,188.2z"/>
		<path class="st2" d="M305.9,189.5c0-2.5,1.4-4,3.5-4s3.5,1.6,3.5,4s-1.4,4-3.5,4S305.9,191.9,305.9,189.5z M311.6,190v-1.1
			c0-1.6-0.9-2.4-2.2-2.4s-2.2,0.8-2.2,2.4v1.1c0,1.6,0.9,2.4,2.2,2.4S311.6,191.7,311.6,190z"/>
		<path class="st2" d="M314.9,193.3v-7.7h1.2v1.3h0.1c0.4-0.9,1-1.4,2.2-1.4c1.6,0,2.6,1.1,2.6,3v5h-1.2v-4.8c0-1.4-0.6-2.1-1.8-2.1
			c-1,0-1.9,0.5-1.9,1.5v5.4H314.9z"/>
		<path class="st2" d="M325.1,193.3c-0.8,0-1.3-0.5-1.3-1.3v-5.4h-1.3v-1h0.7c0.5,0,0.7-0.2,0.7-0.7v-1.4h1.1v2.1h1.7v1H325v5.6h1.6
			v1H325.1z"/>
		<path class="st2" d="M328.7,193.3v-7.7h1.2v1.4h0.1c0.3-0.7,1-1.4,2.2-1.4h0.5v1.2h-0.7c-1.3,0-2.1,0.6-2.1,1.3v5.2H328.7z"/>
		<path class="st2" d="M334,183.1v-0.2c0-0.4,0.2-0.7,0.7-0.7c0.5,0,0.7,0.3,0.7,0.7v0.2c0,0.4-0.2,0.7-0.7,0.7
			C334.3,183.8,334,183.5,334,183.1z M334.2,185.6h1.2v7.7h-1.2V185.6z"/>
		<path class="st2" d="M337.9,182.2h1.2v4.6h0.1c0.4-1,1.2-1.4,2.3-1.4c1.9,0,3.2,1.6,3.2,4c0,2.5-1.2,4-3.2,4
			c-1.1,0-1.8-0.5-2.3-1.4h-0.1v1.3h-1.2V182.2z M343.3,190.1v-1.3c0-1.4-0.8-2.3-2.2-2.3c-1.1,0-2,0.6-2,1.5v2.9c0,1,0.9,1.6,2,1.6
			C342.5,192.4,343.3,191.5,343.3,190.1z"/>
		<path class="st2" d="M351.4,192.1L351.4,192.1c-0.4,0.7-0.9,1.4-2.2,1.4c-1.6,0-2.6-1.1-2.6-3v-5h1.2v4.8c0,1.4,0.6,2.1,1.8,2.1
			c0.9,0,1.9-0.5,1.9-1.5v-5.4h1.2v7.7h-1.2V192.1z"/>
		<path class="st2" d="M356.9,193.3c-0.8,0-1.3-0.5-1.3-1.3v-5.4h-1.3v-1h0.7c0.5,0,0.7-0.2,0.7-0.7v-1.4h1.1v2.1h1.7v1h-1.7v5.6
			h1.6v1H356.9z"/>
		<path class="st2" d="M360.3,183.1v-0.2c0-0.4,0.2-0.7,0.7-0.7c0.5,0,0.7,0.3,0.7,0.7v0.2c0,0.4-0.2,0.7-0.7,0.7
			C360.5,183.8,360.3,183.5,360.3,183.1z M360.4,185.6h1.2v7.7h-1.2V185.6z"/>
		<path class="st2" d="M363.6,189.5c0-2.5,1.4-4,3.5-4s3.5,1.6,3.5,4s-1.4,4-3.5,4S363.6,191.9,363.6,189.5z M369.3,190v-1.1
			c0-1.6-0.9-2.4-2.2-2.4s-2.2,0.8-2.2,2.4v1.1c0,1.6,0.9,2.4,2.2,2.4S369.3,191.7,369.3,190z"/>
		<path class="st2" d="M372.6,193.3v-7.7h1.2v1.3h0.1c0.4-0.9,1-1.4,2.2-1.4c1.6,0,2.6,1.1,2.6,3v5h-1.2v-4.8c0-1.4-0.6-2.1-1.8-2.1
			c-1,0-1.9,0.5-1.9,1.5v5.4H372.6z"/>
		<path class="st2" d="M380.3,192l0.9-0.7c0.6,0.8,1.3,1.2,2.3,1.2c1,0,1.6-0.5,1.6-1.3c0-0.6-0.3-1.1-1.3-1.2l-0.6-0.1
			c-1.4-0.2-2.5-0.8-2.5-2.2c0-1.5,1.2-2.3,2.8-2.3c1.2,0,2.1,0.5,2.7,1.2l-0.8,0.7c-0.3-0.5-1-0.9-2-0.9c-1,0-1.5,0.5-1.5,1.2
			c0,0.8,0.5,1.1,1.5,1.2l0.6,0.1c1.7,0.3,2.4,1,2.4,2.2c0,1.5-1.1,2.4-2.9,2.4C382,193.5,381,192.9,380.3,192z"/>
	</g>
	<g class="st1">
		<path class="st2" d="M327,81.9V71.4h6.2v1.1h-5V76h4.5v1.1h-4.5v4.7H327z"/>
		<path class="st2" d="M334.3,78c0-2.5,1.4-4,3.5-4c2.1,0,3.3,1.6,3.3,3.8v0.6h-5.6v0.4c0,1.3,0.9,2.3,2.3,2.3c1,0,1.7-0.5,2.1-1.3
			l0.9,0.6c-0.5,1-1.6,1.8-3.1,1.8C335.7,82,334.3,80.4,334.3,78z M335.6,77.3v0.1h4.3v-0.2c0-1.4-0.8-2.3-2.1-2.3
			C336.5,74.9,335.6,75.9,335.6,77.3z"/>
		<path class="st2" d="M342.6,78c0-2.5,1.4-4,3.5-4c2.1,0,3.3,1.6,3.3,3.8v0.6h-5.6v0.4c0,1.3,0.9,2.3,2.3,2.3c1,0,1.7-0.5,2.1-1.3
			l0.9,0.6c-0.5,1-1.6,1.8-3.1,1.8C343.9,82,342.6,80.4,342.6,78z M343.8,77.3v0.1h4.3v-0.2c0-1.4-0.8-2.3-2.1-2.3
			C344.7,74.9,343.8,75.9,343.8,77.3z"/>
		<path class="st2" d="M350.6,80.5l0.9-0.7c0.6,0.8,1.3,1.2,2.3,1.2c1,0,1.6-0.5,1.6-1.3c0-0.6-0.3-1.1-1.3-1.2l-0.6-0.1
			c-1.4-0.2-2.5-0.8-2.5-2.2c0-1.5,1.2-2.3,2.8-2.3c1.2,0,2.1,0.5,2.7,1.2l-0.8,0.7c-0.3-0.5-1-0.9-2-0.9s-1.5,0.5-1.5,1.2
			c0,0.8,0.5,1.1,1.5,1.2l0.6,0.1c1.7,0.3,2.4,1,2.4,2.2c0,1.5-1.1,2.4-2.9,2.4C352.3,82,351.3,81.4,350.6,80.5z"/>
	</g>
	<g class="st1">
		<path class="st2" d="M115.3,128.2v9.4H114v-9.4h-3.3v-1.1h7.9v1.1H115.3z"/>
		<path class="st2" d="M119.5,137.6v-7.7h1.2v1.4h0.1c0.3-0.7,1-1.4,2.2-1.4h0.5v1.2h-0.7c-1.3,0-2.1,0.6-2.1,1.3v5.2H119.5z"/>
		<path class="st2" d="M130.6,137.6c-0.9,0-1.2-0.5-1.3-1.3h-0.1c-0.3,0.9-1.2,1.4-2.2,1.4c-1.6,0-2.6-0.9-2.6-2.3
			c0-1.5,1-2.3,3.3-2.3h1.5v-0.8c0-1.1-0.6-1.7-1.8-1.7c-0.9,0-1.5,0.5-2,1.2l-0.7-0.7c0.4-0.8,1.3-1.5,2.7-1.5c1.9,0,3,1,3,2.6v4.3
			h0.9v1H130.6z M129.2,135.4v-1.3h-1.6c-1.4,0-2,0.4-2,1.2v0.3c0,0.8,0.6,1.2,1.5,1.2C128.3,136.8,129.2,136.1,129.2,135.4z"/>
		<path class="st2" d="M137.9,136.3L137.9,136.3c-0.5,1-1.3,1.4-2.3,1.4c-1.9,0-3.1-1.6-3.1-4c0-2.5,1.2-4,3.1-4
			c1.1,0,1.9,0.5,2.3,1.4h0.1v-4.6h1.2v11.1h-1.2V136.3z M137.9,135.1v-2.9c0-0.9-0.9-1.5-2-1.5c-1.4,0-2.2,0.9-2.2,2.3v1.3
			c0,1.4,0.8,2.3,2.2,2.3C137,136.7,137.9,136.1,137.9,135.1z"/>
		<path class="st2" d="M141.1,133.7c0-2.5,1.4-4,3.5-4c2.1,0,3.3,1.6,3.3,3.8v0.6h-5.6v0.4c0,1.3,0.9,2.3,2.3,2.3
			c1,0,1.7-0.5,2.1-1.3l0.9,0.6c-0.5,1-1.6,1.8-3.1,1.8C142.5,137.8,141.1,136.2,141.1,133.7z M142.4,133v0.1h4.3V133
			c0-1.4-0.8-2.3-2.1-2.3C143.3,130.7,142.4,131.7,142.4,133z"/>
		<path class="st2" d="M149.9,137.6v-7.7h1.2v1.4h0.1c0.3-0.7,1-1.4,2.2-1.4h0.5v1.2h-0.7c-1.3,0-2.1,0.6-2.1,1.3v5.2H149.9z"/>
		<path class="st2" d="M154.7,136.3l0.9-0.7c0.6,0.8,1.3,1.2,2.3,1.2c1,0,1.6-0.5,1.6-1.3c0-0.6-0.3-1.1-1.3-1.2l-0.6-0.1
			c-1.4-0.2-2.5-0.8-2.5-2.2c0-1.5,1.2-2.3,2.8-2.3c1.2,0,2.1,0.5,2.7,1.2l-0.8,0.7c-0.3-0.5-1-0.9-2-0.9c-1,0-1.5,0.5-1.5,1.2
			c0,0.8,0.5,1.1,1.5,1.2l0.6,0.1c1.7,0.3,2.4,1,2.4,2.2c0,1.5-1.1,2.4-2.9,2.4C156.3,137.8,155.4,137.2,154.7,136.3z"/>
	</g>
	<path id="Path_4" class="st0" d="M449.2,89.8l4.4,4.4l-4.4,4.4"/>
	<path id="Path_41" class="st0" d="M232,174.5l-4.4-4.4l4.4-4.4"/>
	<line id="Line_46" class="st3" x1="228.4" y1="94.3" x2="454.6" y2="94.3"/>
	<line id="Line_47" class="st3" x1="454.6" y1="170" x2="228.4" y2="170"/>
	<g class="st1">
		<path class="st2" d="M315.2,121.1h8.6c3.5,0,5.6,2.1,5.6,5.4c0,3.1-2,4.2-3.4,4.4v0.2c1.5,0.1,4.1,1.4,4.1,4.9
			c0,3.4-2.3,6.1-5.4,6.1h-9.5V121.1z M317.7,130.1h5.8c2,0,3.2-1,3.2-2.9v-1c0-1.9-1.2-2.9-3.2-2.9h-5.8V130.1z M317.7,139.8h6.2
			c2.2,0,3.5-1.1,3.5-3.2v-1c0-2.1-1.3-3.2-3.5-3.2h-6.2V139.8z"/>
		<path class="st2" d="M333.2,138.7l1.9-1.6c1.5,1.9,3.2,3,5.6,3c3,0,4.6-1.6,4.6-4c0-2-1.1-3-3.9-3.6l-1.7-0.4
			c-3.8-0.9-5.9-2.5-5.9-5.8c0-3.7,2.8-5.7,6.9-5.7c3.1,0,5.4,1.2,6.9,3.4l-1.9,1.4c-1.1-1.6-2.7-2.6-5.2-2.6
			c-2.7,0-4.3,1.2-4.3,3.4c0,2,1.3,2.9,3.9,3.5l1.7,0.4c4.1,0.9,5.8,2.7,5.8,5.8c0,3.8-2.7,6.3-7.2,6.3
			C337.3,142.4,334.9,141,333.2,138.7z"/>
		<path class="st2" d="M364.6,146.9h-3.1c-1.6,0-2.5-1-2.5-2.5v-2.1c-4.8-0.5-7.9-4.2-7.9-10.8c0-7,3.5-10.8,8.9-10.8
			c5.4,0,8.9,3.8,8.9,10.8c0,6.4-2.9,10.1-7.5,10.7v2.6h3.2V146.9z M366.2,133.3v-3.5c0-4.1-2.5-6.8-6.2-6.8s-6.2,2.7-6.2,6.8v3.5
			c0,4.1,2.5,6.8,6.2,6.8S366.2,137.4,366.2,133.3z"/>
	</g>
</g>
</svg>
