<svg xmlns="http://www.w3.org/2000/svg" xmlns:xlink="http://www.w3.org/1999/xlink" width="681" height="681" viewBox="0 0 681 681"><defs>
  <style type="text/css">@import url('https://fonts.googleapis.com/css?family=IBM+Plex+Sans:100,100i,200,200i,300,300i,400,400i,500,500i,600,600i,700,700i');</style>
  <style>.a{clip-path:url(#b);}.b,.c{fill:#fff;font-family:IBMPlexSans-Light, IBM Plex Sans;font-weight:300;}.b{font-size:12px;}.c{font-size:11px;}.d,.e,.f,.g,.h{fill:none;stroke:#fff;}.e{opacity:0.251;}.f{stroke-width:2px;}.g{stroke-dasharray:3;}.h{stroke-dasharray:10 10;opacity:0.269;}</style><clipPath id="b"><rect width="681" height="681"/></clipPath></defs><g id="a" class="a"><g transform="translate(-55.548 -2259.605)"><text class="b" transform="translate(510.002 2554.057)"><tspan x="0" y="0">Trading</tspan><tspan x="0" y="15">fees</tspan></text><text class="c" transform="translate(424.148 2422.018)"><tspan x="-12.952" y="0">profit</tspan></text><text class="b" transform="translate(470.921 2727.626)"><tspan x="0" y="0">BSQ issued </tspan><tspan x="0" y="15">for compensations</tspan></text><line class="d" x2="532.346" transform="translate(125.938 2804.709)"/><line class="e" x2="532.346" transform="translate(125.938 2702.407)"/><line class="e" x2="532.346" transform="translate(125.938 2600.105)"/><line class="e" x2="532.346" transform="translate(125.938 2497.802)"/><line class="e" x2="532.346" transform="translate(125.938 2395.5)"/><path class="f" d="M5003,2921.9c432.112-32.58,532.346-374.071,532.346-374.071" transform="translate(-4877.062 -131.557)"/><path class="g" d="M5005.522,2688.165c411.865,0,529.446-140.337,529.446-140.337" transform="translate(-4876.686 52.277)"/><line class="h" y2="409.209" transform="translate(392.11 2395.5)"/></g></g></svg>
