<svg xmlns="http://www.w3.org/2000/svg" xmlns:xlink="http://www.w3.org/1999/xlink" width="681" height="681" viewBox="0 0 681 681"><defs><style>.a{clip-path:url(#b);}.b,.g{fill:none;}.b,.c,.d{stroke:#fff;}.b{opacity:0.604;}.c{fill:#26b036;}.d{fill:#21be34;}.e{fill:#fff;font-size:10px;font-family:IBMPlexSans-Light, IBM Plex Sans;font-weight:300;}.f{stroke:none;}</style><clipPath id="b"><rect width="681" height="681"/></clipPath></defs><g id="a" class="a"><path class="b" d="M9620,4173.838l112.078-80.33,144.514,53,97.57,27.331,6.528,67.568" transform="translate(-9431 -3969)"/><path class="b" d="M5067,2444l150.675,131.31c0-.928,88.919-165.866,88.919-165.866l104.718,94.879-182.8,70.987,136.537,129.2-186.795,61.482c0-.929,39.419-184.07,39.419-184.07h-168.6L5067,2436.205l116.425,3.7,137.842-30.46-287.155,181.513,391.246-81.986-66.7,201.944-324.546-128.991,149.313,193.825,241.933-271.426L5055.744,2444" transform="translate(-4878 -2233)"/><g class="c" transform="translate(152 174)"><circle class="f" cx="37" cy="37" r="37"/><circle class="g" cx="37" cy="37" r="36.5"/></g><g class="c" transform="translate(502 240)"><circle class="f" cx="37" cy="37" r="37"/><circle class="g" cx="37" cy="37" r="36.5"/></g><g class="c" transform="translate(133 313)"><circle class="f" cx="37" cy="37" r="37"/><circle class="g" cx="37" cy="37" r="36.5"/></g><g class="c" transform="translate(264 75)"><circle class="f" cx="42" cy="42" r="42"/><circle class="g" cx="42" cy="42" r="41.5"/></g><g class="c" transform="translate(374 127)"><circle class="f" cx="60" cy="60" r="60"/><circle class="g" cx="60" cy="60" r="59.5"/></g><g class="c" transform="translate(437 430)"><circle class="f" cx="47" cy="47" r="47"/><circle class="g" cx="47" cy="47" r="46.5"/></g><g class="c" transform="translate(225 457)"><circle class="f" cx="75" cy="75" r="75"/><circle class="g" cx="75" cy="75" r="74.5"/></g><g class="d" transform="translate(300 286)"><ellipse class="f" cx="44" cy="43.5" rx="44" ry="43.5"/><ellipse class="g" cx="44" cy="43.5" rx="44.5" ry="44"/></g><g class="d" transform="translate(217 254)"><ellipse class="f" cx="36" cy="35.5" rx="36" ry="35.5"/><ellipse class="g" cx="36" cy="35.5" rx="36.5" ry="36"/></g><g class="d" transform="translate(201 397)"><ellipse class="f" cx="25" cy="24.5" rx="25" ry="24.5"/><ellipse class="g" cx="25" cy="24.5" rx="25.5" ry="25"/></g><g class="d" transform="translate(105 254)"><ellipse class="f" cx="28" cy="27.5" rx="28" ry="27.5"/><ellipse class="g" cx="28" cy="27.5" rx="28.5" ry="28"/></g><g class="d" transform="translate(518 187)"><ellipse class="f" cx="23" cy="22.5" rx="23" ry="22.5"/><ellipse class="g" cx="23" cy="22.5" rx="23.5" ry="23"/></g><g class="d" transform="translate(280 183)"><ellipse class="f" cx="26" cy="26.5" rx="26" ry="26.5"/><ellipse class="g" cx="26" cy="26.5" rx="26.5" ry="27"/></g><g class="d" transform="translate(498 350)"><ellipse class="f" cx="26" cy="26.5" rx="26" ry="26.5"/><ellipse class="g" cx="26" cy="26.5" rx="26.5" ry="27"/></g><g class="d" transform="translate(382 365)"><ellipse class="f" cx="32" cy="32.5" rx="32" ry="32.5"/><ellipse class="g" cx="32" cy="32.5" rx="32.5" ry="33"/></g><text class="e" transform="translate(250 482)"><tspan x="3.125" y="10">needs text to match </tspan><tspan x="26.875" y="23">the other </tspan><tspan x="21.065" y="36">illustrations</tspan><tspan x="47" y="49"></tspan><tspan x="4.26" y="62">also not very happy </tspan><tspan x="12.165" y="75">with the shapes</tspan><tspan x="47" y="88"></tspan><tspan x="12.435" y="101">still needs work</tspan></text></g></svg>