<?xml version="1.0" encoding="utf-8"?>
<!-- Generator: Adobe Illustrator 24.2.3, SVG Export Plug-In . SVG Version: 6.00 Build 0)  -->
<svg version="1.1" id="Layer_1" xmlns="http://www.w3.org/2000/svg" xmlns:xlink="http://www.w3.org/1999/xlink" x="0px" y="0px"
	 viewBox="0 0 610 406" style="enable-background:new 0 0 610 406;" xml:space="preserve">
<style type="text/css">
	.st0{fill:none;stroke:#FFFFFF;stroke-width:0.7;}
	.st1{enable-background:new    ;}
	.st2{fill:#FFFFFF;}
	.st3{fill:none;}
	.st4{fill:none;stroke:#FFFFFF;}
	.st5{fill:none;stroke:#FFFFFF;stroke-width:0.726;}
	.st6{fill:none;stroke:#FFFFFF;stroke-dasharray:3;}
	.st7{opacity:0.8;fill:none;stroke:#FF0000;stroke-width:2;stroke-dasharray:4;enable-background:new    ;}
	.st8{opacity:0.72;enable-background:new    ;}
	.st9{fill:#FF0000;}
	.st10{opacity:0.52;fill:none;stroke:#FFFFFF;stroke-width:0.5;enable-background:new    ;}
	.st11{opacity:0.8;enable-background:new    ;}
</style>
<line id="Line_25" class="st0" x1="500.4" y1="198.7" x2="550" y2="167.9"/>
<line id="Line_27" class="st0" x1="549" y1="154.9" x2="507.3" y2="120.9"/>
<line id="Line_25-2" class="st0" x1="407.4" y1="200.8" x2="357.5" y2="167.9"/>
<line id="Line_27-5_1_" class="st0" x1="418.3" y1="193" x2="410" y2="126.9"/>
<line id="Line_27-5_2_" class="st0" x1="480" y1="194.6" x2="415.3" y2="126.2"/>
<path id="Path_40" class="st0" d="M490.3,193.1l7.7-66.2"/>
<path id="Path_40_1_" class="st0" d="M429.2,194.6l62.2-70.5"/>
<g class="st1">
	<path class="st2" d="M426.6,336.2c0-2.3,1-3.6,2.8-3.6c1.2,0,2,0.6,2.4,1.5l-0.7,0.4c-0.3-0.7-0.9-1.2-1.7-1.2
		c-1.2,0-1.9,0.9-1.9,2.4v1c0,1.4,0.7,2.3,1.9,2.3c0.9,0,1.5-0.5,1.8-1.3l0.7,0.4c-0.4,1-1.3,1.6-2.4,1.6
		C427.6,339.8,426.6,338.6,426.6,336.2z"/>
	<path class="st2" d="M432.7,337.1c0-1.6,1-2.7,2.3-2.7s2.3,1.1,2.3,2.7c0,1.6-0.9,2.7-2.3,2.7S432.7,338.8,432.7,337.1z
		 M436.5,337.5v-0.7c0-1.1-0.6-1.6-1.5-1.6s-1.5,0.5-1.5,1.6v0.7c0,1.1,0.6,1.6,1.5,1.6S436.5,338.6,436.5,337.5z"/>
	<path class="st2" d="M438.7,339.7v-5.2h0.8v0.8h0c0.2-0.6,0.7-1,1.5-1c1.1,0,1.7,0.7,1.7,2v3.3h-0.8v-3.2c0-0.9-0.4-1.4-1.2-1.4
		c-0.6,0-1.3,0.3-1.3,1v3.6H438.7z"/>
	<path class="st2" d="M445.5,339.7c-0.5,0-0.8-0.3-0.8-0.8v-3.6h-0.8v-0.7h0.5c0.3,0,0.4-0.1,0.4-0.5v-1h0.7v1.4h1.1v0.7h-1.1v3.8h1
		v0.7H445.5z"/>
	<path class="st2" d="M447.9,339.7v-5.2h0.8v0.9h0c0.2-0.5,0.6-0.9,1.5-0.9h0.3v0.8H450c-0.9,0-1.4,0.4-1.4,0.9v3.5H447.9z"/>
	<path class="st2" d="M451.4,332.9v-0.1c0-0.3,0.1-0.4,0.5-0.4s0.5,0.2,0.5,0.4v0.1c0,0.3-0.2,0.5-0.5,0.5S451.4,333.1,451.4,332.9z
		 M451.5,334.5h0.8v5.2h-0.8V334.5z"/>
	<path class="st2" d="M454,332.3h0.8v3.1h0c0.3-0.6,0.8-1,1.5-1c1.3,0,2.1,1,2.1,2.7c0,1.6-0.8,2.7-2.1,2.7c-0.7,0-1.2-0.3-1.5-1h0
		v0.8H454V332.3z M457.6,337.6v-0.9c0-0.9-0.6-1.5-1.5-1.5c-0.7,0-1.3,0.4-1.3,1v1.9c0,0.7,0.6,1,1.3,1
		C457.1,339.1,457.6,338.5,457.6,337.6z"/>
	<path class="st2" d="M463,338.9L463,338.9c-0.2,0.5-0.6,1-1.5,1c-1.1,0-1.7-0.7-1.7-2v-3.3h0.8v3.2c0,0.9,0.4,1.4,1.2,1.4
		c0.6,0,1.2-0.3,1.2-1v-3.6h0.8v5.2H463V338.9z"/>
	<path class="st2" d="M466.7,339.7c-0.5,0-0.8-0.3-0.8-0.8v-3.6H465v-0.7h0.5c0.3,0,0.5-0.1,0.5-0.5v-1h0.7v1.4h1.1v0.7h-1.1v3.8h1
		v0.7H466.7z"/>
	<path class="st2" d="M468.6,337.1c0-1.6,0.9-2.7,2.3-2.7c1.4,0,2.3,1.1,2.3,2.7c0,1.6-0.9,2.7-2.3,2.7
		C469.6,339.8,468.6,338.8,468.6,337.1z M472.4,337.5v-0.7c0-1.1-0.6-1.6-1.5-1.6c-0.9,0-1.5,0.5-1.5,1.6v0.7c0,1.1,0.6,1.6,1.5,1.6
		C471.8,339.1,472.4,338.6,472.4,337.5z"/>
	<path class="st2" d="M474.6,339.7v-5.2h0.8v0.9h0.1c0.2-0.5,0.6-0.9,1.5-0.9h0.3v0.8h-0.5c-0.9,0-1.4,0.4-1.4,0.9v3.5H474.6z"/>
	<path class="st2" d="M477.8,338.8l0.6-0.5c0.4,0.5,0.9,0.8,1.5,0.8c0.7,0,1.1-0.3,1.1-0.8c0-0.4-0.2-0.7-0.9-0.8l-0.4-0.1
		c-0.9-0.1-1.7-0.5-1.7-1.5c0-1,0.8-1.5,1.8-1.5c0.8,0,1.4,0.3,1.8,0.8l-0.5,0.5c-0.2-0.3-0.7-0.6-1.3-0.6c-0.7,0-1,0.3-1,0.8
		c0,0.5,0.3,0.7,1,0.8l0.4,0.1c1.1,0.2,1.6,0.7,1.6,1.4c0,1-0.7,1.6-1.9,1.6C478.9,339.8,478.2,339.4,477.8,338.8z"/>
</g>
<g class="st1">
	<path class="st2" d="M440.4,80.2v6.2h-0.8v-6.2h-2.2v-0.7h5.3v0.7H440.4z"/>
	<path class="st2" d="M443.2,86.4v-5.2h0.8v0.9h0.1c0.2-0.5,0.6-0.9,1.5-0.9h0.3v0.8h-0.5c-0.9,0-1.4,0.4-1.4,0.9v3.5H443.2z"/>
	<path class="st2" d="M450.6,86.4c-0.6,0-0.8-0.4-0.9-0.8h0c-0.2,0.6-0.8,1-1.5,1c-1.1,0-1.7-0.6-1.7-1.6c0-1,0.7-1.5,2.2-1.5h1V83
		c0-0.7-0.4-1.1-1.2-1.1c-0.6,0-1,0.3-1.3,0.8l-0.5-0.4c0.3-0.5,0.9-1,1.8-1c1.2,0,2,0.6,2,1.7v2.8h0.6v0.7H450.6z M449.7,84.9v-0.8
		h-1.1c-0.9,0-1.3,0.3-1.3,0.8v0.2c0,0.5,0.4,0.8,1,0.8C449.1,85.9,449.7,85.5,449.7,84.9z"/>
	<path class="st2" d="M455.5,85.6L455.5,85.6c-0.3,0.6-0.8,1-1.5,1c-1.3,0-2.1-1-2.1-2.7c0-1.6,0.8-2.7,2.1-2.7c0.7,0,1.2,0.3,1.5,1
		h0V79h0.8v7.4h-0.8V85.6z M455.5,84.8v-1.9c0-0.6-0.6-1-1.3-1c-0.9,0-1.5,0.6-1.5,1.5v0.9c0,0.9,0.6,1.5,1.5,1.5
		C454.9,85.8,455.5,85.4,455.5,84.8z"/>
	<path class="st2" d="M457.6,83.8c0-1.6,0.9-2.7,2.3-2.7c1.4,0,2.2,1.1,2.2,2.5V84h-3.7v0.2c0,0.9,0.6,1.6,1.5,1.6
		c0.7,0,1.1-0.3,1.4-0.9l0.6,0.4c-0.3,0.7-1.1,1.2-2,1.2C458.5,86.5,457.6,85.5,457.6,83.8z M458.5,83.4L458.5,83.4l2.8,0.1v-0.1
		c0-0.9-0.5-1.5-1.4-1.5C459.1,81.8,458.5,82.5,458.5,83.4z"/>
	<path class="st2" d="M463.5,86.4v-5.2h0.8v0.9h0.1c0.2-0.5,0.6-0.9,1.5-0.9h0.3v0.8h-0.5c-0.9,0-1.4,0.4-1.4,0.9v3.5H463.5z"/>
	<path class="st2" d="M466.7,85.5l0.6-0.5c0.4,0.5,0.9,0.8,1.5,0.8c0.7,0,1.1-0.3,1.1-0.8c0-0.4-0.2-0.7-0.9-0.8l-0.4-0.1
		c-0.9-0.1-1.7-0.5-1.7-1.5c0-1,0.8-1.5,1.8-1.5c0.8,0,1.4,0.3,1.8,0.8l-0.5,0.5c-0.2-0.3-0.7-0.6-1.3-0.6c-0.7,0-1,0.3-1,0.8
		c0,0.5,0.3,0.7,1,0.8l0.4,0.1c1.1,0.2,1.6,0.7,1.6,1.4c0,1-0.7,1.6-1.9,1.6C467.8,86.5,467.1,86.1,466.7,85.5z"/>
</g>
<g class="st1">
	<path class="st2" d="M111.5,336.2c0-2.3,1-3.6,2.8-3.6c1.2,0,2,0.6,2.4,1.5l-0.7,0.4c-0.3-0.7-0.9-1.2-1.7-1.2
		c-1.2,0-1.9,0.9-1.9,2.4v1c0,1.4,0.7,2.3,1.9,2.3c0.9,0,1.5-0.5,1.8-1.3l0.7,0.4c-0.4,1-1.3,1.6-2.4,1.6
		C112.6,339.8,111.5,338.6,111.5,336.2z"/>
	<path class="st2" d="M117.6,337.1c0-1.6,0.9-2.7,2.3-2.7c1.4,0,2.3,1.1,2.3,2.7c0,1.6-0.9,2.7-2.3,2.7
		C118.6,339.8,117.6,338.8,117.6,337.1z M121.4,337.5v-0.7c0-1.1-0.6-1.6-1.5-1.6c-0.9,0-1.5,0.5-1.5,1.6v0.7c0,1.1,0.6,1.6,1.5,1.6
		C120.8,339.1,121.4,338.6,121.4,337.5z"/>
	<path class="st2" d="M123.6,339.7v-5.2h0.8v0.8h0c0.2-0.6,0.7-1,1.5-1c1.1,0,1.7,0.7,1.7,2v3.3h-0.8v-3.2c0-0.9-0.4-1.4-1.2-1.4
		c-0.6,0-1.3,0.3-1.3,1v3.6H123.6z"/>
	<path class="st2" d="M130.4,339.7c-0.5,0-0.8-0.3-0.8-0.8v-3.6h-0.8v-0.7h0.5c0.3,0,0.4-0.1,0.4-0.5v-1h0.7v1.4h1.1v0.7h-1.1v3.8h1
		v0.7H130.4z"/>
	<path class="st2" d="M132.8,339.7v-5.2h0.8v0.9h0.1c0.2-0.5,0.6-0.9,1.5-0.9h0.3v0.8H135c-0.9,0-1.4,0.4-1.4,0.9v3.5H132.8z"/>
	<path class="st2" d="M136.4,332.9v-0.1c0-0.3,0.1-0.4,0.5-0.4s0.5,0.2,0.5,0.4v0.1c0,0.3-0.1,0.5-0.5,0.5S136.4,333.1,136.4,332.9z
		 M136.5,334.5h0.8v5.2h-0.8V334.5z"/>
	<path class="st2" d="M139,332.3h0.8v3.1h0c0.3-0.6,0.8-1,1.5-1c1.3,0,2.1,1,2.1,2.7c0,1.6-0.8,2.7-2.1,2.7c-0.7,0-1.2-0.3-1.5-1h0
		v0.8H139V332.3z M142.5,337.6v-0.9c0-0.9-0.6-1.5-1.5-1.5c-0.7,0-1.3,0.4-1.3,1v1.9c0,0.7,0.6,1,1.3,1
		C142,339.1,142.5,338.5,142.5,337.6z"/>
	<path class="st2" d="M147.9,338.9L147.9,338.9c-0.2,0.5-0.6,1-1.5,1c-1.1,0-1.7-0.7-1.7-2v-3.3h0.8v3.2c0,0.9,0.4,1.4,1.2,1.4
		c0.6,0,1.2-0.3,1.2-1v-3.6h0.8v5.2h-0.8V338.9z"/>
	<path class="st2" d="M151.6,339.7c-0.5,0-0.8-0.3-0.8-0.8v-3.6h-0.8v-0.7h0.5c0.3,0,0.4-0.1,0.4-0.5v-1h0.7v1.4h1.1v0.7h-1.1v3.8h1
		v0.7H151.6z"/>
	<path class="st2" d="M153.5,337.1c0-1.6,0.9-2.7,2.3-2.7c1.4,0,2.3,1.1,2.3,2.7c0,1.6-0.9,2.7-2.3,2.7
		C154.5,339.8,153.5,338.8,153.5,337.1z M157.3,337.5v-0.7c0-1.1-0.6-1.6-1.5-1.6c-0.9,0-1.5,0.5-1.5,1.6v0.7c0,1.1,0.6,1.6,1.5,1.6
		C156.7,339.1,157.3,338.6,157.3,337.5z"/>
	<path class="st2" d="M159.5,339.7v-5.2h0.8v0.9h0.1c0.2-0.5,0.6-0.9,1.5-0.9h0.3v0.8h-0.5c-0.9,0-1.4,0.4-1.4,0.9v3.5H159.5z"/>
	<path class="st2" d="M162.7,338.8l0.6-0.5c0.4,0.5,0.9,0.8,1.5,0.8c0.7,0,1.1-0.3,1.1-0.8c0-0.4-0.2-0.7-0.9-0.8l-0.4-0.1
		c-0.9-0.1-1.7-0.5-1.7-1.5c0-1,0.8-1.5,1.8-1.5c0.8,0,1.4,0.3,1.8,0.8l-0.5,0.5c-0.2-0.3-0.7-0.6-1.3-0.6s-1,0.3-1,0.8
		c0,0.5,0.3,0.7,1,0.8l0.4,0.1c1.1,0.2,1.6,0.7,1.6,1.4c0,1-0.7,1.6-1.9,1.6C163.8,339.8,163.1,339.4,162.7,338.8z"/>
</g>
<line id="Line_27-6" class="st0" x1="358.5" y1="154.9" x2="400.2" y2="120.9"/>
<line id="Line_28" class="st0" x1="421" y1="116.9" x2="486" y2="116.9"/>
<circle class="st3" cx="559" cy="160.9" r="12"/>
<circle class="st4" cx="559" cy="160.9" r="11.5"/>
<circle class="st3" cx="497.5" cy="114.9" r="12"/>
<circle class="st4" cx="497.5" cy="114.9" r="11.5"/>
<circle class="st3" cx="348" cy="160.9" r="12"/>
<circle class="st4" cx="348" cy="160.9" r="11.5"/>
<circle class="st3" cx="409.9" cy="114.9" r="12"/>
<circle class="st4" cx="409.9" cy="114.9" r="11.5"/>
<line id="Line_25-3" class="st0" x1="179" y1="181" x2="223" y2="154"/>
<path id="Path_39" class="st0" d="M152,162.7l14.9-41.2"/>
<line id="Line_27-10" class="st0" x1="222" y1="141" x2="180.3" y2="117"/>
<line id="Line_25-4" class="st0" x1="102" y1="184" x2="53.5" y2="154"/>
<line id="Line_27-14" class="st5" x1="125.9" y1="164.6" x2="110" y2="122"/>
<line id="Line_27-15" class="st0" x1="54.5" y1="141" x2="96.2" y2="117"/>
<line id="Line_28-2" class="st0" x1="117" y1="113" x2="159" y2="113"/>
<circle class="st3" cx="227.7" cy="247.5" r="16"/>
<circle class="st6" cx="227.7" cy="247.5" r="15.5"/>
<circle class="st3" cx="51.7" cy="247.5" r="16"/>
<circle class="st6" cx="51.7" cy="247.5" r="15.5"/>
<circle class="st3" cx="140.5" cy="297.5" r="17"/>
<circle class="st6" cx="140.5" cy="297.5" r="16.5"/>
<circle class="st3" cx="232" cy="147" r="12"/>
<circle class="st4" cx="232" cy="147" r="11.5"/>
<circle class="st3" cx="170.5" cy="111" r="12"/>
<circle class="st4" cx="170.5" cy="111" r="11.5"/>
<circle class="st3" cx="44" cy="147" r="12"/>
<circle class="st4" cx="44" cy="147" r="11.5"/>
<circle class="st3" cx="105.9" cy="111" r="12"/>
<circle class="st4" cx="105.9" cy="111" r="11.5"/>
<line id="Line_29_1_" class="st0" x1="96.2" y1="222.2" x2="65" y2="239.5"/>
<line id="Line_31_1_" class="st0" x1="183.8" y1="222.8" x2="214" y2="239"/>
<line id="Line_34" class="st0" x1="462.9" y1="248.4" x2="479" y2="220.1"/>
<line id="Line_35" class="st0" x1="436.6" y1="208.2" x2="473" y2="208.2"/>
<line id="Line_39_2_" class="st0" x1="471.7" y1="262" x2="506.5" y2="262"/>
<line id="Line_41_1_" class="st0" x1="403.3" y1="262" x2="440.5" y2="262"/>
<line id="Line_36" class="st0" x1="447.7" y1="250.3" x2="429.7" y2="220.7"/>
<line id="Line_40" class="st0" x1="394.3" y1="248.9" x2="411" y2="219.7"/>
<line id="Line_38_1_" class="st0" x1="516" y1="248.8" x2="496.6" y2="220.5"/>
<path id="Line_38_2_" class="st0" d="M515.2,247.7"/>
<circle class="st6" cx="420.8" cy="208.2" r="15.3"/>
<circle class="st6" cx="488.4" cy="208.2" r="15.3"/>
<circle class="st6" cx="387.4" cy="262.6" r="15.3"/>
<circle class="st6" cx="455.8" cy="262.6" r="15.3"/>
<circle class="st6" cx="522.4" cy="262.6" r="15.3"/>
<line id="Line_32" class="st0" x1="140.3" y1="254.5" x2="140.3" y2="280.5"/>
<circle class="st7" cx="140.5" cy="207.5" r="46"/>
<g class="st1">
	<path class="st2" d="M381.6,381.6h2.8c2.1,0,3.4,1.4,3.4,4.2c0,2.8-1.3,4.2-3.4,4.2h-2.8V381.6z M384.4,389.1c1.4,0,2.4-1,2.4-2.6
		v-1.4c0-1.7-1-2.6-2.4-2.6h-1.8v6.6H384.4z"/>
	<path class="st2" d="M389.1,386.9c0-2,1.1-3.2,2.8-3.2c1.7,0,2.7,1.3,2.7,3v0.5h-4.4v0.3c0,1.1,0.7,1.9,1.8,1.9
		c0.8,0,1.4-0.4,1.7-1.1l0.7,0.5c-0.4,0.8-1.3,1.4-2.4,1.4C390.2,390.1,389.1,388.9,389.1,386.9z M390.1,386.3L390.1,386.3l3.4,0.1
		v-0.1c0-1.1-0.7-1.8-1.6-1.8C390.8,384.5,390.1,385.3,390.1,386.3z"/>
	<path class="st2" d="M395.7,386.9c0-2,1-3.2,2.8-3.2c1.2,0,2,0.6,2.3,1.5l-0.8,0.4c-0.2-0.6-0.8-1-1.5-1c-1.1,0-1.7,0.8-1.7,1.9
		v1.1c0,1.1,0.6,1.9,1.7,1.9c0.8,0,1.3-0.4,1.7-1.1l0.7,0.5c-0.4,0.9-1.2,1.5-2.4,1.5C396.7,390.1,395.7,388.9,395.7,386.9z"/>
	<path class="st2" d="M401.6,386.9c0-2,1.1-3.2,2.8-3.2c1.7,0,2.7,1.3,2.7,3v0.5h-4.4v0.3c0,1.1,0.7,1.9,1.8,1.9
		c0.8,0,1.4-0.4,1.7-1.1l0.7,0.5c-0.4,0.8-1.3,1.4-2.4,1.4C402.7,390.1,401.6,388.9,401.6,386.9z M402.7,386.3L402.7,386.3l3.4,0.1
		v-0.1c0-1.1-0.7-1.8-1.6-1.8C403.4,384.5,402.7,385.3,402.7,386.3z"/>
	<path class="st2" d="M408.7,390v-6.2h1v1l0,0c0.3-0.7,0.8-1.2,1.8-1.2c1.3,0,2.1,0.9,2.1,2.4v4h-1v-3.8c0-1.1-0.5-1.7-1.4-1.7
		c-0.8,0-1.5,0.4-1.5,1.2v4.3L408.7,390L408.7,390z"/>
	<path class="st2" d="M416.9,390c-0.7,0-1-0.4-1-1v-4.3h-1v-0.8h0.6c0.4,0,0.5-0.1,0.5-0.6v-1.2h0.9v1.7h1.4v0.8h-1.4v4.5h1.3v0.8
		h-1.3V390z"/>
	<path class="st2" d="M419.7,390v-6.2h1v1.1h0.1c0.2-0.6,0.8-1.1,1.8-1.1h0.4v1h-0.6c-1,0-1.7,0.4-1.7,1v4.2H419.7z"/>
	<path class="st2" d="M428.6,390c-0.7,0-1-0.4-1.1-1h-0.1c-0.3,0.8-0.9,1.2-1.8,1.2c-1.3,0-2.1-0.7-2.1-1.9c0-1.2,0.8-1.8,2.6-1.8
		h1.2v-0.6c0-0.9-0.5-1.4-1.5-1.4c-0.7,0-1.2,0.4-1.6,0.9l-0.6-0.5c0.3-0.7,1.1-1.2,2.2-1.2c1.5,0,2.4,0.8,2.4,2.1v3.4h0.7v0.8
		H428.6z M427.4,388.2v-1h-1.3c-1.1,0-1.6,0.3-1.6,0.9v0.3c0,0.6,0.5,1,1.2,1C426.8,389.3,427.4,388.8,427.4,388.2z"/>
	<path class="st2" d="M431.5,390c-0.7,0-1-0.4-1-1v-7.9h1v8h0.9v0.8h-0.9V390z"/>
	<path class="st2" d="M433.6,381.8v-0.2c0-0.3,0.2-0.5,0.6-0.5s0.6,0.2,0.6,0.5v0.2c0,0.3-0.2,0.5-0.6,0.5
		C433.8,382.4,433.6,382.1,433.6,381.8z M433.7,383.8h1v6.2h-1V383.8z"/>
	<path class="st2" d="M436.1,390v-0.8l3.5-4.5h-3.4v-0.8h4.6v0.7l-3.6,4.6h3.7v0.8L436.1,390L436.1,390z"/>
	<path class="st2" d="M441.7,386.9c0-2,1.1-3.2,2.8-3.2c1.7,0,2.7,1.3,2.7,3v0.5h-4.4v0.3c0,1.1,0.7,1.9,1.8,1.9
		c0.8,0,1.4-0.4,1.7-1.1l0.7,0.5c-0.4,0.8-1.3,1.4-2.4,1.4C442.8,390.1,441.7,388.9,441.7,386.9z M442.7,386.3L442.7,386.3l3.4,0.1
		v-0.1c0-1.1-0.7-1.8-1.6-1.8C443.5,384.5,442.7,385.3,442.7,386.3z"/>
	<path class="st2" d="M452.7,389L452.7,389c-0.4,0.8-1,1.2-1.9,1.2c-1.5,0-2.5-1.3-2.5-3.2c0-2,1-3.2,2.5-3.2c0.9,0,1.5,0.4,1.8,1.2
		l0,0v-3.7h1v8.9h-1V389H452.7z M452.7,388v-2.3c0-0.7-0.7-1.2-1.6-1.2c-1.1,0-1.8,0.7-1.8,1.8v1.1c0,1.1,0.7,1.8,1.8,1.8
		C452,389.3,452.7,388.8,452.7,388z"/>
	<path class="st2" d="M464.1,388.8L464.1,388.8c-0.2,0.8-1.1,1.4-2.4,1.4c-2.1,0-3.5-1.5-3.5-4.3s1.4-4.3,3.6-4.3
		c1.5,0,2.5,0.7,3,1.8l-0.8,0.5c-0.4-0.9-1.2-1.4-2.2-1.4c-1.5,0-2.5,1.1-2.5,2.7v1.4c0,1.7,1,2.8,2.6,2.8c1.2,0,2.1-0.6,2.1-1.8
		v-0.8h-1.8v-0.9h2.8v4.3h-0.9L464.1,388.8L464.1,388.8z"/>
	<path class="st2" d="M466.5,386.9c0-2,1.1-3.2,2.8-3.2c1.7,0,2.8,1.3,2.8,3.2c0,2-1.1,3.2-2.8,3.2S466.5,388.9,466.5,386.9z
		 M471,387.3v-0.9c0-1.3-0.7-1.9-1.8-1.9s-1.8,0.6-1.8,1.9v0.9c0,1.3,0.7,1.9,1.8,1.9S471,388.7,471,387.3z"/>
	<path class="st2" d="M474.9,390l-2.2-6.2h1l1.1,3.1l0.7,2.1h0.1l0.7-2.1l1.1-3.1h0.9L476,390H474.9z"/>
	<path class="st2" d="M478.9,386.9c0-2,1.1-3.2,2.8-3.2c1.7,0,2.7,1.3,2.7,3v0.5H480v0.3c0,1.1,0.7,1.9,1.8,1.9
		c0.8,0,1.4-0.4,1.7-1.1l0.7,0.5c-0.4,0.8-1.3,1.4-2.4,1.4C480,390.1,478.9,388.9,478.9,386.9z M479.9,386.3L479.9,386.3l3.4,0.1
		v-0.1c0-1.1-0.7-1.8-1.6-1.8C480.6,384.5,479.9,385.3,479.9,386.3z"/>
	<path class="st2" d="M485.9,390v-6.2h1v1.1h0.1c0.2-0.6,0.8-1.1,1.8-1.1h0.4v1h-0.6c-1,0-1.7,0.4-1.7,1v4.2H485.9z"/>
	<path class="st2" d="M490.3,390v-6.2h1v1l0,0c0.3-0.7,0.8-1.2,1.8-1.2c1.3,0,2.1,0.9,2.1,2.4v4h-1v-3.8c0-1.1-0.5-1.7-1.4-1.7
		c-0.8,0-1.5,0.4-1.5,1.2v4.3L490.3,390L490.3,390z"/>
	<path class="st2" d="M501.6,390c-0.7,0-1-0.4-1.1-1h-0.1c-0.3,0.8-0.9,1.2-1.8,1.2c-1.3,0-2.1-0.7-2.1-1.9c0-1.2,0.8-1.8,2.6-1.8
		h1.2v-0.6c0-0.9-0.5-1.4-1.5-1.4c-0.7,0-1.2,0.4-1.6,0.9l-0.6-0.5c0.3-0.7,1.1-1.2,2.2-1.2c1.5,0,2.4,0.8,2.4,2.1v3.4h0.7v0.8
		H501.6z M500.5,388.2v-1h-1.3c-1.1,0-1.6,0.3-1.6,0.9v0.3c0,0.6,0.5,1,1.2,1C499.8,389.3,500.5,388.8,500.5,388.2z"/>
	<path class="st2" d="M503.6,390v-6.2h1v1l0,0c0.3-0.7,0.8-1.2,1.8-1.2c1.3,0,2.1,0.9,2.1,2.4v4h-1v-3.8c0-1.1-0.5-1.7-1.4-1.7
		c-0.8,0-1.5,0.4-1.5,1.2v4.3L503.6,390L503.6,390z"/>
	<path class="st2" d="M509.9,386.9c0-2,1-3.2,2.8-3.2c1.2,0,2,0.6,2.3,1.5l-0.8,0.4c-0.2-0.6-0.8-1-1.5-1c-1.1,0-1.7,0.8-1.7,1.9
		v1.1c0,1.1,0.6,1.9,1.7,1.9c0.8,0,1.3-0.4,1.7-1.1l0.7,0.5c-0.4,0.9-1.2,1.5-2.4,1.5C510.9,390.1,509.9,388.9,509.9,386.9z"/>
	<path class="st2" d="M515.9,386.9c0-2,1.1-3.2,2.8-3.2s2.7,1.3,2.7,3v0.5H517v0.3c0,1.1,0.7,1.9,1.8,1.9c0.8,0,1.4-0.4,1.7-1.1
		l0.7,0.5c-0.4,0.8-1.3,1.4-2.4,1.4C517,390.1,515.9,388.9,515.9,386.9z M516.9,386.3L516.9,386.3l3.4,0.1v-0.1
		c0-1.1-0.7-1.8-1.6-1.8C517.6,384.5,516.9,385.3,516.9,386.3z"/>
</g>
<g class="st8">
	<path class="st9" d="M66.4,385.9c0-2.8,1.3-4.4,3.4-4.4c1.4,0,2.4,0.7,2.9,1.8l-0.8,0.5c-0.3-0.9-1-1.4-2.1-1.4
		c-1.4,0-2.3,1.1-2.3,2.9v1.2c0,1.7,0.9,2.8,2.3,2.8c1.1,0,1.8-0.6,2.1-1.5l0.8,0.5c-0.5,1.2-1.5,1.9-2.9,1.9
		C67.7,390.1,66.4,388.7,66.4,385.9z"/>
	<path class="st9" d="M73.7,386.9c0-2,1.1-3.2,2.8-3.2c1.7,0,2.7,1.3,2.7,3v0.5h-4.4v0.3c0,1.1,0.7,1.9,1.8,1.9
		c0.8,0,1.4-0.4,1.7-1.1l0.7,0.5c-0.4,0.8-1.3,1.4-2.4,1.4C74.8,390.1,73.7,388.9,73.7,386.9z M74.7,386.3L74.7,386.3l3.4,0.1v-0.1
		c0-1.1-0.7-1.8-1.6-1.8C75.5,384.5,74.7,385.3,74.7,386.3z"/>
	<path class="st9" d="M80.8,390v-6.2h1v1l0,0c0.3-0.7,0.8-1.2,1.8-1.2c1.3,0,2.1,0.9,2.1,2.4v4h-1v-3.8c0-1.1-0.5-1.7-1.4-1.7
		c-0.8,0-1.5,0.4-1.5,1.2v4.3L80.8,390L80.8,390z"/>
	<path class="st9" d="M89,390c-0.7,0-1-0.4-1-1v-4.3h-1v-0.8h0.6c0.4,0,0.5-0.1,0.5-0.6v-1.2H89v1.7h1.4v0.8H89v4.5h1.3v0.8H89V390z
		"/>
	<path class="st9" d="M91.8,390v-6.2h1v1.1h0.1c0.2-0.6,0.8-1.1,1.8-1.1H95v1h-0.6c-1,0-1.7,0.4-1.7,1v4.2H91.8z"/>
	<path class="st9" d="M100.7,390c-0.7,0-1-0.4-1.1-1h-0.1c-0.3,0.8-0.9,1.2-1.8,1.2c-1.3,0-2.1-0.7-2.1-1.9c0-1.2,0.8-1.8,2.6-1.8
		h1.2v-0.6c0-0.9-0.5-1.4-1.5-1.4c-0.7,0-1.2,0.4-1.6,0.9l-0.6-0.5c0.3-0.7,1.1-1.2,2.2-1.2c1.5,0,2.4,0.8,2.4,2.1v3.4h0.7v0.8
		H100.7z M99.5,388.2v-1h-1.3c-1.1,0-1.6,0.3-1.6,0.9v0.3c0,0.6,0.5,1,1.2,1C98.9,389.3,99.5,388.8,99.5,388.2z"/>
	<path class="st9" d="M103.6,390c-0.7,0-1-0.4-1-1v-7.9h1v8h0.9v0.8h-0.9V390z"/>
	<path class="st9" d="M105.7,381.8v-0.2c0-0.3,0.2-0.5,0.6-0.5s0.6,0.2,0.6,0.5v0.2c0,0.3-0.2,0.5-0.6,0.5
		C105.9,382.4,105.7,382.1,105.7,381.8z M105.8,383.8h1v6.2h-1V383.8z"/>
	<path class="st9" d="M108.2,390v-0.8l3.5-4.5h-3.4v-0.8h4.6v0.7l-3.6,4.6h3.7v0.8L108.2,390L108.2,390z"/>
	<path class="st9" d="M113.8,386.9c0-2,1.1-3.2,2.8-3.2c1.7,0,2.7,1.3,2.7,3v0.5h-4.4v0.3c0,1.1,0.7,1.9,1.8,1.9
		c0.8,0,1.4-0.4,1.7-1.1l0.7,0.5c-0.4,0.8-1.3,1.4-2.4,1.4C114.9,390.1,113.8,388.9,113.8,386.9z M114.8,386.3L114.8,386.3l3.4,0.1
		v-0.1c0-1.1-0.7-1.8-1.6-1.8C115.6,384.5,114.8,385.3,114.8,386.3z"/>
	<path class="st9" d="M124.8,389L124.8,389c-0.4,0.8-1,1.2-1.9,1.2c-1.5,0-2.5-1.3-2.5-3.2c0-2,1-3.2,2.5-3.2c0.9,0,1.5,0.4,1.8,1.2
		l0,0v-3.7h1v8.9h-1L124.8,389L124.8,389z M124.8,388v-2.3c0-0.7-0.7-1.2-1.6-1.2c-1.1,0-1.8,0.7-1.8,1.8v1.1c0,1.1,0.7,1.8,1.8,1.8
		C124.1,389.3,124.8,388.8,124.8,388z"/>
	<path class="st9" d="M130.8,390v-8.4h3.3c1.5,0,2.3,0.9,2.3,2.4s-0.8,2.4-2.3,2.4h-2.3v3.6H130.8z M131.8,385.5h2.3
		c0.8,0,1.3-0.4,1.3-1.2v-0.6c0-0.8-0.5-1.2-1.3-1.2h-2.3V385.5z"/>
	<path class="st9" d="M137.2,386.9c0-2,1.1-3.2,2.8-3.2s2.8,1.3,2.8,3.2c0,2-1.1,3.2-2.8,3.2C138.4,390.1,137.2,388.9,137.2,386.9z
		 M141.8,387.3v-0.9c0-1.3-0.7-1.9-1.8-1.9c-1,0-1.8,0.6-1.8,1.9v0.9c0,1.3,0.7,1.9,1.8,1.9C141.1,389.3,141.8,388.7,141.8,387.3z"
		/>
	<path class="st9" d="M144.3,381.8v-0.2c0-0.3,0.2-0.5,0.6-0.5c0.4,0,0.6,0.2,0.6,0.5v0.2c0,0.3-0.2,0.5-0.6,0.5
		C144.5,382.4,144.3,382.1,144.3,381.8z M144.4,383.8h1v6.2h-1V383.8z"/>
	<path class="st9" d="M147.4,390v-6.2h1v1l0,0c0.3-0.7,0.8-1.2,1.8-1.2c1.3,0,2.1,0.9,2.1,2.4v4h-1v-3.8c0-1.1-0.5-1.7-1.4-1.7
		c-0.8,0-1.5,0.4-1.5,1.2v4.3L147.4,390L147.4,390z"/>
	<path class="st9" d="M155.6,390c-0.7,0-1-0.4-1-1v-4.3h-1v-0.8h0.6c0.4,0,0.5-0.1,0.5-0.6v-1.2h0.9v1.7h1.4v0.8h-1.4v4.5h1.3v0.8
		h-1.3V390z"/>
	<path class="st9" d="M160.8,386.9c0-2,1.1-3.2,2.8-3.2s2.8,1.3,2.8,3.2c0,2-1.1,3.2-2.8,3.2S160.8,388.9,160.8,386.9z M165.4,387.3
		v-0.9c0-1.3-0.7-1.9-1.8-1.9s-1.8,0.6-1.8,1.9v0.9c0,1.3,0.7,1.9,1.8,1.9S165.4,388.7,165.4,387.3z"/>
	<path class="st9" d="M168.3,384.7h-1v-0.8h1v-1.2c0-0.9,0.4-1.4,1.4-1.4h0.9v0.8h-1.3v1.8h1.3v0.8h-1.3v5.3h-1L168.3,384.7
		L168.3,384.7z"/>
	<path class="st9" d="M174.7,390v-8.4h5v0.9h-4v2.8h3.6v0.9h-3.6v3.8L174.7,390L174.7,390z"/>
	<path class="st9" d="M185.4,390c-0.7,0-1-0.4-1.1-1h-0.1c-0.3,0.8-0.9,1.2-1.8,1.2c-1.3,0-2.1-0.7-2.1-1.9c0-1.2,0.8-1.8,2.6-1.8
		h1.2v-0.6c0-0.9-0.5-1.4-1.5-1.4c-0.7,0-1.2,0.4-1.6,0.9l-0.6-0.5c0.3-0.7,1.1-1.2,2.2-1.2c1.5,0,2.4,0.8,2.4,2.1v3.4h0.7v0.8
		H185.4z M184.2,388.2v-1H183c-1.1,0-1.6,0.3-1.6,0.9v0.3c0,0.6,0.5,1,1.2,1C183.6,389.3,184.2,388.8,184.2,388.2z"/>
	<path class="st9" d="M187.2,381.8v-0.2c0-0.3,0.2-0.5,0.6-0.5c0.4,0,0.6,0.2,0.6,0.5v0.2c0,0.3-0.2,0.5-0.6,0.5
		C187.4,382.4,187.2,382.1,187.2,381.8z M187.3,383.8h1v6.2h-1V383.8z"/>
	<path class="st9" d="M191.3,390c-0.7,0-1-0.4-1-1v-7.9h1v8h0.9v0.8h-0.9V390z"/>
	<path class="st9" d="M197.4,389L197.4,389c-0.3,0.6-0.8,1.2-1.8,1.2c-1.3,0-2.1-0.9-2.1-2.4v-4h1v3.8c0,1.1,0.5,1.7,1.4,1.7
		c0.8,0,1.5-0.4,1.5-1.2v-4.3h1v6.2h-1L197.4,389L197.4,389z"/>
	<path class="st9" d="M200.4,390v-6.2h1v1.1h0.1c0.2-0.6,0.8-1.1,1.8-1.1h0.4v1H203c-1,0-1.7,0.4-1.7,1v4.2H200.4z"/>
	<path class="st9" d="M204.3,386.9c0-2,1.1-3.2,2.8-3.2s2.7,1.3,2.7,3v0.5h-4.4v0.3c0,1.1,0.7,1.9,1.8,1.9c0.8,0,1.4-0.4,1.7-1.1
		l0.7,0.5c-0.4,0.8-1.3,1.4-2.4,1.4C205.4,390.1,204.3,388.9,204.3,386.9z M205.3,386.3L205.3,386.3l3.4,0.1v-0.1
		c0-1.1-0.7-1.8-1.6-1.8C206,384.5,205.3,385.3,205.3,386.3z"/>
</g>
<g class="st1">
	<path class="st2" d="M79.3,35l-3.9-15.4h1.4l3.3,13.7h0.1l3.6-13.7h1.6L89,33.4l0,0l3.4-13.7h1.4l-4,15.4h-1.5l-3.7-13.9l0,0
		L80.8,35H79.3z"/>
	<path class="st2" d="M96.1,19.9v-0.2c0-0.5,0.3-0.8,0.9-0.8s0.9,0.3,0.9,0.8v0.2c0,0.5-0.3,0.8-0.9,0.8
		C96.4,20.7,96.1,20.3,96.1,19.9z M96.4,23.7h1.3V35h-1.3V23.7z"/>
	<path class="st2" d="M103.7,35c-0.9,0-1.4-0.5-1.4-1.4v-8.8h-2v-1.1h1.3c0.6,0,0.8-0.2,0.8-0.9v-2.3h1.1v3.1h2.6v1.1h-2.6v9.1h2.4
		V35H103.7z"/>
	<path class="st2" d="M109.1,18.7h1.3v6.8h0.1c0.5-1.2,1.5-2,3.3-2c2.4,0,3.8,1.5,3.8,4.3V35h-1.3v-7c0-2.3-1-3.4-2.9-3.4
		c-1.6,0-3.1,0.8-3.1,2.5V35H109L109.1,18.7L109.1,18.7z"/>
	<path class="st2" d="M120.6,29.4c0-3.7,1.9-5.9,4.9-5.9s4.9,2.2,4.9,5.9s-1.9,5.9-4.9,5.9C122.5,35.3,120.6,33.1,120.6,29.4z
		 M129,30.1v-1.4c0-2.6-1.4-4.1-3.6-4.1s-3.6,1.4-3.6,4.1v1.4c0,2.6,1.4,4.1,3.6,4.1S129,32.7,129,30.1z"/>
	<path class="st2" d="M140.6,33.2L140.6,33.2c-0.5,1.1-1.4,2-3.4,2c-2.4,0-3.8-1.5-3.8-4.3v-7.2h1.3v7c0,2.3,1,3.4,2.9,3.4
		c1.6,0,3-0.8,3-2.5v-7.9h1.3V35h-1.3V33.2z"/>
	<path class="st2" d="M147.9,35c-0.9,0-1.4-0.5-1.4-1.4v-8.8h-2v-1.1h1.3c0.6,0,0.8-0.2,0.8-0.9v-2.3h1.1v3.1h2.6v1.1h-2.6v9.1h2.4
		V35H147.9z"/>
	<path class="st2" d="M158.7,19.6h4.9c3.9,0,6.2,2.6,6.2,7.7s-2.3,7.7-6.2,7.7h-4.9V19.6z M163.6,33.8c3,0,4.8-2.1,4.8-5.5v-2
		c0-3.4-1.8-5.5-4.8-5.5H160v13H163.6z"/>
	<path class="st2" d="M182.6,35l-1.7-4.8h-6.5l-1.7,4.8h-1.3l5.4-15.4h1.7L184,35H182.6z M177.7,20.9L177.7,20.9l-3,8.2h5.9
		L177.7,20.9z"/>
	<path class="st2" d="M185.6,27.3c0-5.2,2.4-7.9,6.3-7.9c3.9,0,6.3,2.8,6.3,7.9c0,5.2-2.4,7.9-6.3,7.9
		C187.9,35.3,185.6,32.5,185.6,27.3z M196.7,28.3v-1.9c0-3.7-1.9-5.8-4.9-5.8c-2.9,0-4.9,2.1-4.9,5.8v1.9c0,3.7,1.9,5.8,4.9,5.8
		S196.7,31.9,196.7,28.3z"/>
</g>
<g class="st1">
	<path class="st2" d="M406.2,35l-3.9-15.4h1.4l3.3,13.7h0.1l3.6-13.7h1.6l3.6,13.7h0.1l3.4-13.7h1.4l-4,15.4h-1.5l-3.7-13.9l0,0
		L407.7,35H406.2z"/>
	<path class="st2" d="M423.1,19.9v-0.2c0-0.5,0.3-0.8,0.9-0.8s0.9,0.3,0.9,0.8v0.2c0,0.5-0.3,0.8-0.9,0.8
		C423.3,20.7,423.1,20.3,423.1,19.9z M423.3,23.7h1.3V35h-1.3V23.7z"/>
	<path class="st2" d="M430.6,35c-0.9,0-1.4-0.5-1.4-1.4v-8.8h-2v-1.1h1.3c0.6,0,0.8-0.2,0.8-0.9v-2.3h1.1v3.1h2.6v1.1h-2.6v9.1h2.4
		V35H430.6z"/>
	<path class="st2" d="M436,18.7h1.3v6.8h0.1c0.5-1.2,1.5-2,3.3-2c2.4,0,3.8,1.5,3.8,4.3V35h-1.3v-7c0-2.3-1-3.4-2.9-3.4
		c-1.6,0-3.1,0.8-3.1,2.5V35H436V18.7z"/>
	<path class="st2" d="M453.7,19.6h4.9c3.9,0,6.2,2.6,6.2,7.7s-2.3,7.7-6.2,7.7h-4.9V19.6z M458.6,33.8c3,0,4.8-2.1,4.8-5.5v-2
		c0-3.4-1.8-5.5-4.8-5.5H455v13H458.6z"/>
	<path class="st2" d="M477.7,35l-1.7-4.8h-6.5l-1.7,4.8h-1.3l5.4-15.4h1.7L479,35H477.7z M472.8,20.9L472.8,20.9l-3,8.2h5.9
		L472.8,20.9z"/>
	<path class="st2" d="M480.6,27.3c0-5.2,2.4-7.9,6.3-7.9s6.3,2.8,6.3,7.9c0,5.2-2.4,7.9-6.3,7.9C483,35.3,480.6,32.5,480.6,27.3z
		 M491.8,28.3v-1.9c0-3.7-1.9-5.8-4.9-5.8c-2.9,0-4.9,2.1-4.9,5.8v1.9c0,3.7,1.9,5.8,4.9,5.8C489.8,34.1,491.8,31.9,491.8,28.3z"/>
</g>
<line id="Line_42" class="st10" x1="2" y1="209.5" x2="71" y2="209.5"/>
<line id="Line_44" class="st10" x1="529" y1="209.5" x2="608" y2="209.5"/>
<line id="Line_43" class="st10" x1="209" y1="209.5" x2="371" y2="209.5"/>
<g class="st11">
	<path class="st9" d="M140.6,215h-1.5v2.8h-1.9V215h-2.9v-17.3h2.9V195h1.9v2.8h1.5V195h1.9v2.8c2.5,0.3,4,2,4,4.5
		c0,2.3-1.4,3.4-3.1,3.7v0.2c1.7,0.3,3.7,1.1,3.7,4c0,2.8-2,4.9-4.6,4.9v2.8h-1.9L140.6,215L140.6,215z M136.6,205.3h5.1
		c1.7,0,2.5-0.8,2.5-2.3v-0.8c0-1.5-0.8-2.3-2.5-2.3h-5.1V205.3z M136.6,213.2h5.2c1.9,0,3.1-0.9,3.1-2.6v-0.8
		c0-1.7-1.2-2.6-3.1-2.6h-5.2V213.2z"/>
</g>
<g class="st1">
	<path class="st2" d="M369.3,225h3.4c1.1,0,1.8,0.7,1.8,1.8s-0.6,1.5-1.3,1.5v0.1c0.7,0,1.6,0.4,1.6,1.6c0,1.1-0.8,2-1.8,2h-3.7V225
		z M370.8,227.8h1.5c0.4,0,0.6-0.2,0.6-0.6v-0.3c0-0.4-0.2-0.6-0.6-0.6h-1.5V227.8z M370.8,230.6h1.7c0.4,0,0.7-0.2,0.7-0.6v-0.3
		c0-0.4-0.2-0.6-0.7-0.6h-1.7V230.6z"/>
	<path class="st2" d="M375.3,230.9l1-1c0.5,0.5,1.1,0.8,1.7,0.8c0.7,0,1.1-0.3,1.1-0.8c0-0.4-0.2-0.7-0.8-0.8l-0.7-0.1
		c-1.5-0.2-2.1-0.9-2.1-2.1c0-1.2,1-2.1,2.6-2.1c1,0,1.8,0.3,2.4,1l-1,1c-0.3-0.4-0.8-0.7-1.5-0.7s-1,0.3-1,0.7
		c0,0.5,0.2,0.7,0.8,0.8l0.7,0.1c1.4,0.2,2.1,0.9,2.1,2.1c0,1.3-1,2.3-2.7,2.3C376.7,232,375.9,231.6,375.3,230.9z"/>
	<path class="st2" d="M386.3,233.8h-0.9c-1.1,0-1.5-0.5-1.5-1.5V232c-1.5-0.3-2.4-1.5-2.4-3.6c0-2.4,1.2-3.6,3.1-3.6
		s3.1,1.2,3.1,3.6c0,2-0.9,3.2-2.3,3.5v0.6h1.1v1.3H386.3z M385.9,229v-1c0-1.1-0.5-1.7-1.5-1.7s-1.5,0.6-1.5,1.7v1
		c0,1.1,0.5,1.7,1.5,1.7S385.9,230.1,385.9,229z"/>
</g>
<g class="st1">
	<path class="st2" d="M378.3,294.2h3.4c1.1,0,1.8,0.7,1.8,1.8c0,1.1-0.6,1.5-1.3,1.5v0.1c0.7,0,1.6,0.4,1.6,1.6c0,1.1-0.8,2-1.8,2
		h-3.7V294.2z M379.8,297.1h1.5c0.4,0,0.6-0.2,0.6-0.6v-0.3c0-0.4-0.2-0.6-0.6-0.6h-1.5V297.1z M379.8,299.9h1.7
		c0.4,0,0.7-0.2,0.7-0.6V299c0-0.4-0.2-0.6-0.7-0.6h-1.7V299.9z"/>
	<path class="st2" d="M384.3,300.2l1-1c0.5,0.5,1.1,0.8,1.7,0.8c0.7,0,1.1-0.3,1.1-0.8c0-0.4-0.2-0.7-0.8-0.8l-0.7-0.1
		c-1.5-0.2-2.1-0.9-2.1-2.1s1-2.1,2.6-2.1c1,0,1.8,0.3,2.4,1l-1,1c-0.3-0.4-0.8-0.7-1.5-0.7s-1,0.3-1,0.7c0,0.5,0.2,0.7,0.8,0.8
		l0.7,0.1c1.4,0.2,2.1,0.9,2.1,2.1c0,1.3-1,2.3-2.7,2.3C385.7,301.3,384.9,300.8,384.3,300.2z"/>
	<path class="st2" d="M395.3,303h-0.9c-1.1,0-1.5-0.5-1.5-1.5v-0.3c-1.5-0.3-2.4-1.5-2.4-3.6c0-2.4,1.2-3.6,3.1-3.6s3.1,1.2,3.1,3.6
		c0,2-0.9,3.2-2.3,3.5v0.6h1.1v1.3H395.3z M394.9,298.2v-1c0-1.1-0.5-1.7-1.5-1.7s-1.5,0.6-1.5,1.7v1c0,1.1,0.5,1.7,1.5,1.7
		S394.9,299.3,394.9,298.2z"/>
</g>
<g class="st1">
	<path class="st2" d="M513.3,294.2h3.4c1.1,0,1.8,0.7,1.8,1.8c0,1.1-0.6,1.5-1.3,1.5v0.1c0.7,0,1.6,0.4,1.6,1.6c0,1.1-0.8,2-1.8,2
		h-3.7V294.2z M514.8,297.1h1.5c0.4,0,0.6-0.2,0.6-0.6v-0.3c0-0.4-0.2-0.6-0.6-0.6h-1.5V297.1z M514.8,299.9h1.7
		c0.4,0,0.7-0.2,0.7-0.6V299c0-0.4-0.2-0.6-0.7-0.6h-1.7V299.9z"/>
	<path class="st2" d="M519.3,300.2l1-1c0.5,0.5,1.1,0.8,1.7,0.8c0.7,0,1.1-0.3,1.1-0.8c0-0.4-0.2-0.7-0.8-0.8l-0.7-0.1
		c-1.5-0.2-2.1-0.9-2.1-2.1s1-2.1,2.6-2.1c1,0,1.8,0.3,2.4,1l-1,1c-0.3-0.4-0.8-0.7-1.5-0.7s-1,0.3-1,0.7c0,0.5,0.2,0.7,0.8,0.8
		l0.7,0.1c1.4,0.2,2.1,0.9,2.1,2.1c0,1.3-1,2.3-2.7,2.3C520.7,301.3,519.9,300.8,519.3,300.2z"/>
	<path class="st2" d="M530.3,303h-0.9c-1.1,0-1.5-0.5-1.5-1.5v-0.3c-1.5-0.3-2.4-1.5-2.4-3.6c0-2.4,1.2-3.6,3.1-3.6s3.1,1.2,3.1,3.6
		c0,2-0.9,3.2-2.3,3.5v0.6h1.1v1.3H530.3z M529.9,298.2v-1c0-1.1-0.5-1.7-1.5-1.7s-1.5,0.6-1.5,1.7v1c0,1.1,0.5,1.7,1.5,1.7
		S529.9,299.3,529.9,298.2z"/>
</g>
<g class="st1">
	<path class="st2" d="M446.7,294.2h3.4c1.1,0,1.8,0.7,1.8,1.8c0,1.1-0.6,1.5-1.3,1.5v0.1c0.7,0,1.6,0.4,1.6,1.6c0,1.1-0.8,2-1.8,2
		h-3.7V294.2z M448.2,297.1h1.5c0.4,0,0.6-0.2,0.6-0.6v-0.3c0-0.4-0.2-0.6-0.6-0.6h-1.5V297.1z M448.2,299.9h1.7
		c0.4,0,0.7-0.2,0.7-0.6V299c0-0.4-0.2-0.6-0.7-0.6h-1.7V299.9z"/>
	<path class="st2" d="M452.7,300.2l1-1c0.5,0.5,1.1,0.8,1.7,0.8c0.7,0,1.1-0.3,1.1-0.8c0-0.4-0.2-0.7-0.8-0.8l-0.7-0.1
		c-1.5-0.2-2.1-0.9-2.1-2.1s1-2.1,2.6-2.1c1,0,1.8,0.3,2.4,1l-1,1c-0.3-0.4-0.8-0.7-1.5-0.7s-1,0.3-1,0.7c0,0.5,0.2,0.7,0.8,0.8
		l0.7,0.1c1.4,0.2,2.1,0.9,2.1,2.1c0,1.3-1,2.3-2.7,2.3C454.1,301.3,453.3,300.8,452.7,300.2z"/>
	<path class="st2" d="M463.7,303h-0.9c-1.1,0-1.5-0.5-1.5-1.5v-0.3c-1.5-0.3-2.4-1.5-2.4-3.6c0-2.4,1.2-3.6,3.1-3.6s3.1,1.2,3.1,3.6
		c0,2-0.9,3.2-2.3,3.5v0.6h1.1v1.3H463.7z M463.3,298.2v-1c0-1.1-0.5-1.7-1.5-1.7s-1.5,0.6-1.5,1.7v1c0,1.1,0.5,1.7,1.5,1.7
		S463.3,299.3,463.3,298.2z"/>
</g>
<g class="st1">
	<path class="st2" d="M447,217.8h3.4c1.1,0,1.8,0.7,1.8,1.8s-0.6,1.5-1.3,1.5v0.1c0.7,0,1.6,0.4,1.6,1.6c0,1.1-0.8,2-1.8,2H447
		V217.8z M448.5,220.7h1.5c0.4,0,0.6-0.2,0.6-0.6v-0.3c0-0.4-0.2-0.6-0.6-0.6h-1.5V220.7z M448.5,223.5h1.7c0.4,0,0.7-0.2,0.7-0.6
		v-0.3c0-0.4-0.2-0.6-0.7-0.6h-1.7V223.5z"/>
	<path class="st2" d="M452.9,223.8l1-1c0.5,0.5,1.1,0.8,1.7,0.8c0.7,0,1.1-0.3,1.1-0.8c0-0.4-0.2-0.7-0.8-0.8l-0.7-0.1
		c-1.5-0.2-2.1-0.9-2.1-2.1c0-1.2,1-2.1,2.6-2.1c1,0,1.8,0.3,2.4,1l-1,1c-0.3-0.4-0.8-0.7-1.5-0.7s-1,0.3-1,0.7
		c0,0.5,0.2,0.7,0.8,0.8l0.7,0.1c1.4,0.2,2.1,0.9,2.1,2.1c0,1.3-1,2.3-2.7,2.3C454.4,224.9,453.5,224.4,452.9,223.8z"/>
	<path class="st2" d="M463.9,226.6H463c-1.1,0-1.5-0.5-1.5-1.5v-0.3c-1.5-0.3-2.4-1.5-2.4-3.6c0-2.4,1.2-3.6,3.1-3.6
		c1.8,0,3.1,1.2,3.1,3.6c0,2-0.9,3.2-2.3,3.5v0.6h1.1v1.3H463.9z M463.5,221.8v-1c0-1.1-0.5-1.7-1.5-1.7c-0.9,0-1.5,0.6-1.5,1.7v1
		c0,1.1,0.6,1.7,1.5,1.7C463,223.6,463.5,222.9,463.5,221.8z"/>
</g>
<g class="st1">
	<path class="st2" d="M515.6,226.3h3.4c1.1,0,1.8,0.7,1.8,1.8s-0.6,1.5-1.3,1.5v0.1c0.7,0,1.6,0.4,1.6,1.6c0,1.1-0.8,2-1.8,2h-3.7
		V226.3z M517.1,229.1h1.5c0.4,0,0.6-0.2,0.6-0.6v-0.3c0-0.4-0.2-0.6-0.6-0.6h-1.5V229.1z M517.1,232h1.7c0.4,0,0.6-0.2,0.6-0.6V231
		c0-0.4-0.2-0.6-0.6-0.6h-1.7V232z"/>
	<path class="st2" d="M521.6,232.2l1-1c0.5,0.5,1.1,0.8,1.7,0.8c0.7,0,1.1-0.3,1.1-0.8c0-0.4-0.2-0.7-0.8-0.8l-0.7-0.1
		c-1.5-0.2-2.1-0.9-2.1-2.1c0-1.2,1-2.1,2.6-2.1c1,0,1.8,0.3,2.4,1l-1,1c-0.3-0.4-0.8-0.7-1.5-0.7s-1,0.3-1,0.7
		c0,0.5,0.2,0.7,0.8,0.8l0.7,0.1c1.4,0.2,2.1,0.9,2.1,2.1c0,1.3-1,2.3-2.7,2.3C523,233.4,522.2,232.9,521.6,232.2z"/>
	<path class="st2" d="M532.6,235.1h-0.9c-1.1,0-1.5-0.5-1.5-1.5v-0.3c-1.5-0.3-2.4-1.5-2.4-3.6c0-2.4,1.2-3.6,3.1-3.6
		c1.8,0,3.1,1.2,3.1,3.6c0,2-0.9,3.2-2.3,3.5v0.6h1.1v1.3H532.6z M532.2,230.3v-1c0-1.1-0.5-1.7-1.5-1.7c-0.9,0-1.5,0.6-1.5,1.7v1
		c0,1.1,0.5,1.7,1.5,1.7C531.6,232,532.2,231.4,532.2,230.3z"/>
</g>
<g class="st1">
	<path class="st2" d="M125.3,80.2v6.2h-0.8v-6.2h-2.2v-0.7h5.3v0.7H125.3z"/>
	<path class="st2" d="M128.2,86.4v-5.2h0.8v0.9h0.1c0.2-0.5,0.6-0.9,1.5-0.9h0.3v0.8h-0.5c-0.9,0-1.4,0.4-1.4,0.9v3.5H128.2z"/>
	<path class="st2" d="M135.5,86.4c-0.6,0-0.8-0.4-0.9-0.8h0c-0.2,0.6-0.8,1-1.5,1c-1.1,0-1.7-0.6-1.7-1.6c0-1,0.7-1.5,2.2-1.5h1V83
		c0-0.7-0.4-1.1-1.2-1.1c-0.6,0-1,0.3-1.3,0.8l-0.5-0.4c0.3-0.5,0.9-1,1.8-1c1.2,0,2,0.6,2,1.7v2.8h0.6v0.7H135.5z M134.6,84.9v-0.8
		h-1.1c-0.9,0-1.3,0.3-1.3,0.8v0.2c0,0.5,0.4,0.8,1,0.8C134,85.9,134.6,85.5,134.6,84.9z"/>
	<path class="st2" d="M140.4,85.6L140.4,85.6c-0.4,0.6-0.8,1-1.5,1c-1.3,0-2.1-1-2.1-2.7c0-1.6,0.8-2.7,2.1-2.7c0.7,0,1.2,0.3,1.5,1
		h0V79h0.8v7.4h-0.8V85.6z M140.4,84.8v-1.9c0-0.6-0.6-1-1.3-1c-0.9,0-1.5,0.6-1.5,1.5v0.9c0,0.9,0.6,1.5,1.5,1.5
		C139.8,85.8,140.4,85.4,140.4,84.8z"/>
	<path class="st2" d="M142.5,83.8c0-1.6,0.9-2.7,2.3-2.7c1.4,0,2.2,1.1,2.2,2.5V84h-3.7v0.2c0,0.9,0.6,1.6,1.5,1.6
		c0.6,0,1.1-0.3,1.4-0.9l0.6,0.4c-0.3,0.7-1.1,1.2-2,1.2C143.5,86.5,142.5,85.5,142.5,83.8z M143.4,83.4L143.4,83.4l2.8,0.1v-0.1
		c0-0.9-0.5-1.5-1.4-1.5C144,81.8,143.4,82.5,143.4,83.4z"/>
	<path class="st2" d="M148.4,86.4v-5.2h0.8v0.9h0.1c0.2-0.5,0.6-0.9,1.5-0.9h0.3v0.8h-0.5c-0.9,0-1.4,0.4-1.4,0.9v3.5H148.4z"/>
	<path class="st2" d="M151.6,85.5l0.6-0.5c0.4,0.5,0.9,0.8,1.5,0.8c0.7,0,1.1-0.3,1.1-0.8c0-0.4-0.2-0.7-0.9-0.8l-0.4-0.1
		c-0.9-0.1-1.7-0.5-1.7-1.5c0-1,0.8-1.5,1.8-1.5c0.8,0,1.4,0.3,1.8,0.8l-0.5,0.5c-0.2-0.3-0.7-0.6-1.3-0.6s-1,0.3-1,0.8
		c0,0.5,0.3,0.7,1,0.8l0.4,0.1c1.1,0.2,1.6,0.7,1.6,1.4c0,1-0.7,1.6-1.9,1.6C152.7,86.5,152.1,86.1,151.6,85.5z"/>
</g>
</svg>
