<svg xmlns="http://www.w3.org/2000/svg" viewBox="0 0 40 31.431"><defs><style>.a{fill:#fff;}</style></defs><g transform="translate(0 -54.804)"><g transform="translate(0 54.804)"><path class="a" d="M23.605,76.132a14.174,14.174,0,0,0,5.725-4.163,8.891,8.891,0,0,0,0-11.473A14.176,14.176,0,0,0,23.6,56.333,20.105,20.105,0,0,0,15.714,54.8a20.112,20.112,0,0,0-7.891,1.529A14.176,14.176,0,0,0,2.1,60.5,9.015,9.015,0,0,0,0,66.233a8.771,8.771,0,0,0,1.586,5,13.043,13.043,0,0,0,4.352,3.951q-.223.536-.458.982a5.658,5.658,0,0,1-.558.859q-.324.413-.5.647t-.581.658q-.4.424-.513.558c0-.015-.03.019-.089.1s-.093.119-.1.112-.037.029-.089.111l-.078.123-.056.111a.478.478,0,0,0-.045.134.873.873,0,0,0-.011.145.449.449,0,0,0,.023.145.74.74,0,0,0,.257.469.7.7,0,0,0,.458.178h.067a18.718,18.718,0,0,0,1.92-.357A18.77,18.77,0,0,0,11.786,77.3a22.417,22.417,0,0,0,3.928.357A20.086,20.086,0,0,0,23.605,76.132Z" transform="translate(0 -54.804)"/><path class="a" d="M200.532,171.7a8.712,8.712,0,0,0-.089-10.146,13.231,13.231,0,0,0-4.554-3.973,11.487,11.487,0,0,1-.982,9.063,14.941,14.941,0,0,1-4.286,4.732,19.765,19.765,0,0,1-5.893,2.879,23.582,23.582,0,0,1-6.9,1q-.669,0-1.964-.089a18.757,18.757,0,0,0,10.536,2.946,22.427,22.427,0,0,0,3.929-.357,17.826,17.826,0,0,0,8.125,3.215.673.673,0,0,0,.491-.156.825.825,0,0,0,.29-.49c-.007-.089,0-.138.022-.145s.018-.056-.011-.145l-.044-.134-.056-.111a1.068,1.068,0,0,0-.078-.123.962.962,0,0,0-.089-.112c-.022-.022-.055-.06-.1-.111s-.074-.085-.089-.1q-.112-.134-.513-.558t-.58-.658q-.179-.234-.5-.647a5.645,5.645,0,0,1-.558-.859q-.234-.446-.458-.982A13.1,13.1,0,0,0,200.532,171.7Z" transform="translate(-162.116 -149.542)"/></g></g></svg>