<svg xmlns="http://www.w3.org/2000/svg" viewBox="0 0 40 40.006"><defs><style>.a{fill:#fff;}</style></defs><g transform="translate(-0.004)"><g transform="translate(0.004)"><path class="a" d="M32.755,8.007l-.6.19-3.187.284-.9,1.438-.653-.208L24.879,7.424l-.368-1.189-.493-1.268-1.594-1.43-1.881-.368-.043.861,1.843,1.8.9,1.062-1.014.53L21.4,7.176,20.168,6.66l.042-1L18.588,5,18.049,7.34l-1.635.371.162,1.308,2.13.41.368-2.09,1.759.26.818.479h1.312l.9,1.8,2.38,2.414-.174.939-1.919-.245L20.83,14.658l-2.388,2.864-.311,1.268h-.857l-1.6-.736-1.551.736.386,1.636.675-.778,1.187-.037-.083,1.47.983.288.982,1.1,1.6-.451,1.831.289,2.127.572,1.062.125,1.8,2.044,3.475,2.044-2.248,4.294-2.372,1.1-.9,2.454L21.2,37.238l-.365,1.322A19.977,19.977,0,0,0,32.755,8.007Z" transform="translate(3.858 0.866)"/><path class="a" d="M22.3,28.4l-1.457-2.7,1.337-2.786-1.337-.4L19.345,21l-3.326-.746-1.1-2.31v1.371h-.486l-2.867-3.887V12.239l-2.1-3.417-3.336.595H3.877L2.746,8.676,4.189,7.532,2.75,7.864A19.976,19.976,0,0,0,20,37.947a20.941,20.941,0,0,0,2.51-.174L22.3,35.349s.918-3.6.918-3.721S22.3,28.4,22.3,28.4Z" transform="translate(-0.004 2.06)"/><path class="a" d="M6.454,6.45l3.553-.5,1.638-.9,1.843.531,2.944-.163L17.44,3.839l1.471.242,3.572-.335.984-1.085,1.388-.927,1.964.3.716-.108A19.937,19.937,0,0,0,3.6,7.273h.01ZM19.865,1.989,21.908.865l1.312.758-1.9,1.445-1.813.182-.816-.53Zm-6.05.164.9.376,1.18-.376.643,1.114-2.725.716L12.5,3.217S13.786,2.392,13.815,2.153Z" transform="translate(0.978)"/></g></g></svg>