<svg xmlns="http://www.w3.org/2000/svg" viewBox="0 0 40 42.611"><defs><style>.a{fill:#fff;}</style></defs><g transform="translate(-13.899)"><path class="a" d="M31.848,32.119,28.827,29.1l10.4-10.4A9.969,9.969,0,1,0,35.2,14.675L14.73,35.145a2.848,2.848,0,1,0,4.027,4.027l3.02,3.021a1.424,1.424,0,0,0,2.014,0l2.014-2.014a1.422,1.422,0,0,0,0-2.014l-3.021-3.021,2.014-2.02,3.022,3.027a1.424,1.424,0,0,0,2.014,0l2.014-2.014A1.431,1.431,0,0,0,31.848,32.119Zm9.06-25.171a4.274,4.274,0,1,1,0,6.041A4.278,4.278,0,0,1,40.908,6.948Z"/></g></svg>