<?xml version="1.0" encoding="UTF-8" standalone="no"?>
<svg
   xmlns:dc="http://purl.org/dc/elements/1.1/"
   xmlns:cc="http://creativecommons.org/ns#"
   xmlns:rdf="http://www.w3.org/1999/02/22-rdf-syntax-ns#"
   xmlns:svg="http://www.w3.org/2000/svg"
   xmlns="http://www.w3.org/2000/svg"
   xmlns:xlink="http://www.w3.org/1999/xlink"
   xmlns:sodipodi="http://sodipodi.sourceforge.net/DTD/sodipodi-0.dtd"
   xmlns:inkscape="http://www.inkscape.org/namespaces/inkscape"
   width="16"
   height="16"
   viewBox="0 0 16 16"
   version="1.1"
   id="svg966"
   sodipodi:docname="keybase_w.svg"
   inkscape:version="0.92.3 (2405546, 2018-03-11)">
  <metadata
     id="metadata970">
    <rdf:RDF>
      <cc:Work
         rdf:about="">
        <dc:format>image/svg+xml</dc:format>
        <dc:type
           rdf:resource="http://purl.org/dc/dcmitype/StillImage" />
        <dc:title></dc:title>
      </cc:Work>
    </rdf:RDF>
  </metadata>
  <sodipodi:namedview
     pagecolor="#ffffff"
     bordercolor="#666666"
     borderopacity="1"
     objecttolerance="10"
     gridtolerance="10"
     guidetolerance="10"
     inkscape:pageopacity="0"
     inkscape:pageshadow="2"
     inkscape:window-width="3840"
     inkscape:window-height="2024"
     id="namedview968"
     showgrid="false"
     inkscape:zoom="110.6875"
     inkscape:cx="7.2772445"
     inkscape:cy="8"
     inkscape:window-x="0"
     inkscape:window-y="64"
     inkscape:window-maximized="1"
     inkscape:current-layer="svg966" />
  <defs
     id="defs951">
    <path
       id="a"
       d="M0 0h16v16H0z" />
  </defs>
  <g
     fill="none"
     fill-rule="evenodd"
     id="g964"
     style="fill:#ffffff;fill-opacity:1">
    <g
       id="g958"
       style="fill:#ffffff;fill-opacity:1">
      <mask
         id="b"
         fill="#fff">
        <use
           xlink:href="#a"
           id="use953" />
      </mask>
      <path
         fill="#000"
         d="M1.568 12.61c0 1.243.365 2.415.994 3.39H13.34c.589-1.148.731-2.434.731-3.39 0-1.547-.669-3.122-1.836-4.322-1.21-1.245-2.778-1.93-4.415-1.93a6.259 6.259 0 0 0-6.252 6.251zM1.447 16a7.275 7.275 0 0 1-.834-3.39c0-3.975 3.233-7.208 7.207-7.208 1.897 0 3.709.789 5.1 2.22 1.339 1.376 2.106 3.194 2.106 4.987 0 1.253-.216 2.41-.634 3.391"
         mask="url(#b)"
         id="path956"
         style="fill:#ffffff;fill-opacity:1" />
    </g>
    <path
       fill="#000"
       d="M4.717 5.882c-.246-.507-.335-1.096-.257-1.723.167-1.341.994-2.484 1.95-3.808l.197-.27.82.482c-.405.861-.359 1.18-.338 1.253.326-.01.716.06 1.16.207A2.781 2.781 0 0 1 9.9 3.485a2.784 2.784 0 0 1 .061 2.262c.22.076.44.162.658.259a7.602 7.602 0 0 1 3.003 2.45c.806 1.108.914 2.354.282 3.251-.618.878-1.808 1.212-3.032.853-2.822-.829-5.309-.48-7.392 1.035l-1.179.859 1.558-3.875L0 15.51v-1.203c0-1.993 0-4.474 2.242-6.738a7.671 7.671 0 0 1 2.475-1.686zm2.136 8.68a.646.646 0 1 1-1.292 0 .646.646 0 0 1 1.292 0zm4.039 0a.646.646 0 1 1-1.292 0 .646.646 0 0 1 1.292 0zM7.277 6.21a.308.308 0 0 0-.424-.041.283.283 0 0 0-.043.408l1.028 1.215-.5.393a.218.218 0 0 0-.032.315l.105.124a.227.227 0 0 0 .313.03l.506-.397.417.495-1.022.804a.218.218 0 0 0-.033.314l.46.543a.24.24 0 0 0 .33.032l1.018-.8.286.34a.306.306 0 0 0 .302.1.305.305 0 0 0 .122-.058.283.283 0 0 0 .043-.408L7.277 6.209z"
       id="path960"
       style="fill:#ffffff;fill-opacity:1" />
    <path
       fill="#000"
       d="M1.959 3.112l-.085 1.31c-.058.966.706 1.796 1.704 1.855l.738.044s-.115-.202.424.434c.724.854 3.19-1.325 2.404-2.251-.481-.569-.252-.233-.252-.233l.055-.86c.03-.468-.13-.919-.453-1.27a1.83 1.83 0 0 0-1.25-.587l-1.359-.081a1.93 1.93 0 0 0-.111-.004c-.959 0-1.756.722-1.815 1.643zM3.8 2.788l1.36.082c.119.007.229.058.308.145.08.086.12.197.112.313l-.084 1.309c-.001.02-.01.038-.014.057 0 0-.47-.62.228.204.315.371-.165.723-.49.34-.7-.826-.223-.198-.223-.198l-1.336-.08a.44.44 0 0 1-.421-.456l.084-1.31a.442.442 0 0 1 .476-.406z"
       id="path962"
       style="fill:#ffffff;fill-opacity:1" />
  </g>
</svg>
