<svg xmlns="http://www.w3.org/2000/svg" viewBox="0 0 40 28"><defs><style>.a{fill:#fff;}</style></defs><g transform="translate(0 -4.179)"><g transform="translate(0 4.179)"><path class="a" d="M2.421,5.833,16.829,17.246a3.665,3.665,0,0,0,2.428.7,3.656,3.656,0,0,0,2.427-.7L36.092,5.833c1.154-.909.893-1.654-.571-1.654H3C1.531,4.179,1.27,4.924,2.421,5.833Z" transform="translate(0.742 -4.179)"/><path class="a" d="M37.875,7.563,22.13,19.517a3.823,3.823,0,0,1-4.257,0L2.125,7.563C.956,6.677,0,7.153,0,8.619V28.232A2.675,2.675,0,0,0,2.666,30.9H37.334A2.675,2.675,0,0,0,40,28.232V8.619C40,7.153,39.044,6.677,37.875,7.563Z" transform="translate(0 -2.898)"/></g></g></svg>