<svg xmlns="http://www.w3.org/2000/svg" viewBox="0 0 40 37.5"><defs><style>.a{fill:#fff;}</style></defs><path class="a" d="M2.519,22.89a9.529,9.529,0,0,0-.175,1.719c0,7.108,8.041,12.891,17.734,12.891s17.578-5.783,17.578-12.891a9.529,9.529,0,0,0-.175-1.719,4.68,4.68,0,1,0-5.311-7.613A21.032,21.032,0,0,0,21,11.753l2.242-8.7,5.057,1.769a4.718,4.718,0,1,0,.538-2.3L21.606,0,18.569,11.775a21.441,21.441,0,0,0-10.739,3.5A4.68,4.68,0,1,0,2.519,22.89Zm24.59-4.14a3.516,3.516,0,1,1-3.516,3.516A3.52,3.52,0,0,1,27.109,18.75Zm-.5,10.352,1,2.117a17.692,17.692,0,0,1-7.532,1.593,18.413,18.413,0,0,1-7.689-1.593l1-2.117A16.957,16.957,0,0,0,26.608,29.1ZM12.891,18.75a3.516,3.516,0,1,1-3.516,3.516A3.52,3.52,0,0,1,12.891,18.75Zm0,0"/></svg>