<svg viewBox="0 -16 512 512" xmlns="http://www.w3.org/2000/svg"><path d="m32.242188 292.996094c-1.320313 7.21875-2.242188 14.527344-2.242188 22.003906 0 90.980469 102.929688 165 227 165s225-74.019531 225-165c0-7.476562-.921875-14.785156-2.242188-22.003906 19.453126-10.140625 32.242188-30.167969 32.242188-52.996094 0-33.089844-26.910156-60-60-60-15.121094 0-29.328125 5.667969-40.222656 15.550781-37.703125-26.285156-87.726563-43.003906-143.035156-45.113281l28.703124-111.339844 64.730469 22.648438c.949219 32.269531 27.332031 58.253906 59.824219 58.253906 33.089844 0 60-26.910156 60-60s-26.910156-60-60-60c-23.070312 0-42.90625 13.226562-52.941406 32.363281l-92.503906-32.347656-38.875 150.703125c-52.3125 3.28125-101.476563 19.746094-137.457032 44.832031-10.894531-9.882812-25.101562-15.550781-40.222656-15.550781-33.089844 0-60 26.910156-60 60 0 22.828125 12.789062 42.855469 32.242188 52.996094zm314.757812-52.996094c24.8125 0 45 20.1875 45 45s-20.1875 45-45 45-45-20.1875-45-45 20.1875-45 45-45zm-6.414062 132.511719 12.828124 27.097656c-28.152343 13.34375-61.492187 20.390625-96.414062 20.390625s-70.261719-7.046875-98.414062-20.390625l12.828124-27.101563c48.34375 22.882813 120.828126 22.882813 169.171876.003907zm-175.585938-132.511719c24.8125 0 45 20.1875 45 45s-20.1875 45-45 45-45-20.1875-45-45 20.1875-45 45-45zm0 0"/></svg>