<svg xmlns="http://www.w3.org/2000/svg" viewBox="0 0 40 39.999"><defs><style>.a{fill:#fff;}</style></defs><g transform="translate(0 -0.007)"><g transform="translate(0 0.007)"><path class="a" d="M39.825,21.457a3.562,3.562,0,0,0-4.49-2.287l-3.59,1.167c-.795-2.45-1.642-5.055-2.437-7.5l3.59-1.167a3.563,3.563,0,1,0-2.2-6.777L27.1,6.059l-1.167-3.59a3.562,3.562,0,1,0-6.775,2.2l1.167,3.59L12.83,10.7c-.707-2.182-1.165-3.59-1.165-3.59a3.563,3.563,0,0,0-6.777,2.2L6.055,12.9l-3.7,1.2a3.564,3.564,0,0,0,2.2,6.775c.015,0,1.472-.477,3.7-1.2l2.437,7.5-3.7,1.2a3.564,3.564,0,0,0,2.2,6.775c.015-.005,1.472-.477,3.707-1.2l1.2,3.7a3.564,3.564,0,0,0,6.775-2.2c0-.015-.477-1.47-1.2-3.7,2.45-.795,5.055-1.642,7.5-2.437l1.2,3.7a3.564,3.564,0,0,0,6.775-2.2c-.005-.015-.478-1.47-1.2-3.7l3.59-1.167A3.564,3.564,0,0,0,39.825,21.457ZM17.47,24.977c-.8-2.45-1.642-5.055-2.437-7.5,2.45-.795,5.055-1.642,7.5-2.437l2.437,7.5Z" transform="translate(0 -0.007)"/></g></g></svg>