<?xml version="1.0" encoding="UTF-8" standalone="no"?>
<svg
   xmlns:dc="http://purl.org/dc/elements/1.1/"
   xmlns:cc="http://creativecommons.org/ns#"
   xmlns:rdf="http://www.w3.org/1999/02/22-rdf-syntax-ns#"
   xmlns:svg="http://www.w3.org/2000/svg"
   xmlns="http://www.w3.org/2000/svg"
   xmlns:sodipodi="http://sodipodi.sourceforge.net/DTD/sodipodi-0.dtd"
   xmlns:inkscape="http://www.inkscape.org/namespaces/inkscape"
   width="1000px"
   height="1000px"
   viewBox="0 0 1000 1000"
   version="1.1"
   id="svg16"
   sodipodi:docname="telegram_w.svg"
   inkscape:version="0.92.5 (0.92.5+69)">
  <metadata
     id="metadata20">
    <rdf:RDF>
      <cc:Work
         rdf:about="">
        <dc:format>image/svg+xml</dc:format>
        <dc:type
           rdf:resource="http://purl.org/dc/dcmitype/StillImage" />
        <dc:title>Artboard</dc:title>
      </cc:Work>
    </rdf:RDF>
  </metadata>
  <sodipodi:namedview
     pagecolor="#ffffff"
     bordercolor="#666666"
     borderopacity="1"
     objecttolerance="10"
     gridtolerance="10"
     guidetolerance="10"
     inkscape:pageopacity="0"
     inkscape:pageshadow="2"
     inkscape:window-width="3840"
     inkscape:window-height="2036"
     id="namedview18"
     showgrid="false"
     inkscape:zoom="0.944"
     inkscape:cx="61.26909"
     inkscape:cy="727.45256"
     inkscape:window-x="0"
     inkscape:window-y="64"
     inkscape:window-maximized="1"
     inkscape:current-layer="svg16"
     inkscape:pagecheckerboard="true" />
  <!-- Generator: Sketch 53.2 (72643) - https://sketchapp.com -->
  <title
     id="title2">Artboard</title>
  <desc
     id="desc4">Created with Sketch.</desc>
  <defs
     id="defs11">
    <linearGradient
       x1="50%"
       y1="0%"
       x2="50%"
       y2="99.2583404%"
       id="linearGradient-1">
      <stop
         stop-color="#2AABEE"
         offset="0%"
         id="stop6" />
      <stop
         stop-color="#229ED9"
         offset="100%"
         id="stop8" />
    </linearGradient>
  </defs>
  <g
     id="Artboard"
     style="fill:#ffffff;fill-opacity:1"
     stroke-width="1"
     stroke="none"
     fill-rule="evenodd"
     fill="none">
    <circle
       id="Oval"
       cx="500"
       cy="500"
       r="500"
       style="fill:none;fill-opacity:1"
       fill="url(#linearGradient-1)" />
    <path
       d="M 71.671814,435.50937 C 337.86939,319.53132 515.37613,243.07149 604.19204,206.12989 857.77952,100.65408 910.47285,82.331797 944.81759,81.726793 c 7.55383,-0.133069 24.44359,1.738991 35.38397,10.616425 9.238,7.495936 11.77967,17.621892 12.99602,24.728852 1.21624,7.10697 2.73088,23.29684 1.52685,35.94711 -13.74202,144.38832 -73.20338,494.78071 -103.454,656.49811 -12.80007,68.42866 -38.00401,91.37246 -62.40431,93.61783 -53.02749,4.87971 -93.29415,-35.04429 -144.65387,-68.71115 -80.36781,-52.68217 -125.77052,-85.47694 -203.7814,-136.88496 -90.15506,-59.41085 -31.71129,-92.0641 19.66783,-145.42863 13.44615,-13.96574 247.08649,-226.47969 251.60861,-245.75803 0.56556,-2.41108 1.09043,-11.39845 -4.2488,-16.1441 -5.33924,-4.74566 -13.21949,-3.12282 -18.9061,-1.83218 -8.06059,1.82945 -136.44922,86.68958 -385.16588,254.58037 -36.44268,25.02434 -69.45133,37.21705 -99.02595,36.57812 C 211.7569,578.83018 149.04059,561.09996 102.41743,545.94461 45.232249,527.35596 -0.2174064,517.528 3.740237,485.95872 5.8016244,469.51549 28.445487,452.69905 71.671814,435.50937 Z"
       id="Path-3"
       style="fill:#ffffff;fill-opacity:1;stroke:none;stroke-width:1.8262713;stroke-miterlimit:4;stroke-dasharray:none;stroke-opacity:1"
       inkscape:connector-curvature="0" />
  </g>
</svg>
