<?xml version="1.0" encoding="UTF-8" standalone="no"?>
<svg
   xmlns:dc="http://purl.org/dc/elements/1.1/"
   xmlns:cc="http://creativecommons.org/ns#"
   xmlns:rdf="http://www.w3.org/1999/02/22-rdf-syntax-ns#"
   xmlns:svg="http://www.w3.org/2000/svg"
   xmlns="http://www.w3.org/2000/svg"
   id="svg15"
   viewBox="0 0 240 240"
   version="1.1">
  <metadata
     id="metadata2">
    <rdf:RDF>
      <cc:Work
         rdf:about="">
        <dc:format>image/svg+xml</dc:format>
        <dc:type
           rdf:resource="http://purl.org/dc/dcmitype/StillImage" />
        <dc:title></dc:title>
      </cc:Work>
    </rdf:RDF>
  </metadata>
  <defs
     id="defs9">
    <linearGradient
       gradientUnits="userSpaceOnUse"
       gradientTransform="translate(1.6828e-6 -3.3455e-6)"
       y2="180"
       y1="40.008"
       x2="100.01"
       x1="160.01"
       id="a">
      <stop
         id="stop4"
         offset="0"
         stop-color="#424d58" />
      <stop
         id="stop6"
         offset="1"
         stop-color="#272a2f" />
    </linearGradient>
  </defs>
  <circle
     id="circle11"
     fill="url(#a)"
     r="120"
     cy="120"
     cx="120" />
  <path
     id="path13"
     fill="#fff"
     d="m44.691 125.87c14.028-7.7268 29.687-14.176 44.318-20.658 25.171-10.617 50.442-21.05 75.968-30.763 4.9664-1.6549 13.89-3.2731 14.765 4.0866-0.47934 10.418-2.4503 20.775-3.8021 31.132-3.4313 22.776-7.3975 45.474-11.265 68.175-1.3326 7.5618-10.805 11.476-16.866 6.6369-14.566-9.8386-29.244-19.582-43.624-29.649-4.7105-4.7863-0.34239-11.66 3.8645-15.078 11.997-11.823 24.72-21.868 36.09-34.302 3.067-7.4061-5.9951-1.1645-8.9842 0.74815-16.424 11.318-32.446 23.327-49.762 33.274-8.845 4.8689-19.154 0.70809-27.995-2.0087-7.9269-3.2821-19.543-6.5888-12.708-11.593z" />
</svg>
