<svg xmlns="http://www.w3.org/2000/svg" viewBox="0 0 40 32.492"><defs><style>.a{fill:#fff;}</style></defs><g transform="translate(-0.001 -57.441)"><g transform="translate(0.001 57.441)"><path class="a" d="M40,61.285a16.387,16.387,0,0,1-4.712,1.292A8.24,8.24,0,0,0,38.9,58.041a16.543,16.543,0,0,1-5.214,1.992A8.212,8.212,0,0,0,19.7,67.514,23.3,23.3,0,0,1,2.788,58.941a8.215,8.215,0,0,0,2.54,10.953,8.206,8.206,0,0,1-3.717-1.03v.1a8.214,8.214,0,0,0,6.581,8.046A8.311,8.311,0,0,1,6.03,77.3a7.876,7.876,0,0,1-1.545-.152,8.21,8.21,0,0,0,7.664,5.7A16.463,16.463,0,0,1,1.958,86.353,17.438,17.438,0,0,1,0,86.241a23.2,23.2,0,0,0,12.578,3.692c15.095,0,23.346-12.5,23.346-23.346L35.9,65.525A16.386,16.386,0,0,0,40,61.285Z" transform="translate(-0.001 -57.441)"/></g></g></svg>