<svg xmlns="http://www.w3.org/2000/svg" viewBox="0 0 40 27.5"><defs><style>.a{fill:#fff;}</style></defs><g transform="translate(0 -80)"><g transform="translate(0 80)"><path class="a" d="M38.3,82.65c-1.085-1.93-2.263-2.285-4.66-2.42C31.245,80.067,25.222,80,20,80s-11.252.067-13.645.228c-2.392.137-3.572.49-4.668,2.423C.575,84.577,0,87.9,0,93.743v.02c0,5.82.575,9.165,1.692,11.073,1.095,1.93,2.272,2.28,4.665,2.442,2.395.14,8.42.223,13.647.223s11.24-.083,13.637-.22c2.4-.162,3.575-.512,4.66-2.443C39.43,102.93,40,99.585,40,93.765v-.02C40,87.9,39.43,84.577,38.3,82.65ZM15,101.25v-15l12.5,7.5Z" transform="translate(0 -80)"/></g></g></svg>