<?xml version="1.0" encoding="UTF-8" standalone="no"?>
<svg width="72px" height="78px" viewBox="0 0 72 78" version="1.1" xmlns="http://www.w3.org/2000/svg" xmlns:xlink="http://www.w3.org/1999/xlink">
    <!-- Generator: Sketch 50.2 (55047) - http://www.bohemiancoding.com/sketch -->
    <title>MoneyNull_mark</title>
    <desc>Created with Sketch.</desc>
    <defs></defs>
    <g id="MoneyNull_mark" stroke="none" stroke-width="1" fill="none" fill-rule="evenodd">
        <path d="M62.5608336,18.188908 C65.1717172,23.8660536 65.726235,25.0385385 67.7281942,30.8117984 C68.8776612,34.4388409 66.5752334,39.8109082 57.0825229,35.2444879 C50.3219801,32.0218998 45.4306313,29.7386897 49.4590064,24.3666223 C51.4221958,21.7598842 53.6448268,19.3321537 56.0972655,17.1157992 C58.7070707,14.8364654 60.3232323,13.3999401 62.5608336,18.188908 Z M60.3099842,54.5520286 C65.2817274,49.6626759 72.1895383,55.1325928 67.3643101,61.6957779 C57.6424244,74.9861618 40.6701845,80.2860724 25.4623094,74.9458778 C10.2544344,69.6056833 -0.00268709882,55.004203 0.000328179635,38.3010702 C-0.0379988635,28.2940622 3.28138,19.9437454 9.62375417,12.4219687 C15.7287246,5.59064349 24.8172744,0.116885638 33.7809966,0 C46.3812889,0 52.0107218,11.0222204 47.5729445,17.1686415 C42.6142248,24.0028926 36.8480445,23.4472073 32.560038,20.5163064 C32.560038,20.5163064 26.6603663,16.3317253 24.9184654,14.9357355 C22.2356124,12.8451391 19.2857766,12.8451391 18.2145889,16.192804 C16.3391966,22.1901388 15.4015004,25.957956 13.9265825,31.9552908 C13.2404232,34.9727506 12.8811217,38.0606851 12.8553948,41.1613691 C12.8861913,46.8693634 15.400362,52.255484 19.6927628,55.8090971 C22.6566387,58.5929695 25.8401722,61.1125918 29.2097277,63.341343 C31.9226976,65.1922618 35.0828024,66.2082179 38.3262183,66.2722439 L38.5932012,66.2722439 C41.8366172,66.2082179 44.9967219,65.1922618 47.7096918,63.341343 C52.0915221,60.7040781 56.3008192,57.7678894 60.3099842,54.5520286 Z M24.8619208,47.6404135 C23.0737929,46.9853919 19.025911,43.452727 20.2151029,40.8326406 C20.6925157,39.392229 24.1472483,39.0011239 25.2178104,39.0011239 C31.5341264,38.8707555 31.7713861,50.1301315 24.8619208,47.6404135 Z M35.9709188,59.6364846 C35.1641481,58.9132151 33.6845241,57.4666762 32.3388175,56.2602511 C31.9661523,55.8557439 31.8944367,55.2923324 32.1558666,54.8229554 C32.4172966,54.3535784 32.9627461,54.0664377 33.5473404,54.0904427 C35.9211094,53.9698524 38.3005905,53.9698524 40.6743594,54.0904427 C41.2250988,54.1309633 41.7017225,54.4497615 41.9019064,54.9115093 C42.1020903,55.3732572 41.9907107,55.8969375 41.6150475,56.2602511 C40.2726072,57.4666762 38.7929832,58.9132151 38.1201299,59.6364846 C37.8281825,59.8781281 37.4427521,60.0083613 37.0455244,59.9995834 C36.6482966,60.0083613 36.2628662,59.8781281 35.9709188,59.6364846 Z M50.1380792,47.6404135 C43.2286139,50.1301315 43.4658736,38.8707555 49.7821896,39.0011239 C50.8527517,39.0011239 54.1888545,39.392229 54.7848971,40.8326406 C55.974089,43.452727 51.9262071,46.9853919 50.1380792,47.6404135 Z" id="Combined-Shape" fill="#25B135" fill-rule="nonzero"></path>
    </g>
</svg>