<?xml version="1.0" encoding="utf-8"?>
<!-- Generator: Adobe Illustrator 16.0.0, SVG Export Plug-In . SVG Version: 6.00 Build 0)  -->
<!DOCTYPE svg PUBLIC "-//W3C//DTD SVG 1.1//EN" "http://www.w3.org/Graphics/SVG/1.1/DTD/svg11.dtd">
<svg version="1.1" id="Layer_1" xmlns="http://www.w3.org/2000/svg" xmlns:xlink="http://www.w3.org/1999/xlink" x="0px" y="0px"
	 width="22.217px" height="20px" viewBox="0 0 22.217 20" enable-background="new 0 0 22.217 20" xml:space="preserve">
<path id="link-icon" fill="#A5A5A5" d="M7.858,8.342C8.08,8.121,8.324,7.938,8.585,7.795c1.453-0.801,3.313-0.375,4.247,1.041
	l-1.131,1.13c-0.322-0.739-1.128-1.16-1.926-0.981C9.474,9.052,9.187,9.203,8.953,9.437l-2.166,2.166
	c-0.658,0.658-0.657,1.727,0,2.385s1.727,0.658,2.385,0l0.668-0.668c0.605,0.242,1.255,0.338,1.899,0.291l-1.472,1.471
	c-1.263,1.264-3.311,1.264-4.575,0c-1.263-1.262-1.263-3.311,0-4.574L7.858,8.342z M11.296,4.902L9.824,6.375
	c0.642-0.048,1.292,0.049,1.899,0.29l0.668-0.668c0.658-0.657,1.728-0.657,2.385,0c0.657,0.658,0.657,1.727,0,2.385l-2.166,2.166
	c-0.659,0.658-1.73,0.654-2.383,0c-0.151-0.152-0.284-0.342-0.365-0.528l-1.13,1.13c0.119,0.18,0.242,0.336,0.4,0.494
	c0.409,0.408,0.929,0.713,1.525,0.857c0.776,0.186,1.606,0.084,2.32-0.311c0.262-0.145,0.507-0.326,0.728-0.547l2.165-2.166
	c1.264-1.264,1.264-3.312,0-4.576C14.606,3.639,12.559,3.639,11.296,4.902z"/>
</svg>
