<?xml version="1.0" encoding="utf-8"?>
<!-- Generator: Adobe Illustrator 16.0.0, SVG Export Plug-In . SVG Version: 6.00 Build 0)  -->
<!DOCTYPE svg PUBLIC "-//W3C//DTD SVG 1.1//EN" "http://www.w3.org/Graphics/SVG/1.1/DTD/svg11.dtd">
<svg version="1.1" id="Layer_1" xmlns="http://www.w3.org/2000/svg" xmlns:xlink="http://www.w3.org/1999/xlink" x="0px" y="0px"
	 width="25px" height="25px" viewBox="0 0 25 25" enable-background="new 0 0 25 25" xml:space="preserve">
<path id="magnifier-icon" fill="#B2B2B2" d="M6.833,20.111l4.123-4.125c0.914,0.547,1.981,0.859,3.119,0.859
	c3.366,0,6.103-2.738,6.103-6.103c0-3.366-2.736-6.104-6.103-6.104s-6.103,2.738-6.103,6.104c0,1.197,0.347,2.315,0.945,3.258
	l-4.095,4.097L6.833,20.111z M14.074,14.57c-2.11,0-3.828-1.716-3.828-3.827c0-2.112,1.718-3.829,3.828-3.829
	c2.111,0,3.828,1.717,3.828,3.829C17.902,12.854,16.186,14.57,14.074,14.57z"/>
</svg>
