<?xml version="1.0" encoding="utf-8"?>
<!-- Generator: Adobe Illustrator 24.2.3, SVG Export Plug-In . SVG Version: 6.00 Build 0)  -->
<svg version="1.1" id="Layer_1" xmlns="http://www.w3.org/2000/svg" xmlns:xlink="http://www.w3.org/1999/xlink" x="0px" y="0px" viewBox="0 0 681 681" style="enable-background:new 0 0 681 681;" xml:space="preserve">
  <style type="text/css">
	.st0{fill:none;}
	.st1{fill:none;stroke:#FFFFFF;}
	.st2{fill:none;stroke:#FFFFFF;stroke-miterlimit:10;}
	.st3{fill:#FFFFFF;}
	.st4{fill:none;stroke:#FFFFFF;stroke-width:0.9998;stroke-miterlimit:3.9993;}
	.st5{enable-background:new    ;}
</style>
  <g id="Layer_2_1_"/>
  <rect class="st0" width="681" height="681"/>
  <circle class="st1" cx="345.8" cy="150" r="64.5"/>
  <circle class="st1" cx="535.8" cy="466" r="64.5"/>
  <path class="st2" d="M405.8,571.9c35.2-9.9,66.8-28.2,92.5-52.8"/>
  <path class="st2" d="M193.9,518.7c25.8,24.7,57.5,43.3,92.9,53.2"/>
  <path class="st2" d="M138.8,286c-8.2,23.1-12.7,47.9-12.7,73.8c0,15.8,1.7,31.3,4.8,46.1"/>
  <path class="st2" d="M280.8,150c0-0.2,0-0.3,0-0.5c-54.2,16.9-99.4,54.1-126.7,102.7"/>
  <path class="st2" d="M528.4,236c-27.9-41-69.2-72-117.6-86.8c0,0.3,0,0.5,0,0.8"/>
  <path class="st2" d="M561.6,406.3c3.2-15,4.9-30.6,4.9-46.5c0-32.6-7.1-63.6-19.8-91.4"/>
  <circle class="st1" cx="155.8" cy="466" r="64.5"/>
  <path class="st3" d="M338.9,422.9h-39.4v-73.4h55c19.9,0,30.9,10.6,34,23.5c1.7,0,3.5,0.2,5.2,0.4c-3.4-14.3-13-24.3-28.7-26.7v-0.5
	c14.2-4.6,22.6-14.9,22.6-34c0-23.3-12.4-35.9-33.1-37.3v-24.2h-4.7v24h-24.5v-24h-4.7v24h-26.3v152.8h26.3v24h4.7v-24h13.9
	C339,426,338.9,424.5,338.9,422.9z M299.4,279.4h51.3c21.4,0,31.2,13,31.2,27.7v10c0,14.4-9.8,27.7-31.2,27.7h-51.3V279.4z"/>
  <circle class="st1" cx="387.6" cy="421.8" r="48.3"/>
  <path class="st3" d="M377.6,402.6h3.3c1.3,0,2.1,0.8,2.1,2.1c0,1.2-0.7,1.7-1.3,1.8l0,0c0.8,0.1,1.6,0.7,1.6,2
	c0,1.4-0.8,2.4-2.1,2.4h-3.6V402.6z M378.3,406.3h2.5c0.9,0,1.4-0.6,1.4-1.3v-0.5c0-0.8-0.5-1.3-1.4-1.3h-2.5V406.3z M378.3,410.4
	h2.7c1,0,1.5-0.6,1.5-1.5v-0.4c0-0.9-0.5-1.5-1.5-1.5h-2.7V410.4z"/>
  <path class="st3" d="M384.6,409.7l0.5-0.4c0.6,0.8,1.3,1.2,2.4,1.2c1.3,0,2-0.6,2-1.8c0-1-0.6-1.4-1.7-1.7l-0.7-0.2
	c-1.6-0.3-2.3-1.1-2.3-2.2c0-1.5,1.1-2.2,2.7-2.2c1.2,0,2.1,0.5,2.7,1.3l-0.5,0.4c-0.5-0.7-1.1-1-2.1-1c-1.4,0-2.1,0.6-2.1,1.6
	s0.7,1.4,1.7,1.6l0.7,0.2c1.7,0.4,2.3,1.1,2.3,2.3c0,1.5-1,2.4-2.7,2.4C386.1,411.2,385.2,410.6,384.6,409.7z"/>
  <path class="st3" d="M396.7,412.9h-1.2c-0.5,0-0.7-0.3-0.7-0.7v-1c-2-0.1-3.1-1.6-3.1-4.3c0-2.8,1.3-4.3,3.4-4.3s3.4,1.5,3.4,4.3
	c0,2.7-1.1,4.1-3,4.3v1.2h1.3L396.7,412.9L396.7,412.9z M397.7,407.4v-1.1c0-2-1.1-3.2-2.7-3.2s-2.7,1.2-2.7,3.2v1.1
	c0,2,1.1,3.2,2.7,3.2C396.7,410.5,397.7,409.3,397.7,407.4z"/>
  <path class="st3" d="M362.6,421.9c0-2.8,1.2-4.4,3.3-4.4c1.3,0,2.3,0.7,2.8,1.8l-0.6,0.3c-0.4-0.9-1.1-1.5-2.2-1.5
	c-1.6,0-2.5,1.2-2.5,3.2v0.9c0,2.1,0.9,3.2,2.5,3.2c1.1,0,1.9-0.6,2.2-1.6l0.6,0.3c-0.5,1.1-1.5,1.9-2.8,1.9
	C363.8,426.2,362.6,424.7,362.6,421.9z"/>
  <path class="st3" d="M369.8,421.8c0-2.8,1.3-4.3,3.4-4.3s3.4,1.5,3.4,4.3s-1.3,4.3-3.4,4.3C371.1,426.2,369.8,424.7,369.8,421.8z
	 M375.9,422.4v-1.1c0-2-1.1-3.2-2.7-3.2s-2.7,1.2-2.7,3.2v1.1c0,2,1.1,3.2,2.7,3.2C374.8,425.5,375.9,424.3,375.9,422.4z"/>
  <path class="st3" d="M378.6,426v-8.4h0.7v7.7h3.7v0.6L378.6,426L378.6,426z"/>
  <path class="st3" d="M383.7,421.8c0-2.8,1.3-4.3,3.4-4.3s3.4,1.5,3.4,4.3s-1.3,4.3-3.4,4.3C385,426.2,383.7,424.7,383.7,421.8z
	 M389.8,422.4v-1.1c0-2-1.1-3.2-2.7-3.2s-2.7,1.2-2.7,3.2v1.1c0,2,1.1,3.2,2.7,3.2C388.8,425.5,389.8,424.3,389.8,422.4z"/>
  <path class="st3" d="M393.2,426h-0.7v-8.4h3.3c1.4,0,2.2,0.9,2.2,2.3c0,1.3-0.6,2.1-1.8,2.3l2.1,3.8h-0.8l-2-3.7h-2.2L393.2,426
	L393.2,426z M395.8,421.7c1,0,1.5-0.6,1.5-1.4v-0.6c0-0.8-0.5-1.4-1.5-1.4h-2.6v3.4H395.8z"/>
  <path class="st3" d="M400.2,426v-8.4h4.9v0.6h-4.2v3.2h4v0.6h-4v3.3h4.2v0.6L400.2,426L400.2,426z"/>
  <path class="st3" d="M407,417.6h2.7c2.1,0,3.4,1.4,3.4,4.2c0,2.8-1.2,4.2-3.4,4.2H407V417.6z M409.7,425.4c1.6,0,2.6-1.1,2.6-3v-1.1
	c0-1.9-1-3-2.6-3h-2v7.1H409.7z"/>
  <path class="st3" d="M365.2,432.6h3.3c1.3,0,2.1,0.8,2.1,2.1c0,1.2-0.7,1.7-1.3,1.8l0,0c0.8,0.1,1.6,0.7,1.6,2
	c0,1.4-0.8,2.4-2.1,2.4h-3.6V432.6z M365.9,436.3h2.5c0.9,0,1.4-0.6,1.4-1.3v-0.5c0-0.8-0.5-1.3-1.4-1.3h-2.5V436.3z M365.9,440.4
	h2.7c1,0,1.5-0.6,1.5-1.5v-0.4c0-0.9-0.5-1.5-1.5-1.5h-2.7V440.4z"/>
  <path class="st3" d="M372.4,441v-0.6h1.2v-7.2h-1.2v-0.6h3.2v0.6h-1.2v7.2h1.2v0.6H372.4z"/>
  <path class="st3" d="M380.1,433.3v7.7h-0.7v-7.7h-2.8v-0.6h6.3v0.6H380.1z"/>
  <path class="st3" d="M383.7,436.9c0-2.8,1.2-4.4,3.3-4.4c1.3,0,2.3,0.7,2.8,1.8l-0.6,0.3c-0.4-0.9-1.1-1.5-2.2-1.5
	c-1.6,0-2.5,1.2-2.5,3.2v0.9c0,2.1,0.9,3.2,2.5,3.2c1.1,0,1.9-0.6,2.2-1.6l0.6,0.3c-0.5,1.1-1.5,1.9-2.8,1.9
	C384.9,441.2,383.7,439.7,383.7,436.9z"/>
  <path class="st3" d="M390.9,436.8c0-2.8,1.3-4.3,3.4-4.3s3.4,1.5,3.4,4.3s-1.3,4.3-3.4,4.3C392.2,441.2,390.9,439.7,390.9,436.8z
	 M397,437.4v-1.1c0-2-1.1-3.2-2.7-3.2s-2.7,1.2-2.7,3.2v1.1c0,2,1.1,3.2,2.7,3.2C395.9,440.5,397,439.3,397,437.4z"/>
  <path class="st3" d="M399.3,441v-0.6h1.2v-7.2h-1.2v-0.6h3.2v0.6h-1.2v7.2h1.2v0.6H399.3z"/>
  <path class="st3" d="M405.1,433.6L405.1,433.6v7.4h-0.7v-8.4h0.9l4.4,7.4l0,0v-7.4h0.7v8.4h-0.9L405.1,433.6z"/>
  <path id="Path_3" class="st1" d="M479.7,519.1H498v17.2"/>
  <path id="Path_4" class="st4" d="M419.5,165.3l-8.6-16.2l16.2-8.6"/>
  <path id="Path_5" class="st4" d="M138.7,391.8l-7.7,14.4l-13.5-7.2"/>
  <g>
    <g class="st5">
      <path class="st3" d="M377,402.8h3.4c1.4,0,2.2,0.9,2.2,2.2c0,1.2-0.8,1.7-1.4,1.8v0.1c0.6,0,1.6,0.6,1.6,1.9
			c0,1.4-0.9,2.4-2.2,2.4H377V402.8z M378,406.5h2.3c0.8,0,1.3-0.4,1.3-1.2v-0.4c0-0.7-0.5-1.2-1.3-1.2H378V406.5z M378,410.3h2.5
			c0.9,0,1.4-0.5,1.4-1.3v-0.4c0-0.8-0.5-1.3-1.4-1.3H378V410.3z"/>
      <path class="st3" d="M384.2,409.9l0.7-0.6c0.6,0.8,1.3,1.2,2.3,1.2c1.2,0,1.8-0.6,1.8-1.6c0-0.8-0.4-1.2-1.5-1.4l-0.7-0.2
			c-1.5-0.3-2.4-1-2.4-2.3c0-1.5,1.1-2.3,2.8-2.3c1.3,0,2.1,0.5,2.8,1.4l-0.8,0.6c-0.5-0.6-1.1-1-2.1-1c-1.1,0-1.7,0.5-1.7,1.4
			c0,0.8,0.5,1.2,1.6,1.4l0.7,0.2c1.6,0.4,2.3,1.1,2.3,2.3c0,1.5-1.1,2.5-2.9,2.5C385.9,411.3,384.9,410.8,384.2,409.9z"/>
      <path class="st3" d="M396.8,413.2h-1.2c-0.7,0-1-0.4-1-1v-0.9c-1.9-0.2-3.2-1.7-3.2-4.3c0-2.8,1.4-4.3,3.5-4.3
			c2.2,0,3.5,1.5,3.5,4.3c0,2.6-1.2,4-3,4.3v1h1.3V413.2z M397.4,407.7v-1.4c0-1.7-1-2.7-2.5-2.7s-2.5,1.1-2.5,2.7v1.4
			c0,1.7,1,2.7,2.5,2.7S397.4,409.4,397.4,407.7z"/>
    </g>
    <g class="st5">
      <path class="st3" d="M361.9,422.1c0-2.8,1.3-4.4,3.4-4.4c1.4,0,2.4,0.7,2.9,1.8l-0.8,0.5c-0.3-0.9-1-1.4-2.1-1.4
			c-1.4,0-2.3,1.1-2.3,2.9v1.2c0,1.7,0.9,2.8,2.3,2.8c1.1,0,1.8-0.6,2.1-1.5l0.8,0.5c-0.5,1.2-1.5,1.9-2.9,1.9
			C363.2,426.3,361.9,424.9,361.9,422.1z"/>
      <path class="st3" d="M369.2,422c0-2.8,1.4-4.3,3.5-4.3c2.2,0,3.5,1.5,3.5,4.3s-1.4,4.3-3.5,4.3C370.6,426.3,369.2,424.8,369.2,422
			z M375.2,422.7v-1.4c0-1.7-1-2.7-2.5-2.7s-2.5,1.1-2.5,2.7v1.4c0,1.7,1,2.7,2.5,2.7S375.2,424.4,375.2,422.7z"/>
      <path class="st3" d="M378.1,426.2v-8.4h1v7.5h3.6v0.9H378.1z"/>
      <path class="st3" d="M383.4,422c0-2.8,1.4-4.3,3.5-4.3c2.2,0,3.6,1.5,3.6,4.3s-1.4,4.3-3.6,4.3C384.8,426.3,383.4,424.8,383.4,422
			z M389.4,422.7v-1.4c0-1.7-1-2.7-2.5-2.7s-2.5,1.1-2.5,2.7v1.4c0,1.7,1,2.7,2.5,2.7S389.4,424.4,389.4,422.7z"/>
      <path class="st3" d="M393.3,426.2h-1v-8.4h3.3c1.5,0,2.3,0.9,2.3,2.4c0,1.2-0.6,2.1-1.7,2.3l1.9,3.7H397l-1.8-3.6h-2V426.2z
			 M395.6,421.7c0.8,0,1.3-0.4,1.3-1.2v-0.6c0-0.8-0.5-1.2-1.3-1.2h-2.3v3H395.6z"/>
      <path class="st3" d="M400,426.2v-8.4h5.1v0.9H401v2.8h3.9v0.9H401v2.9h4.1v0.9H400z"/>
      <path class="st3" d="M407,417.8h2.8c2.1,0,3.4,1.4,3.4,4.2c0,2.8-1.3,4.2-3.4,4.2H407V417.8z M409.8,425.3c1.4,0,2.4-1,2.4-2.6
			v-1.4c0-1.7-1-2.6-2.4-2.6H408v6.6H409.8z"/>
    </g>
    <g class="st5">
      <path class="st3" d="M364.5,432.8h3.4c1.4,0,2.2,0.9,2.2,2.2c0,1.2-0.8,1.7-1.4,1.8v0.1c0.6,0,1.6,0.6,1.6,1.9
			c0,1.4-0.9,2.4-2.2,2.4h-3.8V432.8z M365.5,436.5h2.3c0.8,0,1.3-0.4,1.3-1.2v-0.4c0-0.7-0.5-1.2-1.3-1.2h-2.3V436.5z M365.5,440.3
			h2.5c0.9,0,1.4-0.5,1.4-1.3v-0.4c0-0.8-0.5-1.3-1.4-1.3h-2.5V440.3z"/>
      <path class="st3" d="M372,441.2v-0.8h1.2v-6.7H372v-0.8h3.4v0.8h-1.2v6.7h1.2v0.8H372z"/>
      <path class="st3" d="M379.9,433.7v7.5h-1v-7.5h-2.7v-0.9h6.3v0.9H379.9z"/>
      <path class="st3" d="M383.3,437.1c0-2.8,1.3-4.4,3.4-4.4c1.4,0,2.4,0.7,2.9,1.8l-0.8,0.5c-0.3-0.9-1-1.4-2.1-1.4
			c-1.4,0-2.3,1.1-2.3,2.9v1.2c0,1.7,0.9,2.8,2.3,2.8c1.1,0,1.8-0.6,2.1-1.5l0.8,0.5c-0.5,1.2-1.5,1.9-2.9,1.9
			C384.6,441.3,383.3,439.9,383.3,437.1z"/>
      <path class="st3" d="M390.6,437c0-2.8,1.4-4.3,3.5-4.3c2.2,0,3.5,1.5,3.5,4.3s-1.4,4.3-3.5,4.3C392,441.3,390.6,439.8,390.6,437z
			 M396.6,437.7v-1.4c0-1.7-1-2.7-2.5-2.7s-2.5,1.1-2.5,2.7v1.4c0,1.7,1,2.7,2.5,2.7S396.6,439.4,396.6,437.7z"/>
      <path class="st3" d="M399.1,441.2v-0.8h1.2v-6.7h-1.2v-0.8h3.4v0.8h-1.2v6.7h1.2v0.8H399.1z"/>
      <path class="st3" d="M406.3,436.1l-1-1.9h0v7h-1v-8.4h1.2l3.1,5.1l1,1.9h0v-7h1v8.4h-1.2L406.3,436.1z"/>
    </g>
  </g>
  <g class="st5">
    <path class="st3" d="M305.7,149.7c0-3.7,1.7-5.8,4.5-5.8c1.9,0,3.1,0.9,3.8,2.4l-1.1,0.7c-0.4-1.2-1.4-1.9-2.8-1.9
		c-1.9,0-3.1,1.5-3.1,3.8v1.7c0,2.3,1.1,3.7,3.1,3.7c1.4,0,2.4-0.8,2.8-2l1.1,0.7c-0.7,1.6-2.1,2.5-3.9,2.5
		C307.4,155.4,305.7,153.4,305.7,149.7z"/>
    <path class="st3" d="M315.4,151.1c0-2.6,1.5-4.3,3.7-4.3s3.7,1.7,3.7,4.3s-1.5,4.3-3.7,4.3S315.4,153.7,315.4,151.1z M321.5,151.7
		v-1.2c0-1.7-1-2.6-2.4-2.6c-1.4,0-2.4,0.8-2.4,2.6v1.2c0,1.7,1,2.6,2.4,2.6C320.5,154.3,321.5,153.4,321.5,151.7z"/>
    <path class="st3" d="M325,155.2v-8.3h1.3v1.3h0.1c0.4-0.9,1.1-1.5,2.3-1.5c1.7,0,2.8,1.2,2.8,3.2v5.3h-1.3v-5.1
		c0-1.5-0.6-2.2-1.9-2.2c-1,0-2,0.5-2,1.6v5.7H325z"/>
    <path class="st3" d="M335.9,155.2c-0.9,0-1.4-0.6-1.4-1.4v-5.8h-1.4v-1.1h0.8c0.5,0,0.7-0.2,0.7-0.8v-1.5h1.2v2.3h1.8v1.1h-1.8v6
		h1.7v1.1H335.9z"/>
    <path class="st3" d="M339.7,155.2v-8.3h1.3v1.5h0.1c0.3-0.8,1-1.5,2.4-1.5h0.5v1.3h-0.8c-1.4,0-2.2,0.6-2.2,1.4v5.6H339.7z"/>
    <path class="st3" d="M345.4,144.3v-0.2c0-0.4,0.2-0.7,0.8-0.7s0.8,0.3,0.8,0.7v0.2c0,0.4-0.2,0.7-0.8,0.7S345.4,144.7,345.4,144.3z
		 M345.6,146.9h1.3v8.3h-1.3V146.9z"/>
    <path class="st3" d="M349.6,143.4h1.3v4.9h0.1c0.4-1,1.3-1.5,2.4-1.5c2.1,0,3.4,1.7,3.4,4.3c0,2.6-1.3,4.3-3.4,4.3
		c-1.1,0-1.9-0.5-2.4-1.5h-0.1v1.3h-1.3V143.4z M355.3,151.8v-1.4c0-1.5-0.9-2.5-2.3-2.5c-1.2,0-2.1,0.7-2.1,1.6v3.1
		c0,1.1,1,1.7,2.1,1.7C354.4,154.2,355.3,153.2,355.3,151.8z"/>
    <path class="st3" d="M363.9,153.9L363.9,153.9c-0.4,0.8-1,1.5-2.4,1.5c-1.7,0-2.8-1.2-2.8-3.2v-5.3h1.3v5.1c0,1.5,0.7,2.2,1.9,2.2
		c1,0,2-0.5,2-1.6v-5.7h1.3v8.3h-1.3V153.9z"/>
    <path class="st3" d="M369.8,155.2c-0.9,0-1.4-0.6-1.4-1.4v-5.8H367v-1.1h0.8c0.5,0,0.7-0.2,0.7-0.8v-1.5h1.2v2.3h1.8v1.1h-1.8v6
		h1.7v1.1H369.8z"/>
    <path class="st3" d="M372.9,151.1c0-2.6,1.5-4.3,3.7-4.3s3.7,1.7,3.7,4.3s-1.5,4.3-3.7,4.3S372.9,153.7,372.9,151.1z M379,151.7
		v-1.2c0-1.7-1-2.6-2.4-2.6c-1.4,0-2.4,0.8-2.4,2.6v1.2c0,1.7,1,2.6,2.4,2.6C378,154.3,379,153.4,379,151.7z"/>
    <path class="st3" d="M382.5,155.2v-8.3h1.3v1.5h0.1c0.3-0.8,1-1.5,2.4-1.5h0.5v1.3h-0.8c-1.4,0-2.2,0.6-2.2,1.4v5.6H382.5z"/>
  </g>
  <g class="st5">
    <path class="st3" d="M489.1,461h4.6c1.8,0,3,1.1,3,2.9c0,1.7-1.1,2.3-1.8,2.4v0.1c0.8,0,2.2,0.7,2.2,2.6c0,1.8-1.2,3.2-2.9,3.2
		h-5.1V461z M490.4,465.9h3.1c1.1,0,1.7-0.6,1.7-1.6v-0.5c0-1-0.6-1.6-1.7-1.6h-3.1V465.9z M490.4,471h3.3c1.2,0,1.9-0.6,1.9-1.7
		v-0.5c0-1.1-0.7-1.7-1.9-1.7h-3.3V471z"/>
    <path class="st3" d="M499.3,461.3v-0.2c0-0.4,0.2-0.7,0.8-0.7c0.5,0,0.8,0.3,0.8,0.7v0.2c0,0.4-0.2,0.7-0.8,0.7
		C499.5,462,499.3,461.7,499.3,461.3z M499.4,463.9h1.3v8.3h-1.3V463.9z"/>
    <path class="st3" d="M502.6,470.8l0.9-0.7c0.6,0.8,1.4,1.3,2.4,1.3c1.1,0,1.7-0.5,1.7-1.3c0-0.6-0.4-1.1-1.4-1.3l-0.7-0.1
		c-1.5-0.2-2.7-0.8-2.7-2.4c0-1.6,1.3-2.4,2.9-2.4c1.3,0,2.2,0.5,2.9,1.3l-0.8,0.8c-0.4-0.5-1.1-1-2.1-1s-1.6,0.5-1.6,1.3
		c0,0.8,0.6,1.1,1.6,1.3l0.6,0.1c1.8,0.3,2.5,1.1,2.5,2.3c0,1.6-1.2,2.6-3.1,2.6C504.4,472.4,503.4,471.8,502.6,470.8z"/>
    <path class="st3" d="M516.5,470.9L516.5,470.9c-0.6,1-1.3,1.5-2.5,1.5c-2.1,0-3.4-1.7-3.4-4.3c0-2.6,1.3-4.3,3.4-4.3
		c1.1,0,2,0.5,2.4,1.5h0.1v-1.3h1.3v11.5h-1.3V470.9z M516.5,469.6v-3.1c0-0.9-1-1.6-2.1-1.6c-1.4,0-2.3,1-2.3,2.5v1.4
		c0,1.5,0.9,2.5,2.3,2.5C515.5,471.2,516.5,470.6,516.5,469.6z"/>
    <path class="st3" d="M527.1,465.4l-1.3-2.5h0v9.3h-1.3V461h1.6l4.1,6.8l1.3,2.5h0V461h1.3v11.2h-1.6L527.1,465.4z"/>
    <path class="st3" d="M535,468.1c0-2.6,1.5-4.3,3.7-4.3c2.2,0,3.6,1.7,3.6,4v0.6h-5.9v0.4c0,1.4,0.9,2.5,2.4,2.5
		c1,0,1.8-0.5,2.3-1.4l0.9,0.7c-0.5,1.1-1.7,1.9-3.3,1.9C536.4,472.4,535,470.7,535,468.1z M536.3,467.3v0.1h4.6v-0.2
		c0-1.5-0.9-2.4-2.2-2.4C537.3,464.8,536.3,465.9,536.3,467.3z"/>
    <path class="st3" d="M546.2,472.2c-0.9,0-1.4-0.6-1.4-1.4v-5.8h-1.4v-1.1h0.8c0.5,0,0.7-0.2,0.7-0.8v-1.5h1.2v2.3h1.8v1.1h-1.8v6
		h1.7v1.1H546.2z"/>
    <path class="st3" d="M549.1,463.9h1.2l0.9,3.6l0.9,3.6h0l1-3.6l1-3.6h1.1l1.1,3.6l1,3.6h0l0.8-3.6l0.9-3.6h1.2l-2.2,8.3h-1.6
		l-1.2-4l-0.7-2.5h0l-0.7,2.5l-1.2,4h-1.6L549.1,463.9z"/>
    <path class="st3" d="M561.6,468.1c0-2.6,1.5-4.3,3.7-4.3s3.7,1.7,3.7,4.3s-1.5,4.3-3.7,4.3S561.6,470.7,561.6,468.1z M567.7,468.7
		v-1.2c0-1.7-1-2.6-2.4-2.6c-1.4,0-2.4,0.8-2.4,2.6v1.2c0,1.7,1,2.6,2.4,2.6C566.7,471.3,567.7,470.4,567.7,468.7z"/>
    <path class="st3" d="M571.1,472.2v-8.3h1.3v1.5h0.1c0.3-0.8,1-1.5,2.4-1.5h0.5v1.3h-0.8c-1.4,0-2.2,0.6-2.2,1.4v5.6H571.1z"/>
    <path class="st3" d="M577,460.4h1.3v7.5h0.1l1.3-1.4l2.3-2.5h1.6l-3.1,3.3l3.4,5h-1.6l-2.7-4.2l-1.2,1.3v2.9H577V460.4z"/>
  </g>
  <g class="st5">
    <path class="st3" d="M137.3,463.2v10h-1.3v-10h-3.6V462h8.5v1.2H137.3z"/>
    <path class="st3" d="M141.8,473.2v-8.3h1.3v1.5h0.1c0.3-0.8,1-1.5,2.4-1.5h0.5v1.3h-0.8c-1.4,0-2.2,0.6-2.2,1.4v5.6H141.8z"/>
    <path class="st3" d="M153.6,473.2c-0.9,0-1.3-0.6-1.4-1.3h-0.1c-0.4,1-1.2,1.5-2.4,1.5c-1.7,0-2.8-1-2.8-2.5c0-1.6,1.1-2.4,3.5-2.4
		h1.6v-0.8c0-1.2-0.6-1.8-2-1.8c-1,0-1.6,0.5-2.1,1.2l-0.8-0.7c0.4-0.9,1.4-1.6,2.9-1.6c2,0,3.2,1,3.2,2.8v4.5h0.9v1.1H153.6z
		 M152.1,470.8v-1.4h-1.7c-1.5,0-2.1,0.4-2.1,1.2v0.3c0,0.8,0.6,1.3,1.6,1.3C151.2,472.3,152.1,471.6,152.1,470.8z"/>
    <path class="st3" d="M161.5,471.9L161.5,471.9c-0.6,1-1.3,1.5-2.5,1.5c-2.1,0-3.4-1.7-3.4-4.3c0-2.6,1.3-4.3,3.4-4.3
		c1.1,0,2,0.5,2.4,1.5h0.1v-4.9h1.3v11.8h-1.3V471.9z M161.5,470.6v-3.1c0-0.9-1-1.6-2.1-1.6c-1.4,0-2.3,1-2.3,2.5v1.4
		c0,1.5,0.9,2.5,2.3,2.5C160.5,472.2,161.5,471.6,161.5,470.6z"/>
    <path class="st3" d="M164.9,469.1c0-2.6,1.5-4.3,3.7-4.3c2.2,0,3.6,1.7,3.6,4v0.6h-5.9v0.4c0,1.4,0.9,2.5,2.4,2.5
		c1,0,1.8-0.5,2.3-1.4l0.9,0.7c-0.5,1.1-1.7,1.9-3.3,1.9C166.3,473.4,164.9,471.7,164.9,469.1z M166.2,468.3v0.1h4.6v-0.2
		c0-1.5-0.9-2.4-2.2-2.4C167.2,465.8,166.2,466.9,166.2,468.3z"/>
    <path class="st3" d="M174.2,473.2v-8.3h1.3v1.5h0.1c0.3-0.8,1-1.5,2.4-1.5h0.5v1.3h-0.8c-1.4,0-2.2,0.6-2.2,1.4v5.6H174.2z"/>
  </g>
  <g class="st5">
    <path class="st3" d="M481.3,251.5c0-3.7,1.7-5.8,4.5-5.8c1.9,0,3.1,0.9,3.8,2.4l-1.1,0.7c-0.4-1.2-1.4-1.9-2.8-1.9
		c-1.9,0-3.1,1.5-3.1,3.8v1.7c0,2.3,1.1,3.7,3.1,3.7c1.4,0,2.4-0.8,2.8-2l1.1,0.7c-0.7,1.6-2.1,2.5-3.9,2.5
		C483,257.2,481.3,255.2,481.3,251.5z"/>
    <path class="st3" d="M491.1,252.9c0-2.6,1.5-4.3,3.7-4.3s3.7,1.7,3.7,4.3s-1.5,4.3-3.7,4.3S491.1,255.5,491.1,252.9z M497.2,253.5
		v-1.2c0-1.7-1-2.6-2.4-2.6c-1.4,0-2.4,0.8-2.4,2.6v1.2c0,1.7,1,2.6,2.4,2.6C496.2,256.1,497.2,255.2,497.2,253.5z"/>
    <path class="st3" d="M500.6,257v-8.3h1.3v1.3h0.1c0.4-0.8,0.9-1.5,2.2-1.5c1.1,0,2.1,0.5,2.5,1.7h0c0.3-0.9,1.1-1.7,2.5-1.7
		c1.7,0,2.7,1.2,2.7,3.2v5.3h-1.3v-5.1c0-1.5-0.6-2.2-1.8-2.2c-1,0-1.9,0.5-1.9,1.6v5.7h-1.3v-5.1c0-1.5-0.6-2.2-1.8-2.2
		c-1,0-2,0.5-2,1.6v5.7H500.6z"/>
    <path class="st3" d="M514.6,248.7h1.3v1.3h0.1c0.4-1,1.3-1.5,2.4-1.5c2.1,0,3.4,1.7,3.4,4.3c0,2.6-1.3,4.3-3.4,4.3
		c-1.1,0-1.9-0.5-2.4-1.5h-0.1v4.5h-1.3V248.7z M520.4,253.6v-1.4c0-1.5-0.9-2.5-2.3-2.5c-1.2,0-2.1,0.7-2.1,1.6v3.1
		c0,1.1,1,1.7,2.1,1.7C519.5,256,520.4,255,520.4,253.6z"/>
    <path class="st3" d="M523.3,252.9c0-2.6,1.5-4.3,3.7-4.3c2.2,0,3.6,1.7,3.6,4v0.6h-5.9v0.4c0,1.4,0.9,2.5,2.4,2.5
		c1,0,1.8-0.5,2.3-1.4l0.9,0.7c-0.5,1.1-1.7,1.9-3.3,1.9C524.8,257.2,523.3,255.5,523.3,252.9z M524.6,252.1v0.1h4.6v-0.2
		c0-1.5-0.9-2.4-2.2-2.4C525.6,249.6,524.6,250.7,524.6,252.1z"/>
    <path class="st3" d="M532.7,257v-8.3h1.3v1.3h0.1c0.4-0.9,1.1-1.5,2.3-1.5c1.7,0,2.8,1.2,2.8,3.2v5.3h-1.3v-5.1
		c0-1.5-0.6-2.2-1.9-2.2c-1,0-2,0.5-2,1.6v5.7H532.7z"/>
    <path class="st3" d="M541,255.6l0.9-0.7c0.6,0.8,1.4,1.3,2.4,1.3c1.1,0,1.7-0.5,1.7-1.3c0-0.6-0.4-1.1-1.4-1.3l-0.7-0.1
		c-1.5-0.2-2.7-0.8-2.7-2.4c0-1.6,1.3-2.4,2.9-2.4c1.3,0,2.2,0.5,2.9,1.3l-0.8,0.8c-0.4-0.5-1.1-1-2.1-1c-1.1,0-1.6,0.5-1.6,1.3
		c0,0.8,0.6,1.1,1.6,1.3l0.6,0.1c1.8,0.3,2.5,1.1,2.5,2.3c0,1.6-1.2,2.6-3.1,2.6C542.7,257.2,541.7,256.6,541,255.6z"/>
    <path class="st3" d="M555.6,257c-0.9,0-1.3-0.6-1.4-1.3h-0.1c-0.4,1-1.2,1.5-2.4,1.5c-1.7,0-2.8-1-2.8-2.5c0-1.6,1.1-2.4,3.5-2.4
		h1.6v-0.8c0-1.2-0.6-1.8-2-1.8c-1,0-1.6,0.5-2.1,1.2l-0.8-0.7c0.4-0.9,1.4-1.6,2.9-1.6c2,0,3.2,1,3.2,2.8v4.5h0.9v1.1H555.6z
		 M554.1,254.6v-1.4h-1.7c-1.5,0-2.1,0.4-2.1,1.2v0.3c0,0.8,0.6,1.3,1.6,1.3C553.1,256.1,554.1,255.4,554.1,254.6z"/>
    <path class="st3" d="M559.9,257c-0.9,0-1.4-0.6-1.4-1.4v-5.8h-1.4v-1.1h0.8c0.5,0,0.7-0.2,0.7-0.8v-1.5h1.2v2.3h1.8v1.1h-1.8v6h1.7
		v1.1H559.9z"/>
    <path class="st3" d="M563.6,246.1v-0.2c0-0.4,0.2-0.7,0.8-0.7s0.8,0.3,0.8,0.7v0.2c0,0.4-0.2,0.7-0.8,0.7S563.6,246.5,563.6,246.1z
		 M563.7,248.7h1.3v8.3h-1.3V248.7z"/>
    <path class="st3" d="M567.1,252.9c0-2.6,1.5-4.3,3.7-4.3s3.7,1.7,3.7,4.3s-1.5,4.3-3.7,4.3S567.1,255.5,567.1,252.9z M573.2,253.5
		v-1.2c0-1.7-1-2.6-2.4-2.6c-1.4,0-2.4,0.8-2.4,2.6v1.2c0,1.7,1,2.6,2.4,2.6C572.2,256.1,573.2,255.2,573.2,253.5z"/>
    <path class="st3" d="M576.7,257v-8.3h1.3v1.3h0.1c0.4-0.9,1.1-1.5,2.3-1.5c1.7,0,2.8,1.2,2.8,3.2v5.3h-1.3v-5.1
		c0-1.5-0.6-2.2-1.9-2.2c-1,0-2,0.5-2,1.6v5.7H576.7z"/>
  </g>
  <g class="st5">
    <path class="st3" d="M92.5,272.4v-1.1h1.6v-8.9h-1.6v-1.1H97v1.1h-1.6v8.9H97v1.1H92.5z"/>
    <path class="st3" d="M99.3,272.4v-8.3h1.3v1.3h0.1c0.4-0.8,0.9-1.5,2.2-1.5c1.1,0,2.1,0.5,2.5,1.7h0c0.3-0.9,1.1-1.7,2.5-1.7
		c1.7,0,2.7,1.2,2.7,3.2v5.3h-1.3v-5.1c0-1.5-0.6-2.2-1.8-2.2c-1,0-1.9,0.5-1.9,1.6v5.7h-1.3v-5.1c0-1.5-0.6-2.2-1.8-2.2
		c-1,0-2,0.5-2,1.6v5.7H99.3z"/>
    <path class="st3" d="M113.3,264.1h1.3v1.3h0.1c0.4-1,1.3-1.5,2.4-1.5c2.1,0,3.4,1.7,3.4,4.3c0,2.6-1.3,4.3-3.4,4.3
		c-1.1,0-1.9-0.5-2.4-1.5h-0.1v4.5h-1.3V264.1z M119,269v-1.4c0-1.5-0.9-2.5-2.3-2.5c-1.2,0-2.1,0.7-2.1,1.6v3.1
		c0,1.1,1,1.7,2.1,1.7C118.1,271.4,119,270.4,119,269z"/>
    <path class="st3" d="M122.5,272.4v-8.3h1.3v1.5h0.1c0.3-0.8,1-1.5,2.4-1.5h0.5v1.3H126c-1.4,0-2.2,0.6-2.2,1.4v5.6H122.5z"/>
    <path class="st3" d="M127.7,268.3c0-2.6,1.5-4.3,3.7-4.3s3.7,1.7,3.7,4.3s-1.5,4.3-3.7,4.3S127.7,270.9,127.7,268.3z M133.8,268.9
		v-1.2c0-1.7-1-2.6-2.4-2.6s-2.4,0.8-2.4,2.6v1.2c0,1.7,1,2.6,2.4,2.6S133.8,270.6,133.8,268.9z"/>
    <path class="st3" d="M139,272.4l-2.9-8.3h1.3l1.4,4.1l0.9,2.8h0.1l0.9-2.8l1.5-4.1h1.2l-2.9,8.3H139z"/>
    <path class="st3" d="M144.3,268.3c0-2.6,1.5-4.3,3.7-4.3c2.2,0,3.6,1.7,3.6,4v0.6h-5.9v0.4c0,1.4,0.9,2.5,2.4,2.5
		c1,0,1.8-0.5,2.3-1.4l0.9,0.7c-0.5,1.1-1.7,1.9-3.3,1.9C145.8,272.6,144.3,270.9,144.3,268.3z M145.7,267.5v0.1h4.6v-0.2
		c0-1.5-0.9-2.4-2.2-2.4C146.6,265,145.7,266.1,145.7,267.5z"/>
    <path class="st3" d="M153.7,272.4v-8.3h1.3v1.3h0.1c0.4-0.8,0.9-1.5,2.2-1.5c1.1,0,2.1,0.5,2.5,1.7h0c0.3-0.9,1.1-1.7,2.5-1.7
		c1.7,0,2.7,1.2,2.7,3.2v5.3h-1.3v-5.1c0-1.5-0.6-2.2-1.8-2.2c-1,0-1.9,0.5-1.9,1.6v5.7h-1.3v-5.1c0-1.5-0.6-2.2-1.8-2.2
		c-1,0-2,0.5-2,1.6v5.7H153.7z"/>
    <path class="st3" d="M167.1,268.3c0-2.6,1.5-4.3,3.7-4.3c2.2,0,3.6,1.7,3.6,4v0.6h-5.9v0.4c0,1.4,0.9,2.5,2.4,2.5
		c1,0,1.8-0.5,2.3-1.4l0.9,0.7c-0.5,1.1-1.7,1.9-3.3,1.9C168.5,272.6,167.1,270.9,167.1,268.3z M168.4,267.5v0.1h4.6v-0.2
		c0-1.5-0.9-2.4-2.2-2.4C169.4,265,168.4,266.1,168.4,267.5z"/>
    <path class="st3" d="M176.5,272.4v-8.3h1.3v1.3h0.1c0.4-0.9,1.1-1.5,2.3-1.5c1.7,0,2.8,1.2,2.8,3.2v5.3h-1.3v-5.1
		c0-1.5-0.6-2.2-1.9-2.2c-1,0-2,0.5-2,1.6v5.7H176.5z"/>
    <path class="st3" d="M187.4,272.4c-0.9,0-1.4-0.6-1.4-1.4v-5.8h-1.4v-1.1h0.8c0.5,0,0.7-0.2,0.7-0.8v-1.5h1.2v2.3h1.8v1.1h-1.8v6
		h1.7v1.1H187.4z"/>
    <path class="st3" d="M190.4,271l0.9-0.7c0.6,0.8,1.4,1.3,2.4,1.3c1.1,0,1.7-0.5,1.7-1.3c0-0.6-0.4-1.1-1.4-1.3l-0.7-0.1
		c-1.5-0.2-2.7-0.8-2.7-2.4c0-1.6,1.3-2.4,2.9-2.4c1.3,0,2.2,0.5,2.9,1.3l-0.8,0.8c-0.4-0.5-1.1-1-2.1-1c-1.1,0-1.6,0.5-1.6,1.3
		c0,0.8,0.6,1.1,1.6,1.3l0.6,0.1c1.8,0.3,2.5,1.1,2.5,2.3c0,1.6-1.2,2.6-3.1,2.6C192.1,272.6,191.1,272,190.4,271z"/>
  </g>
  <g class="st5">
    <path class="st3" d="M306.7,573v10h-1.3v-10h-3.6v-1.2h8.5v1.2H306.7z"/>
    <path class="st3" d="M311.3,583v-8.3h1.3v1.5h0.1c0.3-0.8,1-1.5,2.4-1.5h0.5v1.3h-0.8c-1.4,0-2.2,0.6-2.2,1.4v5.6H311.3z"/>
    <path class="st3" d="M323.1,583c-0.9,0-1.3-0.6-1.4-1.3h-0.1c-0.4,1-1.2,1.5-2.4,1.5c-1.7,0-2.8-1-2.8-2.5c0-1.6,1.1-2.4,3.5-2.4
		h1.6v-0.8c0-1.2-0.6-1.8-2-1.8c-1,0-1.6,0.5-2.1,1.2l-0.8-0.7c0.4-0.9,1.4-1.6,2.9-1.6c2,0,3.2,1,3.2,2.8v4.5h0.9v1.1H323.1z
		 M321.6,580.6v-1.4h-1.7c-1.5,0-2.1,0.4-2.1,1.2v0.3c0,0.8,0.6,1.3,1.6,1.3C320.6,582.1,321.6,581.4,321.6,580.6z"/>
    <path class="st3" d="M330.9,581.7L330.9,581.7c-0.6,1-1.3,1.5-2.5,1.5c-2.1,0-3.4-1.7-3.4-4.3c0-2.6,1.3-4.3,3.4-4.3
		c1.1,0,2,0.5,2.4,1.5h0.1v-4.9h1.3V583h-1.3V581.7z M330.9,580.4v-3.1c0-0.9-1-1.6-2.1-1.6c-1.4,0-2.3,1-2.3,2.5v1.4
		c0,1.5,0.9,2.5,2.3,2.5C329.9,582,330.9,581.4,330.9,580.4z"/>
    <path class="st3" d="M334.7,572.1v-0.2c0-0.4,0.2-0.7,0.8-0.7c0.5,0,0.8,0.3,0.8,0.7v0.2c0,0.4-0.2,0.7-0.8,0.7
		C335,572.8,334.7,572.5,334.7,572.1z M334.9,574.7h1.3v8.3h-1.3V574.7z"/>
    <path class="st3" d="M338.9,583v-8.3h1.3v1.3h0.1c0.4-0.9,1.1-1.5,2.3-1.5c1.7,0,2.8,1.2,2.8,3.2v5.3h-1.3v-5.1
		c0-1.5-0.6-2.2-1.9-2.2c-1,0-2,0.5-2,1.6v5.7H338.9z"/>
    <path class="st3" d="M350.9,586.4c-2.6,0-3.6-0.7-3.6-2c0-0.9,0.5-1.4,1.3-1.6v-0.2c-0.5-0.2-0.7-0.6-0.7-1.2
		c0-0.8,0.6-1.2,1.4-1.4v-0.1c-1-0.5-1.6-1.4-1.6-2.5c0-1.7,1.2-2.8,3.1-2.8c0.6,0,1.1,0.1,1.6,0.3v-0.1c0-0.6,0.3-1.1,1-1.1h1.2
		v1.1H353v0.5c0.6,0.5,0.9,1.2,0.9,2.1c0,1.7-1.2,2.8-3.1,2.8c-0.3,0-0.6,0-0.8-0.1c-0.5,0.1-1.1,0.4-1.1,0.9c0,0.5,0.5,0.6,1.3,0.6
		h1.8c2,0,2.9,0.8,2.9,2.2C354.9,585.6,353.6,586.4,350.9,586.4z M352,582.9h-2.8c-0.5,0.2-0.8,0.6-0.8,1.1c0,0.7,0.5,1.3,1.8,1.3
		h1.2c1.4,0,2.3-0.4,2.3-1.3C353.7,583.4,353.3,582.9,352,582.9z M352.6,577.6v-0.4c0-1.1-0.7-1.6-1.8-1.6c-1.1,0-1.8,0.5-1.8,1.6
		v0.4c0,1.1,0.7,1.6,1.8,1.6C352,579.2,352.6,578.7,352.6,577.6z"/>
    <path class="st3" d="M360.3,583v-11.2h6.7v1.2h-5.3v3.7h4.8v1.2h-4.8v5.1H360.3z"/>
    <path class="st3" d="M368.1,578.9c0-2.6,1.5-4.3,3.7-4.3c2.2,0,3.6,1.7,3.6,4v0.6h-5.9v0.4c0,1.4,0.9,2.5,2.4,2.5
		c1,0,1.8-0.5,2.3-1.4l0.9,0.7c-0.5,1.1-1.7,1.9-3.3,1.9C369.6,583.2,368.1,581.5,368.1,578.9z M369.5,578.1v0.1h4.6v-0.2
		c0-1.5-0.9-2.4-2.2-2.4C370.5,575.6,369.5,576.7,369.5,578.1z"/>
    <path class="st3" d="M376.9,578.9c0-2.6,1.5-4.3,3.7-4.3c2.2,0,3.6,1.7,3.6,4v0.6h-5.9v0.4c0,1.4,0.9,2.5,2.4,2.5
		c1,0,1.8-0.5,2.3-1.4l0.9,0.7c-0.5,1.1-1.7,1.9-3.3,1.9C378.4,583.2,376.9,581.5,376.9,578.9z M378.3,578.1v0.1h4.6v-0.2
		c0-1.5-0.9-2.4-2.2-2.4C379.2,575.6,378.3,576.7,378.3,578.1z"/>
    <path class="st3" d="M385.5,581.6l0.9-0.7c0.6,0.8,1.4,1.3,2.4,1.3c1.1,0,1.7-0.5,1.7-1.3c0-0.6-0.4-1.1-1.4-1.3l-0.7-0.1
		c-1.5-0.2-2.7-0.8-2.7-2.4c0-1.6,1.3-2.4,2.9-2.4c1.3,0,2.2,0.5,2.9,1.3l-0.8,0.8c-0.4-0.5-1.1-1-2.1-1c-1.1,0-1.6,0.5-1.6,1.3
		c0,0.8,0.6,1.1,1.6,1.3l0.6,0.1c1.8,0.3,2.5,1.1,2.5,2.3c0,1.6-1.2,2.6-3.1,2.6C387.3,583.2,386.3,582.6,385.5,581.6z"/>
  </g>
</svg>