<?xml version="1.0" encoding="utf-8"?>
<!-- Generator: Adobe Illustrator 24.2.3, SVG Export Plug-In . SVG Version: 6.00 Build 0)  -->
<svg version="1.1" id="Layer_1" xmlns="http://www.w3.org/2000/svg" xmlns:xlink="http://www.w3.org/1999/xlink" x="0px" y="0px" viewBox="0 0 681 681" style="enable-background:new 0 0 681 681;" xml:space="preserve">
  <style type="text/css">
	.st0{enable-background:new    ;}
	.st1{fill:#FFFFFF;}
	.st2{fill:none;stroke:#FFFFFF;}
	.st3{opacity:0.251;fill:none;stroke:#FFFFFF;enable-background:new    ;}
	.st4{fill:none;stroke:#FFFFFF;stroke-width:2;}
	.st5{fill:none;stroke:#FFFFFF;stroke-dasharray:3;}
	.st6{opacity:0.269;fill:none;stroke:#FFFFFF;stroke-dasharray:10,10;enable-background:new    ;}
</style>
  <g>
    <g id="dao_benefits">
      <g id="Group_21" transform="translate(-55.548 -2259.605)">
        <g class="st0">
          <path class="st1" d="M514.9,2544.7v9.4h-1.3v-9.4h-3.3v-1.1h7.9v1.1H514.9z"/>
          <path class="st1" d="M519.2,2554.1v-7.7h1.2v1.4h0.1c0.3-0.7,1-1.4,2.2-1.4h0.5v1.2h-0.7c-1.3,0-2.1,0.6-2.1,1.3v5.2H519.2z"/>
          <path class="st1" d="M530.3,2554.1c-0.9,0-1.2-0.5-1.3-1.3h-0.1c-0.3,0.9-1.2,1.4-2.2,1.4c-1.6,0-2.6-0.9-2.6-2.3
					c0-1.5,1-2.3,3.3-2.3h1.5v-0.8c0-1.1-0.6-1.7-1.8-1.7c-0.9,0-1.5,0.5-2,1.2l-0.7-0.7c0.4-0.8,1.3-1.5,2.7-1.5c1.9,0,3,1,3,2.6
					v4.3h0.9v1H530.3z M528.8,2551.8v-1.3h-1.6c-1.4,0-2,0.4-2,1.2v0.3c0,0.8,0.6,1.2,1.5,1.2C528,2553.2,528.8,2552.6,528.8,2551.8
					z"/>
          <path class="st1" d="M537.6,2552.8L537.6,2552.8c-0.5,1-1.3,1.4-2.3,1.4c-1.9,0-3.2-1.6-3.2-4c0-2.5,1.2-4,3.2-4
					c1.1,0,1.9,0.5,2.3,1.4h0.1v-4.6h1.2v11.1h-1.2V2552.8z M537.6,2551.6v-2.9c0-0.9-0.9-1.5-2-1.5c-1.4,0-2.2,0.9-2.2,2.3v1.3
					c0,1.4,0.8,2.3,2.2,2.3C536.7,2553.2,537.6,2552.6,537.6,2551.6z"/>
          <path class="st1" d="M541.2,2543.8v-0.2c0-0.4,0.2-0.7,0.7-0.7c0.5,0,0.7,0.3,0.7,0.7v0.2c0,0.4-0.2,0.7-0.7,0.7
					C541.4,2544.5,541.2,2544.2,541.2,2543.8z M541.3,2546.3h1.2v7.7h-1.2V2546.3z"/>
          <path class="st1" d="M545.1,2554.1v-7.7h1.2v1.3h0.1c0.4-0.9,1-1.4,2.2-1.4c1.6,0,2.6,1.1,2.6,3v5h-1.2v-4.8
					c0-1.4-0.6-2.1-1.8-2.1c-1,0-1.9,0.5-1.9,1.5v5.4H545.1z"/>
          <path class="st1" d="M556.4,2557.2c-2.4,0-3.4-0.7-3.4-1.9c0-0.8,0.5-1.3,1.2-1.5v-0.2c-0.4-0.2-0.7-0.6-0.7-1.1
					c0-0.8,0.6-1.2,1.3-1.4v-0.1c-0.9-0.4-1.5-1.3-1.5-2.4c0-1.6,1.2-2.7,2.9-2.7c0.6,0,1.1,0.1,1.5,0.3v-0.1c0-0.6,0.3-1,0.9-1h1.2
					v1.1h-1.5v0.5c0.6,0.5,0.9,1.2,0.9,2c0,1.6-1.2,2.7-2.9,2.7c-0.3,0-0.5,0-0.8-0.1c-0.5,0.1-1,0.4-1,0.9c0,0.5,0.5,0.6,1.2,0.6
					h1.6c1.9,0,2.7,0.8,2.7,2.1C560.1,2556.5,558.9,2557.2,556.4,2557.2z M557.4,2554h-2.6c-0.5,0.2-0.7,0.6-0.7,1
					c0,0.7,0.5,1.2,1.7,1.2h1.1c1.3,0,2.1-0.4,2.1-1.3C559,2554.4,558.6,2554,557.4,2554z M558,2549v-0.4c0-1-0.6-1.5-1.7-1.5
					c-1,0-1.7,0.5-1.7,1.5v0.4c0,1,0.6,1.5,1.7,1.5C557.3,2550.5,558,2550,558,2549z"/>
        </g>
        <g class="st0">
          <path class="st1" d="M511.7,2564.4h-1.3v-1h1.3v-1.6c0-1.1,0.6-1.8,1.7-1.8h1.2v1h-1.7v2.3h1.7v1h-1.7v6.7h-1.2V2564.4z"/>
          <path class="st1" d="M515.5,2567.2c0-2.5,1.4-4,3.5-4c2.1,0,3.3,1.6,3.3,3.8v0.6h-5.6v0.4c0,1.3,0.9,2.3,2.3,2.3
					c1,0,1.7-0.5,2.1-1.3l0.9,0.6c-0.5,1-1.6,1.8-3.1,1.8C516.9,2571.2,515.5,2569.6,515.5,2567.2z M516.8,2566.5v0.1h4.3v-0.2
					c0-1.4-0.8-2.3-2.1-2.3C517.7,2564.1,516.8,2565.1,516.8,2566.5z"/>
          <path class="st1" d="M523.7,2567.2c0-2.5,1.4-4,3.5-4c2.1,0,3.3,1.6,3.3,3.8v0.6H525v0.4c0,1.3,0.9,2.3,2.3,2.3
					c1,0,1.7-0.5,2.1-1.3l0.9,0.6c-0.5,1-1.6,1.8-3.1,1.8C525.1,2571.2,523.7,2569.6,523.7,2567.2z M525,2566.5v0.1h4.3v-0.2
					c0-1.4-0.8-2.3-2.1-2.3C525.9,2564.1,525,2565.1,525,2566.5z"/>
          <path class="st1" d="M531.8,2569.7l0.9-0.7c0.6,0.8,1.3,1.2,2.3,1.2c1,0,1.6-0.5,1.6-1.3c0-0.6-0.3-1.1-1.3-1.2l-0.6-0.1
					c-1.4-0.2-2.5-0.8-2.5-2.2c0-1.5,1.2-2.3,2.8-2.3c1.2,0,2.1,0.5,2.7,1.2l-0.8,0.7c-0.3-0.5-1-0.9-2-0.9s-1.5,0.5-1.5,1.2
					c0,0.8,0.5,1.1,1.5,1.2l0.6,0.1c1.7,0.3,2.4,1,2.4,2.2c0,1.5-1.1,2.4-2.9,2.4C533.4,2571.2,532.5,2570.6,531.8,2569.7z"/>
        </g>
        <g class="st0">
          <path class="st1" d="M472.3,2717.2h4.3c1.7,0,2.8,1.1,2.8,2.7c0,1.6-1,2.1-1.7,2.2v0.1c0.8,0,2.1,0.7,2.1,2.4c0,1.7-1.2,3-2.7,3
					h-4.8V2717.2z M473.6,2721.7h2.9c1,0,1.6-0.5,1.6-1.5v-0.5c0-0.9-0.6-1.5-1.6-1.5h-2.9V2721.7z M473.6,2726.5h3.1
					c1.1,0,1.7-0.6,1.7-1.6v-0.5c0-1.1-0.7-1.6-1.7-1.6h-3.1V2726.5z"/>
          <path class="st1" d="M481.3,2726l0.9-0.8c0.7,1,1.6,1.5,2.8,1.5c1.5,0,2.3-0.8,2.3-2c0-1-0.6-1.5-1.9-1.8l-0.9-0.2
					c-1.9-0.4-3-1.3-3-2.9c0-1.9,1.4-2.9,3.5-2.9c1.6,0,2.7,0.6,3.5,1.7l-0.9,0.7c-0.6-0.8-1.4-1.3-2.6-1.3c-1.3,0-2.2,0.6-2.2,1.7
					c0,1,0.6,1.4,2,1.7l0.9,0.2c2,0.5,2.9,1.4,2.9,2.9c0,1.9-1.3,3.2-3.6,3.2C483.4,2727.8,482.2,2727.1,481.3,2726z"/>
          <path class="st1" d="M497,2730.1h-1.5c-0.8,0-1.3-0.5-1.3-1.2v-1.1c-2.4-0.2-3.9-2.1-3.9-5.4c0-3.5,1.7-5.4,4.4-5.4
					s4.4,1.9,4.4,5.4c0,3.2-1.4,5.1-3.7,5.4v1.3h1.6V2730.1z M497.8,2723.3v-1.7c0-2.1-1.3-3.4-3.1-3.4c-1.8,0-3.1,1.3-3.1,3.4v1.7
					c0,2.1,1.3,3.4,3.1,3.4C496.6,2726.7,497.8,2725.3,497.8,2723.3z"/>
          <path class="st1" d="M504.7,2717.4v-0.2c0-0.4,0.2-0.7,0.7-0.7c0.5,0,0.7,0.3,0.7,0.7v0.2c0,0.4-0.2,0.7-0.7,0.7
					C505,2718.1,504.7,2717.8,504.7,2717.4z M504.9,2719.9h1.2v7.7h-1.2V2719.9z"/>
          <path class="st1" d="M507.9,2726.3l0.9-0.7c0.6,0.8,1.3,1.2,2.3,1.2c1,0,1.6-0.5,1.6-1.3c0-0.6-0.3-1.1-1.3-1.2l-0.6-0.1
					c-1.4-0.2-2.5-0.8-2.5-2.2c0-1.5,1.2-2.3,2.8-2.3c1.2,0,2.1,0.5,2.7,1.2l-0.8,0.7c-0.3-0.5-1-0.9-2-0.9s-1.5,0.5-1.5,1.2
					c0,0.8,0.5,1.1,1.5,1.2l0.6,0.1c1.7,0.3,2.4,1,2.4,2.2c0,1.5-1.1,2.4-2.9,2.4C509.5,2727.8,508.6,2727.2,507.9,2726.3z"/>
          <path class="st1" d="M515.1,2726.3l0.9-0.7c0.6,0.8,1.3,1.2,2.3,1.2c1,0,1.6-0.5,1.6-1.3c0-0.6-0.3-1.1-1.3-1.2l-0.6-0.1
					c-1.4-0.2-2.5-0.8-2.5-2.2c0-1.5,1.2-2.3,2.8-2.3c1.2,0,2.1,0.5,2.7,1.2l-0.8,0.7c-0.3-0.5-1-0.9-2-0.9s-1.5,0.5-1.5,1.2
					c0,0.8,0.5,1.1,1.5,1.2l0.6,0.1c1.7,0.3,2.4,1,2.4,2.2c0,1.5-1.1,2.4-2.9,2.4C516.7,2727.8,515.8,2727.2,515.1,2726.3z"/>
          <path class="st1" d="M527.9,2726.4L527.9,2726.4c-0.4,0.7-0.9,1.4-2.2,1.4c-1.6,0-2.6-1.1-2.6-3v-5h1.2v4.8
					c0,1.4,0.6,2.1,1.8,2.1c0.9,0,1.9-0.5,1.9-1.5v-5.4h1.2v7.7h-1.2V2726.4z"/>
          <path class="st1" d="M531.1,2723.8c0-2.5,1.4-4,3.5-4c2.1,0,3.3,1.6,3.3,3.8v0.6h-5.6v0.4c0,1.3,0.9,2.3,2.3,2.3
					c1,0,1.7-0.5,2.1-1.3l0.9,0.6c-0.5,1-1.6,1.8-3.1,1.8C532.5,2727.8,531.1,2726.2,531.1,2723.8z M532.3,2723.1v0.1h4.3v-0.2
					c0-1.4-0.8-2.3-2.1-2.3C533.3,2720.7,532.3,2721.7,532.3,2723.1z"/>
          <path class="st1" d="M544.8,2726.4L544.8,2726.4c-0.5,1-1.3,1.4-2.3,1.4c-1.9,0-3.1-1.6-3.1-4.1c0-2.5,1.2-4,3.1-4
					c1.1,0,1.9,0.5,2.3,1.4h0.1v-4.6h1.2v11.1h-1.2V2726.4z M544.8,2725.2v-2.9c0-0.9-0.9-1.5-2-1.5c-1.3,0-2.2,0.9-2.2,2.3v1.3
					c0,1.4,0.8,2.3,2.2,2.3C543.9,2726.7,544.8,2726.2,544.8,2725.2z"/>
        </g>
        <g class="st0">
          <path class="st1" d="M472.6,2737.9h-1.3v-1.1h1.3v-1.6c0-1.1,0.6-1.8,1.7-1.8h1.2v1h-1.7v2.3h1.7v1.1h-1.7v6.7h-1.2V2737.9z"/>
          <path class="st1" d="M476.4,2740.8c0-2.5,1.4-4,3.5-4c2.1,0,3.5,1.6,3.5,4c0,2.5-1.4,4.1-3.5,4.1
					C477.9,2744.8,476.4,2743.2,476.4,2740.8z M482.1,2741.3v-1.1c0-1.6-0.9-2.4-2.2-2.4s-2.2,0.8-2.2,2.4v1.1
					c0,1.6,0.9,2.4,2.2,2.4S482.1,2742.9,482.1,2741.3z"/>
          <path class="st1" d="M485.4,2744.6v-7.7h1.2v1.4h0.1c0.3-0.7,1-1.4,2.2-1.4h0.5v1.2h-0.7c-1.3,0-2.1,0.6-2.1,1.3v5.2H485.4z"/>
          <path class="st1" d="M493.9,2740.8c0-2.5,1.3-4,3.5-4c1.5,0,2.4,0.8,2.9,1.8l-1,0.5c-0.3-0.8-0.9-1.3-1.9-1.3
					c-1.4,0-2.2,1-2.2,2.3v1.3c0,1.3,0.7,2.3,2.2,2.3c1,0,1.7-0.5,2.1-1.4l0.9,0.6c-0.5,1.1-1.5,1.8-3,1.8
					C495.1,2744.8,493.9,2743.2,493.9,2740.8z"/>
          <path class="st1" d="M501.3,2740.8c0-2.5,1.4-4,3.5-4c2.1,0,3.5,1.6,3.5,4c0,2.5-1.4,4.1-3.5,4.1
					C502.8,2744.8,501.3,2743.2,501.3,2740.8z M507,2741.3v-1.1c0-1.6-0.9-2.4-2.2-2.4s-2.2,0.8-2.2,2.4v1.1c0,1.6,0.9,2.4,2.2,2.4
					S507,2742.9,507,2741.3z"/>
          <path class="st1" d="M510.3,2744.6v-7.7h1.2v1.3h0.1c0.3-0.8,0.9-1.4,2.1-1.4c1,0,2,0.5,2.4,1.6h0c0.3-0.8,1-1.6,2.4-1.6
					c1.6,0,2.5,1.1,2.5,3v5h-1.2v-4.8c0-1.4-0.5-2.1-1.7-2.1c-0.9,0-1.8,0.5-1.8,1.5v5.4H515v-4.8c0-1.4-0.5-2.1-1.7-2.1
					c-0.9,0-1.8,0.5-1.8,1.5v5.4H510.3z"/>
          <path class="st1" d="M523.4,2736.9h1.2v1.3h0.1c0.4-1,1.2-1.4,2.3-1.4c1.9,0,3.1,1.6,3.1,4c0,2.5-1.2,4.1-3.1,4.1
					c-1.1,0-1.8-0.5-2.3-1.4h-0.1v4.3h-1.2V2736.9z M528.8,2741.4v-1.3c0-1.4-0.8-2.3-2.2-2.3c-1.1,0-2,0.6-2,1.5v2.9
					c0,1,0.9,1.6,2,1.6C527.9,2743.7,528.8,2742.8,528.8,2741.4z"/>
          <path class="st1" d="M531.5,2740.8c0-2.5,1.4-4,3.5-4c2.1,0,3.3,1.6,3.3,3.8v0.6h-5.6v0.4c0,1.3,0.9,2.3,2.3,2.3
					c1,0,1.7-0.5,2.1-1.3l0.9,0.6c-0.5,1-1.6,1.8-3.1,1.8C532.9,2744.8,531.5,2743.2,531.5,2740.8z M532.8,2740.1v0.1h4.3v-0.2
					c0-1.4-0.8-2.3-2.1-2.3C533.7,2737.7,532.8,2738.7,532.8,2740.1z"/>
          <path class="st1" d="M540.3,2744.6v-7.7h1.2v1.3h0.1c0.4-0.9,1-1.4,2.2-1.4c1.6,0,2.6,1.1,2.6,3v5h-1.2v-4.8
					c0-1.4-0.6-2.1-1.8-2.1c-1,0-1.9,0.5-1.9,1.5v5.4H540.3z"/>
          <path class="st1" d="M548.1,2743.3l0.9-0.7c0.6,0.8,1.3,1.2,2.3,1.2c1,0,1.6-0.5,1.6-1.3c0-0.6-0.3-1.1-1.3-1.2l-0.6-0.1
					c-1.4-0.2-2.5-0.8-2.5-2.2c0-1.5,1.2-2.3,2.8-2.3c1.2,0,2.1,0.5,2.7,1.2l-0.8,0.7c-0.3-0.5-1-0.9-2-0.9c-1,0-1.5,0.5-1.5,1.2
					c0,0.8,0.5,1.1,1.5,1.2l0.6,0.1c1.7,0.3,2.4,1,2.4,2.2c0,1.5-1.1,2.4-2.9,2.4C549.7,2744.8,548.8,2744.2,548.1,2743.3z"/>
          <path class="st1" d="M561.8,2744.6c-0.9,0-1.2-0.5-1.3-1.3h-0.1c-0.3,0.9-1.2,1.4-2.2,1.4c-1.6,0-2.6-0.9-2.6-2.3
					c0-1.5,1-2.3,3.3-2.3h1.5v-0.8c0-1.1-0.6-1.7-1.8-1.7c-0.9,0-1.5,0.4-2,1.2l-0.7-0.7c0.4-0.8,1.3-1.5,2.7-1.5c1.9,0,3,1,3,2.6
					v4.3h0.9v1.1H561.8z M560.4,2742.4v-1.3h-1.6c-1.4,0-2,0.4-2,1.2v0.3c0,0.8,0.6,1.2,1.5,1.2
					C559.5,2743.8,560.4,2743.2,560.4,2742.4z"/>
          <path class="st1" d="M565.9,2744.6c-0.8,0-1.3-0.5-1.3-1.3v-5.4h-1.3v-1.1h0.7c0.5,0,0.7-0.2,0.7-0.7v-1.4h1.1v2.1h1.7v1.1h-1.7
					v5.6h1.6v1.1H565.9z"/>
          <path class="st1" d="M569.3,2734.4v-0.2c0-0.4,0.2-0.7,0.7-0.7s0.7,0.3,0.7,0.7v0.2c0,0.4-0.2,0.7-0.7,0.7
					S569.3,2734.8,569.3,2734.4z M569.4,2736.9h1.2v7.7h-1.2V2736.9z"/>
          <path class="st1" d="M572.6,2740.8c0-2.5,1.4-4,3.5-4c2.1,0,3.5,1.6,3.5,4c0,2.5-1.4,4.1-3.5,4.1
					C574,2744.8,572.6,2743.2,572.6,2740.8z M578.3,2741.3v-1.1c0-1.6-0.9-2.4-2.2-2.4s-2.2,0.8-2.2,2.4v1.1c0,1.6,0.9,2.4,2.2,2.4
					S578.3,2742.9,578.3,2741.3z"/>
          <path class="st1" d="M581.6,2744.6v-7.7h1.2v1.3h0.1c0.4-0.9,1-1.4,2.2-1.4c1.6,0,2.6,1.1,2.6,3v5h-1.2v-4.8
					c0-1.4-0.6-2.1-1.8-2.1c-1,0-1.9,0.5-1.9,1.5v5.4H581.6z"/>
          <path class="st1" d="M589.4,2743.3l0.9-0.7c0.6,0.8,1.3,1.2,2.3,1.2c1,0,1.6-0.5,1.6-1.3c0-0.6-0.3-1.1-1.3-1.2l-0.6-0.1
					c-1.4-0.2-2.5-0.8-2.5-2.2c0-1.5,1.2-2.3,2.8-2.3c1.2,0,2.1,0.5,2.7,1.2l-0.8,0.7c-0.3-0.5-1-0.9-2-0.9s-1.5,0.5-1.5,1.2
					c0,0.8,0.5,1.1,1.5,1.2l0.6,0.1c1.7,0.3,2.4,1,2.4,2.2c0,1.5-1.1,2.4-2.9,2.4C591,2744.8,590,2744.2,589.4,2743.3z"/>
        </g>
        <line id="Line_7" class="st2" x1="125.9" y1="2804.7" x2="658.3" y2="2804.7"/>
        <line id="Line_8" class="st3" x1="125.9" y1="2702.4" x2="658.3" y2="2702.4"/>
        <line id="Line_9" class="st3" x1="125.9" y1="2600.1" x2="658.3" y2="2600.1"/>
        <line id="Line_10" class="st3" x1="125.9" y1="2497.8" x2="658.3" y2="2497.8"/>
        <line id="Line_11" class="st3" x1="125.9" y1="2395.5" x2="658.3" y2="2395.5"/>
        <path id="Path_11" class="st4" d="M125.9,2790.3c432.1-32.6,532.3-374.1,532.3-374.1"/>
        <path id="Path_10" class="st5" d="M128.8,2740.4c411.9,0,529.4-140.3,529.4-140.3"/>
        <line id="Line_18" class="st6" x1="392.1" y1="2395.5" x2="392.1" y2="2804.7"/>
      </g>
    </g>
  </g>
</svg>