<svg xmlns="http://www.w3.org/2000/svg" xmlns:xlink="http://www.w3.org/1999/xlink" viewBox="0 0 89 30"><defs><style>.a{clip-path:url(#b);}.b{fill:#25b135;}</style><clipPath id="b"><rect width="89" height="30"/></clipPath></defs><g id="a" class="a"><g transform="translate(10868 -505.324)"><g transform="translate(-10836.528 505.324)"><g transform="translate(0 0)"><rect width="4.392" height="17.419" transform="translate(19.686 6.253)"/><path d="M111.916,26.621l-1.712-.372c-1.117-.223-1.712-.744-1.712-1.489s.893-1.34,2.084-1.34a2.247,2.247,0,0,1,2.308,1.266l3.35-2.233a6.453,6.453,0,0,0-5.509-3.052,7.741,7.741,0,0,0-4.318,1.266,5.09,5.09,0,0,0-2.159,3.945c-.074,2.68,1.712,4.69,4.913,5.583q.782.223,1.787.447c1.489.3,1.712.819,1.712,1.34,0,.968-.893,1.563-2.233,1.489a3.868,3.868,0,0,1-3.5-2.084L104.1,33.842a6.791,6.791,0,0,0,6.179,3.648c3.573.074,6.551-2.382,6.625-5.434C116.9,29.3,115.192,27.365,111.916,26.621Z" transform="translate(-77.938 -13.519)"/><path d="M77.847,17.381a7.075,7.075,0,0,0-4.466,1.563V11.5H68.989V25.272a6.366,6.366,0,0,0,0,1.191v.223h0a9.209,9.209,0,0,0,2.605,6.328,9,9,0,0,0,5.136,2.457h1.117A8.776,8.776,0,0,0,84.1,32.939a9.1,9.1,0,0,0,2.605-6.551A9.421,9.421,0,0,0,84.1,19.837,9.169,9.169,0,0,0,77.847,17.381Zm.074,14.069a2.3,2.3,0,0,1-.744-.074h-.149A.273.273,0,0,1,76.8,31.3h0a4.338,4.338,0,0,1-3.424-3.648h0a6.558,6.558,0,0,1-.149-1.266A4.731,4.731,0,0,1,77.847,21.4c3.35,0,4.541,2.605,4.541,4.988C82.388,28.845,81.271,31.376,77.922,31.45Z" transform="translate(-68.956 -11.5)"/><path d="M140.317,28.284a9.209,9.209,0,0,0-2.605-6.328,9,9,0,0,0-5.136-2.457h-1.117a8.776,8.776,0,0,0-6.253,2.531,9.1,9.1,0,0,0-2.605,6.551,9.421,9.421,0,0,0,2.605,6.551,8.776,8.776,0,0,0,6.253,2.531,7.075,7.075,0,0,0,4.466-1.563v7.444h4.392V28.284ZM131.31,33.5c-3.35,0-4.541-2.605-4.541-4.988s1.191-4.988,4.466-4.988a2.3,2.3,0,0,1,.744.074h.149a.273.273,0,0,1,.223.074h0a4.579,4.579,0,0,1,3.573,4.541h0v.3A4.642,4.642,0,0,1,131.31,33.5Z" transform="translate(-82.666 -13.545)"/></g></g><g transform="translate(-10868 507.52)"><path class="b" d="M38.85,10.5C38.521,9.512,37.7,9.389,37,10.171A15.509,15.509,0,0,0,35.1,12.394c-1.153,1.647.247,2.347,2.182,3.335,2.717,1.4,3.376-.247,3.047-1.359C39.756,12.6,39.509,12.271,38.85,10.5Z" transform="translate(-20.405 -5.684)"/><path class="b" d="M17.7,1.3Z" transform="translate(-10.413 -0.765)"/><path class="b" d="M24.747,38.9c.412.412.865.906,1.112,1.153a.468.468,0,0,0,.329.124h0a.468.468,0,0,0,.329-.124c.206-.247.659-.741,1.07-1.153a.442.442,0,0,0-.288-.741,19.284,19.284,0,0,0-2.182,0A.453.453,0,0,0,24.747,38.9Z" transform="translate(-14.496 -22.429)"/><path class="b" d="M34.839,27.6c-2.182-.041-2.264,3.5.124,2.717.618-.206,2.017-1.317,1.606-2.141-.206-.453-1.359-.576-1.729-.576Z" transform="translate(-19.524 -16.236)"/><path class="b" d="M17.8,1.3" transform="translate(-10.472 -0.765)"/><path class="b" d="M18.4,16.1a35.234,35.234,0,0,1-3.87,2.594,5.29,5.29,0,0,1-2.8.865h-.082a5.29,5.29,0,0,1-2.8-.865,21.878,21.878,0,0,1-2.923-2.223,5.564,5.564,0,0,1-2.1-4.323,12.258,12.258,0,0,1,.329-2.717c.453-1.77.741-2.882,1.317-4.652.329-.988,1.235-.988,2.059-.371.535.412,2.347,1.647,2.347,1.647,1.317.865,3.088,1.029,4.611-.988C15.851,3.253,14.122,0,10.252,0A10.069,10.069,0,0,0,3.005,3.211,12.1,12.1,0,0,0,0,11.24,11.487,11.487,0,0,0,20.627,18.2C22.109,16.263,19.927,14.657,18.4,16.1Z" transform="translate(0)"/><path class="b" d="M16.923,27.6c2.182-.041,2.264,3.5-.124,2.717-.618-.206-2.017-1.317-1.606-2.141.165-.453,1.359-.576,1.729-.576Z" transform="translate(-8.894 -16.236)"/></g></g></g></svg>