<svg width="106" height="107" viewBox="0 0 106 107" fill="none" xmlns="http://www.w3.org/2000/svg">
<g id="Group 2">
<path id="Ellipse" d="M53 100.547C74.2262 100.547 92.1658 86.6419 98 67.5469" stroke="#25B135"/>
<path id="Ellipse_2" d="M100 53.5468C100 32.3206 86.095 14.3809 67 8.54675" stroke="#25B135"/>
<path id="Ellipse_3" d="M53 5.54675C31.7738 5.54675 13.8342 19.8731 8 39.5468" stroke="#25B135"/>
<path id="Ellipse_4" d="M5 53.5469C5 74.773 19.3263 92.7127 39 98.5469" stroke="#25B135"/>
<path id="Vector" d="M89.1246 72.4956L97.9502 67.2157L103.23 76.0413" stroke="#25B135"/>
<path id="Vector_2" d="M71.4089 18.0519L66.5486 8.47427L76.1261 3.61393" stroke="#25B135"/>
<path id="Vector_3" d="M16.519 35.0474L8.09528 40.0465L3.09624 31.6228" stroke="#25B135"/>
<path id="Vector_4" d="M34.1112 89.7273L39.5446 98.6661L30.6058 104.1" stroke="#25B135"/>
<g id="settings-work-tool" clip-path="url(#clip0)">
<g id="Settings">
<g id="Group">
<g id="Vector_5">
<mask id="path-9-inside-1" fill="white">
<path fill-rule="evenodd" clip-rule="evenodd" d="M74.8554 49.9929C74.7826 49.3462 74.0287 48.8603 73.3768 48.8603C71.269 48.8603 69.3987 47.6227 68.6143 45.7087C67.8129 43.7483 68.3297 41.4621 69.9005 40.0211C70.395 39.5691 70.455 38.8124 70.0403 38.2868C68.9616 36.9169 67.7354 35.6795 66.3966 34.607C65.8724 34.1863 65.1032 34.2449 64.6487 34.7482C63.2777 36.2665 60.8152 36.8308 58.9123 36.0368C56.932 35.2038 55.6833 33.1972 55.8055 31.0433C55.8457 30.3667 55.3513 29.7785 54.6768 29.6999C52.9587 29.5012 51.2256 29.495 49.5025 29.6862C48.8356 29.7598 48.3412 30.3342 48.3636 31.0022C48.4386 33.1349 47.1748 35.1065 45.2142 35.9095C43.3341 36.6775 40.8888 36.118 39.5206 34.6132C39.0684 34.1175 38.3118 34.0566 37.785 34.4672C36.4065 35.5487 35.1528 36.7872 34.0641 38.1458C33.6395 38.674 33.7019 39.4395 34.2014 39.894C35.8022 41.3436 36.319 43.6497 35.4874 45.6327C34.6934 47.5233 32.7303 48.7417 30.4829 48.7417C29.7536 48.7183 29.2341 49.2078 29.1544 49.8708C28.9521 51.5988 28.9497 53.3594 29.1445 55.1014C29.2167 55.7508 29.9936 56.2324 30.6527 56.2324C32.6555 56.1812 34.5784 57.4212 35.3851 59.3842C36.1891 61.3446 35.6722 63.6295 34.099 65.0716C33.6069 65.5236 33.5445 66.2791 33.9592 66.8047C35.0279 68.1659 36.2542 69.4045 37.5977 70.4859C38.1247 70.9105 38.8915 70.8506 39.3483 70.3473C40.7243 68.8252 43.1867 68.2619 45.0821 69.0574C47.0673 69.8879 48.316 71.8943 48.1938 74.0495C48.1539 74.7264 48.6508 75.3157 49.3226 75.393C50.2014 75.4955 51.0856 75.5467 51.9722 75.5467C52.8138 75.5467 53.6555 75.5005 54.497 75.4069C55.164 75.3333 55.6582 74.7589 55.6357 74.0897C55.5585 71.9581 56.8246 69.9866 58.7826 69.1849C60.6753 68.4118 63.1103 68.9777 64.4787 70.4809C64.9335 70.9756 65.6848 71.0353 66.2145 70.6261C67.5904 69.5471 68.8416 68.3097 69.9354 66.9473C70.3599 66.4203 70.3 65.6535 69.798 65.1993C68.1972 63.7496 67.6777 61.4432 68.5094 59.4616C69.2912 57.5962 71.1814 56.3437 73.2145 56.3437L73.499 56.351C74.1585 56.4046 74.7652 55.8966 74.8451 55.2235C75.0478 53.494 75.0502 51.7348 74.8554 49.9929ZM52.0364 60.2672C47.8058 60.2672 44.3646 56.826 44.3646 52.5954C44.3646 48.365 47.8058 44.9236 52.0364 44.9236C56.2668 44.9236 59.708 48.365 59.708 52.5954C59.708 56.826 56.2668 60.2672 52.0364 60.2672Z"/>
</mask>
<path fill-rule="evenodd" clip-rule="evenodd" d="M74.8554 49.9929C74.7826 49.3462 74.0287 48.8603 73.3768 48.8603C71.269 48.8603 69.3987 47.6227 68.6143 45.7087C67.8129 43.7483 68.3297 41.4621 69.9005 40.0211C70.395 39.5691 70.455 38.8124 70.0403 38.2868C68.9616 36.9169 67.7354 35.6795 66.3966 34.607C65.8724 34.1863 65.1032 34.2449 64.6487 34.7482C63.2777 36.2665 60.8152 36.8308 58.9123 36.0368C56.932 35.2038 55.6833 33.1972 55.8055 31.0433C55.8457 30.3667 55.3513 29.7785 54.6768 29.6999C52.9587 29.5012 51.2256 29.495 49.5025 29.6862C48.8356 29.7598 48.3412 30.3342 48.3636 31.0022C48.4386 33.1349 47.1748 35.1065 45.2142 35.9095C43.3341 36.6775 40.8888 36.118 39.5206 34.6132C39.0684 34.1175 38.3118 34.0566 37.785 34.4672C36.4065 35.5487 35.1528 36.7872 34.0641 38.1458C33.6395 38.674 33.7019 39.4395 34.2014 39.894C35.8022 41.3436 36.319 43.6497 35.4874 45.6327C34.6934 47.5233 32.7303 48.7417 30.4829 48.7417C29.7536 48.7183 29.2341 49.2078 29.1544 49.8708C28.9521 51.5988 28.9497 53.3594 29.1445 55.1014C29.2167 55.7508 29.9936 56.2324 30.6527 56.2324C32.6555 56.1812 34.5784 57.4212 35.3851 59.3842C36.1891 61.3446 35.6722 63.6295 34.099 65.0716C33.6069 65.5236 33.5445 66.2791 33.9592 66.8047C35.0279 68.1659 36.2542 69.4045 37.5977 70.4859C38.1247 70.9105 38.8915 70.8506 39.3483 70.3473C40.7243 68.8252 43.1867 68.2619 45.0821 69.0574C47.0673 69.8879 48.316 71.8943 48.1938 74.0495C48.1539 74.7264 48.6508 75.3157 49.3226 75.393C50.2014 75.4955 51.0856 75.5467 51.9722 75.5467C52.8138 75.5467 53.6555 75.5005 54.497 75.4069C55.164 75.3333 55.6582 74.7589 55.6357 74.0897C55.5585 71.9581 56.8246 69.9866 58.7826 69.1849C60.6753 68.4118 63.1103 68.9777 64.4787 70.4809C64.9335 70.9756 65.6848 71.0353 66.2145 70.6261C67.5904 69.5471 68.8416 68.3097 69.9354 66.9473C70.3599 66.4203 70.3 65.6535 69.798 65.1993C68.1972 63.7496 67.6777 61.4432 68.5094 59.4616C69.2912 57.5962 71.1814 56.3437 73.2145 56.3437L73.499 56.351C74.1585 56.4046 74.7652 55.8966 74.8451 55.2235C75.0478 53.494 75.0502 51.7348 74.8554 49.9929ZM52.0364 60.2672C47.8058 60.2672 44.3646 56.826 44.3646 52.5954C44.3646 48.365 47.8058 44.9236 52.0364 44.9236C56.2668 44.9236 59.708 48.365 59.708 52.5954C59.708 56.826 56.2668 60.2672 52.0364 60.2672Z" fill="white" stroke="#25B135" stroke-width="2" mask="url(#path-9-inside-1)"/>
</g>
</g>
</g>
</g>
</g>
<defs>
<clipPath id="clip0">
<rect width="46" height="46" fill="white" transform="translate(29 29.5468)"/>
</clipPath>
</defs>
</svg>
