<?xml version="1.0" encoding="UTF-8" standalone="no"?>
<svg
   xmlns:dc="http://purl.org/dc/elements/1.1/"
   xmlns:cc="http://creativecommons.org/ns#"
   xmlns:rdf="http://www.w3.org/1999/02/22-rdf-syntax-ns#"
   xmlns:svg="http://www.w3.org/2000/svg"
   xmlns="http://www.w3.org/2000/svg"
   xmlns:sodipodi="http://sodipodi.sourceforge.net/DTD/sodipodi-0.dtd"
   xmlns:inkscape="http://www.inkscape.org/namespaces/inkscape"
   fill="#000000"
   viewBox="0 0 24 24"
   width="96px"
   height="96px"
   version="1.1"
   id="svg1585"
   sodipodi:docname="external-link-w.svg"
   inkscape:version="0.92.5 (0.92.5+69)">
  <metadata
     id="metadata1591">
    <rdf:RDF>
      <cc:Work
         rdf:about="">
        <dc:format>image/svg+xml</dc:format>
        <dc:type
           rdf:resource="http://purl.org/dc/dcmitype/StillImage" />
        <dc:title></dc:title>
      </cc:Work>
    </rdf:RDF>
  </metadata>
  <defs
     id="defs1589" />
  <sodipodi:namedview
     pagecolor="#ffffff"
     bordercolor="#666666"
     borderopacity="1"
     objecttolerance="10"
     gridtolerance="10"
     guidetolerance="10"
     inkscape:pageopacity="0"
     inkscape:pageshadow="2"
     inkscape:window-width="3840"
     inkscape:window-height="2036"
     id="namedview1587"
     showgrid="false"
     inkscape:zoom="2.4583333"
     inkscape:cx="-70.372881"
     inkscape:cy="48"
     inkscape:window-x="0"
     inkscape:window-y="64"
     inkscape:window-maximized="1"
     inkscape:current-layer="svg1585" />
  <path
     d="M 19.980469 2.9902344 A 1.0001 1.0001 0 0 0 19.869141 3 L 15 3 A 1.0001 1.0001 0 1 0 15 5 L 17.585938 5 L 8.2929688 14.292969 A 1.0001 1.0001 0 1 0 9.7070312 15.707031 L 19 6.4140625 L 19 9 A 1.0001 1.0001 0 1 0 21 9 L 21 4.1269531 A 1.0001 1.0001 0 0 0 19.980469 2.9902344 z M 5 3 C 3.9069372 3 3 3.9069372 3 5 L 3 19 C 3 20.093063 3.9069372 21 5 21 L 19 21 C 20.093063 21 21 20.093063 21 19 L 21 13 A 1.0001 1.0001 0 1 0 19 13 L 19 19 L 5 19 L 5 5 L 11 5 A 1.0001 1.0001 0 1 0 11 3 L 5 3 z"
     id="path1583"
     style="fill:#ffffff;fill-opacity:1" />
</svg>
