<svg xmlns="http://www.w3.org/2000/svg" xmlns:xlink="http://www.w3.org/1999/xlink" viewBox="0 0 1273 978"><defs><style>.a{clip-path:url(#u);}.ac,.b,.q,.r,.s,.t{fill:none;}.b,.c,.q{stroke:#25b135;}.b,.s{stroke-width:2px;}.c,.d,.h,.l,.n,.y{fill:#fff;}.d,.r,.s,.t{stroke:#de0000;}.e,.k,.p,.u{fill:#de0000;}.f,.g,.j,.v,.w{fill:#25b135;}.g,.p,.v{font-size:20px;}.g,.p{font-family:IBMPlexMono-Text, IBM Plex Mono;}.h{stroke:#707070;}.i{fill:#707070;}.i,.j,.k,.m,.o{font-size:25px;font-family:IBMPlexSans-Bold, IBM Plex Sans;font-weight:700;}.l{stroke:#ff9300;}.m,.x{fill:#ff9300;}.n{stroke:#008686;}.o,.z{fill:#008686;}.t{stroke-dasharray:10 10;}.u,.w{font-size:18px;}.u,.v,.w,.y{font-family:IBMPlexSans, IBM Plex Sans;}.y{font-size:15px;letter-spacing:-0.06em;}.aa{clip-path:url(#s);}.ab{stroke:none;}.ad{filter:url(#q);}.ae{filter:url(#o);}.af{filter:url(#m);}.ag{filter:url(#k);}.ah{filter:url(#i);}.ai{filter:url(#g);}.aj{filter:url(#e);}.ak{filter:url(#c);}.al{filter:url(#a);}</style><filter id="a" x="1077" y="586" width="66" height="66" filterUnits="userSpaceOnUse"><feOffset dy="3" input="SourceAlpha"/><feGaussianBlur stdDeviation="3" result="b"/><feFlood flood-opacity="0.161"/><feComposite operator="in" in2="b"/><feComposite in="SourceGraphic"/></filter><filter id="c" x="635" y="603" width="66" height="66" filterUnits="userSpaceOnUse"><feOffset dy="3" input="SourceAlpha"/><feGaussianBlur stdDeviation="3" result="d"/><feFlood flood-opacity="0.161"/><feComposite operator="in" in2="d"/><feComposite in="SourceGraphic"/></filter><filter id="e" x="227" y="586" width="66" height="66" filterUnits="userSpaceOnUse"><feOffset dy="3" input="SourceAlpha"/><feGaussianBlur stdDeviation="3" result="f"/><feFlood flood-opacity="0.161"/><feComposite operator="in" in2="f"/><feComposite in="SourceGraphic"/></filter><filter id="g" x="609" y="651" width="66" height="66" filterUnits="userSpaceOnUse"><feOffset dy="3" input="SourceAlpha"/><feGaussianBlur stdDeviation="3" result="h"/><feFlood flood-opacity="0.161"/><feComposite operator="in" in2="h"/><feComposite in="SourceGraphic"/></filter><filter id="i" x="195" y="868" width="66" height="66" filterUnits="userSpaceOnUse"><feOffset dy="3" input="SourceAlpha"/><feGaussianBlur stdDeviation="3" result="j"/><feFlood flood-opacity="0.161"/><feComposite operator="in" in2="j"/><feComposite in="SourceGraphic"/></filter><filter id="k" x="45" y="161" width="66" height="66" filterUnits="userSpaceOnUse"><feOffset dy="3" input="SourceAlpha"/><feGaussianBlur stdDeviation="3" result="l"/><feFlood flood-opacity="0.161"/><feComposite operator="in" in2="l"/><feComposite in="SourceGraphic"/></filter><filter id="m" x="1025" y="586" width="66" height="66" filterUnits="userSpaceOnUse"><feOffset dy="3" input="SourceAlpha"/><feGaussianBlur stdDeviation="3" result="n"/><feFlood flood-opacity="0.161"/><feComposite operator="in" in2="n"/><feComposite in="SourceGraphic"/></filter><filter id="o" x="583" y="603" width="66" height="66" filterUnits="userSpaceOnUse"><feOffset dy="3" input="SourceAlpha"/><feGaussianBlur stdDeviation="3" result="p"/><feFlood flood-opacity="0.161"/><feComposite operator="in" in2="p"/><feComposite in="SourceGraphic"/></filter><filter id="q" x="1166" y="161" width="66" height="66" filterUnits="userSpaceOnUse"><feOffset dy="3" input="SourceAlpha"/><feGaussianBlur stdDeviation="3" result="r"/><feFlood flood-opacity="0.161"/><feComposite operator="in" in2="r"/><feComposite in="SourceGraphic"/></filter><clipPath id="s"><rect width="40" height="32"/></clipPath><clipPath id="u"><rect width="1273" height="978"/></clipPath></defs><g id="t" class="a"><path class="b" d="M179.586,241.745V0H0" transform="translate(488.586 857.745) rotate(180)"/><g class="c" transform="translate(27 306)"><rect class="ab" width="240" height="151"/><rect class="ac" x="0.5" y="0.5" width="239" height="150"/></g><g class="d" transform="translate(1007 306)"><rect class="ab" width="240" height="151"/><rect class="ac" x="0.5" y="0.5" width="239" height="150"/></g><path class="e" d="M126.753,139.559l-30.6-15.3a11.674,11.674,0,0,1-6.452-10.44V101.811a45.755,45.755,0,0,0,2.9-3.723,70.364,70.364,0,0,0,9.511-19.17,9.606,9.606,0,0,0,6.814-9.143V56.961a9.556,9.556,0,0,0-3.2-7.1V31.332S109.521,2.5,70.479,2.5,35.239,31.332,35.239,31.332V49.859a9.556,9.556,0,0,0-3.2,7.1V69.775a9.609,9.609,0,0,0,4.431,8.063,63.541,63.541,0,0,0,11.587,23.972V113.52a11.666,11.666,0,0,1-6.084,10.245L13.391,139.357A25.69,25.69,0,0,0,0,161.914V172.29s35.239,10.185,70.479,10.185,70.479-10.185,70.479-10.185v-9.749A25.7,25.7,0,0,0,126.753,139.559Z" transform="translate(1058 19.5)"/><path class="f" d="M143.1,157.616a24.81,24.81,0,0,0-13.715-22.19L95.275,120.653a11.073,11.073,0,0,1-4.457-5.073,2.943,2.943,0,0,1,2.648-4.228h24.021s8.809.844,15.6-2.072a6.873,6.873,0,0,0,2.861-10.248c-7.278-10.359-22.317-34.748-22.806-59.942,0,0-.835-38.775-39.091-39.091C51.736.186,41.194,13.319,36.286,24.235a56.045,56.045,0,0,0-4.352,19.391C30.347,67.637,18.12,90.307,12.422,99.691a6.787,6.787,0,0,0,2.2,9.332c5.24,3.133,11.652,2.329,11.652,2.329H50.86a2.531,2.531,0,0,1,1.574,4.513,35.8,35.8,0,0,1-3.789,2.734L19.929,135.231A24.8,24.8,0,0,0,7,157.01v6.926c0,8.54,30.467,15.466,68.049,15.466s68.049-6.926,68.049-15.466v-6.319Z" transform="translate(70.814 22)"/><text class="g" transform="translate(16 223)"><tspan x="22" y="21">Alice wants to Buy </tspan><tspan x="58" y="48">BTC with USD</tspan></text><g transform="translate(-300 -197)"><g class="h" transform="translate(822 255)"><rect class="ab" width="240" height="168"/><rect class="ac" x="0.5" y="0.5" width="239" height="167"/></g><text class="i" transform="translate(842 304)"><tspan x="47.337" y="26">Bisq P2P </tspan><tspan x="41.063" y="59">Offerbook</tspan></text></g><text class="j" transform="translate(17 349)"><tspan x="30.213" y="26">Send transaction</tspan><tspan x="86.063" y="59">deposit </tspan></text><text class="k" transform="translate(1018 349)"><tspan x="19.862" y="26">Take offer from </tspan><tspan x="50.063" y="59">Offerbook</tspan></text><g transform="translate(-300 -248)"><g class="l" transform="translate(822 725)"><rect class="ab" width="240" height="168"/><rect class="ac" x="0.5" y="0.5" width="239" height="167"/></g><text class="m" transform="translate(842 774)"><tspan x="58.875" y="26">Bitcoin</tspan><tspan x="49.438" y="59">Network</tspan></text></g><g transform="translate(-300 57)"><g class="n" transform="translate(822 725)"><rect class="ab" width="240" height="168"/><rect class="ac" x="0.5" y="0.5" width="239" height="167"/></g><text class="o" transform="translate(842 774)"><tspan x="45.263" y="26">3rd Party </tspan><tspan x="27.363" y="59">Service/App</tspan></text></g><text class="p" transform="translate(998 223)"><tspan x="4" y="21">Bob wants to Sell BTC </tspan><tspan x="88" y="48">for USD</tspan></text><path class="q" d="M-30,0H194" transform="translate(276.5 141.5)"/><path class="r" d="M0,0H214" transform="translate(1017.5 141.366) rotate(180)"/><path class="s" d="M656.616,0H0" transform="translate(311.5 380.366)"/><path class="s" d="M816.979-75.621V0H491.649" transform="translate(311.5 566.366)"/><path class="s" d="M672.5-75.621V148.715H491.649" transform="translate(311.5 708.621)"/><path class="t" d="M652.37,112.97V-75.621H491.649" transform="translate(212.084 744.366)"/><path class="q" d="M1648.571,504.315l19.071-19.071,19.071,19.071" transform="translate(955.382 -1526.209) rotate(90)"/><path class="r" d="M1648.571,504.315l19.071-19.071,19.071,19.071" transform="translate(318.618 1809.075) rotate(-90)"/><path class="s" d="M1648.571,504.315l19.071-19.071,19.071,19.071" transform="translate(-173.382 2048.075) rotate(-90)"/><path class="s" d="M1648.571,504.315l19.071-19.071,19.071,19.071" transform="translate(318.618 2234.075) rotate(-90)"/><path class="s" d="M1648.571,504.315l19.071-19.071,19.071,19.071" transform="translate(318.618 2525.075) rotate(-90)"/><path class="r" d="M1648.571,491.7l6.46-6.46,6.46,6.46" transform="translate(212.618 2323.574) rotate(-90)"/><path class="b" d="M833.235.379v-76H491.649" transform="translate(980.235 491.124) rotate(180)"/><path class="b" d="M1648.571,504.315l19.071-19.071,19.071,19.071" transform="translate(974.176 -1101.209) rotate(90)"/><path class="b" d="M1648.571,504.315l19.071-19.071,19.071,19.071" transform="translate(974.176 -810.209) rotate(90)"/><g class="d" transform="translate(910.446 516.838)"><rect class="ab" width="147.109" height="99.324"/><rect class="ac" x="0.5" y="0.5" width="146.109" height="98.324"/></g><text class="u" transform="translate(918.446 530.456)"><tspan x="45.052" y="18">Send</tspan><tspan x="12.085" y="40">BTC principal </tspan><tspan x="18.079" y="62">and deposit</tspan></text><g class="d" transform="translate(893.143 822.838)"><rect class="ab" width="181.715" height="70.324"/><rect class="ac" x="0.5" y="0.5" width="180.715" height="69.324"/></g><g class="d" transform="translate(790.446 704.838)"><rect class="ab" width="147.109" height="50.324"/><rect class="ac" x="0.5" y="0.5" width="146.109" height="49.324"/></g><text class="u" transform="translate(910.613 834)"><tspan x="31.213" y="18">Check and </tspan><tspan x="7.516" y="40">validate transfer</tspan></text><text class="u" transform="translate(798.446 718.456)"><tspan x="8.602" y="18">Release funds</tspan></text><g transform="translate(-442.5 90.838)"><g class="c" transform="translate(702 441)"><rect class="ab" width="99" height="70.324"/><rect class="ac" x="0.5" y="0.5" width="98" height="69.324"/></g><text class="v" transform="translate(707.384 447.618)"><tspan x="21.336" y="21">Send</tspan><tspan x="8.186" y="48" xml:space="preserve"> deposit</tspan></text></g><g transform="translate(-442.5 381.838)"><g class="c" transform="translate(702 441)"><rect class="ab" width="99" height="70.324"/><rect class="ac" x="0.5" y="0.5" width="98" height="69.324"/></g><text class="v" transform="translate(707.384 447.618)"><tspan x="21.336" y="21">Send</tspan><tspan x="8.186" y="48" xml:space="preserve"> deposit</tspan></text></g><g class="c" transform="translate(291.06 105.838)"><rect class="ab" width="117.881" height="70.324"/><rect class="ac" x="0.5" y="0.5" width="116.881" height="69.324"/></g><text class="w" transform="translate(297.47 117.456)"><tspan x="25.872" y="18">Create </tspan><tspan x="14.514" y="40">Buy Offer</tspan></text><g class="d" transform="translate(848.06 105.838)"><rect class="ab" width="117.881" height="70.324"/><rect class="ac" x="0.5" y="0.5" width="116.881" height="69.324"/></g><text class="u" transform="translate(854.47 117.456)"><tspan x="22.182" y="18">Browse </tspan><tspan x="10.131" y="40">Buy Offers</tspan></text><g class="d" transform="translate(563.446 361.838)"><rect class="ab" width="147.109" height="41.324"/><rect class="ac" x="0.5" y="0.5" width="146.109" height="40.324"/></g><text class="u" transform="translate(571.446 371.456)"><tspan x="12.796" y="18">Initiate trade</tspan></text><g class="c" transform="translate(259.5 531.838)"><rect class="ab" width="99" height="70.324"/><rect class="ac" x="0.5" y="0.5" width="98" height="69.324"/></g><text class="w" transform="translate(264.884 543.456)"><tspan x="23.614" y="18">Send</tspan><tspan x="11.779" y="40" xml:space="preserve"> deposit</tspan></text><g class="c" transform="translate(228.44 822.838)"><rect class="ab" width="161.12" height="70.324"/><rect class="ac" x="0.5" y="0.5" width="160.12" height="69.324"/></g><text class="w" transform="translate(237.202 834)"><tspan x="2.201" y="18">Send USD via 3rd </tspan><tspan x="50.639" y="40">Party</tspan></text><g transform="translate(-77 -140)"><g class="al" transform="matrix(1, 0, 0, 1, 77, 140)"><circle class="x" cx="24" cy="24" r="24" transform="translate(1086 592)"/></g><text class="y" transform="translate(1160.884 746.456)"><tspan x="11.596" y="15">0.1฿</tspan></text></g><g transform="translate(-519 -123)"><g class="ak" transform="matrix(1, 0, 0, 1, 519, 123)"><circle class="x" cx="24" cy="24" r="24" transform="translate(644 609)"/></g><text class="y" transform="translate(1160.884 746.456)"><tspan x="11.596" y="15">0.1฿</tspan></text></g><g transform="translate(-927 -140)"><g class="aj" transform="matrix(1, 0, 0, 1, 927, 140)"><circle class="x" cx="24" cy="24" r="24" transform="translate(236 592)"/></g><text class="y" transform="translate(1160.884 746.456)"><tspan x="11.596" y="15">0.1฿</tspan></text></g><g transform="translate(-545 -75)"><g class="ai" transform="matrix(1, 0, 0, 1, 545, 75)"><circle class="x" cx="24" cy="24" r="24" transform="translate(618 657)"/></g><text class="y" transform="translate(1160.884 746.456)"><tspan x="11.596" y="15">0.1฿</tspan></text></g><g transform="translate(0 86)"><g class="ah" transform="matrix(1, 0, 0, 1, 0, -86)"><circle class="z" cx="24" cy="24" r="24" transform="translate(204 874)"/></g><text class="y" transform="translate(201.884 802.456)"><tspan x="5.431" y="15">$1000</tspan></text></g><g transform="translate(-150 -621)"><g class="ag" transform="matrix(1, 0, 0, 1, 150, 621)"><circle class="z" cx="24" cy="24" r="24" transform="translate(54 167)"/></g><text class="y" transform="translate(201.884 802.456)"><tspan x="5.431" y="15">$1000</tspan></text></g><g transform="translate(-129 -140)"><g class="af" transform="matrix(1, 0, 0, 1, 129, 140)"><circle class="x" cx="24" cy="24" r="24" transform="translate(1034 592)"/></g><text class="y" transform="translate(1160.884 746.456)"><tspan x="17.236" y="15">1฿</tspan></text></g><g transform="translate(-571 -123)"><g class="ae" transform="matrix(1, 0, 0, 1, 571, 123)"><circle class="x" cx="24" cy="24" r="24" transform="translate(592 609)"/></g><text class="y" transform="translate(1160.884 746.456)"><tspan x="17.236" y="15">1฿</tspan></text></g><g transform="translate(12 -565)"><g class="ad" transform="matrix(1, 0, 0, 1, -12, 565)"><circle class="x" cx="24" cy="24" r="24" transform="translate(1175 167)"/></g><text class="y" transform="translate(1160.884 746.456)"><tspan x="17.236" y="15">1฿</tspan></text></g><g class="aa" transform="translate(622 633)"><g transform="translate(12.216 5.068)"><path d="M68.518,9.963H58.97V5.811a3.2,3.2,0,0,1,.974-2.348,3.32,3.32,0,0,1,4.7,0,3.2,3.2,0,0,1,.974,2.348v.83H68.1v-.83A5.6,5.6,0,0,0,66.4,1.7a5.8,5.8,0,0,0-8.212,0,5.6,5.6,0,0,0-1.706,4.106V9.963h-1.66v11.6H69.762V9.963Z" transform="translate(-54.818 -0.001)"/></g></g></g></svg>