<svg xmlns="http://www.w3.org/2000/svg" xmlns:xlink="http://www.w3.org/1999/xlink" width="20" height="16" viewBox="0 0 20 16">
  <defs>
    <clipPath id="clip-path">
      <rect id="Rectangle_111" data-name="Rectangle 111" width="20" height="16"/>
    </clipPath>
  </defs>
  <g id="a" clip-path="url(#clip-path)">
    <g id="icon-android-w" transform="translate(-32.889 0.239)" opacity="0.54">
      <g id="Group_23822" data-name="Group 23822" transform="translate(37.134 0)">
        <g id="Group_23821" data-name="Group 23821" transform="translate(0)">
          <path id="Path_23108" data-name="Path 23108" d="M37.973,164.715h-.035a.807.807,0,0,0-.8.8v3.5a.806.806,0,0,0,.8.8h.035a.807.807,0,0,0,.8-.8v-3.5A.808.808,0,0,0,37.973,164.715Z" transform="translate(-37.134 -160.315)"/>
          <path id="Path_23109" data-name="Path 23109" d="M113.085,175.055a.74.74,0,0,0,.739.738h.79v1.892a.807.807,0,0,0,.8.805h.035a.807.807,0,0,0,.806-.805v-1.892h1.1v1.892a.808.808,0,0,0,.805.805h.034a.807.807,0,0,0,.8-.805v-1.892h.791a.74.74,0,0,0,.739-.738v-5.53h-7.451Z" transform="translate(-111.056 -164.997)"/>
          <path id="Path_23110" data-name="Path 23110" d="M117.763,1.175l.627-.969a.133.133,0,0,0-.039-.184.132.132,0,0,0-.184.039l-.651,1a4.3,4.3,0,0,0-3.218,0l-.649-1a.134.134,0,0,0-.225.145l.628.969a3.177,3.177,0,0,0-1.9,2.8c0,.074,0,.146.011.218h7.481c.006-.072.01-.145.01-.218A3.178,3.178,0,0,0,117.763,1.175Zm-3.59,1.734a.359.359,0,1,1,.36-.36A.359.359,0,0,1,114.174,2.909Zm3.468,0a.359.359,0,1,1,.36-.36A.359.359,0,0,1,117.642,2.909Z" transform="translate(-110.153 0)"/>
          <path id="Path_23111" data-name="Path 23111" d="M407.308,164.715h-.033a.808.808,0,0,0-.805.8v3.5a.807.807,0,0,0,.805.8h.034a.806.806,0,0,0,.8-.8v-3.5A.807.807,0,0,0,407.308,164.715Z" transform="translate(-396.604 -160.315)"/>
        </g>
      </g>
    </g>
  </g>
</svg>
