<svg xmlns="http://www.w3.org/2000/svg" xmlns:xlink="http://www.w3.org/1999/xlink" viewBox="0 0 20 16"><defs><style>.a{clip-path:url(#b);}.b{fill:#25b135;}</style><clipPath id="b"><rect width="20" height="16"/></clipPath></defs><g id="a" class="a"><g transform="translate(3.273 0.236)"><path class="b" d="M35.163,12.522c-.457-.187-.653-.436-.634-.807a1.237,1.237,0,0,0-.343-.875,3.794,3.794,0,0,0,0-2.009,17.35,17.35,0,0,0-2.138-3.488,2.994,2.994,0,0,1-.422-1.786,5.429,5.429,0,0,0-.4-2.175A2.249,2.249,0,0,0,29.088,0a2.928,2.928,0,0,0-1.627.5c-.934.645-.811,2.051-.729,2.981.011.127.022.248.028.35a4.61,4.61,0,0,1-.06,1.537,6.31,6.31,0,0,1-.466.654c-.226.3-.481.634-.691.948A7.426,7.426,0,0,0,24.9,8.479,7.257,7.257,0,0,1,24.486,9.5a1.4,1.4,0,0,0-.135,1.049,1.077,1.077,0,0,0-.346.438c-.139.3-.421.456-1.007.569a.777.777,0,0,0-.552.337.955.955,0,0,0,.006.763,1.187,1.187,0,0,1-.078.86c-.027.082-.058.175-.089.277a.5.5,0,0,0,.052.437c.221.339.868.458,1.533.537a5.909,5.909,0,0,1,1.252.36,5.879,5.879,0,0,0,1.225.353,1.392,1.392,0,0,0,.173.011,1.02,1.02,0,0,0,.933-.547,10.365,10.365,0,0,1,1.681-.2,7.3,7.3,0,0,1,1.671.172,1.344,1.344,0,0,0,.5.548,1.221,1.221,0,0,0,.566.128h0a1.365,1.365,0,0,0,1-.411,8.918,8.918,0,0,1,1.805-1.153c.138-.075.267-.145.38-.208a.851.851,0,0,0,.52-.755A.639.639,0,0,0,35.163,12.522Zm-7.694-.069c-.043-.3-.435-.607-.889-.957a3.146,3.146,0,0,1-.908-.885,2.669,2.669,0,0,1,.279-2.076,5.272,5.272,0,0,0,.424-1.023A3.678,3.678,0,0,1,26.817,6.5a2.581,2.581,0,0,0,.531-1.288,1.607,1.607,0,0,0,.948.516.559.559,0,0,0,.152-.021,5.124,5.124,0,0,0,.909-.458,3.881,3.881,0,0,1,.772-.388,21.554,21.554,0,0,1,1.686,4.2,4.446,4.446,0,0,1-.063,1.6,1.177,1.177,0,0,0-.157-.011c-.369,0-.466.2-.492.321A13.008,13.008,0,0,0,31.03,12.5a3.049,3.049,0,0,1-1.775,1.11,7.683,7.683,0,0,1-1.094.086,3.7,3.7,0,0,1-.54-.033l-.486-.556A.591.591,0,0,0,27.469,12.453Zm.617-9.173-.045.021a.906.906,0,0,0-.01-.1.567.567,0,0,0-.482-.527.34.34,0,0,0-.052,0,.4.4,0,0,0-.3.267c.051-.314.229-.547.44-.547.248,0,.458.334.458.73A1.08,1.08,0,0,1,28.086,3.28Zm1.927.236a.774.774,0,0,0,.035-.232.582.582,0,0,0-.518-.64.588.588,0,0,0-.515.64q0,.036,0,.072l-.044-.017a.978.978,0,0,1-.049-.308.629.629,0,1,1,1.222,0A.916.916,0,0,1,30.013,3.516Zm-.248.835c0,.022-.015.031-.129.091-.058.03-.129.067-.219.122l-.06.036a5.56,5.56,0,0,1-.959.509c-.1.014-.169-.026-.313-.125l-.1-.07a1.229,1.229,0,0,1-.448-.434c.085-.066.3-.231.4-.328a1.168,1.168,0,0,1,.549-.341H28.5a5.465,5.465,0,0,1,.676.241c.107.043.2.079.264.1A.633.633,0,0,1,29.765,4.351Zm1.838,9.53a7.572,7.572,0,0,0,.227-1.646c0-.095-.013-.2-.021-.3a2.74,2.74,0,0,1-.014-.546l.015-.006a.927.927,0,0,0,.434.881.959.959,0,0,0,.385.075,1.574,1.574,0,0,0,.978-.36,1.779,1.779,0,0,0,.248-.326.393.393,0,0,1,.017.154,1.1,1.1,0,0,0,.474.991l.047.025c.116.061.424.223.429.3a.068.068,0,0,1-.02.025,4.447,4.447,0,0,1-.611.343,5.344,5.344,0,0,0-1.231.757,1.682,1.682,0,0,1-.94.587.247.247,0,0,1-.075-.011C31.7,14.748,31.493,14.39,31.6,13.881ZM23.16,12.552a.694.694,0,0,1-.024-.3c.016-.067.346-.139.487-.169a1.9,1.9,0,0,0,.538-.169,1.092,1.092,0,0,0,.367-.492.764.764,0,0,1,.2-.307.043.043,0,0,1,.024-.006c.145,0,.448.3.623.576.044.069.126.206.221.365a11.669,11.669,0,0,0,.876,1.345c.183.2.48.573.407.9a.982.982,0,0,1-.4.5.415.415,0,0,1-.09.008,5.75,5.75,0,0,1-1.572-.5l-.061-.026a4.985,4.985,0,0,0-.973-.217,3.177,3.177,0,0,1-.753-.169c-.053-.06.009-.255.063-.426a2.765,2.765,0,0,0,.1-.385A1.4,1.4,0,0,0,23.16,12.552Z" transform="translate(-22.257 0)"/></g></g></svg>