<svg xmlns="http://www.w3.org/2000/svg" xmlns:xlink="http://www.w3.org/1999/xlink" viewBox="0 0 20 16">
  <defs>
    <style>
      .cls-1 {
        clip-path: url(#clip-icon-download-w);
      }

      .cls-2 {
        fill: #fff;
      }
    </style>
    <clipPath id="clip-icon-download-w">
      <rect width="20" height="16"/>
    </clipPath>
  </defs>
  <g id="icon-download-w" class="cls-1">
    <rect class="cls-2" width="20" height="16"/>
    <g id="icon-download-g" transform="translate(4 1.415)">
      <g id="Group_2" data-name="Group 2" transform="translate(2.926)">
        <g id="Group_1" data-name="Group 1">
          <path id="Path_1" data-name="Path 1" class="cls-2" d="M134.648,5.908a.418.418,0,0,0-.38-.237H132.6V.405A.412.412,0,0,0,132.178,0h-1.672a.412.412,0,0,0-.418.405V5.67h-1.672a.419.419,0,0,0-.38.237.394.394,0,0,0,.066.434l2.926,3.24a.426.426,0,0,0,.629,0l2.926-3.24A.394.394,0,0,0,134.648,5.908Z" transform="translate(-127.998)"/>
        </g>
      </g>
      <g id="Group_4" data-name="Group 4" transform="translate(0 8.911)">
        <g id="Group_3" data-name="Group 3" transform="translate(0)">
          <path id="Path_2" data-name="Path 2" class="cls-2" d="M26.868,352v2.43h-9.2V352H16v3.24a.823.823,0,0,0,.836.81H27.7a.823.823,0,0,0,.836-.81V352Z" transform="translate(-16 -352)"/>
        </g>
      </g>
    </g>
  </g>
</svg>
