<?xml version="1.0" encoding="UTF-8" standalone="no"?>
<svg
   xmlns:dc="http://purl.org/dc/elements/1.1/"
   xmlns:cc="http://creativecommons.org/ns#"
   xmlns:rdf="http://www.w3.org/1999/02/22-rdf-syntax-ns#"
   xmlns:svg="http://www.w3.org/2000/svg"
   xmlns="http://www.w3.org/2000/svg"
   id="svg8"
   version="1.1"
   viewBox="0 0 5.2916665 4.2333332"
   height="16"
   width="20">
  <defs
     id="defs2">
    <style
       id="style815">.a{clip-path:url(#b);}.b{fill:#25b135;}</style>
    <clipPath
       id="b">
      <rect
         y="0"
         x="0"
         width="20"
         height="16"
         id="rect817" />
    </clipPath>
    <style
       id="style839">.a{clip-path:url(#b);}.b{fill:#25b135;}</style>
    <clipPath
       id="b-3">
      <rect
         y="0"
         x="0"
         width="20"
         height="16"
         id="rect841" />
    </clipPath>
    <style
       id="style875">.a{clip-path:url(#b);}.b{fill:#25b135;}</style>
    <clipPath
       id="b-7">
      <rect
         y="0"
         x="0"
         width="20"
         height="16"
         id="rect877" />
    </clipPath>
    <style
       id="style899">.a{clip-path:url(#b);}.b,.e{fill:none;}.b,.c{stroke:#25b135;}.c{fill:#fff;}.d{stroke:none;}</style>
    <clipPath
       id="b-35">
      <rect
         y="0"
         x="0"
         width="20"
         height="16"
         id="rect901" />
    </clipPath>
    <style
       id="style956">.a{clip-path:url(#b);}.b{fill:#25b135;}</style>
    <clipPath
       id="b-9">
      <rect
         y="0"
         x="0"
         width="20"
         height="16"
         id="rect958" />
    </clipPath>
    <style
       id="style989">.a{clip-path:url(#b);}.b{fill:#25b135;}</style>
    <clipPath
       id="b-2">
      <rect
         y="0"
         x="0"
         width="20"
         height="16"
         id="rect991" />
    </clipPath>
    <style
       id="style1046">.a{clip-path:url(#b);}.b{fill:#25b135;}</style>
    <clipPath
       id="b-0">
      <rect
         y="0"
         x="0"
         width="20"
         height="16"
         id="rect1048" />
    </clipPath>
    <style
       id="style1070">.a{clip-path:url(#b);}.b,.d{fill:none;}.b{stroke:#25b135;stroke-width:0.5px;}.c{stroke:none;}</style>
    <clipPath
       id="b-36">
      <rect
         y="0"
         x="0"
         width="20"
         height="16"
         id="rect1072" />
    </clipPath>
    <style
       id="style1112">.a{clip-path:url(#b);}.b{fill:#25b135;}</style>
    <clipPath
       id="b-6">
      <rect
         y="0"
         x="0"
         width="20"
         height="16"
         id="rect1114" />
    </clipPath>
  </defs>
  <metadata
     id="metadata5">
    <rdf:RDF>
      <cc:Work
         rdf:about="">
        <dc:format>image/svg+xml</dc:format>
        <dc:type
           rdf:resource="http://purl.org/dc/dcmitype/StillImage" />
        <dc:title></dc:title>
      </cc:Work>
    </rdf:RDF>
  </metadata>
  <g
     transform="translate(0,-292.76667)"
     id="layer1">
    <path
       d="m 2.7494081,292.95301 c 0.2127036,-0.002 0.4841364,0.0713 0.679291,0.15482 0.2097298,0.0899 0.4037531,0.2195 0.5660756,0.37997 0.7486332,0.74085 0.7889663,1.91816 0.082509,2.70303 -0.1742104,0.19345 -0.3743161,0.32832 -0.6061245,0.4421 -0.2141193,0.10532 -0.5253188,0.18015 -0.764203,0.18057 0,0 -1.5142524,0 -1.5142524,0 0,0 -0.1839736,0 -0.1839736,0 -0.12849928,0 -0.24199798,0.011 -0.28799138,-0.14152 -0.010753,-0.0353 -0.00924,-0.0766 -0.00924,-0.1132 0,0 0,-1.14632 0,-1.14632 0,-0.24976 -0.012165,-0.54951 0.018248,-0.79249 0.05604,-0.45018 0.28883938,-0.89483 0.63273068,-1.19061 0.1294907,-0.11138 0.2575655,-0.20081 0.4104053,-0.27766 0.2388843,-0.12029 0.4050277,-0.15637 0.6651383,-0.19869 0,0 0.3113428,0 0.3113428,0 z m 0.2547351,2.23302 c 0.1372733,-7e-4 0.2226088,-0.0488 0.2261452,-0.19813 8.428e-4,-0.0302 5.532e-4,-0.0709 -0.010172,-0.0991 -0.055199,-0.14393 -0.2202039,-0.12511 -0.3433246,-0.12737 -0.030277,-5.7e-4 -0.067509,5.7e-4 -0.090573,-0.0226 -0.027174,-0.0272 -0.022503,-0.0829 -0.022648,-0.11888 0,0 0,-0.28303 0,-0.28303 1.442e-4,-0.0527 -0.00102,-0.0896 0.013161,-0.14153 0.064531,-0.23886 0.3111995,-0.3937 0.5529142,-0.33243 0.167416,0.0425 0.2132682,0.15087 0.3254934,0.17195 0.1522751,0.0285 0.2841697,-0.11548 0.2414303,-0.26408 -0.030994,-0.10729 -0.1613324,-0.19373 -0.255583,-0.24369 -0.3134644,-0.16599 -0.7166517,-0.12297 -0.9893591,0.10213 -0.3762978,0.31064 -0.3126143,0.70053 -0.3126143,1.13216 -0.188221,0 -0.5008362,-0.0469 -0.4797499,0.24058 0.00218,0.0305 0.0083,0.0573 0.022503,0.0846 0.062693,0.12186 0.201099,0.0986 0.3157281,0.0993 0.036225,2.8e-4 0.079249,-0.002 0.1088247,0.0226 0.038073,0.0321 0.032551,0.0879 0.032696,0.13303 0,0 0,0.25473 0,0.25473 -4.183e-4,0.25884 -0.1602,0.50281 -0.4387087,0.50932 -0.09623,0.002 -0.1709554,-0.0128 -0.254734,-0.0632 -0.062839,-0.0378 -0.1120829,-0.0986 -0.1839746,-0.11505 -0.1647277,-0.0377 -0.3092191,0.0983 -0.2575635,0.26336 0.031554,0.101 0.1552447,0.18299 0.2434118,0.23406 0.3250678,0.18808 0.7589665,0.12426 1.0330877,-0.12326 0.3387959,-0.3061 0.2830383,-0.70646 0.2830383,-1.11558 0,0 0.2405813,0 0.2405813,0 z"
       id="Selection"
       style="fill:#ffffff;fill-opacity:1;stroke:#ffffff;stroke-width:0.01415189;stroke-opacity:1" />
  </g>
</svg>
