<svg xmlns="http://www.w3.org/2000/svg" xmlns:xlink="http://www.w3.org/1999/xlink" width="20" height="16" viewBox="0 0 20 16">
  <defs>
    <clipPath id="clip-path">
      <rect id="Rectangle_110" data-name="Rectangle 110" width="20" height="16"/>
    </clipPath>
  </defs>
  <g id="a" clip-path="url(#clip-path)">
    <g id="Group_23820" data-name="Group 23820" transform="translate(-42.597 0.471)" opacity="0.537">
      <path id="Path_23107" data-name="Path 23107" d="M56.16,6.73a2.865,2.865,0,0,1,1.367-2.414,2.962,2.962,0,0,0-2.316-1.252c-.987-.1-1.924.58-2.425.58s-1.269-.566-2.09-.551a3.1,3.1,0,0,0-2.623,1.588c-1.117,1.938-.286,4.81.8,6.381.532.769,1.166,1.634,2,1.6.8-.032,1.105-.519,2.075-.519s1.242.519,2.091.5,1.41-.784,1.938-1.556a6.983,6.983,0,0,0,.877-1.8A2.8,2.8,0,0,1,56.16,6.73Zm-1.6-4.707A2.792,2.792,0,0,0,55.224,0a2.84,2.84,0,0,0-1.862.96,2.655,2.655,0,0,0-.673,1.96,2.349,2.349,0,0,0,1.875-.9Z"/>
    </g>
  </g>
</svg>
