<svg xmlns="http://www.w3.org/2000/svg" xmlns:xlink="http://www.w3.org/1999/xlink" viewBox="0 0 20 16"><defs><style>.a{clip-path:url(#b);}.b{fill:#25b135;}</style><clipPath id="b"><rect width="20" height="16"/></clipPath></defs><g id="a" class="a"><g transform="translate(2.189 0.194)"><g transform="translate(2.855 2.503)"><path class="b" d="M99.135,84.337a3.765,3.765,0,0,1,1.443-2.966L99.234,79.22a6.306,6.306,0,0,0-2.373,3.342,2.267,2.267,0,0,1,.068,3.768,6.3,6.3,0,0,0,2.36,3.163l1.25-2.223A3.758,3.758,0,0,1,99.135,84.337Z" transform="translate(-96.861 -79.22)"/></g><g transform="translate(0 6.122)"><path class="b" d="M9.75,195.42a1.63,1.63,0,1,1-1.63-1.629A1.631,1.631,0,0,1,9.75,195.42Z" transform="translate(-6.489 -193.791)"/></g><g transform="translate(6.118 8.008)"><path class="b" d="M206.465,257.18a2.251,2.251,0,0,1,1.05.257,6.274,6.274,0,0,0,1.713-3.893L206.7,253.5a3.772,3.772,0,0,1-5.269,3.059l-1.259,2.2a6.313,6.313,0,0,0,4.037.518A2.266,2.266,0,0,1,206.465,257.18Z" transform="translate(-200.168 -253.496)"/></g><g transform="translate(10.785 12.328)"><path class="b" d="M351.159,391.885a1.63,1.63,0,1,1-1.629-1.63A1.629,1.629,0,0,1,351.159,391.885Z" transform="translate(-347.9 -390.255)"/></g><g transform="translate(6.095 1.325)"><path class="b" d="M206.965,44.083a2.266,2.266,0,0,1-3.574-1.85c0-.066,0-.131.008-.2a6.313,6.313,0,0,0-3.978.546l1.251,2.2a3.77,3.77,0,0,1,5.294,3l2.532-.077A6.267,6.267,0,0,0,206.965,44.083Z" transform="translate(-199.421 -41.928)"/></g><g transform="translate(10.701)"><path class="b" d="M348.48,1.63A1.629,1.629,0,1,1,346.851,0,1.628,1.628,0,0,1,348.48,1.63Z" transform="translate(-345.221 0)"/></g></g></g></svg>