<svg xmlns="http://www.w3.org/2000/svg" xmlns:xlink="http://www.w3.org/1999/xlink" viewBox="0 0 20 16"><defs><style>.a{clip-path:url(#b);}.b{fill:#25b135;}</style><clipPath id="b"><rect width="20" height="16"/></clipPath></defs><g id="a" class="a"><g transform="translate(-43.535 0.471)"><path class="b" d="M57.727,7.953A3.386,3.386,0,0,1,59.343,5.1,3.5,3.5,0,0,0,56.606,3.62c-1.166-.118-2.274.686-2.866.686s-1.5-.669-2.47-.651a3.662,3.662,0,0,0-3.1,1.877c-1.32,2.29-.338,5.684.948,7.541.629.909,1.378,1.931,2.363,1.894.948-.038,1.306-.613,2.452-.613s1.468.613,2.471.594c1.02-.019,1.666-.927,2.29-1.839a8.253,8.253,0,0,0,1.037-2.129A3.306,3.306,0,0,1,57.727,7.953ZM55.842,2.39A3.3,3.3,0,0,0,56.621,0a3.356,3.356,0,0,0-2.2,1.134,3.138,3.138,0,0,0-.795,2.316A2.776,2.776,0,0,0,55.842,2.39Z"/></g></g></svg>