<?xml version="1.0" encoding="UTF-8" standalone="no"?>
<svg
   xmlns:dc="http://purl.org/dc/elements/1.1/"
   xmlns:cc="http://creativecommons.org/ns#"
   xmlns:rdf="http://www.w3.org/1999/02/22-rdf-syntax-ns#"
   xmlns:svg="http://www.w3.org/2000/svg"
   xmlns="http://www.w3.org/2000/svg"
   id="svg8"
   version="1.1"
   viewBox="0 0 5.2916665 4.2333332"
   height="16"
   width="20">
  <defs
     id="defs2">
    <style
       id="style815">.a{clip-path:url(#b);}.b{fill:#25b135;}</style>
    <clipPath
       id="b">
      <rect
         y="0"
         x="0"
         width="20"
         height="16"
         id="rect817" />
    </clipPath>
    <style
       id="style839">.a{clip-path:url(#b);}.b{fill:#25b135;}</style>
    <clipPath
       id="b-3">
      <rect
         y="0"
         x="0"
         width="20"
         height="16"
         id="rect841" />
    </clipPath>
    <style
       id="style875">.a{clip-path:url(#b);}.b{fill:#25b135;}</style>
    <clipPath
       id="b-7">
      <rect
         y="0"
         x="0"
         width="20"
         height="16"
         id="rect877" />
    </clipPath>
    <style
       id="style899">.a{clip-path:url(#b);}.b,.e{fill:none;}.b,.c{stroke:#25b135;}.c{fill:#fff;}.d{stroke:none;}</style>
    <clipPath
       id="b-35">
      <rect
         y="0"
         x="0"
         width="20"
         height="16"
         id="rect901" />
    </clipPath>
    <style
       id="style956">.a{clip-path:url(#b);}.b{fill:#25b135;}</style>
    <clipPath
       id="b-9">
      <rect
         y="0"
         x="0"
         width="20"
         height="16"
         id="rect958" />
    </clipPath>
    <style
       id="style989">.a{clip-path:url(#b);}.b{fill:#25b135;}</style>
    <clipPath
       id="b-2">
      <rect
         y="0"
         x="0"
         width="20"
         height="16"
         id="rect991" />
    </clipPath>
    <style
       id="style1046">.a{clip-path:url(#b);}.b{fill:#25b135;}</style>
    <clipPath
       id="b-0">
      <rect
         y="0"
         x="0"
         width="20"
         height="16"
         id="rect1048" />
    </clipPath>
    <style
       id="style1070">.a{clip-path:url(#b);}.b,.d{fill:none;}.b{stroke:#25b135;stroke-width:0.5px;}.c{stroke:none;}</style>
    <clipPath
       id="b-36">
      <rect
         y="0"
         x="0"
         width="20"
         height="16"
         id="rect1072" />
    </clipPath>
    <style
       id="style1112">.a{clip-path:url(#b);}.b{fill:#25b135;}</style>
    <clipPath
       id="b-6">
      <rect
         y="0"
         x="0"
         width="20"
         height="16"
         id="rect1114" />
    </clipPath>
  </defs>
  <metadata
     id="metadata5">
    <rdf:RDF>
      <cc:Work
         rdf:about="">
        <dc:format>image/svg+xml</dc:format>
        <dc:type
           rdf:resource="http://purl.org/dc/dcmitype/StillImage" />
        <dc:title></dc:title>
      </cc:Work>
    </rdf:RDF>
  </metadata>
  <g
     transform="translate(0,-292.76667)"
     id="layer1">
    <g
       id="layer1-3"
       transform="translate(-13.226377,-8.5795616)">
      <path
         d="m 15.869042,301.42835 c 0,0 -0.05961,0.14919 -0.05961,0.14919 0,0 -0.06314,0.15598 -0.06314,0.15598 -0.07046,0.1756 -0.139599,0.35308 -0.217351,0.52557 0,0 -0.104847,0.23396 -0.104847,0.23396 0,0 -0.03082,0.0678 -0.03082,0.0678 -0.0037,0.008 -0.01159,0.0216 -0.0108,0.0305 0.0012,0.012 0.01682,0.0251 0.02479,0.0339 0,0 0.08195,0.0848 0.08195,0.0848 0.08572,0.0858 0.178256,0.16681 0.274657,0.24035 0.02649,0.0202 0.08778,0.0711 0.115288,0.0818 -0.01787,4e-5 -0.03462,-0.01 -0.05086,-0.017 0,0 -0.108506,-0.05 -0.108506,-0.05 -0.09115,-0.0455 -0.17968,-0.0933 -0.264484,-0.15004 0,0 -0.135632,-0.0983 -0.135632,-0.0983 0,0 -0.0212,0.0441 -0.0212,0.0441 0,0 -0.07121,0.1458 -0.07121,0.1458 0,0 -0.220438,0.43403 -0.220438,0.43403 -0.206365,0.39994 -0.423174,0.7945 -0.637644,1.19018 0,0 -0.362784,0.65782 -0.362784,0.65782 0,0 -0.118679,0.21361 -0.118679,0.21361 -0.01275,0.0233 -0.04337,0.0727 -0.04984,0.0949 0,0 0.132242,-0.0718 0.132242,-0.0718 0,0 0.237358,-0.13068 0.237358,-0.13068 0.212706,-0.11506 0.469493,-0.23929 0.695118,-0.32515 0.1219,-0.0464 0.246412,-0.0888 0.372991,-0.12054 0,0 0.115288,-0.0273 0.115288,-0.0273 0.0096,-10e-4 0.04656,-0.008 0.05221,-0.0128 0.0096,-0.009 -0.0017,-0.0457 -0.0041,-0.0578 -0.0074,-0.037 -0.01756,-0.12244 -0.01764,-0.15937 0,0 0,-0.0949 0,-0.0949 0,0 0.0031,-0.0407 0.0031,-0.0407 0.01187,-0.17253 0.06008,-0.34842 0.165202,-0.48828 0.06693,-0.0891 0.172965,-0.16873 0.289474,-0.16611 0.140414,0.003 0.252922,0.1112 0.322772,0.22375 0.08179,0.13172 0.119832,0.28435 0.134854,0.43741 0,0 0,0.0305 0,0.0305 0,0 0.0035,0.034 0.0035,0.034 0.0012,0.1046 -0.0078,0.18249 -0.02713,0.28482 0,0 0.09833,0.0216 0.09833,0.0216 0,0 0.240748,0.0677 0.240748,0.0677 0.227355,0.0726 0.448029,0.17114 0.661211,0.27775 0,0 0.389944,0.20552 0.389944,0.20552 0,0 0.128851,0.0731 0.128851,0.0731 0.01797,0.01 0.05706,0.0337 0.0746,0.0392 -0.0058,-0.0202 -0.04377,-0.0864 -0.05621,-0.10846 0,0 -0.09193,-0.16954 -0.09193,-0.16954 0,0 -0.133768,-0.24754 -0.133768,-0.24754 0,0 -0.0593,-0.10835 -0.0593,-0.10835 -0.0098,-0.0131 -0.04445,-0.0395 -0.05889,-0.051 0,0 -0.108507,-0.0869 -0.108507,-0.0869 -0.111897,-0.0909 -0.229015,-0.17399 -0.352645,-0.24818 0,0 -0.115287,-0.0659 -0.115287,-0.0659 -0.0157,-0.008 -0.03049,-0.018 -0.04748,-0.0229 0.01716,-10e-4 0.03096,0.004 0.04748,0.009 0,0 0.105111,0.0318 0.105111,0.0318 0.09399,0.0311 0.185275,0.0671 0.274656,0.10957 0,0 0.111898,0.06 0.111898,0.06 -0.0058,-0.0203 -0.03533,-0.0697 -0.04659,-0.0916 0,0 -0.108342,-0.20345 -0.108342,-0.20345 0,0 -0.124173,-0.23397 -0.124173,-0.23397 0,0 -0.211688,-0.40011 -0.211688,-0.40011 0,0 -0.28822,-0.5561 -0.28822,-0.5561 0,0 -0.150959,-0.30517 -0.150959,-0.30517 0,0 -0.101584,-0.20684 -0.101584,-0.20684 -0.107382,-0.22733 -0.211927,-0.45643 -0.309244,-0.68834 0,0 -0.135633,-0.31874 -0.135633,-0.31874 0,0 -0.06978,-0.16614 -0.06978,-0.16614 0,0 -0.0067,0 -0.0067,0 z m 0.01356,1.60725 c 0,0 0,0.003 0,0.003 0,0 -0.0034,-0.003 -0.0034,-0.003 0,0 0.0034,0 0.0034,0 z m 0.996902,1.34615 c 0,0 0,0.003 0,0.003 0,0 -0.0034,-0.003 -0.0034,-0.003 0,0 0.0034,0 0.0034,0 z"
         id="arch-linux-29"
         style="fill:#ffffff;fill-opacity:1;stroke:#ffffff;stroke-width:0.00339082;stroke-opacity:1" />
    </g>
  </g>
</svg>
