<?xml version="1.0" encoding="UTF-8" standalone="no"?>
<svg
   xmlns:dc="http://purl.org/dc/elements/1.1/"
   xmlns:cc="http://creativecommons.org/ns#"
   xmlns:rdf="http://www.w3.org/1999/02/22-rdf-syntax-ns#"
   xmlns:svg="http://www.w3.org/2000/svg"
   xmlns="http://www.w3.org/2000/svg"
   xmlns:sodipodi="http://sodipodi.sourceforge.net/DTD/sodipodi-0.dtd"
   xmlns:inkscape="http://www.inkscape.org/namespaces/inkscape"
   width="7.11022in"
   height="7.11022in"
   viewBox="0 0 512 512"
   version="1.1"
   id="svg58"
   sodipodi:docname="rssfeed-logo.svg"
   inkscape:version="0.92.3 (2405546, 2018-03-11)">
  <metadata
     id="metadata64">
    <rdf:RDF>
      <cc:Work
         rdf:about="">
        <dc:format>image/svg+xml</dc:format>
        <dc:type
           rdf:resource="http://purl.org/dc/dcmitype/StillImage" />
      </cc:Work>
    </rdf:RDF>
  </metadata>
  <defs
     id="defs62" />
  <sodipodi:namedview
     pagecolor="#ffffff"
     bordercolor="#666666"
     borderopacity="1"
     objecttolerance="10"
     gridtolerance="10"
     guidetolerance="10"
     inkscape:pageopacity="0"
     inkscape:pageshadow="2"
     inkscape:window-width="1920"
     inkscape:window-height="1012"
     id="namedview60"
     showgrid="false"
     inkscape:zoom="1.1969273"
     inkscape:cx="165.00584"
     inkscape:cy="341.29056"
     inkscape:window-x="0"
     inkscape:window-y="32"
     inkscape:window-maximized="1"
     inkscape:current-layer="svg58" />
  <path
     id="Selection"
     fill="none"
     stroke="black"
     stroke-width="1"
     d="M 103.00,0.11            C 103.00,0.11 188.00,0.11 188.00,0.11              188.00,0.11 446.00,0.11 446.00,0.11              480.73,0.05 511.95,31.27 512.00,66.00              512.00,66.00 512.00,312.00 512.00,312.00              512.00,312.00 512.00,448.00 512.00,448.00              511.60,481.47 479.11,511.95 446.00,512.00              446.00,512.00 200.00,512.00 200.00,512.00              200.00,512.00 64.00,512.00 64.00,512.00              57.39,511.92 53.20,510.73 47.00,508.67              20.43,499.82 0.04,474.46 0.00,446.00              0.00,446.00 0.00,112.00 0.00,112.00              0.00,112.00 0.00,81.00 0.00,81.00              0.00,81.00 0.00,65.00 0.00,65.00              0.08,47.69 8.83,30.93 21.00,19.01              25.47,14.64 30.54,10.95 36.00,7.87              42.00,4.50 51.20,1.71 58.00,0.11              58.00,0.11 103.00,0.11 103.00,0.11 Z            M 431.00,414.00            C 431.00,414.00 430.09,402.00 430.09,402.00              427.51,366.67 418.47,329.77 404.99,297.00              350.76,165.17 223.04,80.00 81.00,80.00              81.00,80.00 81.00,148.00 81.00,148.00              189.29,148.00 291.40,213.35 336.69,312.00              354.28,350.32 363.00,389.91 363.00,432.00              363.00,432.00 431.00,432.00 431.00,432.00              431.00,432.00 431.00,414.00 431.00,414.00 Z            M 312.00,419.00            C 311.96,396.21 304.02,365.16 295.55,344.00              269.63,279.20 213.23,227.61 146.00,208.43              129.10,203.60 112.46,201.11 95.00,199.91              95.00,199.91 85.00,199.00 85.00,199.00              85.00,199.00 81.00,199.00 81.00,199.00              81.00,199.00 81.00,259.00 81.00,259.00              81.00,260.94 80.75,264.72 81.99,266.26              83.34,267.93 86.05,267.92 88.00,267.98              88.00,267.98 102.00,268.95 102.00,268.95              123.50,271.36 146.65,279.67 165.00,291.06              214.72,321.93 244.00,373.64 244.00,432.00              244.00,432.00 312.00,432.00 312.00,432.00              312.00,432.00 312.00,419.00 312.00,419.00 Z            M 101.00,345.55            C 81.52,358.16 74.94,386.74 85.90,407.00              93.96,421.91 109.21,430.95 126.00,431.91              129.98,432.14 137.10,430.90 141.00,429.84              181.18,418.91 186.44,364.00 151.00,343.46              141.29,337.84 129.93,337.21 119.00,338.30              112.52,339.52 106.55,341.95 101.00,345.55 Z"
     style="stroke:#21b135;stroke-opacity:1;fill:#21b135;fill-opacity:1" />
</svg>
