<svg xmlns="http://www.w3.org/2000/svg" xmlns:xlink="http://www.w3.org/1999/xlink" viewBox="0 0 72 100"><defs><style>.a{clip-path:url(#b);}.b,.c{fill:#fff;}.b,.e{stroke:#25b135;}.c{stroke-linejoin:round;}.d,.e,.g{fill:none;}.d{stroke:#fff;stroke-linecap:round;stroke-width:4px;}.f,.h{stroke:none;}.h{fill:#25b135;}</style><clipPath id="b"><rect width="72" height="100"/></clipPath></defs><g id="a" class="a"><g class="b" transform="translate(20 23)"><rect class="f" width="47.633" height="59.25"/><rect class="g" x="0.5" y="0.5" width="46.633" height="58.25"/></g><g class="b" transform="translate(10 30)"><rect class="f" width="47.633" height="59.25"/><rect class="g" x="0.5" y="0.5" width="46.633" height="58.25"/></g><g class="b" transform="translate(1 37)"><rect class="f" width="47.633" height="59.25"/><rect class="g" x="0.5" y="0.5" width="46.633" height="58.25"/></g><g transform="translate(4281.928 -711.597)"><g class="c" transform="translate(-4258 763.327)"><path class="f" d="M 24.07240295410156 45.25187683105469 C 21.10663223266602 45.25187683105469 18.01911354064941 44.58806991577148 14.8956127166748 43.27887725830078 C 12.38441276550293 42.2263298034668 9.844952583312988 40.75702667236328 7.347793102264404 38.91177749633789 C 3.877469301223755 36.34744262695312 1.456218123435974 33.76258087158203 0.664141833782196 32.87604904174805 C 1.458493590354919 31.98745727539062 3.890934705734253 29.39152908325195 7.367332935333252 26.82565879821777 C 9.862492561340332 24.98402786254883 12.39970302581787 23.51776885986328 14.90846252441406 22.46761894226074 C 18.02752304077148 21.1619987487793 21.1107120513916 20.49999809265137 24.07240295410156 20.49999809265137 C 27.03817367553711 20.49999809265137 30.12569236755371 21.16380882263184 33.24919128417969 22.47299766540527 C 35.76039123535156 23.52554893493652 38.29985427856445 24.99484825134277 40.79701232910156 26.8400993347168 C 44.26733779907227 29.40443229675293 46.6885871887207 31.98929405212402 47.48066329956055 32.87582778930664 C 46.68631362915039 33.76441955566406 44.25387191772461 36.36034774780273 40.77747344970703 38.92621994018555 C 38.28231430053711 40.76784896850586 35.74510192871094 42.23410797119141 33.23634338378906 43.28425979614258 C 30.11728286743164 44.58987808227539 27.03409385681152 45.25187683105469 24.07240295410156 45.25187683105469 Z"/><path class="h" d="M 24.07240295410156 21 C 21.18139266967773 21 18.16743278503418 21.64715957641602 15.11425399780273 22.92351913452148 C 12.64475250244141 23.95586776733398 10.1447639465332 25.39925003051758 7.683731079101562 27.21357727050781 C 4.597114562988281 29.48911285400391 2.340236663818359 31.79076385498047 1.339714050292969 32.87593078613281 C 2.340476989746094 33.96134948730469 4.597370147705078 36.2629508972168 7.683731079101562 38.53828811645508 C 10.1447639465332 40.35261917114258 12.64475250244141 41.79599761962891 15.11425399780273 42.82834625244141 C 18.16743278503418 44.10470581054688 21.18139266967773 44.75186920166016 24.07240295410156 44.75186920166016 C 26.96341323852539 44.75186920166016 29.97737312316895 44.10470581054688 33.03055191040039 42.82834625244141 C 35.50005340576172 41.79599761962891 38.00004196166992 40.35261917114258 40.46107482910156 38.53828811645508 C 43.54795074462891 36.2625732421875 45.80504608154297 33.96062088012695 46.80544281005859 32.87556457519531 C 45.81128692626953 31.7963981628418 43.57423782348633 29.51397705078125 40.49987411499023 27.24221801757812 C 38.03481292724609 25.42070007324219 35.53030395507812 23.97124862670898 33.05591201782227 22.93412780761719 C 29.99394226074219 21.65073776245117 26.97146224975586 21 24.07240295410156 21 M 24.07240295410156 20 C 37.36722183227539 20 48.14480209350586 32.87593841552734 48.14480209350586 32.87593841552734 C 48.14480209350586 32.87593841552734 37.36722183227539 45.75186920166016 24.07240295410156 45.75186920166016 C 10.77758407592773 45.75186920166016 3.814697265625e-06 32.87593841552734 3.814697265625e-06 32.87593841552734 C 3.814697265625e-06 32.87593841552734 10.77758407592773 20 24.07240295410156 20 Z"/></g><g class="b" transform="translate(-4243.445 786.686)"><circle class="f" cx="9.517" cy="9.517" r="9.517"/><circle class="g" cx="9.517" cy="9.517" r="9.017"/></g><path class="d" d="M0,28,26.287,1.71" transform="matrix(0.999, -0.035, 0.035, 0.999, -4247.994, 782.276)"/><path class="e" d="M1.63,29.357,29.277,1.71" transform="matrix(0.999, -0.035, 0.035, 0.999, -4249.67, 780.974)"/></g></g></svg>