<svg xmlns="http://www.w3.org/2000/svg" xmlns:xlink="http://www.w3.org/1999/xlink" viewBox="0 0 72 100"><defs><style>.a{clip-path:url(#b);}.b,.c{fill:#fff;}.b,.f{stroke:#25b135;}.d,.e,.f,.h{fill:none;}.d,.e{stroke:#fff;}.e{stroke-width:4px;}.g,.i{stroke:none;}.i{fill:#25b135;}</style><clipPath id="b"><rect width="72" height="100"/></clipPath></defs><g id="a" class="a"><g class="b" transform="translate(0.2 28.441)"><ellipse class="g" cx="35.389" cy="35.389" rx="35.389" ry="35.389"/><ellipse class="h" cx="35.389" cy="35.389" rx="34.889" ry="34.889"/></g><g class="b" transform="translate(11.089 39.33)"><ellipse class="g" cx="24.5" cy="24.5" rx="24.5" ry="24.5"/><ellipse class="h" cx="24.5" cy="24.5" rx="24" ry="24"/></g><g class="c" transform="translate(20.617 48.858)"><path class="g" d="M 14.97246551513672 29.44491958618164 C 11.10673522949219 29.44491958618164 7.472375392913818 27.93951797485352 4.738895416259766 25.20602798461914 C 2.005405426025391 22.47254943847656 0.5000055432319641 18.83818817138672 0.5000055432319641 14.9724588394165 C 0.5000055432319641 11.10672855377197 2.005405426025391 7.472368717193604 4.738895416259766 4.738888740539551 C 7.472375392913818 2.005398750305176 11.10673522949219 0.4999988377094269 14.97246551513672 0.4999988377094269 C 18.83819580078125 0.4999988377094269 22.47255516052246 2.005398750305176 25.20604515075684 4.738888740539551 C 27.93953514099121 7.472368717193604 29.4449348449707 11.10672855377197 29.4449348449707 14.9724588394165 C 29.4449348449707 18.83818817138672 27.93953514099121 22.47254943847656 25.20604515075684 25.20602798461914 C 22.47255516052246 27.93951797485352 18.83819580078125 29.44491958618164 14.97246551513672 29.44491958618164 Z"/><path class="i" d="M 14.97246551513672 0.9999980926513672 C 11.24028587341309 0.9999980926513672 7.731494903564453 2.453388214111328 5.092435836791992 5.092439651489258 C 2.453386306762695 7.731489181518555 0.9999961853027344 11.24027824401855 0.9999961853027344 14.9724588394165 C 0.9999961853027344 18.70463943481445 2.453386306762695 22.21342849731445 5.092435836791992 24.85247802734375 C 7.731494903564453 27.49152946472168 11.24028587341309 28.94491958618164 14.97246551513672 28.94491958618164 C 18.70464515686035 28.94491958618164 22.21343612670898 27.49152946472168 24.85248565673828 24.85247802734375 C 27.49153518676758 22.21342849731445 28.94492530822754 18.70463943481445 28.94492530822754 14.9724588394165 C 28.94492530822754 11.24027824401855 27.49153518676758 7.731489181518555 24.85248565673828 5.092439651489258 C 22.21343612670898 2.453388214111328 18.70464515686035 0.9999980926513672 14.97246551513672 0.9999980926513672 M 14.97246551513672 -1.9073486328125e-06 C 23.24152565002441 -1.9073486328125e-06 29.94492530822754 6.703399658203125 29.94492530822754 14.9724588394165 C 29.94492530822754 23.24151992797852 23.24152565002441 29.94491958618164 14.97246551513672 29.94491958618164 C 6.703405380249023 29.94491958618164 -3.814697265625e-06 23.24151992797852 -3.814697265625e-06 14.9724588394165 C -3.814697265625e-06 6.703399658203125 6.703405380249023 -1.9073486328125e-06 14.97246551513672 -1.9073486328125e-06 Z"/></g><g transform="translate(13.409 22)"><path class="d" d="M0,0,7.875,8.134,0,16.267" transform="translate(30.566 38.52) rotate(90)"/><line class="e" x2="31.805" y2="31.574" transform="translate(22.327 0) rotate(45)"/><path class="f" d="M0,0,7.875,8.134,0,16.267" transform="translate(30.566 38.52) rotate(90)"/><line class="f" x2="31.805" y2="31.574" transform="translate(22.327 0) rotate(45)"/></g></g></svg>