<svg xmlns="http://www.w3.org/2000/svg" xmlns:xlink="http://www.w3.org/1999/xlink" viewBox="0 0 72 100"><defs><style>.a{clip-path:url(#b);}.b,.c{fill:#fff;}.b,.f{stroke:#25b135;stroke-width:3px;}.d,.e,.f,.h{fill:none;}.d,.e{stroke:#fff;}.d{stroke-width:7px;}.e{stroke-width:9px;}.g,.i{stroke:none;}.i{fill:#25b135;}</style><clipPath id="b"><rect width="72" height="100"/></clipPath></defs><g id="a" class="a"><g class="b" transform="translate(0.2 28.441)"><ellipse class="g" cx="35.389" cy="35.389" rx="35.389" ry="35.389"/><ellipse class="h" cx="35.389" cy="35.389" rx="33.889" ry="33.889"/></g><g class="b" transform="translate(11.089 39.33)"><ellipse class="g" cx="24.5" cy="24.5" rx="24.5" ry="24.5"/><ellipse class="h" cx="24.5" cy="24.5" rx="23" ry="23"/></g><g class="c" transform="translate(20.617 48.858)"><path class="g" d="M 14.97246551513672 28.44491958618164 C 11.37384510040283 28.44491958618164 7.990605354309082 27.04353904724121 5.445995330810547 24.49892807006836 C 2.901385545730591 21.95431900024414 1.500005483627319 18.57107925415039 1.500005483627319 14.9724588394165 C 1.500005483627319 11.37383842468262 2.901385545730591 7.990598678588867 5.445995330810547 5.445988655090332 C 7.990605354309082 2.901378870010376 11.37384510040283 1.499998807907104 14.97246551513672 1.499998807907104 C 18.57108497619629 1.499998807907104 21.95432472229004 2.901378870010376 24.49893569946289 5.445988655090332 C 27.04355621337891 7.990608692169189 28.4449348449707 11.37383842468262 28.4449348449707 14.9724588394165 C 28.4449348449707 18.57107925415039 27.04355621337891 21.95430946350098 24.49893569946289 24.49892807006836 C 21.95432472229004 27.04353904724121 18.57108497619629 28.44491958618164 14.97246551513672 28.44491958618164 Z"/><path class="i" d="M 14.97246551513672 2.999998092651367 C 11.77450561523438 2.999998092651367 8.767955780029297 4.24534797668457 6.506654739379883 6.506649017333984 C 4.245346069335938 8.767948150634766 2.999996185302734 11.77449798583984 2.999996185302734 14.9724588394165 C 2.999996185302734 18.17041778564453 4.245346069335938 21.17696762084961 6.506654739379883 23.43826866149902 C 8.767955780029297 25.69956970214844 11.77450561523438 26.94491958618164 14.97246551513672 26.94491958618164 C 18.17042541503906 26.94491958618164 21.17697525024414 25.69956970214844 23.43827438354492 23.43826866149902 C 25.69957542419434 21.17696762084961 26.94492530822754 18.17041778564453 26.94492530822754 14.9724588394165 C 26.94492530822754 11.77449798583984 25.69957542419434 8.767948150634766 23.43827438354492 6.506649017333984 C 21.17697525024414 4.24534797668457 18.17042541503906 2.999998092651367 14.97246551513672 2.999998092651367 M 14.97246551513672 -1.9073486328125e-06 C 23.24152565002441 -1.9073486328125e-06 29.94492530822754 6.703399658203125 29.94492530822754 14.9724588394165 C 29.94492530822754 23.24151992797852 23.24152565002441 29.94491958618164 14.97246551513672 29.94491958618164 C 6.703405380249023 29.94491958618164 -3.814697265625e-06 23.24151992797852 -3.814697265625e-06 14.9724588394165 C -3.814697265625e-06 6.703399658203125 6.703405380249023 -1.9073486328125e-06 14.97246551513672 -1.9073486328125e-06 Z"/></g><g transform="translate(13.409 22)"><path class="d" d="M0,0,7.875,8.134,0,16.267" transform="translate(30.566 38.52) rotate(90)"/><line class="e" x2="31.805" y2="31.574" transform="translate(22.327 0) rotate(45)"/><path class="f" d="M0,0,7.875,8.134,0,16.267" transform="translate(30.566 38.52) rotate(90)"/><line class="f" x2="31.805" y2="31.574" transform="translate(22.327 0) rotate(45)"/></g></g></svg>