<svg xmlns="http://www.w3.org/2000/svg" xmlns:xlink="http://www.w3.org/1999/xlink" viewBox="0 0 73 100"><defs><style>.a{clip-path:url(#b);}.b{fill:#fff;}.b,.c{stroke:#25b135;stroke-width:3px;}.c,.e{fill:none;}.d{stroke:none;}</style><clipPath id="b"><rect width="73" height="100"/></clipPath></defs><g id="a" class="a"><g transform="translate(0 8.415)"><g class="b" transform="translate(59.349 13.564)"><circle class="d" cx="5.162" cy="5.162" r="5.162"/><circle class="e" cx="5.162" cy="5.162" r="3.662"/></g><g class="b" transform="translate(32.142 8.122)"><circle class="d" cx="5.162" cy="5.162" r="5.162"/><circle class="e" cx="5.162" cy="5.162" r="3.662"/></g><g class="b" transform="translate(1.308 26.26)"><circle class="d" cx="5.162" cy="5.162" r="5.162"/><circle class="e" cx="5.162" cy="5.162" r="3.662"/></g><g class="b" transform="translate(9.47 79.767)"><circle class="d" cx="5.162" cy="5.162" r="5.162"/><circle class="e" cx="5.162" cy="5.162" r="3.662"/></g><g class="b" transform="translate(62.069 55.281)"><circle class="d" cx="5.162" cy="5.162" r="5.162"/><circle class="e" cx="5.162" cy="5.162" r="3.662"/></g><g class="b" transform="translate(15.818 48.026)"><circle class="d" cx="5.162" cy="5.162" r="5.162"/><circle class="e" cx="5.162" cy="5.162" r="3.662"/></g><g class="b" transform="translate(46.652 71.605)"><circle class="d" cx="5.162" cy="5.162" r="5.162"/><circle class="e" cx="5.162" cy="5.162" r="3.662"/></g><g class="b" transform="translate(42.118 34.422)"><circle class="d" cx="5.162" cy="5.162" r="5.162"/><circle class="e" cx="5.162" cy="5.162" r="3.662"/></g><path class="c" d="M17.433,2.188,42.755,6.576" transform="translate(-2.801 30.546)"/><path class="c" d="M17.433,17.145l2.6-14.957" transform="translate(-0.417 59.289)"/><path class="c" d="M11.193,21.491l23.142-5.073" transform="translate(10.621 62.355)"/><path class="c" d="M11.193,22.834l11.369-6.417" transform="translate(17.512 26.899)"/><path class="c" d="M11.193,26.043,18.6,16.417" transform="translate(41.249 8.286)"/><path class="c" d="M33.719,19.122,31.032-2.457" transform="translate(17.147 49.834)"/><path class="c" d="M12.852,14.9,7.991-21.952" transform="translate(0.246 61.537)"/><path class="c" d="M40.572,7.824,31.032-2.457" transform="translate(21.41 47.245)"/><path class="c" d="M35.31,10.238l-4.278-12.7" transform="translate(9.343 22.496)"/></g></g></svg>