<svg xmlns="http://www.w3.org/2000/svg" xmlns:xlink="http://www.w3.org/1999/xlink" viewBox="0 0 89 100"><defs><style>.a{clip-path:url(#b);}.b,.d,.g{fill:none;}.b,.c{stroke:#25b135;}.c,.e{fill:#fff;}.d,.e{stroke:#fff;}.d{stroke-width:8px;}.e{stroke-width:4px;}.f{stroke:none;}</style><clipPath id="b"><rect width="89" height="100"/></clipPath></defs><g id="a" class="a"><path class="b" d="M0,0H54.766a17.176,17.176,0,0,1,0,34.353H0" transform="translate(13.438 91.911) rotate(-90)"/><g class="c" transform="translate(1.668 49.233)"><rect class="f" width="58.567" height="51.064"/><rect class="g" x="0.5" y="0.5" width="57.567" height="50.064"/></g><path class="d" d="M2417.484,15.685l7.223,9.212,20.224-22.661" transform="translate(-2400.25 59.575)"/><path class="b" d="M2417.484,14.208l6.43,8.2,18-20.172" transform="translate(-2398.93 60.82)"/><g transform="translate(44.5 63.703)"><path class="e" d="M30.183,4a10.062,10.062,0,0,0-9.744,7.546H2.515L0,14.026l5.459,5.247,3.715-2.7,3.846,2.7,4.9-2.7h2.523A10.062,10.062,0,1,0,30.183,4Zm3.258,11.466a2.575,2.575,0,0,1-3.386,0,2.575,2.575,0,0,1,0-3.386,2.575,2.575,0,0,1,3.386,0A2.575,2.575,0,0,1,33.442,15.466Z" transform="translate(0 -4)"/></g><path class="c" d="M30.183,4a10.062,10.062,0,0,0-9.744,7.546H2.515L0,14.026l5.459,5.247,3.715-2.7,3.846,2.7,4.9-2.7h2.523A10.062,10.062,0,1,0,30.183,4Zm3.258,11.466a2.575,2.575,0,0,1-3.386,0,2.575,2.575,0,0,1,0-3.386,2.575,2.575,0,0,1,3.386,0A2.575,2.575,0,0,1,33.442,15.466Z" transform="translate(44.5 59.703)"/></g></svg>