<svg xmlns="http://www.w3.org/2000/svg" xmlns:xlink="http://www.w3.org/1999/xlink" viewBox="0 0 84 100"><defs><style>.a{clip-path:url(#b);}.b{fill:#fff;}.b,.d{stroke:#25b135;}.c,.d{fill:none;}.c{stroke:#fff;stroke-width:5px;}</style><clipPath id="b"><rect width="84" height="100"/></clipPath></defs><g id="a" class="a"><path class="b" d="M24.991,58.6l8.174-4.458c-.047-.045-.007-.059.089-.049l4-2.182a5.008,5.008,0,0,0,2.61-4.4V42.491a26.162,26.162,0,0,1-2.876-4.568h0s0,0,0,0c-.186-.368-.368-.757-.548-1.16l-.074-.166c-.183-.417-.362-.847-.531-1.3-.011-.029-.021-.06-.032-.089-.148-.4-.287-.81-.421-1.232-.036-.115,5.385-2.232,5.351-2.347-.139-.465-7.2-10.672-6.366-11.428V12.435A15.129,15.129,0,0,0,24.744,9.5C11.6,9.5,11,20.5,11,20.5v6.866a3.726,3.726,0,0,0-1.375,2.631v4.749a3.563,3.563,0,0,0,1.641,2.988,19.728,19.728,0,0,0,5.169,8.884v4.34a4.325,4.325,0,0,1-2.254,3.8L4.962,60.529A9.523,9.523,0,0,0,0,68.889v3.845H19.245V68.281A11.024,11.024,0,0,1,24.991,58.6Z" transform="translate(2.209 24.726)"/><path class="b" d="M68.389,61.311,55.259,54.746a5.009,5.009,0,0,1-2.769-4.48V45.114a19.632,19.632,0,0,0,1.243-1.6,30.193,30.193,0,0,0,4.081-8.226,4.122,4.122,0,0,0,2.924-3.923v-5.5a4.1,4.1,0,0,0-1.375-3.048v-7.95a10.82,10.82,0,0,0-6.2-10.691A20.3,20.3,0,0,0,44.242,2.5c-16.754,0-15.121,12.372-15.121,12.372v7.95c-.837.756.049,6.718.526,12.006A27.265,27.265,0,0,0,34.62,45.114v5.024a5.006,5.006,0,0,1-2.61,4.4l-12.263,6.69A11.024,11.024,0,0,0,14,70.9v4.452H74.484V71.173A11.027,11.027,0,0,0,68.389,61.311Z" transform="translate(7.454 22.103)"/><path class="c" d="M959.457,1111.876v-15.615c0-10.844,11.984-9.583,11.984-19.826s-6.641-11.984-11.984-11.984-11.286,2.353-11.286,11.286v7.139" transform="translate(-918.011 -1020.363)"/><path class="d" d="M948.172,1075.736c0-8.932,5.942-11.286,11.286-11.286s11.984,1.741,11.984,11.984-11.984,8.983-11.984,19.826" transform="translate(-918.011 -1020.363)"/><line class="d" y2="6" transform="translate(41.5 79.5)"/></g></svg>