<svg xmlns="http://www.w3.org/2000/svg" xmlns:xlink="http://www.w3.org/1999/xlink" viewBox="0 0 100 100">
  <defs>
    <style>
      .cls-1 {
        clip-path: url(#clip-pic-open);
      }

      .cls-2, .cls-3 {
        fill: #fff;
      }

      .cls-2, .cls-4, .cls-6 {
        stroke: #25b135;
        stroke-width: 3px;
      }

      .cls-4, .cls-5, .cls-6, .cls-8 {
        fill: none;
      }

      .cls-5 {
        stroke: #fff;
        stroke-width: 8px;
      }

      .cls-6 {
        stroke-linecap: round;
      }

      .cls-7 {
        stroke: none;
      }
    </style>
    <clipPath id="clip-pic-open">
      <rect width="100" height="100"/>
    </clipPath>
  </defs>
  <g id="pic-open" class="cls-1">
    <g id="Rectangle_146" data-name="Rectangle 146" class="cls-2" transform="translate(2 41)">
      <rect class="cls-7" width="47.633" height="59.25"/>
      <rect class="cls-8" x="1.5" y="1.5" width="44.633" height="56.25"/>
    </g>
    <rect id="Rectangle_147" data-name="Rectangle 147" class="cls-3" width="24" height="8" transform="translate(27 39)"/>
    <path id="Path_167" data-name="Path 167" class="cls-4" d="M11.193,24.707H39.615" transform="translate(-3.193 23.793)"/>
    <path id="Path_168" data-name="Path 168" class="cls-4" d="M11.193,24.707h31" transform="translate(-3.193 30.793)"/>
    <path id="Path_170" data-name="Path 170" class="cls-4" d="M11.193,24.707H31.92" transform="translate(1.807 36.793)"/>
    <path id="Path_171" data-name="Path 171" class="cls-4" d="M11.193,24.707H25.241" transform="translate(1.807 42.793)"/>
    <path id="Path_172" data-name="Path 172" class="cls-4" d="M11.193,24.707H27.034" transform="translate(-2.193 49.793)"/>
    <path id="Path_173" data-name="Path 173" class="cls-4" d="M11.193,24.707H22.034" transform="translate(-2.193 55.793)"/>
    <path id="Path_174" data-name="Path 174" class="cls-4" d="M11.193,24.707H22.034" transform="translate(2.807 61.793)"/>
    <path id="Path_175" data-name="Path 175" class="cls-4" d="M11.193,24.707H22.034" transform="translate(2.807 67.793)"/>
    <path id="Path_163" data-name="Path 163" class="cls-5" d="M-4312.318,730.071s-2.448-1.205-3.265,3.356,1.309,9.1,0,14.889a13.661,13.661,0,0,1-5.233,8.279,13.139,13.139,0,0,1,5.233,7.89c1.309,5.5-.816,9.524,0,14.107s3.265,4.226,3.265,4.226" transform="translate(4345 -706)"/>
    <path id="Path_164" data-name="Path 164" class="cls-5" d="M-4312.318,730.071s-2.448-1.205-3.265,3.356,1.309,9.1,0,14.889a13.661,13.661,0,0,1-5.233,8.279,13.139,13.139,0,0,1,5.233,7.89c1.309,5.5-.816,9.524,0,14.107s3.265,4.226,3.265,4.226" transform="translate(-4269.135 806.75) rotate(180)"/>
    <path id="Path_165" data-name="Path 165" class="cls-6" d="M-4312.318,730.071s-2.448-.239-3.265,4.322,1.309,8.131,0,13.923a13.661,13.661,0,0,1-5.233,8.279,13.139,13.139,0,0,1,5.233,7.89c1.309,5.5-.816,9.524,0,14.107s3.265,4.226,3.265,4.226" transform="translate(4345 -706)"/>
    <path id="Path_166" data-name="Path 166" class="cls-6" d="M-4312.318,730.071s-2.448.01-3.265,4.571,1.309,7.882,0,13.674a13.661,13.661,0,0,1-5.233,8.279,13.139,13.139,0,0,1,5.233,7.89c1.309,5.5-.816,9.524,0,14.107s3.265,4.226,3.265,4.226" transform="translate(-4269.135 806.75) rotate(180)"/>
  </g>
</svg>
