<svg xmlns="http://www.w3.org/2000/svg" xmlns:xlink="http://www.w3.org/1999/xlink" viewBox="0 0 54 100"><defs><style>.a{clip-path:url(#b);}.b,.c{fill:#fff;}.b,.d,.g{stroke:#25b135;stroke-width:3px;}.d,.e,.f,.g,.i{fill:none;}.e,.f{stroke:#fff;stroke-width:8px;}.e,.f,.g{stroke-linecap:round;}.f{stroke-linejoin:bevel;}.h{stroke:none;}</style><clipPath id="b"><rect width="54" height="100"/></clipPath></defs><g id="a" class="a"><g class="b" transform="translate(2 41)"><rect class="h" width="47.633" height="59.25"/><rect class="i" x="1.5" y="1.5" width="44.633" height="56.25"/></g><rect class="c" width="23" height="6" transform="translate(27 41)"/><path class="d" d="M11.193,24.707H39.615" transform="translate(-3.193 23.793)"/><path class="d" d="M11.193,24.707h31" transform="translate(-3.193 30.793)"/><path class="d" d="M11.193,24.707H31.92" transform="translate(1.807 36.793)"/><path class="d" d="M11.193,24.707H25.241" transform="translate(1.807 42.793)"/><path class="d" d="M11.193,24.707H27.034" transform="translate(-2.193 49.793)"/><path class="d" d="M11.193,24.707H22.034" transform="translate(-2.193 55.793)"/><path class="d" d="M11.193,24.707H22.034" transform="translate(2.807 61.793)"/><path class="d" d="M11.193,24.707H22.034" transform="translate(2.807 67.793)"/><path class="e" d="M-4312.318,730.071s-2.448-1.205-3.265,3.356,1.309,9.1,0,14.889a13.661,13.661,0,0,1-5.233,8.279,13.139,13.139,0,0,1,5.233,7.89c1.309,5.5-.816,9.524,0,14.107s3.265,4.226,3.265,4.226" transform="translate(4345 -706)"/><path class="f" d="M-4312.318,730.071s-2.448-1.205-3.265,3.356,1.309,9.1,0,14.889a13.661,13.661,0,0,1-5.233,8.279,13.139,13.139,0,0,1,5.233,7.89c1.309,5.5-.816,9.524,0,14.107s3.265,4.226,3.265,4.226" transform="translate(-4269.135 806.75) rotate(180)"/><path class="g" d="M-4312.318,730.071s-2.448-.239-3.265,4.322,1.309,8.131,0,13.923a13.661,13.661,0,0,1-5.233,8.279,13.139,13.139,0,0,1,5.233,7.89c1.309,5.5-.816,9.524,0,14.107s3.265,4.226,3.265,4.226" transform="translate(4345 -706)"/><path class="g" d="M-4312.318,730.071s-2.448.01-3.265,4.571,1.309,7.882,0,13.674a13.661,13.661,0,0,1-5.233,8.279,13.139,13.139,0,0,1,5.233,7.89c1.309,5.5-.816,9.524,0,14.107s3.265,4.226,3.265,4.226" transform="translate(-4269.135 806.75) rotate(180)"/></g></svg>