<svg xmlns="http://www.w3.org/2000/svg" xmlns:xlink="http://www.w3.org/1999/xlink" viewBox="0 0 54 100"><defs><style>.a{clip-path:url(#b);}.b{fill:#fff;}.b,.c,.f{stroke:#25b135;}.c,.d,.e,.f,.h{fill:none;}.d,.e{stroke:#fff;stroke-width:4px;}.d,.e,.f{stroke-linecap:round;}.e{stroke-linejoin:bevel;}.g{stroke:none;}</style><clipPath id="b"><rect width="54" height="100"/></clipPath></defs><g id="a" class="a"><g class="b" transform="translate(2 41)"><rect class="g" width="47.633" height="59.25"/><rect class="h" x="0.5" y="0.5" width="46.633" height="58.25"/></g><path class="c" d="M11.193,24.707H39.615" transform="translate(-3.193 23.793)"/><path class="c" d="M11.193,24.707h31" transform="translate(-3.193 30.793)"/><path class="c" d="M11.193,24.707H34.722" transform="translate(1.807 36.793)"/><path class="c" d="M11.193,24.707H25.241" transform="translate(1.807 42.793)"/><path class="c" d="M11.193,24.707H27.034" transform="translate(-2.193 49.793)"/><path class="c" d="M11.193,24.707H22.034" transform="translate(-2.193 55.793)"/><path class="c" d="M11.193,24.707H22.034" transform="translate(2.807 61.793)"/><path class="c" d="M11.193,24.707H22.034" transform="translate(2.807 67.793)"/><path class="d" d="M-4314.512,730.029s-1.816-.854-2.421,2.377.97,6.443,0,10.545a9.7,9.7,0,0,1-3.883,5.863,9.353,9.353,0,0,1,3.883,5.588c.97,3.895-.606,6.745,0,9.991s2.421,2.993,2.421,2.993" transform="translate(4345.049 -698.283)"/><path class="e" d="M6.3.1S4.488-.752,3.883,2.479s.971,6.443,0,10.545A9.7,9.7,0,0,1,0,18.887a9.351,9.351,0,0,1,3.883,5.588c.971,3.895-.606,6.745,0,9.991S6.3,37.458,6.3,37.458" transform="translate(44.633 69.106) rotate(180)"/><path class="f" d="M-4314.512,730.07s-1.816-.169-2.421,3.061.97,5.759,0,9.861a9.7,9.7,0,0,1-3.883,5.863,9.353,9.353,0,0,1,3.883,5.588c.97,3.895-.606,6.745,0,9.991s2.421,2.993,2.421,2.993" transform="translate(4345.049 -698.324)"/><path class="f" d="M6.3,0S4.488.007,3.883,3.238s.971,5.582,0,9.684A9.7,9.7,0,0,1,0,18.785a9.351,9.351,0,0,1,3.883,5.588c.971,3.895-.606,6.745,0,9.991S6.3,37.356,6.3,37.356" transform="translate(44.633 69.004) rotate(180)"/></g></svg>