<svg xmlns="http://www.w3.org/2000/svg" xmlns:xlink="http://www.w3.org/1999/xlink" viewBox="0 0 130 100"><defs><style>.a{clip-path:url(#b);}.b{fill:#fff;}.b,.d{stroke:#25b135;}.c,.d,.f{fill:none;}.c{stroke:#fff;stroke-width:4px;}.e{stroke:none;}</style><clipPath id="b"><rect width="130" height="100"/></clipPath></defs><g id="a" class="a"><g class="b" transform="translate(69.668 46.047)"><rect class="e" width="57.633" height="44.25"/><rect class="f" x="0.5" y="0.5" width="56.633" height="43.25"/></g><g class="b" transform="translate(0.941 46.047)"><rect class="e" width="57.633" height="44.25"/><rect class="f" x="0.5" y="0.5" width="56.633" height="43.25"/></g><line class="c" x2="28.235" transform="translate(58.5 60.255)"/><line class="c" x2="27.903" transform="translate(41.597 75.554)"/><path class="d" d="M1430.3,927.989l4.977,5.654L1430.3,939.3" transform="translate(-1329.618 -873.291)"/><path class="d" d="M0,0,5.631,5.654,0,11.309" transform="translate(31.18 81.204) rotate(180)"/><line class="d" x2="80.045" transform="translate(105.657 75.594) rotate(180)"/><line class="d" x2="80.045" transform="translate(25.549 60.307)"/><line class="d" x1="33.179" transform="translate(82.181 97.513)"/><line class="d" x1="33.179" transform="translate(13.453 97.513)"/><line class="d" y2="9.359" transform="translate(98.77 88.154)"/><line class="d" y2="9.359" transform="translate(30.042 88.154)"/></g></svg>