<svg xmlns="http://www.w3.org/2000/svg" xmlns:xlink="http://www.w3.org/1999/xlink" viewBox="0 0 130 100">
  <defs>
    <style>
      .cls-1 {
        clip-path: url(#clip-pic-private);
      }

      .cls-2, .cls-3 {
        fill: #fff;
      }

      .cls-2, .cls-5 {
        stroke: #25b135;
        stroke-width: 3px;
      }

      .cls-3 {
        stroke-linejoin: round;
      }

      .cls-4, .cls-5, .cls-7 {
        fill: none;
      }

      .cls-4 {
        stroke: #fff;
        stroke-width: 8px;
      }

      .cls-6, .cls-8 {
        stroke: none;
      }

      .cls-8 {
        fill: #25b135;
      }
    </style>
    <clipPath id="clip-pic-private">
      <rect width="130" height="100"/>
    </clipPath>
  </defs>
  <g id="pic-private" class="cls-1">
    <g id="Rectangle_145" data-name="Rectangle 145" class="cls-2" transform="translate(24 22)">
      <rect class="cls-6" width="47.633" height="59.25"/>
      <rect class="cls-7" x="1.5" y="1.5" width="44.633" height="56.25"/>
    </g>
    <g id="Rectangle_144" data-name="Rectangle 144" class="cls-2" transform="translate(14 29)">
      <rect class="cls-6" width="47.633" height="59.25"/>
      <rect class="cls-7" x="1.5" y="1.5" width="44.633" height="56.25"/>
    </g>
    <g id="Rectangle_143" data-name="Rectangle 143" class="cls-2" transform="translate(5 36)">
      <rect class="cls-6" width="47.633" height="59.25"/>
      <rect class="cls-7" x="1.5" y="1.5" width="44.633" height="56.25"/>
    </g>
    <g id="Group_245" data-name="Group 245" transform="translate(4279.955 -716.24)">
      <g id="Path_147" data-name="Path 147" class="cls-3" transform="translate(-4258 763.588)">
        <path class="cls-6" d="M 27.044921875 47.43177795410156 C 23.83812141418457 47.43177795410156 20.49138259887695 46.71054077148438 17.09765243530273 45.28808975219727 C 14.3454418182373 44.13451766967773 11.55798149108887 42.52103805541992 8.812711715698242 40.49245834350586 C 5.606049537658691 38.12294387817383 3.21933126449585 35.74657821655273 2.018758773803711 34.46656799316406 C 3.229666709899902 33.17663955688477 5.644570827484131 30.77304840087891 8.870621681213379 28.39659881591797 C 11.60982227325439 26.3787784576416 14.39048194885254 24.77435874938965 17.13534164428711 23.6279182434082 C 20.5159912109375 22.21593856811523 23.85005187988281 21.49999809265137 27.044921875 21.49999809265137 C 30.25172233581543 21.49999809265137 33.59846115112305 22.22123908996582 36.99219131469727 23.6436882019043 C 39.74440002441406 24.7972583770752 42.5318603515625 26.41073989868164 45.27713012695312 28.4393196105957 C 48.48379516601562 30.80883407592773 50.87051391601562 33.18519973754883 52.07108306884766 34.4652099609375 C 50.86017608642578 35.7551383972168 48.44527435302734 38.15872955322266 45.21922302246094 40.53517913818359 C 42.48002243041992 42.55299758911133 39.69936370849609 44.15741729736328 36.95450210571289 45.30385971069336 C 33.5738525390625 46.71583938598633 30.23979187011719 47.43177795410156 27.044921875 47.43177795410156 Z"/>
        <path class="cls-8" d="M 27.044921875 23 C 24.06106185913086 23 20.93383026123047 23.67181015014648 17.75009155273438 24.99676895141602 C 15.12309265136719 26.09003067016602 12.4542236328125 27.62603759765625 9.817600250244141 29.56211853027344 C 7.380100250244141 31.35199356079102 5.416023254394531 33.16144180297852 4.107593536376953 34.46773910522461 C 5.3900146484375 35.74848937988281 7.307258605957031 37.51494216918945 9.704143524169922 39.28607940673828 C 12.35310363769531 41.24348831176758 15.03573226928711 42.79741668701172 17.677490234375 43.90468978881836 C 20.88662338256836 45.24977111816406 24.03828239440918 45.93177795410156 27.044921875 45.93177795410156 C 30.02878189086914 45.93177795410156 33.15601348876953 45.25997161865234 36.33975219726562 43.93500900268555 C 38.96675109863281 42.84175109863281 41.6356201171875 41.30574035644531 44.27223968505859 39.36965942382812 C 46.70974349975586 37.57978057861328 48.67382049560547 35.77033615112305 49.98225021362305 34.46403884887695 C 48.6998291015625 33.18328857421875 46.78258514404297 31.41683578491211 44.38570404052734 29.64569854736328 C 41.73674011230469 27.68828964233398 39.05411148071289 26.13435745239258 36.412353515625 25.0270881652832 C 33.20322418212891 23.68201065063477 30.05156135559082 23 27.044921875 23 M 27.044921875 20 C 41.98142242431641 20 54.08984375 34.46588897705078 54.08984375 34.46588897705078 C 54.08984375 34.46588897705078 41.98142242431641 48.93177795410156 27.044921875 48.93177795410156 C 12.10842132568359 48.93177795410156 0 34.46588897705078 0 34.46588897705078 C 0 34.46588897705078 12.10842132568359 20 27.044921875 20 Z"/>
      </g>
      <g id="Ellipse_12" data-name="Ellipse 12" class="cls-2" transform="translate(-4241.647 787.362)">
        <circle class="cls-6" cx="10.692" cy="10.692" r="10.692"/>
        <circle class="cls-7" cx="10.692" cy="10.692" r="9.192"/>
      </g>
      <path id="Path_148" data-name="Path 148" class="cls-4" d="M0,36.479,34.769,1.71" transform="translate(-4248.88 779.5)"/>
      <path id="Path_149" data-name="Path 149" class="cls-5" d="M1.63,34.849,34.769,1.71" transform="translate(-4248.88 779.5)"/>
    </g>
  </g>
</svg>
