<svg xmlns="http://www.w3.org/2000/svg" xmlns:xlink="http://www.w3.org/1999/xlink" viewBox="0 0 130 100">
  <defs>
    <style>
      .cls-1 {
        clip-path: url(#clip-pic-p2p);
      }

      .cls-2 {
        fill: #fff;
      }

      .cls-2, .cls-4 {
        stroke: #25b135;
        stroke-width: 3px;
      }

      .cls-3, .cls-4, .cls-6 {
        fill: none;
      }

      .cls-3 {
        stroke: #fff;
        stroke-width: 8px;
      }

      .cls-5 {
        stroke: none;
      }
    </style>
    <clipPath id="clip-pic-p2p">
      <rect width="130" height="100"/>
    </clipPath>
  </defs>
  <g id="pic-p2p" class="cls-1">
    <g id="Group_244" data-name="Group 244" transform="translate(-744 -1415.017)">
      <g id="Rectangle_142" data-name="Rectangle 142" class="cls-2" transform="translate(813.668 1461.063)">
        <rect class="cls-5" width="57.633" height="44.25"/>
        <rect class="cls-6" x="1.5" y="1.5" width="54.633" height="41.25"/>
      </g>
      <g id="Rectangle_143" data-name="Rectangle 143" class="cls-2" transform="translate(744.941 1461.063)">
        <rect class="cls-5" width="57.633" height="44.25"/>
        <rect class="cls-6" x="1.5" y="1.5" width="54.633" height="41.25"/>
      </g>
      <line id="Line_76" data-name="Line 76" class="cls-3" x2="26.069" transform="translate(804.666 1475.272)"/>
      <line id="Line_77" data-name="Line 77" class="cls-3" x2="26.069" transform="translate(785.597 1490.57)"/>
      <g id="Group_243" data-name="Group 243" transform="translate(769.549 1469.714)">
        <path id="Path_145" data-name="Path 145" class="cls-4" d="M1430.3,927.989l4.977,5.654L1430.3,939.3" transform="translate(-1355.167 -927.989)"/>
        <path id="Path_146" data-name="Path 146" class="cls-4" d="M0,0,5.631,5.654,0,11.309" transform="translate(5.631 26.506) rotate(180)"/>
        <line id="Line_75" data-name="Line 75" class="cls-4" x2="80.045" transform="translate(80.108 20.896) rotate(180)"/>
        <line id="Line_78" data-name="Line 78" class="cls-4" x2="80.045" transform="translate(0 5.61)"/>
      </g>
      <line id="Line_75-2" data-name="Line 75" class="cls-4" x1="33.179" transform="translate(826.181 1512.53)"/>
      <line id="Line_80" data-name="Line 80" class="cls-4" x1="33.179" transform="translate(757.453 1512.53)"/>
      <line id="Line_79" data-name="Line 79" class="cls-4" y2="9.359" transform="translate(842.77 1503.17)"/>
      <line id="Line_81" data-name="Line 81" class="cls-4" y2="9.359" transform="translate(774.042 1503.17)"/>
    </g>
  </g>
</svg>
