<svg xmlns="http://www.w3.org/2000/svg" xmlns:xlink="http://www.w3.org/1999/xlink" viewBox="0 0 84 100"><defs><style>.a{clip-path:url(#b);}.b{fill:#fff;}.b,.d{stroke:#25b135;}.c,.d,.f{fill:none;}.c{stroke:#fff;stroke-width:3px;}.e{stroke:none;}</style><clipPath id="b"><rect width="84" height="100"/></clipPath></defs><g id="a" class="a"><g transform="translate(-3109.035 -64.06)"><ellipse class="b" cx="24.599" cy="24.599" rx="24.599" ry="24.599" transform="translate(3126.814 99.439)"/></g><g class="b" transform="translate(70.734 24.018)"><ellipse class="e" cx="3.733" cy="3.733" rx="3.733" ry="3.733"/><ellipse class="f" cx="3.733" cy="3.733" rx="3.233" ry="3.233"/></g><g class="b" transform="translate(42.987 18.468)"><ellipse class="e" cx="3.733" cy="3.733" rx="3.733" ry="3.733"/><ellipse class="f" cx="3.733" cy="3.733" rx="3.233" ry="3.233"/></g><g class="b" transform="translate(10.313 34.512)"><ellipse class="e" cx="3.733" cy="3.733" rx="3.733" ry="3.733"/><ellipse class="f" cx="3.733" cy="3.733" rx="3.233" ry="3.233"/></g><g class="b" transform="translate(19.865 91.535)"><ellipse class="e" cx="3.733" cy="3.733" rx="3.733" ry="3.733"/><ellipse class="f" cx="3.733" cy="3.733" rx="3.233" ry="3.233"/></g><g class="b" transform="translate(73.509 66.563)"><ellipse class="e" cx="3.733" cy="3.733" rx="3.733" ry="3.733"/><ellipse class="f" cx="3.733" cy="3.733" rx="3.233" ry="3.233"/></g><g class="b" transform="translate(26.339 59.163)"><ellipse class="e" cx="3.733" cy="3.733" rx="3.733" ry="3.733"/><ellipse class="f" cx="3.733" cy="3.733" rx="3.233" ry="3.233"/></g><g class="b" transform="translate(0.568 68.981)"><ellipse class="e" cx="3.733" cy="3.733" rx="3.733" ry="3.733"/><ellipse class="f" cx="3.733" cy="3.733" rx="3.233" ry="3.233"/></g><g class="b" transform="translate(57.785 83.211)"><ellipse class="e" cx="3.733" cy="3.733" rx="3.733" ry="3.733"/><ellipse class="f" cx="3.733" cy="3.733" rx="3.233" ry="3.233"/></g><g class="b" transform="translate(53.161 45.29)"><ellipse class="e" cx="3.733" cy="3.733" rx="3.733" ry="3.733"/><ellipse class="f" cx="3.733" cy="3.733" rx="3.233" ry="3.233"/></g><path class="c" d="M17.433,2.188l32.9,6.486" transform="translate(1.53 38.013)"/><path class="c" d="M17.433,22.3l2.921-20.11" transform="translate(8.119 66.85)"/><path class="c" d="M11.193,21.748l25.856-5.331" transform="translate(18.879 72.149)"/><path class="c" d="M11.193,24.266l14.772-7.849" transform="translate(24.091 35.904)"/><path class="c" d="M11.193,21.391l14.742-4.974" transform="translate(-0.879 48.904)"/><path class="c" d="M11.193,28.236l9.651-11.819" transform="translate(50.151 15.742)"/><path class="c" d="M33.873,24.073,31.032-2.457" transform="translate(26.753 57.149)"/><path class="c" d="M41.87,8.9,31.032-2.457" transform="translate(31.638 56.279)"/><path class="c" d="M36.086,14.852,31.032-2.457" transform="translate(19.023 30.063)"/><path class="c" d="M17.433,12.353,38.992,2.188" transform="translate(2.159 23.702)"/><path class="c" d="M32.113,26.175,31.032-2.457" transform="translate(44.641 36.721)"/><path class="c" d="M51.37,13.4,30.012-2.5" transform="translate(5.595 68.683)"/><path class="d" d="M17.433,2.188,48.367,8.036" transform="translate(1.53 38.013)"/><path class="d" d="M17.433,22.3l2.921-20.11" transform="translate(8.12 66.85)"/><path class="d" d="M11.193,21.748l25.856-5.331" transform="translate(18.879 72.149)"/><path class="d" d="M11.193,24.266l14.772-7.849" transform="translate(24.091 35.904)"/><path class="d" d="M11.193,21.391l14.742-4.974" transform="translate(-0.879 48.904)"/><path class="d" d="M11.193,28.236l9.651-11.819" transform="translate(50.151 15.742)"/><path class="d" d="M33.873,24.073,31.032-2.457" transform="translate(26.753 57.149)"/><path class="d" d="M41.87,8.9,31.032-2.457" transform="translate(31.638 56.279)"/><path class="d" d="M35.813,13.916,31.032-2.457" transform="translate(19.024 30.063)"/><path class="d" d="M17.433,12.353,38.992,2.188" transform="translate(2.159 23.702)"/><path class="d" d="M32.113,26.175,31.032-2.457" transform="translate(44.641 36.721)"/><path class="d" d="M51.37,13.4,30.012-2.5" transform="translate(5.595 68.683)"/><path class="c" d="M19.822-8.658,7.991-21.952" transform="translate(0.042 99.178)"/><path class="c" d="M19.822-8.658,7.991-21.952" transform="translate(0.042 99.178)"/><path class="d" d="M19.822-8.658,7.991-21.952" transform="translate(0.042 99.178)"/><path class="c" d="M7.991,2.051l5.722-24" transform="translate(-1.84 65.397)"/><path class="c" d="M7.991,2.051l5.722-24" transform="translate(-1.84 65.397)"/><path class="d" d="M7.991,2.051l5.722-24" transform="translate(-1.84 65.397)"/><path class="c" d="M48.566.371,31.032-2.457" transform="translate(20.827 26.475)"/><path class="d" d="M47.618.218,31.032-2.457" transform="translate(20.827 26.475)"/><path class="c" d="M10.306,7.388,0,0" transform="matrix(0.087, -0.996, 0.996, 0.087, 65.251, 83.716)"/><path class="d" d="M10.306,7.388,0,0" transform="matrix(0.087, -0.996, 0.996, 0.087, 65.251, 83.716)"/><path class="c" d="M17.433,2.188l9.551,17.186" transform="translate(0.346 39.789)"/><path class="d" d="M17.433,2.188l8.982,15.494" transform="translate(0.346 39.789)"/></g></svg>