<svg xmlns="http://www.w3.org/2000/svg" xmlns:xlink="http://www.w3.org/1999/xlink" viewBox="0 0 130 100"><defs><style>.a{clip-path:url(#b);}.b{fill:#fff;}.b,.d{stroke:#25b135;stroke-width:3px;}.c,.d,.f{fill:none;}.c{stroke:#fff;stroke-width:8px;}.e{stroke:none;}</style><clipPath id="b"><rect width="130" height="100"/></clipPath></defs><g id="a" class="a"><g transform="translate(-744 -1415.017)"><g class="b" transform="translate(813.668 1461.063)"><rect class="e" width="57.633" height="44.25"/><rect class="f" x="1.5" y="1.5" width="54.633" height="41.25"/></g><g class="b" transform="translate(744.941 1461.063)"><rect class="e" width="57.633" height="44.25"/><rect class="f" x="1.5" y="1.5" width="54.633" height="41.25"/></g><line class="c" x2="28.235" transform="translate(802.5 1475.272)"/><line class="c" x2="27.903" transform="translate(785.597 1490.57)"/><g transform="translate(769.549 1469.714)"><path class="d" d="M1430.3,927.989l4.977,5.654L1430.3,939.3" transform="translate(-1355.167 -927.989)"/><path class="d" d="M0,0,5.631,5.654,0,11.309" transform="translate(5.631 26.506) rotate(180)"/><line class="d" x2="80.045" transform="translate(80.108 20.896) rotate(180)"/><line class="d" x2="80.045" transform="translate(0 5.61)"/></g><line class="d" x1="33.179" transform="translate(826.181 1512.53)"/><line class="d" x1="33.179" transform="translate(757.453 1512.53)"/><line class="d" y2="9.359" transform="translate(842.77 1503.17)"/><line class="d" y2="9.359" transform="translate(774.042 1503.17)"/></g></g></svg>