<?xml version="1.0" encoding="UTF-8" standalone="no"?>
<svg
   xmlns:dc="http://purl.org/dc/elements/1.1/"
   xmlns:cc="http://creativecommons.org/ns#"
   xmlns:rdf="http://www.w3.org/1999/02/22-rdf-syntax-ns#"
   xmlns:svg="http://www.w3.org/2000/svg"
   xmlns="http://www.w3.org/2000/svg"
   xmlns:sodipodi="http://sodipodi.sourceforge.net/DTD/sodipodi-0.dtd"
   xmlns:inkscape="http://www.inkscape.org/namespaces/inkscape"
   width="72.988"
   height="72.9"
   version="1.1"
   id="svg865"
   sodipodi:docname="search-dark.svg"
   inkscape:version="0.92.5 (0.92.5+69)">
  <metadata
     id="metadata871">
    <rdf:RDF>
      <cc:Work
         rdf:about="">
        <dc:format>image/svg+xml</dc:format>
        <dc:type
           rdf:resource="http://purl.org/dc/dcmitype/StillImage" />
        <dc:title></dc:title>
      </cc:Work>
    </rdf:RDF>
  </metadata>
  <defs
     id="defs869" />
  <sodipodi:namedview
     pagecolor="#ffffff"
     bordercolor="#666666"
     borderopacity="1"
     objecttolerance="10"
     gridtolerance="10"
     guidetolerance="10"
     inkscape:pageopacity="0"
     inkscape:pageshadow="2"
     inkscape:window-width="3840"
     inkscape:window-height="1538"
     id="namedview867"
     showgrid="false"
     inkscape:zoom="18.422496"
     inkscape:cx="36.493999"
     inkscape:cy="36.450001"
     inkscape:window-x="0"
     inkscape:window-y="32"
     inkscape:window-maximized="1"
     inkscape:current-layer="svg865" />
  <path
     d="M71.775 66l-17.9-17.9c9-11.7 8.1-28.6-2.7-39.3-5.9-5.9-13.5-8.8-21.2-8.8s-15.3 2.9-21.2 8.8c-11.7 11.7-11.7 30.7 0 42.4 5.9 5.9 13.5 8.8 21.2 8.8 6.4 0 12.8-2 18.1-6.1l18 17.8c.8.8 1.8 1.2 2.9 1.2 1 0 2.1-.4 2.9-1.2 1.5-1.5 1.5-4.1-.1-5.7zm-41.7-14.1c-5.9 0-11.3-2.3-15.5-6.4-8.5-8.5-8.5-22.4 0-31 4.1-4.1 9.6-6.4 15.5-6.4s11.3 2.3 15.5 6.4 6.4 9.6 6.4 15.5-2.3 11.3-6.4 15.5-9.7 6.4-15.5 6.4z"
     id="path863"
     style="fill:#7f7f7f;fill-opacity:0.50196081" />
</svg>
