<?xml version="1.0" encoding="utf-8"?>
<!-- Generator: Adobe Illustrator 24.2.3, SVG Export Plug-In . SVG Version: 6.00 Build 0)  -->
<svg version="1.1" id="Layer_1" xmlns="http://www.w3.org/2000/svg" xmlns:xlink="http://www.w3.org/1999/xlink" x="0px" y="0px" viewBox="0 0 681 681" style="enable-background:new 0 0 681 681;" xml:space="preserve">
  <style type="text/css">
	.st0{fill:none;stroke:#FFFFFF;}
	.st1{fill:none;stroke:#FFFFFF;stroke-dasharray:5;}
	.st2{fill:#FFFFFF;stroke:#26B036;stroke-width:3;}
	.st3{enable-background:new    ;}
	.st4{fill:#FFFFFF;}
</style>
  <g>
    <g>
      <path id="Path_43" class="st0" d="M308.1,106.9l117.2,7.7l101.6,71.9c0-0.8,50.4,97.7,50.4,97.7c0-0.4,7.8,131.4,7.8,131.4
			l-84.2,107.3l-109.1,42.9l-127.2,3.4l-110.9-78l-51.7-108l22.3-135.1l63.1-92.1L308.1,106.9z"/>
      <path id="Path_44" class="st0" d="M326.9,139.2l-141.1,15.5l50.8,125.5l88-144l157.9,110l-165.9-35.1l109.3-99.7l56.6,130.9
			l59.9,181.5l37.1-140.6c0,0-207.7,42.8-208.9,41.4s-48.8-115.8-48.8-115.8l-178.6,74.5L98.4,385.1c0,0,113.5,68.2,112.1,66.2
			s-70.6-168.1-70.6-168.1l101.2-3L486.9,240l-116.4,88.1l-62.9,34.5l-71.1-79.4l-26,170.9L264.9,572l88.1-33.9l-140.5-86.8
			l182.1,18.1L499.3,521l44.9-95l-151.6,42l50.6-72.7l-69.3-67.2L239,283.2"/>
      <path id="Path_45" class="st1" d="M445.9,394.9c-1.1,0.9-138.5-30.4-138.5-30.4l-101,90.7L153.2,493"/>
      <path id="Path_46" class="st1" d="M304.3,361.9l90.5,109.2l-22-146.3"/>
      <path id="Path_47" class="st1" d="M184.9,152.8l-41.3,135.5"/>
      <path id="Path_48" class="st1" d="M352.1,538.9l40.4-70.3l-125.2,98.7"/>
      <path id="Path_49" class="st1" d="M546.3,423.9c-3.8-1.5-103.7-26.7-103.7-26.7l37.5-156.6l93.5,46.5"/>
      <path id="Path_50" class="st1" d="M523.8,182.5l-40.4,62.4"/>
      <path id="Path_57" class="st1" d="M422.7,115.9l-97.6,25"/>
      <path id="Path_51" class="st1" d="M308.1,106.9l17,37.1"/>
      <path id="Path_54" class="st1" d="M544.1,423.9l41-8"/>
      <path id="Path_55" class="st1" d="M364.1,534.9l136-13"/>
      <path id="Path_56" class="st1" d="M124.1,248.9l201-108"/>
      <path id="Path_53" class="st1" d="M394.8,471.1l-2.7,95.9"/>
      <path id="Path_52" class="st1" d="M323.1,207.9l221,216"/>
      <circle id="Ellipse_1" class="st2" cx="308.1" cy="106.9" r="11.9"/>
      <circle id="Ellipse_60" class="st2" cx="425.1" cy="114.9" r="11.9"/>
      <circle id="Ellipse_61" class="st2" cx="325.1" cy="140.9" r="11.9"/>
      <circle id="Ellipse_82" class="st2" cx="318.1" cy="212.9" r="11.9"/>
      <circle id="Ellipse_62" class="st2" cx="187.1" cy="155.9" r="11.9"/>
      <circle id="Ellipse_63" class="st2" cx="124.1" cy="248.9" r="11.9"/>
      <circle id="Ellipse_64" class="st2" cx="144.1" cy="287.9" r="11.9"/>
      <circle id="Ellipse_65" class="st2" cx="238.1" cy="280.9" r="11.9"/>
      <circle id="Ellipse_66" class="st2" cx="103.1" cy="382.9" r="11.9"/>
      <circle id="Ellipse_67" class="st2" cx="156.1" cy="492.9" r="11.9"/>
      <circle id="Ellipse_68" class="st2" cx="211.1" cy="451.9" r="11.9"/>
      <circle id="Ellipse_69" class="st2" cx="266.1" cy="568.9" r="11.9"/>
      <circle id="Ellipse_70" class="st2" cx="352.1" cy="538.9" r="11.9"/>
      <circle id="Ellipse_71" class="st2" cx="392.1" cy="564.9" r="11.9"/>
      <circle id="Ellipse_72" class="st2" cx="394.1" cy="468.9" r="11.9"/>
      <circle id="Ellipse_73" class="st2" cx="308.1" cy="361.9" r="11.9"/>
      <circle id="Ellipse_74" class="st2" cx="373.1" cy="325.9" r="11.9"/>
      <circle id="Ellipse_75" class="st2" cx="443.1" cy="394.9" r="11.9"/>
      <circle id="Ellipse_76" class="st2" cx="500.1" cy="521.9" r="11.9"/>
      <circle id="Ellipse_77" class="st2" cx="544.1" cy="423.9" r="11.9"/>
      <circle id="Ellipse_78" class="st2" cx="585.1" cy="415.9" r="11.9"/>
      <circle id="Ellipse_79" class="st2" cx="577.1" cy="284.9" r="11.9"/>
      <circle id="Ellipse_80" class="st2" cx="481.1" cy="243.9" r="11.9"/>
      <circle id="Ellipse_81" class="st2" cx="524.1" cy="182.9" r="11.9"/>
      <g class="st3">
        <path class="st4" d="M267.7,70.6h-1.3V59.4h4.4c2,0,3.1,1.1,3.1,3.2c0,1.6-0.8,2.7-2.2,3.1l2.6,4.9h-1.5l-2.4-4.8h-2.6V70.6z
				 M270.8,64.6c1.1,0,1.7-0.6,1.7-1.6v-0.8c0-1-0.6-1.6-1.7-1.6h-3.1v4H270.8z"/>
        <path class="st4" d="M275.6,66.5c0-2.6,1.5-4.3,3.7-4.3c2.2,0,3.6,1.7,3.6,4v0.6h-5.9v0.4c0,1.4,0.9,2.5,2.4,2.5
				c1,0,1.8-0.5,2.3-1.4l0.9,0.7c-0.5,1.1-1.7,1.9-3.3,1.9C277.1,70.8,275.6,69.1,275.6,66.5z M276.9,65.7v0.1h4.6v-0.2
				c0-1.5-0.9-2.4-2.2-2.4C277.9,63.2,276.9,64.3,276.9,65.7z"/>
        <path class="st4" d="M286.7,70.6l-2.9-8.3h1.3l1.4,4.1l0.9,2.8h0.1l0.9-2.8l1.5-4.1h1.2l-2.9,8.3H286.7z"/>
        <path class="st4" d="M292,66.5c0-2.6,1.5-4.3,3.7-4.3c2.2,0,3.6,1.7,3.6,4v0.6h-5.9v0.4c0,1.4,0.9,2.5,2.4,2.5
				c1,0,1.8-0.5,2.3-1.4l0.9,0.7c-0.5,1.1-1.7,1.9-3.3,1.9C293.5,70.8,292,69.1,292,66.5z M293.3,65.7v0.1h4.6v-0.2
				c0-1.5-0.9-2.4-2.2-2.4C294.3,63.2,293.3,64.3,293.3,65.7z"/>
        <path class="st4" d="M301.4,70.6v-8.3h1.3v1.3h0.1c0.4-0.9,1.1-1.5,2.3-1.5c1.7,0,2.8,1.2,2.8,3.2v5.3h-1.3v-5.1
				c0-1.5-0.6-2.2-1.9-2.2c-1,0-2,0.5-2,1.6v5.7H301.4z"/>
        <path class="st4" d="M315.6,69.3L315.6,69.3c-0.4,0.8-1,1.5-2.4,1.5c-1.7,0-2.8-1.2-2.8-3.2v-5.3h1.3v5.1c0,1.5,0.7,2.2,1.9,2.2
				c1,0,2-0.5,2-1.6v-5.7h1.3v8.3h-1.3V69.3z"/>
        <path class="st4" d="M318.9,66.5c0-2.6,1.5-4.3,3.7-4.3c2.2,0,3.6,1.7,3.6,4v0.6h-5.9v0.4c0,1.4,0.9,2.5,2.4,2.5
				c1,0,1.8-0.5,2.3-1.4l0.9,0.7c-0.5,1.1-1.7,1.9-3.3,1.9C320.4,70.8,318.9,69.1,318.9,66.5z M320.3,65.7v0.1h4.6v-0.2
				c0-1.5-0.9-2.4-2.2-2.4C321.3,63.2,320.3,64.3,320.3,65.7z"/>
        <path class="st4" d="M328.2,66.4V65h4.2v1.4H328.2z"/>
        <path class="st4" d="M340.3,69.3L340.3,69.3c-0.6,1-1.3,1.5-2.5,1.5c-2.1,0-3.4-1.7-3.4-4.3c0-2.6,1.3-4.3,3.4-4.3
				c1.1,0,2,0.5,2.4,1.5h0.1v-4.9h1.3v11.8h-1.3V69.3z M340.3,68v-3.1c0-0.9-1-1.6-2.1-1.6c-1.4,0-2.3,1-2.3,2.5v1.4
				c0,1.5,0.9,2.5,2.3,2.5C339.4,69.6,340.3,69,340.3,68z"/>
        <path class="st4" d="M344.2,59.7v-0.2c0-0.4,0.2-0.7,0.8-0.7s0.8,0.3,0.8,0.7v0.2c0,0.4-0.2,0.7-0.8,0.7S344.2,60.1,344.2,59.7z
				 M344.3,62.3h1.3v8.3h-1.3V62.3z"/>
        <path class="st4" d="M347.5,69.2l0.9-0.7c0.6,0.8,1.4,1.3,2.4,1.3c1.1,0,1.7-0.5,1.7-1.3c0-0.6-0.4-1.1-1.4-1.3l-0.7-0.1
				c-1.5-0.2-2.7-0.8-2.7-2.4c0-1.6,1.3-2.4,2.9-2.4c1.3,0,2.2,0.5,2.9,1.3l-0.8,0.8c-0.4-0.5-1.1-1-2.1-1s-1.6,0.5-1.6,1.3
				c0,0.8,0.6,1.1,1.6,1.3l0.6,0.1c1.8,0.3,2.5,1.1,2.5,2.3c0,1.6-1.2,2.6-3.1,2.6C349.3,70.8,348.3,70.2,347.5,69.2z"/>
        <path class="st4" d="M357.8,70.6c-0.9,0-1.4-0.6-1.4-1.4v-5.8h-1.4v-1.1h0.8c0.5,0,0.7-0.2,0.7-0.8v-1.5h1.2v2.3h1.8v1.1h-1.8v6
				h1.7v1.1H357.8z"/>
        <path class="st4" d="M361.6,70.6v-8.3h1.3v1.5h0.1c0.3-0.8,1-1.5,2.4-1.5h0.5v1.3h-0.8c-1.4,0-2.2,0.6-2.2,1.4v5.6H361.6z"/>
        <path class="st4" d="M367.3,59.7v-0.2c0-0.4,0.2-0.7,0.8-0.7s0.8,0.3,0.8,0.7v0.2c0,0.4-0.2,0.7-0.8,0.7S367.3,60.1,367.3,59.7z
				 M367.5,62.3h1.3v8.3h-1.3V62.3z"/>
        <path class="st4" d="M371.5,58.8h1.3v4.9h0.1c0.4-1,1.3-1.5,2.4-1.5c2.1,0,3.4,1.7,3.4,4.3c0,2.6-1.3,4.3-3.4,4.3
				c-1.1,0-1.9-0.5-2.4-1.5h-0.1v1.3h-1.3V58.8z M377.2,67.2v-1.4c0-1.5-0.9-2.5-2.3-2.5c-1.2,0-2.1,0.7-2.1,1.6V68
				c0,1.1,1,1.7,2.1,1.7C376.3,69.6,377.2,68.6,377.2,67.2z"/>
        <path class="st4" d="M385.9,69.3L385.9,69.3c-0.4,0.8-1,1.5-2.4,1.5c-1.7,0-2.8-1.2-2.8-3.2v-5.3h1.3v5.1c0,1.5,0.7,2.2,1.9,2.2
				c1,0,2-0.5,2-1.6v-5.7h1.3v8.3h-1.3V69.3z"/>
        <path class="st4" d="M391.7,70.6c-0.9,0-1.4-0.6-1.4-1.4v-5.8H389v-1.1h0.8c0.5,0,0.7-0.2,0.7-0.8v-1.5h1.2v2.3h1.8v1.1h-1.8v6
				h1.7v1.1H391.7z"/>
        <path class="st4" d="M395.3,59.7v-0.2c0-0.4,0.2-0.7,0.8-0.7s0.8,0.3,0.8,0.7v0.2c0,0.4-0.2,0.7-0.8,0.7S395.3,60.1,395.3,59.7z
				 M395.5,62.3h1.3v8.3h-1.3V62.3z"/>
        <path class="st4" d="M398.9,66.5c0-2.6,1.5-4.3,3.7-4.3s3.7,1.7,3.7,4.3s-1.5,4.3-3.7,4.3S398.9,69.1,398.9,66.5z M405,67.1v-1.2
				c0-1.7-1-2.6-2.4-2.6c-1.4,0-2.4,0.8-2.4,2.6v1.2c0,1.7,1,2.6,2.4,2.6C404,69.7,405,68.8,405,67.1z"/>
        <path class="st4" d="M408.4,70.6v-8.3h1.3v1.3h0.1c0.4-0.9,1.1-1.5,2.3-1.5c1.7,0,2.8,1.2,2.8,3.2v5.3h-1.3v-5.1
				c0-1.5-0.6-2.2-1.9-2.2c-1,0-2,0.5-2,1.6v5.7H408.4z"/>
      </g>
      <g class="st3">
        <path class="st4" d="M281.9,606.4h3.7c2.8,0,4.6,1.9,4.6,5.6s-1.8,5.6-4.6,5.6h-3.7V606.4z M285.6,616.4c1.8,0,3.1-1.3,3.1-3.5
				v-1.8c0-2.2-1.3-3.5-3.1-3.5h-2.4v8.8H285.6z"/>
        <path class="st4" d="M291.9,613.5c0-2.6,1.5-4.3,3.7-4.3c2.2,0,3.6,1.7,3.6,4v0.6h-5.9v0.4c0,1.4,0.9,2.5,2.4,2.5
				c1,0,1.8-0.5,2.3-1.4l0.9,0.7c-0.5,1.1-1.7,1.9-3.3,1.9C293.3,617.8,291.9,616.1,291.9,613.5z M293.2,612.7v0.1h4.6v-0.2
				c0-1.5-0.9-2.4-2.2-2.4C294.2,610.2,293.2,611.3,293.2,612.7z"/>
        <path class="st4" d="M300.6,613.5c0-2.6,1.4-4.3,3.7-4.3c1.6,0,2.6,0.8,3.1,1.9l-1.1,0.5c-0.3-0.8-1-1.3-2-1.3
				c-1.5,0-2.3,1-2.3,2.5v1.4c0,1.4,0.8,2.5,2.3,2.5c1,0,1.8-0.5,2.2-1.4l0.9,0.6c-0.5,1.2-1.6,2-3.2,2
				C302,617.8,300.6,616.1,300.6,613.5z"/>
        <path class="st4" d="M309.1,606.7v-0.2c0-0.4,0.2-0.7,0.8-0.7c0.5,0,0.8,0.3,0.8,0.7v0.2c0,0.4-0.2,0.7-0.8,0.7
				C309.4,607.4,309.1,607.1,309.1,606.7z M309.3,609.3h1.3v8.3h-1.3V609.3z"/>
        <path class="st4" d="M312.5,616.2l0.9-0.7c0.6,0.8,1.4,1.3,2.4,1.3c1.1,0,1.7-0.5,1.7-1.3c0-0.6-0.4-1.1-1.4-1.3l-0.7-0.1
				c-1.5-0.2-2.7-0.8-2.7-2.4c0-1.6,1.3-2.4,2.9-2.4c1.3,0,2.2,0.5,2.9,1.3l-0.8,0.8c-0.4-0.5-1.1-1-2.1-1c-1.1,0-1.6,0.5-1.6,1.3
				c0,0.8,0.6,1.1,1.6,1.3l0.6,0.1c1.8,0.3,2.5,1.1,2.5,2.3c0,1.6-1.2,2.6-3.1,2.6C314.3,617.8,313.2,617.2,312.5,616.2z"/>
        <path class="st4" d="M320.9,606.7v-0.2c0-0.4,0.2-0.7,0.8-0.7c0.5,0,0.8,0.3,0.8,0.7v0.2c0,0.4-0.2,0.7-0.8,0.7
				C321.2,607.4,320.9,607.1,320.9,606.7z M321.1,609.3h1.3v8.3h-1.3V609.3z"/>
        <path class="st4" d="M324.5,613.5c0-2.6,1.5-4.3,3.7-4.3s3.7,1.7,3.7,4.3s-1.5,4.3-3.7,4.3S324.5,616.1,324.5,613.5z
				 M330.6,614.1v-1.2c0-1.7-1-2.6-2.4-2.6s-2.4,0.8-2.4,2.6v1.2c0,1.7,1,2.6,2.4,2.6S330.6,615.8,330.6,614.1z"/>
        <path class="st4" d="M334,617.6v-8.3h1.3v1.3h0.1c0.4-0.9,1.1-1.5,2.3-1.5c1.7,0,2.8,1.2,2.8,3.2v5.3h-1.3v-5.1
				c0-1.5-0.6-2.2-1.9-2.2c-1,0-2,0.5-2,1.6v5.7H334z"/>
        <path class="st4" d="M342.9,613.4V612h4.2v1.4H342.9z"/>
        <path class="st4" d="M349.5,617.6v-8.3h1.3v1.3h0.1c0.4-0.8,0.9-1.5,2.2-1.5c1.1,0,2.1,0.5,2.5,1.7h0c0.3-0.9,1.1-1.7,2.5-1.7
				c1.7,0,2.7,1.2,2.7,3.2v5.3h-1.3v-5.1c0-1.5-0.6-2.2-1.8-2.2c-1,0-1.9,0.5-1.9,1.6v5.7h-1.3v-5.1c0-1.5-0.6-2.2-1.8-2.2
				c-1,0-2,0.5-2,1.6v5.7H349.5z"/>
        <path class="st4" d="M369.5,617.6c-0.9,0-1.3-0.6-1.4-1.3H368c-0.4,1-1.2,1.5-2.4,1.5c-1.7,0-2.8-1-2.8-2.5
				c0-1.6,1.1-2.4,3.5-2.4h1.6v-0.8c0-1.2-0.6-1.8-2-1.8c-1,0-1.6,0.5-2.1,1.2l-0.8-0.7c0.4-0.9,1.4-1.6,2.9-1.6c2,0,3.2,1,3.2,2.8
				v4.5h0.9v1.1H369.5z M368,615.2v-1.4h-1.7c-1.5,0-2.1,0.4-2.1,1.2v0.3c0,0.8,0.6,1.3,1.6,1.3C367.1,616.7,368,616,368,615.2z"/>
        <path class="st4" d="M372,605.8h1.3v7.5h0.1l1.3-1.4l2.3-2.5h1.6l-3.1,3.3l3.4,5h-1.6l-2.7-4.2l-1.2,1.3v2.9H372V605.8z"/>
        <path class="st4" d="M380.3,606.7v-0.2c0-0.4,0.2-0.7,0.8-0.7c0.5,0,0.8,0.3,0.8,0.7v0.2c0,0.4-0.2,0.7-0.8,0.7
				C380.6,607.4,380.3,607.1,380.3,606.7z M380.5,609.3h1.3v8.3h-1.3V609.3z"/>
        <path class="st4" d="M384.5,617.6v-8.3h1.3v1.3h0.1c0.4-0.9,1.1-1.5,2.3-1.5c1.7,0,2.8,1.2,2.8,3.2v5.3h-1.3v-5.1
				c0-1.5-0.6-2.2-1.9-2.2c-1,0-2,0.5-2,1.6v5.7H384.5z"/>
        <path class="st4" d="M396.5,621c-2.6,0-3.6-0.7-3.6-2c0-0.9,0.5-1.4,1.3-1.6v-0.2c-0.5-0.2-0.7-0.6-0.7-1.2
				c0-0.8,0.6-1.2,1.4-1.4v-0.1c-1-0.5-1.6-1.4-1.6-2.5c0-1.7,1.2-2.8,3.1-2.8c0.6,0,1.1,0.1,1.6,0.3v-0.1c0-0.6,0.3-1.1,1-1.1h1.2
				v1.1h-1.6v0.5c0.6,0.5,0.9,1.2,0.9,2.1c0,1.7-1.2,2.8-3.1,2.8c-0.3,0-0.6,0-0.8-0.1c-0.5,0.1-1.1,0.4-1.1,0.9
				c0,0.5,0.5,0.6,1.3,0.6h1.8c2,0,2.9,0.8,2.9,2.2C400.5,620.2,399.2,621,396.5,621z M397.6,617.5h-2.8c-0.5,0.2-0.8,0.6-0.8,1.1
				c0,0.7,0.5,1.3,1.8,1.3h1.2c1.4,0,2.3-0.4,2.3-1.3C399.3,618,398.9,617.5,397.6,617.5z M398.2,612.2v-0.4c0-1.1-0.7-1.6-1.8-1.6
				c-1.1,0-1.8,0.5-1.8,1.6v0.4c0,1.1,0.7,1.6,1.8,1.6C397.5,613.8,398.2,613.3,398.2,612.2z"/>
      </g>
    </g>
  </g>
</svg>