<svg xmlns="http://www.w3.org/2000/svg" xmlns:xlink="http://www.w3.org/1999/xlink" width="681" height="681" viewBox="0 0 681 681">
  <defs>
    <style type="text/css">@import url('https://fonts.googleapis.com/css?family=M+PLUS+Rounded+1c');</style>


    <style>
      .cls-1, .cls-6, .cls-7 {
        fill: #fff;
      }

      .cls-1 {
        stroke: #707070;
      }

      .cls-2 {
        clip-path: url(#clip-dao_intro);
      }

      .cls-3 {
        clip-path: url(#clip-path);
      }

      .cls-12, .cls-4, .cls-9 {
        fill: none;
      }

      .cls-5 {
        fill: #26b036;
      }

      .cls-5, .cls-9 {
        stroke: #fff;
      }

      .cls-6 {
        font-size: 19px;
      }

      .cls-6, .cls-7 {
        font-family: 'M PLUS Rounded 1c', sans-serif;
        font-weight: 200;
      }

      .cls-7 {
        font-size: 233px;
        opacity: 0.383;
      }

      .cls-8 {
        fill: rgba(255,255,255,0.56);
        font-size: 12px;
        font-family: 'M PLUS Rounded 1c', sans-serif;
        font-weight: 300;
      }

      .cls-10, .cls-11 {
        stroke: none;
      }

      .cls-11 {
        fill: rgba(255,255,255,0.5);
      }
    </style>
    <clipPath id="clip-path">
      <path id="Subtraction_1" data-name="Subtraction 1" class="cls-1" d="M-8894-1335h-537v-495h537v495Zm-322.167-65v37h119v-37ZM-9360.9-1712.186l-12.655,34.77,29.129,10.6,12.655-34.769-29.129-10.6Zm393.521-16.587h0l-23.212,15.657,20.688,30.674,23.212-15.657-20.688-30.674Z" transform="translate(9503 1960)"/>
    </clipPath>
    <clipPath id="clip-dao_intro">
      <rect width="681" height="681"/>
    </clipPath>
  </defs>
  <g id="dao_intro" class="cls-2">
    <g id="Mask_Group_2" data-name="Mask Group 2" class="cls-3">
      <g id="Path_22" data-name="Path 22" class="cls-4" transform="translate(125.835 141)">
        <path class="cls-10" d="M220,0C341.5,0,440,98.5,440,220S341.5,440,220,440,0,341.5,0,220,98.5,0,220,0Z"/>
        <path class="cls-11" d="M 220 1 C 205.1405029296875 1 190.2906036376953 2.4969482421875 175.8628234863281 5.4493408203125 C 161.8022155761719 8.326568603515625 147.9717712402344 12.61972045898438 134.755615234375 18.209716796875 C 121.7792358398438 23.69827270507812 109.2633361816406 30.49166870117188 97.55572509765625 38.40115356445312 C 85.95904541015625 46.2357177734375 75.05404663085938 55.233154296875 65.14361572265625 65.14361572265625 C 55.233154296875 75.05404663085938 46.2357177734375 85.95904541015625 38.40115356445312 97.55572509765625 C 30.49166870117188 109.2633361816406 23.69827270507812 121.7792358398438 18.209716796875 134.755615234375 C 12.61972045898438 147.9717712402344 8.326568603515625 161.8022155761719 5.4493408203125 175.8628234863281 C 2.4969482421875 190.2906036376953 1 205.1405029296875 1 220 C 1 234.8594970703125 2.4969482421875 249.7093963623047 5.4493408203125 264.1371459960938 C 8.326568603515625 278.1977844238281 12.61972045898438 292.0282287597656 18.209716796875 305.244384765625 C 23.69827270507812 318.2207641601562 30.49166870117188 330.7366638183594 38.40115356445312 342.4442749023438 C 46.2357177734375 354.0409545898438 55.233154296875 364.9459533691406 65.14361572265625 374.8563842773438 C 75.05404663085938 384.766845703125 85.95904541015625 393.7642822265625 97.55572509765625 401.5988464355469 C 109.2633361816406 409.5083312988281 121.7792358398438 416.3017272949219 134.755615234375 421.790283203125 C 147.9717712402344 427.3802795410156 161.8022155761719 431.6734313964844 175.8628234863281 434.5506591796875 C 190.2906036376953 437.5030517578125 205.1405029296875 439 220 439 C 234.8594970703125 439 249.7093963623047 437.5030517578125 264.1371459960938 434.5506591796875 C 278.1977844238281 431.6734313964844 292.0282287597656 427.3802795410156 305.244384765625 421.790283203125 C 318.2207641601562 416.3017272949219 330.7366638183594 409.5083312988281 342.4442749023438 401.5988464355469 C 354.0409545898438 393.7642822265625 364.9459533691406 384.766845703125 374.8563842773438 374.8563842773438 C 384.766845703125 364.9459533691406 393.7642822265625 354.0409545898438 401.5988464355469 342.4442749023438 C 409.5083312988281 330.7366638183594 416.3017272949219 318.2207641601562 421.790283203125 305.244384765625 C 427.3802795410156 292.0282287597656 431.6734313964844 278.1977844238281 434.5506591796875 264.1371459960938 C 437.5030517578125 249.7093963623047 439 234.8594970703125 439 220 C 439 205.1405029296875 437.5030517578125 190.2906036376953 434.5506591796875 175.8628234863281 C 431.6734313964844 161.8022155761719 427.3802795410156 147.9717712402344 421.790283203125 134.755615234375 C 416.3017272949219 121.7792358398438 409.5083312988281 109.2633361816406 401.5988464355469 97.55572509765625 C 393.7642822265625 85.95904541015625 384.766845703125 75.05404663085938 374.8563842773438 65.14361572265625 C 364.9459533691406 55.233154296875 354.0409545898438 46.2357177734375 342.4442749023438 38.40115356445312 C 330.7366638183594 30.49166870117188 318.2207641601562 23.69827270507812 305.244384765625 18.209716796875 C 292.0282287597656 12.61972045898438 278.1977844238281 8.326568603515625 264.1371459960938 5.4493408203125 C 249.7093963623047 2.4969482421875 234.8594970703125 1 220 1 M 220 0 C 341.5026245117188 0 440 98.49737548828125 440 220 C 440 341.5026245117188 341.5026245117188 440 220 440 C 98.49737548828125 440 0 341.5026245117188 0 220 C 0 98.49737548828125 98.49737548828125 0 220 0 Z"/>
      </g>
    </g>
    <g id="Ellipse_1" data-name="Ellipse 1" class="cls-5" transform="translate(280.835 85)">
      <circle class="cls-10" cx="65" cy="65" r="65"/>
      <circle class="cls-12" cx="65" cy="65" r="64.5"/>
    </g>
    <g id="Ellipse_2" data-name="Ellipse 2" class="cls-5" transform="translate(470.835 401)">
      <circle class="cls-10" cx="65" cy="65" r="65"/>
      <circle class="cls-12" cx="65" cy="65" r="64.5"/>
    </g>
    <g id="Ellipse_3" data-name="Ellipse 3" class="cls-5" transform="translate(90.835 401)">
      <circle class="cls-10" cx="65" cy="65" r="65"/>
      <circle class="cls-12" cx="65" cy="65" r="64.5"/>
    </g>
    <text id="Contributor" class="cls-6" transform="translate(345.835 156)"><tspan x="-25.16" y="0">貢献者</tspan></text>
    <text id="Bisq_Network" data-name="Bisq Network" class="cls-6" transform="translate(537.835 473)"><tspan x="-57.00" y="0">Bisq Network</tspan></text>
    <text id="Trader" class="cls-6" transform="translate(155.835 473)"><tspan x="-27.512" y="0">取引者</tspan></text>
    <g id="Group_25" data-name="Group 25" transform="translate(-737.165 -91)">
      <text id="_" data-name="₿" class="cls-7" transform="translate(1076.776 523.439)"><tspan x="-70.482" y="0">₿</tspan></text>
      <g id="Group_3" data-name="Group 3" transform="translate(1068.674 456.685)">
        <g id="Ellipse_14" data-name="Ellipse 14" class="cls-5" transform="translate(7.326 7.315)">
          <circle class="cls-10" cx="48.775" cy="48.775" r="48.775"/>
          <circle class="cls-12" cx="48.775" cy="48.775" r="48.275"/>
        </g>
        <text id="BSQ_COLORED_BITCOIN" data-name="BSQ
COLORED
BITCOIN" class="cls-8" transform="translate(56.326 45.315)"><tspan x="-11.418" y="0">BSQ</tspan><tspan x="-26.028" y="15">COLORED</tspan><tspan x="-23.79" y="30">BITCOIN</tspan></text>
      </g>
    </g>
    <path id="Path_3" data-name="Path 3" class="cls-9" d="M4596.828,610.088h18.285v17.163" transform="translate(-4117.165 -91)"/>
    <path id="Path_4" data-name="Path 4" class="cls-9" d="M4596.828,610.088h18.382v18.387" transform="matrix(-0.469, -0.883, 0.883, -0.469, 2038.532, 4512.624)"/>
    <path id="Path_5" data-name="Path 5" class="cls-9" d="M4596.828,610.088h16.315V625.4" transform="matrix(-0.469, 0.883, -0.883, -0.469, 2835.459, -3381.042)"/>
    <text id="Compensation" class="cls-6" transform="translate(530.835 259)"><tspan x="-12.448" y="0">補償</tspan></text>
    <text id="Improvements" class="cls-6" transform="translate(142.835 271)"><tspan x="-12.296" y="3">改善</tspan></text>
    <text id="Trading_Fees" data-name="Trading Fees" class="cls-6" transform="translate(345.835 583)"><tspan x="-64.264" y="0">トレード手数料</tspan></text>
  </g>
</svg>
