<svg xmlns="http://www.w3.org/2000/svg" xmlns:xlink="http://www.w3.org/1999/xlink" width="610" height="406" viewBox="0 0 610 406">
  <defs>
    <style type="text/css">@import url('https://fonts.googleapis.com/css?family=M+PLUS+Rounded+1c');</style>

    <style>
      .cls-1 {
        clip-path: url(#clip-dao_why);
      }

      .cls-11, .cls-14, .cls-2, .cls-3, .cls-4 {
        fill: none;
      }

      .cls-11, .cls-2, .cls-3, .cls-4, .cls-5 {
        stroke: #fff;
      }

      .cls-2 {
        stroke-width: 0.7px;
      }

      .cls-4, .cls-5 {
        stroke-dasharray: 3;
      }

      .cls-5, .cls-6 {
        fill: #26b036;
      }

      .cls-6 {
        stroke: #ffa5a5;
        stroke-width: 2px;
        stroke-dasharray: 4;
      }

      .cls-10, .cls-12, .cls-7, .cls-9 {
        fill: #fff;
      }

      .cls-7, .cls-8 {
        font-size: 18px;
        font-family: 'M PLUS Rounded 1c', sans-serif;
        font-weight: 300;
      }

      .cls-8 {
        fill: #ffa5a5;
      }

      .cls-9 {
        font-size: 22px;
        font-family: 'M PLUS Rounded 1c', sans-serif;
        font-weight: 200;
      }

      .cls-10 {
        font-size: 14px;
        opacity: 0.278;
      }

      .cls-10, .cls-12 {
        font-family: 'M PLUS Rounded 1c', sans-serif;
      }

      .cls-11 {
        stroke-width: 0.5px;
      }

      .cls-12 {
        font-size: 8px;
        letter-spacing: -0.03em;
        opacity: 0.421;
      }

      .cls-13 {
        stroke: none;
      }
    </style>
    <clipPath id="clip-dao_why">
      <rect width="610" height="406"/>
    </clipPath>
  </defs>
  <g id="dao_why" class="cls-1">
    <g id="Group_42" data-name="Group 42" transform="translate(-38.5 -131)">
      <g id="Group_37" data-name="Group 37" transform="translate(266 77)">
        <line id="Line_25" data-name="Line 25" class="cls-2" x1="44" y2="37" transform="translate(139.5 246.5)"/>
        <line id="Line_27" data-name="Line 27" class="cls-2" x2="41.665" y2="24" transform="translate(140.5 296.5)"/>
        <line id="Line_27-2" data-name="Line 27" class="cls-2" y1="24" x2="40.665" transform="translate(141.5 332.5)"/>
        <line id="Line_27-3" data-name="Line 27" class="cls-2" x2="72" y2="22" transform="translate(140.5 365.5)"/>
        <line id="Line_27-4" data-name="Line 27" class="cls-2" x2="20" y2="45" transform="translate(197.5 336.5)"/>
        <line id="Line_20" data-name="Line 20" class="cls-2" y2="44.976" transform="translate(130.5 302.512)"/>
        <line id="Line_25-2" data-name="Line 25" class="cls-2" x2="48.51" y2="40" transform="translate(260.5 243.5)"/>
        <line id="Line_27-5" data-name="Line 27" class="cls-2" y2="56" transform="translate(256.5 258.5)"/>
        <path id="Path_40" data-name="Path 40" class="cls-2" d="M-1,0,0,56" transform="translate(191.5 258.5)"/>
        <line id="Line_27-6" data-name="Line 27" class="cls-2" x1="41.665" y2="24" transform="translate(266.338 296.5)"/>
        <line id="Line_27-7" data-name="Line 27" class="cls-2" x1="40.665" y1="24" transform="translate(266.322 332.5)"/>
        <line id="Line_27-8" data-name="Line 27" class="cls-2" x1="72" y2="22" transform="translate(235.676 365.5)"/>
        <line id="Line_27-9" data-name="Line 27" class="cls-2" x1="20" y2="45" transform="translate(230.131 336.5)"/>
        <line id="Line_20-2" data-name="Line 20" class="cls-2" y2="44.976" transform="translate(318.49 302.512)"/>
        <line id="Line_28" data-name="Line 28" class="cls-2" x1="42" transform="translate(203.5 324.5)"/>
      </g>
      <g id="Ellipse_46" data-name="Ellipse 46" class="cls-3" transform="translate(408.438 379.512) rotate(180)">
        <circle class="cls-13" cx="11.974" cy="11.974" r="11.974"/>
        <circle class="cls-14" cx="11.974" cy="11.974" r="11.474"/>
      </g>
      <g id="Ellipse_47" data-name="Ellipse 47" class="cls-3" transform="translate(408.438 448.79) rotate(180)">
        <circle class="cls-13" cx="11.974" cy="11.974" r="11.974"/>
        <circle class="cls-14" cx="11.974" cy="11.974" r="11.474"/>
      </g>
      <g id="Ellipse_48" data-name="Ellipse 48" class="cls-3" transform="translate(501.664 480.436) rotate(180)">
        <circle class="cls-13" cx="11.974" cy="11.974" r="11.974"/>
        <circle class="cls-14" cx="11.974" cy="11.974" r="11.474"/>
      </g>
      <g id="Ellipse_40" data-name="Ellipse 40" class="cls-3" transform="translate(470.019 415.434) rotate(180)">
        <circle class="cls-13" cx="11.974" cy="11.974" r="11.974"/>
        <circle class="cls-14" cx="11.974" cy="11.974" r="11.474"/>
      </g>
      <g id="Ellipse_41" data-name="Ellipse 41" class="cls-3" transform="translate(572.552 355.564)">
        <circle class="cls-13" cx="11.974" cy="11.974" r="11.974"/>
        <circle class="cls-14" cx="11.974" cy="11.974" r="11.474"/>
      </g>
      <g id="Ellipse_42" data-name="Ellipse 42" class="cls-3" transform="translate(572.552 424.842)">
        <circle class="cls-13" cx="11.974" cy="11.974" r="11.974"/>
        <circle class="cls-14" cx="11.974" cy="11.974" r="11.474"/>
      </g>
      <g id="Ellipse_43" data-name="Ellipse 43" class="cls-3" transform="translate(510.578 391.486)">
        <circle class="cls-13" cx="11.974" cy="11.974" r="11.974"/>
        <circle class="cls-14" cx="11.974" cy="11.974" r="11.474"/>
      </g>
      <g id="Group_36" data-name="Group 36" transform="translate(-48 77)">
        <line id="Line_25-3" data-name="Line 25" class="cls-2" x1="44" y2="37" transform="translate(139.5 246.5)"/>
        <path id="Path_39" data-name="Path 39" class="cls-2" d="M14.365,0-.519,51.224" transform="translate(196.165 264.813)"/>
        <line id="Line_27-10" data-name="Line 27" class="cls-2" x2="41.665" y2="24" transform="translate(140.5 296.5)"/>
        <line id="Line_27-11" data-name="Line 27" class="cls-2" y1="24" x2="40.665" transform="translate(141.5 332.5)"/>
        <line id="Line_27-12" data-name="Line 27" class="cls-2" x2="72" y2="22" transform="translate(140.5 365.5)"/>
        <line id="Line_27-13" data-name="Line 27" class="cls-2" x2="20" y2="45" transform="translate(197.5 336.5)"/>
        <line id="Line_20-3" data-name="Line 20" class="cls-2" y2="44.976" transform="translate(130.5 302.512)"/>
        <line id="Line_25-4" data-name="Line 25" class="cls-2" x2="48.51" y2="40" transform="translate(260.5 243.5)"/>
        <line id="Line_27-14" data-name="Line 27" class="cls-2" x2="15.303" y2="50.687" transform="translate(237.197 264.813)"/>
        <line id="Line_27-15" data-name="Line 27" class="cls-2" x1="41.665" y2="24" transform="translate(266.338 296.5)"/>
        <line id="Line_27-16" data-name="Line 27" class="cls-2" x1="40.665" y1="24" transform="translate(266.322 332.5)"/>
        <line id="Line_27-17" data-name="Line 27" class="cls-2" x1="72" y2="22" transform="translate(235.676 365.5)"/>
        <line id="Line_27-18" data-name="Line 27" class="cls-2" x1="20" y2="45" transform="translate(230.131 336.5)"/>
        <line id="Line_20-4" data-name="Line 20" class="cls-2" y2="44.976" transform="translate(318.49 302.512)"/>
        <line id="Line_28-2" data-name="Line 28" class="cls-2" x1="42" transform="translate(203.5 324.5)"/>
      </g>
      <g id="Ellipse_29" data-name="Ellipse 29" class="cls-4" transform="translate(70.835 241)">
        <circle class="cls-13" cx="16" cy="16" r="16"/>
        <circle class="cls-14" cx="16" cy="16" r="15.5"/>
      </g>
      <g id="Ellipse_32" data-name="Ellipse 32" class="cls-4" transform="translate(246.835 241)">
        <circle class="cls-13" cx="16" cy="16" r="16"/>
        <circle class="cls-14" cx="16" cy="16" r="15.5"/>
      </g>
      <g id="Ellipse_30" data-name="Ellipse 30" class="cls-4" transform="translate(157 190)">
        <circle class="cls-13" cx="17" cy="17" r="17"/>
        <circle class="cls-14" cx="17" cy="17" r="16.5"/>
      </g>
      <g id="Ellipse_32-2" data-name="Ellipse 32" class="cls-3" transform="translate(94.438 379.512) rotate(180)">
        <circle class="cls-13" cx="11.974" cy="11.974" r="11.974"/>
        <circle class="cls-14" cx="11.974" cy="11.974" r="11.474"/>
      </g>
      <g id="Ellipse_35" data-name="Ellipse 35" class="cls-3" transform="translate(94.438 448.79) rotate(180)">
        <circle class="cls-13" cx="11.974" cy="11.974" r="11.974"/>
        <circle class="cls-14" cx="11.974" cy="11.974" r="11.474"/>
      </g>
      <g id="Ellipse_36" data-name="Ellipse 36" class="cls-3" transform="translate(187.664 480.436) rotate(180)">
        <circle class="cls-13" cx="11.974" cy="11.974" r="11.974"/>
        <circle class="cls-14" cx="11.974" cy="11.974" r="11.474"/>
      </g>
      <g id="Ellipse_31" data-name="Ellipse 31" class="cls-3" transform="translate(156.019 415.434) rotate(180)">
        <circle class="cls-13" cx="11.974" cy="11.974" r="11.974"/>
        <circle class="cls-14" cx="11.974" cy="11.974" r="11.474"/>
      </g>
      <g id="Ellipse_32-3" data-name="Ellipse 32" class="cls-3" transform="translate(258.552 355.564)">
        <circle class="cls-13" cx="11.974" cy="11.974" r="11.974"/>
        <circle class="cls-14" cx="11.974" cy="11.974" r="11.474"/>
      </g>
      <g id="Ellipse_35-2" data-name="Ellipse 35" class="cls-3" transform="translate(258.552 424.842)">
        <circle class="cls-13" cx="11.974" cy="11.974" r="11.974"/>
        <circle class="cls-14" cx="11.974" cy="11.974" r="11.474"/>
      </g>
      <g id="Ellipse_31-2" data-name="Ellipse 31" class="cls-3" transform="translate(196.578 391.486)">
        <circle class="cls-13" cx="11.974" cy="11.974" r="11.974"/>
        <circle class="cls-14" cx="11.974" cy="11.974" r="11.474"/>
      </g>
      <line id="Line_29" data-name="Line 29" class="cls-2" x1="49.593" y2="27.492" transform="translate(249.526 292.5) rotate(180)"/>
      <line id="Line_31" data-name="Line 31" class="cls-2" x1="48.563" y1="26" transform="translate(100.5 265.5)"/>
      <g id="Group_38" data-name="Group 38" transform="translate(7.068 70.343)">
        <line id="Line_34" data-name="Line 34" class="cls-2" x1="21.957" y2="38.451" transform="translate(453.476 204.696)"/>
        <line id="Line_35" data-name="Line 35" class="cls-2" x1="47.734" transform="translate(457.196 249.658)"/>
        <line id="Line_45" data-name="Line 45" class="cls-2" x1="47.734" transform="translate(457.196 137.658)"/>
        <line id="Line_39" data-name="Line 39" class="cls-2" x1="47.734" transform="translate(423.669 196.03)"/>
        <line id="Line_41" data-name="Line 41" class="cls-2" x1="47.734" transform="translate(491.92 196.03)"/>
        <g id="Group_40" data-name="Group 40">
          <line id="Line_36" data-name="Line 36" class="cls-2" x2="23.406" y2="38.451" transform="translate(485.864 204.696)"/>
          <line id="Line_37" data-name="Line 37" class="cls-2" x1="21.957" y2="38.451" transform="translate(453.476 204.696)"/>
          <line id="Line_40" data-name="Line 40" class="cls-2" x1="21.957" y2="38.451" transform="translate(521.727 204.696)"/>
          <line id="Line_38" data-name="Line 38" class="cls-2" x2="25.89" y2="37.856" transform="translate(416.81 205.291)"/>
        </g>
        <g id="Group_41" data-name="Group 41" transform="translate(0 -59)">
          <line id="Line_36-2" data-name="Line 36" class="cls-2" y1="38.451" x2="23.406" transform="translate(485.864 204.696)"/>
          <line id="Line_37-2" data-name="Line 37" class="cls-2" x1="21.957" y1="38.451" transform="translate(453.476 204.696)"/>
          <line id="Line_40-2" data-name="Line 40" class="cls-2" x1="24.252" y1="37.989" transform="translate(519.432 205.157)"/>
          <line id="Line_38-2" data-name="Line 38" class="cls-2" y1="37.394" x2="23.622" transform="translate(417.81 205.157)"/>
        </g>
        <g id="Ellipse_38" data-name="Ellipse 38" class="cls-5" transform="translate(498.801 233.972)">
          <circle class="cls-13" cx="15.843" cy="15.843" r="15.843"/>
          <circle class="cls-14" cx="15.843" cy="15.843" r="15.343"/>
        </g>
        <g id="Ellipse_57" data-name="Ellipse 57" class="cls-5" transform="translate(498.801 121.972)">
          <circle class="cls-13" cx="15.843" cy="15.843" r="15.843"/>
          <circle class="cls-14" cx="15.843" cy="15.843" r="15.343"/>
        </g>
        <g id="Ellipse_49" data-name="Ellipse 49" class="cls-5" transform="translate(431.229 233.972)">
          <circle class="cls-13" cx="15.843" cy="15.843" r="15.843"/>
          <circle class="cls-14" cx="15.843" cy="15.843" r="15.343"/>
        </g>
        <g id="Ellipse_58" data-name="Ellipse 58" class="cls-5" transform="translate(431.229 121.972)">
          <circle class="cls-13" cx="15.843" cy="15.843" r="15.843"/>
          <circle class="cls-14" cx="15.843" cy="15.843" r="15.343"/>
        </g>
        <g id="Ellipse_50" data-name="Ellipse 50" class="cls-5" transform="translate(532.178 179.657)">
          <circle class="cls-13" cx="15.843" cy="15.843" r="15.843"/>
          <circle class="cls-14" cx="15.843" cy="15.843" r="15.343"/>
        </g>
        <g id="Ellipse_39" data-name="Ellipse 39" class="cls-5" transform="translate(463.777 179.657)">
          <circle class="cls-13" cx="15.843" cy="15.843" r="15.843"/>
          <circle class="cls-14" cx="15.843" cy="15.843" r="15.343"/>
        </g>
        <g id="Ellipse_51" data-name="Ellipse 51" class="cls-5" transform="translate(397.238 179.657)">
          <circle class="cls-13" cx="15.843" cy="15.843" r="15.843"/>
          <circle class="cls-14" cx="15.843" cy="15.843" r="15.343"/>
        </g>
      </g>
      <line id="Line_32" data-name="Line 32" class="cls-2" y1="30.526" x2="0.719" transform="translate(173.5 223.974)"/>
      <g id="Ellipse_33" data-name="Ellipse 33" class="cls-6" transform="translate(127 250)">
        <circle class="cls-13" cx="47" cy="47" r="47"/>
        <circle class="cls-14" cx="47" cy="47" r="46"/>
      </g>
      <text id="Decentralized_Governance" data-name="Decentralized Governance" class="cls-7" transform="translate(487.835 511)"><tspan x="-103.588" y="0">非中央集権型のガバナンス</tspan></text>
      <text id="Centralized_Point_of_Failure" data-name="Centralized Point of Failure" class="cls-8" transform="translate(173.835 511)"><tspan x="-99.118" y="0">中央集権化された障害点</tspan></text>
      <text id="Without_DAO" data-name="Without DAO" class="cls-9" transform="translate(174 166)"><tspan x="-42.599" y="0">DAOなし</tspan></text>
      <text id="With_DAO" data-name="With DAO" class="cls-9" transform="translate(485 166)"><tspan x="-38.133" y="0">DAOあり</tspan></text>
      <text id="Contributors" class="cls-7" transform="translate(329 298)"><tspan x="-20.136" y="0">貢献者</tspan></text>
      <text id="Traders" class="cls-7" transform="translate(329 351)"><tspan x="-20.136" y="0">取引者</tspan></text>
      <text id="_" data-name="₿" class="cls-10" transform="translate(213 347)"><tspan x="-2.894" y="0">₿</tspan></text>
      <text id="_2" data-name="₿" class="cls-10" transform="translate(177 359)"><tspan x="-2.894" y="0">₿</tspan></text>
      <text id="_3" data-name="₿" class="cls-10" transform="translate(138 349)"><tspan x="-2.894" y="0">₿</tspan></text>
      <line id="Line_42" data-name="Line 42" class="cls-11" x2="69" transform="translate(40.5 320.5)"/>
      <line id="Line_44" data-name="Line 44" class="cls-11" x2="79" transform="translate(567.5 320.5)"/>
      <line id="Line_43" data-name="Line 43" class="cls-11" x2="162" transform="translate(247.5 320.5)"/>
      <text id="BSQ" class="cls-12" transform="translate(437 361)"><tspan x="-7.528" y="0">BSQ</tspan></text>
      <text id="BSQ-2" data-name="BSQ" class="cls-12" transform="translate(489 338)"><tspan x="-7.528" y="0">BSQ</tspan></text>
      <text id="BSQ-3" data-name="BSQ" class="cls-12" transform="translate(543 361)"><tspan x="-7.528" y="0">BSQ</tspan></text>
    </g>
  </g>
</svg>
