<svg xmlns="http://www.w3.org/2000/svg" width="780" height="360" viewBox="0 0 780 360" role="img" aria-labelledby="title desc">
  <title id="title">BTC fee revenue, May 2025 through April 2026</title>
  <desc id="desc">Bar chart showing monthly BTC fee revenue: May 2025 0.93 BTC, June 2025 0.78 BTC, July 2025 1.07 BTC, August 2025 0.94 BTC, September 2025 1.48 BTC, October 2025 1.54 BTC, November 2025 1.26 BTC, December 2025 0.72 BTC, January 2026 0.80 BTC, February 2026 0.94 BTC, March 2026 1.07 BTC, and April 2026 1.06 BTC.</desc>
  <rect width="780" height="360" fill="#ffffff"/>
  <text x="70" y="32" fill="#1f2a24" font-family="Arial, sans-serif" font-size="20" font-weight="700">Reported BTC fee revenue</text>
  <text x="70" y="51" fill="#53645b" font-family="Arial, sans-serif" font-size="13">Corrected BTC fee series, May 2025-April 2026</text>

  <line x1="70" y1="60" x2="750" y2="60" stroke="#d9e1dc" stroke-width="1"/>
  <line x1="70" y1="116.3" x2="750" y2="116.3" stroke="#d9e1dc" stroke-width="1"/>
  <line x1="70" y1="172.5" x2="750" y2="172.5" stroke="#d9e1dc" stroke-width="1"/>
  <line x1="70" y1="228.8" x2="750" y2="228.8" stroke="#d9e1dc" stroke-width="1"/>
  <line x1="70" y1="285" x2="750" y2="285" stroke="#9fb0a8" stroke-width="1"/>

  <line x1="70" y1="60" x2="70" y2="285" stroke="#9fb0a8" stroke-width="1"/>
  <text x="51" y="64" fill="#53645b" font-family="Arial, sans-serif" font-size="12" text-anchor="end">1.6</text>
  <text x="51" y="120.3" fill="#53645b" font-family="Arial, sans-serif" font-size="12" text-anchor="end">1.2</text>
  <text x="51" y="176.5" fill="#53645b" font-family="Arial, sans-serif" font-size="12" text-anchor="end">0.8</text>
  <text x="51" y="232.8" fill="#53645b" font-family="Arial, sans-serif" font-size="12" text-anchor="end">0.4</text>
  <text x="51" y="289" fill="#53645b" font-family="Arial, sans-serif" font-size="12" text-anchor="end">0</text>
  <text x="30" y="175" fill="#53645b" font-family="Arial, sans-serif" font-size="12" text-anchor="middle" transform="rotate(-90 30 175)">BTC</text>

  <line x1="70" y1="137.4" x2="750" y2="137.4" stroke="#f0a43a" stroke-width="2" stroke-dasharray="6 5"/>
  <rect x="572" y="118" width="166" height="22" rx="3" fill="#ffffff"/>
  <text x="582" y="133" fill="#8a5a0a" font-family="Arial, sans-serif" font-size="12">12-month avg: 1.05 BTC</text>

  <g fill="#35a66b">
    <rect x="86" y="154.6" width="36" height="130.4"/>
    <rect x="141" y="175.6" width="36" height="109.4"/>
    <rect x="196" y="134.4" width="36" height="150.6"/>
    <rect x="251" y="153.4" width="36" height="131.6"/>
    <rect x="306" y="76.7" width="36" height="208.3"/>
    <rect x="361" y="68.2" width="36" height="216.8"/>
    <rect x="416" y="107.4" width="36" height="177.6"/>
    <rect x="471" y="183.9" width="36" height="101.1"/>
    <rect x="526" y="172.3" width="36" height="112.7"/>
    <rect x="581" y="152.8" width="36" height="132.2"/>
    <rect x="636" y="134.2" width="36" height="150.8"/>
    <rect x="691" y="135.4" width="36" height="149.6"/>
  </g>

  <g fill="#1f2a24" font-family="Arial, sans-serif" font-size="12" text-anchor="middle">
    <text x="104" y="146.6">0.93</text>
    <text x="159" y="167.6">0.78</text>
    <text x="214" y="126.4">1.07</text>
    <text x="269" y="145.4">0.94</text>
    <text x="324" y="68.7">1.48</text>
    <text x="379" y="60.2">1.54</text>
    <text x="434" y="99.4">1.26</text>
    <text x="489" y="175.9">0.72</text>
    <text x="544" y="164.3">0.80</text>
    <text x="599" y="144.8">0.94</text>
    <text x="654" y="126.2">1.07</text>
    <text x="709" y="127.4">1.06</text>
  </g>

  <g fill="#53645b" font-family="Arial, sans-serif" font-size="12" text-anchor="middle">
    <text x="104" y="305">May</text>
    <text x="159" y="305">Jun</text>
    <text x="214" y="305">Jul</text>
    <text x="269" y="305">Aug</text>
    <text x="324" y="305">Sep</text>
    <text x="379" y="305">Oct</text>
    <text x="434" y="305">Nov</text>
    <text x="489" y="305">Dec</text>
    <text x="544" y="305">Jan</text>
    <text x="599" y="305">Feb</text>
    <text x="654" y="305">Mar</text>
    <text x="709" y="305">Apr</text>
  </g>

  <text x="269" y="326" fill="#53645b" font-family="Arial, sans-serif" font-size="12" text-anchor="middle">2025</text>
  <text x="626" y="326" fill="#53645b" font-family="Arial, sans-serif" font-size="12" text-anchor="middle">2026</text>
  <text x="750" y="342" fill="#53645b" font-family="Arial, sans-serif" font-size="11" text-anchor="end">Source: bisq-network/roles issue #111</text>
</svg>
